<svg data-name="Layer 1" xmlns="http://www.w3.org/2000/svg" viewBox="0 0 116.9 113.8"><defs><style>.plane-cls-1{fill:#fff}.plane-cls-2{fill:#b3d57d}</style><mask id="mask" x="0" y="41.5" width="3.8" height="4.5" maskUnits="userSpaceOnUse"><g id="mask-2"><path id="path-1" class="plane-cls-1" d="M0 41.5h3.8v4.4H0v-4.4z"></path></g></mask><mask id="mask-2-2" x="0" y="37.7" width="3.8" height="4.5" maskUnits="userSpaceOnUse"><g id="mask-4"><path id="path-3" class="plane-cls-1" d="M0 37.7h3.8v4.5H0v-4.5z"></path></g></mask><mask id="mask-3" x="33.9" y="109.3" width="3.8" height="4.5" maskUnits="userSpaceOnUse"><g id="mask-6"><path id="path-5" class="plane-cls-1" d="M33.9 109.3h3.9v4.5h-3.9v-4.5z"></path></g></mask><mask id="mask-4-2" x="37.7" y="109.3" width="3.8" height="4.5" maskUnits="userSpaceOnUse"><g id="mask-8"><path id="path-7" class="plane-cls-1" d="M37.7 109.3h3.8v4.5h-3.8v-4.5z"></path></g></mask><mask id="mask-5" x="41.5" y="109.3" width="3.8" height="4.5" maskUnits="userSpaceOnUse"><g id="mask-10"><path id="path-9" class="plane-cls-1" d="M41.5 109.3h3.8v4.5h-3.8v-4.5z"></path></g></mask><mask id="mask-6-2" x="0" y="67.8" width="3.8" height="4.5" maskUnits="userSpaceOnUse"><g id="mask-12"><path id="path-11" class="plane-cls-1" d="M0 67.8h3.8v4.5H0v-4.5z"></path></g></mask><mask id="mask-7" x="0" y="71.6" width="3.8" height="4.5" maskUnits="userSpaceOnUse"><g id="mask-14"><path id="path-13" class="plane-cls-1" d="M0 71.6h3.8v4.5H0v-4.5z"></path></g></mask></defs><g id="Page-1"><g id="Artboard-2-Copy-2"><g id="plane"><path id="Fill-1" class="plane-cls-1" d="M63.8 45.3c-.7-.3-1.4 2-1.5 2.4s-1-2.7-1.8-2.3.8 4.3 1.8 4.3 2.5-4.1 1.5-4.4.4.1 0 0"></path><path id="Fill-3" class="plane-cls-1" d="M75.1 41.5c-.7-.3-1.4 2-1.5 2.4s-1-2.6-1.7-2.3.7 4.4 1.7 4.3 2.5-4.1 1.5-4.4"></path><path id="Fill-5" class="plane-cls-1" d="M75.1 45.3c-.7-.3-1.4 2-1.5 2.4s-1-2.7-1.7-2.3.7 4.3 1.7 4.3 2.5-4.1 1.5-4.4.4.1 0 0"></path><path id="Fill-7" class="plane-cls-1" d="M78.9 45.3c-.7-.3-1.4 2-1.6 2.4s-.9-2.7-1.7-2.3.8 4.3 1.8 4.3 2.4-4.1 1.5-4.4.4.1 0 0"></path><path id="Fill-9" class="plane-cls-1" d="M71.4 41.5c-.8-.3-1.5 2-1.6 2.4s-1-2.6-1.7-2.3.7 4.4 1.7 4.3 2.5-4.1 1.6-4.4"></path><path id="Fill-11" class="plane-cls-1" d="M71.4 45.3c-.8-.3-1.5 2-1.6 2.4s-1-2.7-1.7-2.3.7 4.3 1.7 4.3 2.5-4.1 1.6-4.4"></path><path id="Fill-13" class="plane-cls-1" d="M71.4 37.7c-.8-.2-1.5 2.1-1.6 2.5s-1-2.7-1.7-2.4.7 4.4 1.7 4.3 2.5-4.1 1.6-4.4"></path><path id="Fill-15" class="plane-cls-1" d="M71.4 34c-.8-.3-1.5 2-1.6 2.4s-1-2.7-1.7-2.4.7 4.4 1.7 4.4 2.5-4.1 1.6-4.4"></path><path id="Fill-17" class="plane-cls-1" d="M48.8 3.8c-.8-.3-1.5 2-1.6 2.5s-1-2.7-1.7-2.4.7 4.4 1.7 4.3 2.5-4.1 1.6-4.4"></path><path id="Fill-19" class="plane-cls-1" d="M52.5 34c-.7-.3-1.4 2-1.5 2.4s-1-2.7-1.8-2.4.8 4.4 1.8 4.4 2.4-4.1 1.5-4.4.4.1 0 0"></path><path id="Fill-21" class="plane-cls-1" d="M52.5 30.2c-.7-.3-1.4 2-1.5 2.4s-1-2.6-1.8-2.3.8 4.4 1.8 4.3 2.4-4.1 1.5-4.4"></path><path id="Fill-23" class="plane-cls-1" d="M52.5 26.4c-.7-.2-1.4 2.1-1.5 2.5s-1-2.7-1.8-2.4.8 4.4 1.8 4.3 2.4-4.1 1.5-4.4"></path><path id="Fill-25" class="plane-cls-1" d="M48.8 7.6c-.8-.3-1.5 2-1.6 2.4s-1-2.6-1.7-2.3.7 4.3 1.7 4.3 2.5-4.1 1.6-4.4"></path><path id="Fill-27" class="plane-cls-1" d="M48.8 11.3c-.8-.2-1.5 2.1-1.6 2.5s-1-2.7-1.7-2.4.7 4.4 1.7 4.4 2.5-4.1 1.6-4.5.3.2 0 0"></path><path id="Fill-29" class="plane-cls-1" d="M48.8 22.6c-.8-.2-1.5 2.1-1.6 2.5s-1-2.7-1.7-2.4.7 4.4 1.7 4.4 2.5-4.1 1.6-4.5.3.2 0 0"></path><path id="Fill-31" class="plane-cls-1" d="M48.8 15.1c-.8-.3-1.5 2-1.6 2.5s-1-2.7-1.7-2.4.7 4.4 1.7 4.3 2.5-4.1 1.6-4.4"></path><path id="Fill-33" class="plane-cls-1" d="M48.8 18.9c-.8-.3-1.5 2-1.6 2.4s-1-2.6-1.7-2.3.7 4.3 1.7 4.3 2.5-4.1 1.6-4.4"></path><path id="Fill-35" class="plane-cls-1" d="M60.1 37.7c-.8-.2-1.5 2.1-1.6 2.5s-1-2.7-1.7-2.4.7 4.4 1.7 4.3 2.5-4.1 1.6-4.4"></path><path id="Fill-37" class="plane-cls-1" d="M60.1 41.5c-.8-.3-1.5 2-1.6 2.4s-1-2.6-1.7-2.3.7 4.4 1.7 4.3 2.5-4.1 1.6-4.4"></path><path id="Fill-39" class="plane-cls-1" d="M60.1 45.3c-.8-.3-1.5 2-1.6 2.4s-1-2.7-1.7-2.3.7 4.3 1.7 4.3 2.5-4.1 1.6-4.4"></path><path id="Fill-41" class="plane-cls-1" d="M60.1 30.2c-.8-.3-1.5 2-1.6 2.4s-1-2.6-1.7-2.3.7 4.4 1.7 4.3 2.5-4.1 1.6-4.4"></path><path id="Fill-43" class="plane-cls-1" d="M60.1 22.6c-.8-.2-1.5 2.1-1.6 2.5s-1-2.7-1.7-2.4.7 4.4 1.7 4.4 2.5-4.1 1.6-4.5.3.2 0 0"></path><path id="Fill-45" class="plane-cls-1" d="M60.1 26.4c-.8-.2-1.5 2.1-1.6 2.5s-1-2.7-1.7-2.4.7 4.4 1.7 4.3 2.5-4.1 1.6-4.4"></path><path id="Fill-47" class="plane-cls-1" d="M60.1 34c-.8-.3-1.5 2-1.6 2.4s-1-2.7-1.7-2.4.7 4.4 1.7 4.4 2.5-4.1 1.6-4.4"></path><path id="Fill-49" class="plane-cls-1" d="M56.3 34c-.7-.3-1.4 2-1.6 2.4s-1-2.7-1.7-2.4.8 4.4 1.8 4.4 2.4-4.1 1.5-4.4.4.1 0 0"></path><path id="Fill-51" class="plane-cls-1" d="M56.3 30.2c-.7-.3-1.4 2-1.6 2.4s-1-2.6-1.7-2.3.8 4.4 1.8 4.3 2.4-4.1 1.5-4.4"></path><path id="Fill-53" class="plane-cls-1" d="M56.3 26.4c-.7-.2-1.4 2.1-1.6 2.5s-1-2.7-1.7-2.4.8 4.4 1.8 4.3 2.4-4.1 1.5-4.4"></path><path id="Fill-55" class="plane-cls-1" d="M56.3 37.7c-.7-.2-1.4 2.1-1.6 2.5s-1-2.7-1.7-2.4.8 4.4 1.8 4.3 2.4-4.1 1.5-4.4"></path><path id="Fill-57" class="plane-cls-1" d="M56.3 22.6c-.7-.2-1.4 2.1-1.6 2.5s-1-2.7-1.7-2.4.8 4.4 1.8 4.4 2.4-4.1 1.5-4.5"></path><path id="Fill-59" class="plane-cls-1" d="M56.3 15.1c-.7-.3-1.4 2-1.6 2.5s-1-2.7-1.7-2.4.8 4.4 1.8 4.3 2.4-4.1 1.5-4.4"></path><path id="Fill-61" class="plane-cls-1" d="M56.3 18.9c-.7-.3-1.4 2-1.6 2.4s-1-2.6-1.7-2.3.8 4.3 1.8 4.3 2.4-4.1 1.5-4.4"></path><path id="Fill-63" class="plane-cls-1" d="M67.6 45.3c-.7-.3-1.4 2-1.6 2.4s-1-2.7-1.7-2.3.8 4.3 1.8 4.3 2.4-4.1 1.5-4.4.4.1 0 0"></path><path id="Fill-65" class="plane-cls-1" d="M56.3 41.5c-.7-.3-1.4 2-1.6 2.4s-1-2.6-1.7-2.3.8 4.4 1.8 4.3 2.4-4.1 1.5-4.4"></path><path id="Fill-67" class="plane-cls-1" d="M67.6 41.5c-.7-.3-1.4 2-1.6 2.4s-1-2.6-1.7-2.3.8 4.4 1.8 4.3 2.4-4.1 1.5-4.4"></path><path id="Fill-69" class="plane-cls-1" d="M67.6 30.2c-.7-.3-1.4 2-1.6 2.4s-1-2.6-1.7-2.3.8 4.4 1.8 4.3 2.4-4.1 1.5-4.4"></path><path id="Fill-71" class="plane-cls-1" d="M67.6 34c-.7-.3-1.4 2-1.6 2.4s-1-2.7-1.7-2.4.8 4.4 1.8 4.4 2.4-4.1 1.5-4.4.4.1 0 0"></path><path id="Fill-73" class="plane-cls-1" d="M67.6 37.7c-.7-.2-1.4 2.1-1.6 2.5s-1-2.7-1.7-2.4.8 4.4 1.8 4.3 2.4-4.1 1.5-4.4"></path><path id="Fill-75" class="plane-cls-1" d="M63.8 26.4c-.7-.2-1.4 2.1-1.5 2.5s-1-2.7-1.8-2.4.8 4.4 1.8 4.3 2.5-4.1 1.5-4.4"></path><path id="Fill-77" class="plane-cls-1" d="M63.8 41.5c-.7-.3-1.4 2-1.5 2.4s-1-2.6-1.8-2.3.8 4.4 1.8 4.3 2.5-4.1 1.5-4.4"></path><path id="Fill-79" class="plane-cls-1" d="M63.8 34c-.7-.3-1.4 2-1.5 2.4s-1-2.7-1.8-2.4.8 4.4 1.8 4.4 2.5-4.1 1.5-4.4.4.1 0 0"></path><path id="Fill-81" class="plane-cls-1" d="M63.8 37.7c-.7-.2-1.4 2.1-1.5 2.5s-1-2.7-1.8-2.4.8 4.4 1.8 4.3 2.5-4.1 1.5-4.4"></path><path id="Fill-83" class="plane-cls-1" d="M63.8 30.2c-.7-.3-1.4 2-1.5 2.4s-1-2.6-1.8-2.3.8 4.4 1.8 4.3 2.5-4.1 1.5-4.4"></path><path id="Fill-85" class="plane-cls-1" d="M52.5 22.6c-.7-.2-1.4 2.1-1.5 2.5s-1-2.7-1.8-2.4.8 4.4 1.8 4.4 2.4-4.1 1.5-4.5"></path><path id="Fill-87" class="plane-cls-1" d="M52.5 15.1c-.7-.3-1.4 2-1.5 2.5s-1-2.7-1.8-2.4.8 4.4 1.8 4.3 2.4-4.1 1.5-4.4"></path><path id="Fill-89" class="plane-cls-1" d="M52.5 11.3c-.7-.2-1.4 2.1-1.5 2.5s-1-2.7-1.8-2.4.8 4.4 1.8 4.4 2.4-4.1 1.5-4.5"></path><path id="Fill-91" class="plane-cls-1" d="M52.5 18.9c-.7-.3-1.4 2-1.5 2.4s-1-2.6-1.8-2.3.8 4.3 1.8 4.3 2.4-4.1 1.5-4.4"></path><path id="Fill-93" class="plane-cls-1" d="M45 11.3c-.7-.2-1.5 2.1-1.6 2.5s-1-2.7-1.7-2.4.8 4.4 1.8 4.4 2.4-4.1 1.5-4.5"></path><path id="Fill-95" class="plane-cls-1" d="M45 15.1c-.7-.3-1.5 2-1.6 2.5s-1-2.7-1.7-2.4.8 4.4 1.8 4.3 2.4-4.1 1.5-4.4"></path><path id="Fill-97" class="plane-cls-1" d="M45 7.6c-.7-.3-1.5 2-1.6 2.4s-1-2.6-1.7-2.3.8 4.3 1.8 4.3 2.4-4.1 1.5-4.4"></path><path id="Fill-99" class="plane-cls-1" d="M45 3.8c-.7-.3-1.5 2-1.6 2.5s-1-2.7-1.7-2.4.8 4.4 1.8 4.3 2.4-4.1 1.5-4.4"></path><path id="Fill-101" class="plane-cls-1" d="M41.2 3.8c-.7-.3-1.4 2-1.5 2.5s-1-2.7-1.8-2.4.8 4.4 1.8 4.3 2.4-4.1 1.5-4.4"></path><path id="Fill-103" class="plane-cls-1" d="M11.1 45.3c-.8-.3-1.5 2-1.6 2.4s-1-2.7-1.7-2.3.7 4.3 1.7 4.3 2.5-4.1 1.6-4.4"></path><path id="Fill-105" class="plane-cls-1" d="M11.1 41.5c-.8-.3-1.5 2-1.6 2.4s-1-2.6-1.7-2.3.7 4.4 1.7 4.3 2.5-4.1 1.6-4.4"></path><path id="Fill-107" class="plane-cls-1" d="M7.3 41.5c-.7-.3-1.4 2-1.6 2.4s-.9-2.6-1.7-2.3.8 4.4 1.8 4.3 2.4-4.1 1.5-4.4"></path><path id="Fill-109" class="plane-cls-1" d="M78.9 49c-.7-.2-1.4 2.1-1.6 2.5s-.9-2.7-1.7-2.4.8 4.4 1.8 4.4 2.4-4.2 1.5-4.5"></path><path id="Fill-111" class="plane-cls-1" d="M78.9 56.6c-.7-.3-1.4 2-1.6 2.4s-.9-2.6-1.7-2.3.8 4.3 1.8 4.3 2.4-4.1 1.5-4.4.4.1 0 0"></path><path id="Fill-113" class="plane-cls-1" d="M78.9 60.3c-.7-.2-1.4 2.1-1.6 2.5s-.9-2.7-1.7-2.4.8 4.4 1.8 4.4 2.4-4.2 1.5-4.5"></path><path id="Fill-115" class="plane-cls-1" d="M78.9 63.9c-.7-.2-1.4 2.1-1.6 2.5s-.9-2.7-1.7-2.4.8 4.4 1.8 4.4 2.4-4.1 1.5-4.5"></path><path id="Fill-117" class="plane-cls-1" d="M78.9 52.8c-.7-.3-1.4 2-1.6 2.4s-.9-2.6-1.7-2.3.8 4.4 1.8 4.3 2.4-4.1 1.5-4.4"></path><path id="Fill-119" class="plane-cls-1" d="M82.7 56.6c-.8-.3-1.5 2-1.6 2.4s-1-2.6-1.7-2.3.7 4.3 1.7 4.3 2.5-4.1 1.6-4.4"></path><path id="Fill-121" class="plane-cls-1" d="M82.7 52.8c-.8-.3-1.5 2-1.6 2.4s-1-2.6-1.7-2.3.7 4.4 1.7 4.3 2.5-4.1 1.6-4.4"></path><path id="Fill-123" class="plane-cls-1" d="M82.7 49c-.8-.2-1.5 2.1-1.6 2.5s-1-2.7-1.7-2.4.7 4.4 1.7 4.4 2.5-4.2 1.6-4.5"></path><path id="Fill-125" class="plane-cls-1" d="M67.6 56.6c-.7-.3-1.4 2-1.6 2.4s-1-2.6-1.7-2.3.8 4.3 1.8 4.3 2.4-4.1 1.5-4.4.4.1 0 0"></path><path id="Fill-127" class="plane-cls-1" d="M67.6 49c-.7-.2-1.4 2.1-1.6 2.5s-1-2.7-1.7-2.4.8 4.4 1.8 4.4 2.4-4.2 1.5-4.5"></path><path id="Fill-129" class="plane-cls-1" d="M67.6 52.8c-.7-.3-1.4 2-1.6 2.4s-1-2.6-1.7-2.3.8 4.4 1.8 4.3 2.4-4.1 1.5-4.4"></path><path id="Fill-131" class="plane-cls-1" d="M67.6 67.9c-.7-.3-1.4 2-1.6 2.4s-1-2.6-1.7-2.3.8 4.3 1.8 4.3 2.4-4.1 1.5-4.4.4.1 0 0"></path><path id="Fill-133" class="plane-cls-1" d="M67.6 71.6c-.7-.2-1.4 2.1-1.6 2.5s-1-2.7-1.7-2.4.8 4.4 1.8 4.4 2.4-4.1 1.5-4.5"></path><path id="Fill-135" class="plane-cls-1" d="M67.6 64.1c-.7-.3-1.4 2-1.6 2.5s-1-2.7-1.7-2.4.8 4.4 1.8 4.3 2.4-4.1 1.5-4.4"></path><path id="Fill-137" class="plane-cls-1" d="M67.6 75.4c-.7-.3-1.4 2-1.6 2.5s-1-2.7-1.7-2.4.8 4.4 1.8 4.3 2.4-4.1 1.5-4.4"></path><path id="Fill-139" class="plane-cls-1" d="M67.6 60.3c-.7-.2-1.4 2.1-1.6 2.5s-1-2.7-1.7-2.4.8 4.4 1.8 4.4 2.4-4.2 1.5-4.5"></path><path id="Fill-141" class="plane-cls-1" d="M75.1 60.3c-.7-.2-1.4 2.1-1.5 2.5s-1-2.7-1.7-2.4.7 4.4 1.7 4.4 2.5-4.2 1.5-4.5"></path><path id="Fill-143" class="plane-cls-1" d="M75.1 67.9c-.7-.3-1.4 2-1.5 2.4s-1-2.6-1.7-2.3.7 4.3 1.7 4.3 2.5-4.1 1.5-4.4.4.1 0 0"></path><path id="Fill-145" class="plane-cls-1" d="M75.1 64.1c-.7-.3-1.4 2-1.5 2.5s-1-2.7-1.7-2.4.7 4.4 1.7 4.3 2.5-4.1 1.5-4.4"></path><path id="Fill-147" class="plane-cls-1" d="M75.1 56.6c-.7-.3-1.4 2-1.5 2.4s-1-2.6-1.7-2.3.7 4.3 1.7 4.3 2.5-4.1 1.5-4.4.4.1 0 0"></path><path id="Fill-149" class="plane-cls-1" d="M75.1 49c-.7-.2-1.4 2.1-1.5 2.5s-1-2.7-1.7-2.4.7 4.4 1.7 4.4 2.5-4.2 1.5-4.5"></path><path id="Fill-151" class="plane-cls-1" d="M75.1 52.8c-.7-.3-1.4 2-1.5 2.4s-1-2.6-1.7-2.3.7 4.4 1.7 4.3 2.5-4.1 1.5-4.4"></path><path id="Fill-153" class="plane-cls-1" d="M71.4 49c-.8-.2-1.5 2.1-1.6 2.5s-1-2.7-1.7-2.4.7 4.4 1.7 4.4 2.5-4.2 1.6-4.5"></path><path id="Fill-155" class="plane-cls-1" d="M71.4 52.8c-.8-.3-1.5 2-1.6 2.4s-1-2.6-1.7-2.3.7 4.4 1.7 4.3 2.5-4.1 1.6-4.4"></path><path id="Fill-157" class="plane-cls-1" d="M71.4 71.6c-.8-.2-1.5 2.1-1.6 2.5s-1-2.7-1.7-2.4.7 4.4 1.7 4.4 2.5-4.1 1.6-4.5.3.2 0 0"></path><path id="Fill-159" class="plane-cls-1" d="M71.4 64.1c-.8-.3-1.5 2-1.6 2.5s-1-2.7-1.7-2.4.7 4.4 1.7 4.3 2.5-4.1 1.6-4.4"></path><path id="Fill-161" class="plane-cls-1" d="M71.4 67.9c-.8-.3-1.5 2-1.6 2.4s-1-2.6-1.7-2.3.7 4.3 1.7 4.3 2.5-4.1 1.6-4.4"></path><path id="Fill-163" class="plane-cls-1" d="M71.4 60.3c-.8-.2-1.5 2.1-1.6 2.5s-1-2.7-1.7-2.4.7 4.4 1.7 4.4 2.5-4.2 1.6-4.5.3.2 0 0"></path><path id="Fill-165" class="plane-cls-1" d="M71.4 56.6c-.8-.3-1.5 2-1.6 2.4s-1-2.6-1.7-2.3.7 4.3 1.7 4.3 2.5-4.1 1.6-4.4"></path><path id="Fill-167" class="plane-cls-1" d="M97.8 56.6c-.8-.3-1.5 2-1.6 2.4s-1-2.6-1.7-2.3.7 4.3 1.7 4.3 2.5-4.1 1.6-4.4"></path><path id="Fill-169" class="plane-cls-1" d="M97.8 52.8c-.8-.3-1.5 2-1.6 2.4s-1-2.6-1.7-2.3.7 4.4 1.7 4.3 2.5-4.1 1.6-4.4"></path><path id="Fill-171" class="plane-cls-1" d="M101.5 56.6c-.7-.3-1.4 2-1.5 2.4s-1-2.6-1.8-2.3S99 61 100 61s2.4-4.1 1.5-4.4.4.1 0 0"></path><path id="Fill-173" class="plane-cls-1" d="M101.5 52.8c-.7-.3-1.4 2-1.5 2.4s-1-2.6-1.8-2.3.8 4.4 1.8 4.3 2.4-4.1 1.5-4.4"></path><path id="Fill-175" class="plane-cls-1" d="M86.5 56.6c-.8-.3-1.5 2-1.6 2.4s-1-2.6-1.7-2.3.7 4.3 1.7 4.3 2.5-4.1 1.6-4.4"></path><path id="Fill-177" class="plane-cls-1" d="M86.5 52.8c-.8-.3-1.5 2-1.6 2.4s-1-2.6-1.7-2.3.7 4.4 1.7 4.3 2.5-4.1 1.6-4.4"></path><path id="Fill-179" class="plane-cls-1" d="M94 52.8c-.8-.3-1.5 2-1.6 2.4s-1-2.6-1.7-2.3.7 4.4 1.7 4.3 2.5-4.1 1.6-4.4"></path><path id="Fill-181" class="plane-cls-1" d="M94 56.6c-.8-.2-1.5 2.1-1.6 2.5s-1-2.7-1.7-2.4.7 4.4 1.7 4.3 2.5-4.1 1.6-4.4"></path><path id="Fill-183" class="plane-cls-1" d="M90.2 56.6c-.7-.3-1.4 2-1.6 2.4s-.9-2.6-1.7-2.3.8 4.3 1.8 4.3 2.4-4.1 1.5-4.4.4.1 0 0"></path><path id="Fill-185" class="plane-cls-1" d="M90.2 52.8c-.7-.3-1.4 2-1.6 2.4s-.9-2.6-1.7-2.3.8 4.4 1.8 4.3 2.4-4.1 1.5-4.4"></path><path id="Fill-187" class="plane-cls-1" d="M33.7 56.6c-.8-.3-1.5 2-1.6 2.4s-1-2.6-1.7-2.3.8 4.3 1.8 4.3 2.4-4.1 1.5-4.4.4.1 0 0"></path><path id="Fill-189" class="plane-cls-1" d="M33.7 52.8c-.8-.3-1.5 2-1.6 2.4s-1-2.6-1.7-2.3.8 4.4 1.8 4.3 2.4-4.1 1.5-4.4"></path><path id="Fill-191" class="plane-cls-1" d="M37.5 56.6c-.8-.3-1.5 2-1.6 2.4s-1-2.6-1.7-2.3.7 4.3 1.7 4.3 2.5-4.1 1.6-4.4"></path><path id="Fill-193" class="plane-cls-1" d="M41.2 101.8c-.7-.3-1.4 2-1.5 2.4s-1-2.6-1.8-2.3.8 4.3 1.8 4.3 2.4-4.1 1.5-4.4"></path><path id="Fill-195" class="plane-cls-1" d="M41.2 105.5c-.7-.2-1.4 2.1-1.5 2.5s-1-2.7-1.8-2.4.8 4.4 1.8 4.4 2.4-4.1 1.5-4.5"></path><path id="Fill-197" class="plane-cls-1" d="M41.2 52.8c-.7-.3-1.4 2-1.5 2.4s-1-2.6-1.8-2.3.8 4.4 1.8 4.3 2.4-4.1 1.5-4.4"></path><path id="Fill-199" class="plane-cls-1" d="M37.5 52.8c-.8-.3-1.5 2-1.6 2.4s-1-2.6-1.7-2.3.7 4.4 1.7 4.3 2.5-4.1 1.6-4.4"></path><path id="Fill-201" class="plane-cls-1" d="M41.2 56.6c-.7-.3-1.4 2-1.5 2.4s-1-2.6-1.8-2.3.8 4.3 1.8 4.3 2.4-4.1 1.5-4.4.4.1 0 0"></path><path id="Fill-203" class="plane-cls-1" d="M29.9 56.6c-.7-.3-1.4 2-1.5 2.4s-1-2.6-1.8-2.3.8 4.3 1.8 4.3 2.4-4.1 1.5-4.4.4.1 0 0"></path><path id="Fill-205" class="plane-cls-1" d="M29.9 52.8c-.7-.3-1.4 2-1.5 2.4s-1-2.6-1.8-2.3.8 4.4 1.8 4.3 2.4-4.1 1.5-4.4"></path><path id="Fill-207" class="plane-cls-1" d="M56.3 71.6c-.7-.2-1.4 2.1-1.6 2.5s-1-2.7-1.7-2.4.8 4.4 1.8 4.4 2.4-4.1 1.5-4.5"></path><path id="Fill-209" class="plane-cls-1" d="M56.3 75.4c-.7-.3-1.4 2-1.6 2.5s-1-2.7-1.7-2.4.8 4.4 1.8 4.3 2.4-4.1 1.5-4.4"></path><path id="Fill-211" class="plane-cls-1" d="M56.3 67.9c-.7-.3-1.4 2-1.6 2.4s-1-2.6-1.7-2.3.8 4.3 1.8 4.3 2.4-4.1 1.5-4.4.4.1 0 0"></path><path id="Fill-213" class="plane-cls-1" d="M56.3 79.2c-.7-.3-1.4 2-1.6 2.4s-1-2.6-1.7-2.3.8 4.3 1.8 4.3 2.4-4.1 1.5-4.4.4.1 0 0"></path><path id="Fill-215" class="plane-cls-1" d="M56.3 56.6c-.7-.3-1.4 2-1.6 2.4s-1-2.6-1.7-2.3.8 4.3 1.8 4.3 2.4-4.1 1.5-4.4.4.1 0 0"></path><path id="Fill-217" class="plane-cls-1" d="M56.3 82.9c-.7-.2-1.4 2.1-1.6 2.5s-1-2.7-1.7-2.4.8 4.4 1.8 4.4 2.4-4.1 1.5-4.5"></path><path id="Fill-219" class="plane-cls-1" d="M56.3 52.8c-.7-.3-1.4 2-1.6 2.4s-1-2.6-1.7-2.3.8 4.4 1.8 4.3 2.4-4.1 1.5-4.4"></path><path id="Fill-221" class="plane-cls-1" d="M56.3 90.5c-.7-.3-1.4 2-1.6 2.4s-1-2.6-1.7-2.3.8 4.3 1.8 4.3 2.4-4.1 1.5-4.4"></path><path id="Fill-223" class="plane-cls-1" d="M56.3 86.7c-.7-.3-1.4 2-1.6 2.5s-1-2.7-1.7-2.4.8 4.4 1.8 4.3 2.4-4.1 1.5-4.4"></path><path id="Fill-225" class="plane-cls-1" d="M52.5 86.7c-.7-.3-1.4 2-1.5 2.5s-1-2.7-1.8-2.4.8 4.4 1.8 4.3 2.4-4.1 1.5-4.4"></path><path id="Fill-227" class="plane-cls-1" d="M52.5 52.8c-.7-.3-1.4 2-1.5 2.4s-1-2.6-1.8-2.3.8 4.4 1.8 4.3 2.4-4.1 1.5-4.4"></path><path id="Fill-229" class="plane-cls-1" d="M52.5 56.6c-.7-.3-1.4 2-1.5 2.4s-1-2.6-1.8-2.3S50 61 51 61s2.4-4.1 1.5-4.4.4.1 0 0"></path><path id="Fill-231" class="plane-cls-1" d="M52.5 75.4c-.7-.3-1.4 2-1.5 2.5s-1-2.7-1.8-2.4.8 4.4 1.8 4.3 2.4-4.1 1.5-4.4"></path><path id="Fill-233" class="plane-cls-1" d="M52.5 79.2c-.7-.3-1.4 2-1.5 2.4s-1-2.6-1.8-2.3.8 4.3 1.8 4.3 2.4-4.1 1.5-4.4.4.1 0 0"></path><path id="Fill-235" class="plane-cls-1" d="M52.5 82.9c-.7-.2-1.4 2.1-1.5 2.5s-1-2.7-1.8-2.4.8 4.4 1.8 4.4 2.4-4.1 1.5-4.5"></path><path id="Fill-237" class="plane-cls-1" d="M63.8 56.6c-.7-.3-1.4 2-1.5 2.4s-1-2.6-1.8-2.3.8 4.3 1.8 4.3 2.5-4.1 1.5-4.4.4.1 0 0"></path><path id="Fill-239" class="plane-cls-1" d="M63.8 64.1c-.7-.3-1.4 2-1.5 2.5s-1-2.7-1.8-2.4.8 4.4 1.8 4.3 2.5-4.1 1.5-4.4"></path><path id="Fill-241" class="plane-cls-1" d="M63.8 52.8c-.7-.3-1.4 2-1.5 2.4s-1-2.6-1.8-2.3.8 4.4 1.8 4.3 2.5-4.1 1.5-4.4"></path><path id="Fill-243" class="plane-cls-1" d="M63.8 60.3c-.7-.2-1.4 2.1-1.5 2.5s-1-2.7-1.8-2.4.8 4.4 1.8 4.4 2.5-4.2 1.5-4.5"></path><path id="Fill-245" class="plane-cls-1" d="M63.8 49c-.7-.2-1.4 2.1-1.5 2.5s-1-2.7-1.8-2.4.8 4.4 1.8 4.4 2.5-4.2 1.5-4.5"></path><path id="Fill-247" class="plane-cls-1" d="M63.8 82.9c-.7-.2-1.4 2.1-1.5 2.5s-1-2.7-1.8-2.4.8 4.4 1.8 4.4 2.5-4.1 1.5-4.5"></path><path id="Fill-249" class="plane-cls-1" d="M63.8 79.2c-.7-.3-1.4 2-1.5 2.4s-1-2.6-1.8-2.3.8 4.3 1.8 4.3 2.5-4.1 1.5-4.4.4.1 0 0"></path><path id="Fill-251" class="plane-cls-1" d="M63.8 67.9c-.7-.3-1.4 2-1.5 2.4s-1-2.6-1.8-2.3.8 4.3 1.8 4.3 2.5-4.1 1.5-4.4.4.1 0 0"></path><path id="Fill-253" class="plane-cls-1" d="M63.8 71.6c-.7-.2-1.4 2.1-1.5 2.5s-1-2.7-1.8-2.4.8 4.4 1.8 4.4 2.5-4.1 1.5-4.5"></path><path id="Fill-255" class="plane-cls-1" d="M63.8 75.4c-.7-.3-1.4 2-1.5 2.5s-1-2.7-1.8-2.4.8 4.4 1.8 4.3 2.5-4.1 1.5-4.4"></path><path id="Fill-257" class="plane-cls-1" d="M60.1 79.2c-.8-.3-1.5 2-1.6 2.4s-1-2.6-1.7-2.3.7 4.3 1.7 4.3 2.5-4.1 1.6-4.4"></path><path id="Fill-259" class="plane-cls-1" d="M60.1 83c-.8-.3-1.5 2-1.6 2.5s-1-2.7-1.7-2.4.7 4.4 1.7 4.3 2.5-4.1 1.6-4.4"></path><path id="Fill-261" class="plane-cls-1" d="M60.1 86.7c-.8-.3-1.5 2-1.6 2.5s-1-2.7-1.7-2.4.7 4.4 1.7 4.3 2.5-4.1 1.6-4.4"></path><path id="Fill-263" class="plane-cls-1" d="M60.1 75.4c-.8-.3-1.5 2-1.6 2.5s-1-2.7-1.7-2.4.7 4.4 1.7 4.3 2.5-4.1 1.6-4.4"></path><path id="Fill-265" class="plane-cls-1" d="M60.1 71.6c-.8-.2-1.5 2.1-1.6 2.5s-1-2.7-1.7-2.4.7 4.4 1.7 4.4 2.5-4.1 1.6-4.5.3.2 0 0"></path><path id="Fill-267" class="plane-cls-1" d="M60.1 64.1c-.8-.3-1.5 2-1.6 2.5s-1-2.7-1.7-2.4.7 4.4 1.7 4.3 2.5-4.1 1.6-4.4"></path><path id="Fill-269" class="plane-cls-1" d="M60.1 67.9c-.8-.3-1.5 2-1.6 2.4s-1-2.6-1.7-2.3.7 4.3 1.7 4.3 2.5-4.1 1.6-4.4"></path><path id="Fill-271" class="plane-cls-1" d="M60.1 60.3c-.8-.2-1.5 2.1-1.6 2.5s-1-2.7-1.7-2.4.7 4.4 1.7 4.4 2.5-4.2 1.6-4.5.3.2 0 0"></path><path id="Fill-273" class="plane-cls-1" d="M60.1 56.6c-.8-.3-1.5 2-1.6 2.4s-1-2.6-1.7-2.3.7 4.3 1.7 4.3 2.5-4.1 1.6-4.4"></path><path id="Fill-275" class="plane-cls-1" d="M60.1 52.8c-.8-.3-1.5 2-1.6 2.4s-1-2.6-1.7-2.3.7 4.4 1.7 4.3 2.5-4.1 1.6-4.4"></path><path id="Fill-277" class="plane-cls-1" d="M60.1 49c-.8-.2-1.5 2.1-1.6 2.5s-1-2.7-1.7-2.4.7 4.4 1.7 4.4 2.5-4.2 1.6-4.5"></path><path id="Fill-279" class="plane-cls-1" d="M48.8 82.9c-.8-.2-1.5 2.1-1.6 2.5s-1-2.7-1.7-2.4.7 4.4 1.7 4.4 2.5-4.1 1.6-4.5.3.2 0 0"></path><path id="Fill-281" class="plane-cls-1" d="M45 94.2c-.7-.2-1.5 2.1-1.6 2.5s-1-2.7-1.7-2.4.8 4.4 1.8 4.4 2.4-4.1 1.5-4.5"></path><path id="Fill-283" class="plane-cls-1" d="M45 98c-.7-.2-1.5 2.1-1.6 2.5s-1-2.7-1.7-2.4.8 4.4 1.8 4.3 2.4-4.1 1.5-4.4"></path><path id="Fill-285" class="plane-cls-1" d="M45 101.8c-.7-.3-1.5 2-1.6 2.4s-1-2.6-1.7-2.3.8 4.3 1.8 4.3 2.4-4.1 1.5-4.4"></path><path id="Fill-287" class="plane-cls-1" d="M45 105.5c-.7-.2-1.5 2.1-1.6 2.5s-1-2.7-1.7-2.4.8 4.4 1.8 4.4 2.4-4.1 1.5-4.5.4.2 0 0"></path><path id="Fill-289" class="plane-cls-1" d="M45 56.6c-.7-.3-1.5 2-1.6 2.4s-1-2.6-1.7-2.3.8 4.3 1.8 4.3 2.4-4.1 1.5-4.4.4.1 0 0"></path><path id="Fill-291" class="plane-cls-1" d="M52.5 90.5c-.7-.3-1.4 2-1.5 2.4s-1-2.6-1.8-2.3.8 4.3 1.8 4.3 2.4-4.1 1.5-4.4"></path><path id="Fill-293" class="plane-cls-1" d="M45 52.8c-.7-.3-1.5 2-1.6 2.4s-1-2.6-1.7-2.3.8 4.4 1.8 4.3 2.4-4.1 1.5-4.4"></path><path id="Fill-295" class="plane-cls-1" d="M48.8 56.6c-.8-.3-1.5 2-1.6 2.4s-1-2.6-1.7-2.3.7 4.3 1.7 4.3 2.5-4.1 1.6-4.4"></path><path id="Fill-297" class="plane-cls-1" d="M48.8 52.8c-.8-.3-1.5 2-1.6 2.4s-1-2.6-1.7-2.3.7 4.4 1.7 4.3 2.5-4.1 1.6-4.4"></path><path id="Fill-299" class="plane-cls-1" d="M52.5 94.2c-.7-.2-1.4 2.1-1.5 2.5s-1-2.7-1.8-2.4.8 4.4 1.8 4.4 2.4-4.1 1.5-4.5"></path><path id="Fill-301" class="plane-cls-1" d="M52.5 98.2c-.7-.3-1.4 2-1.5 2.4s-1-2.6-1.8-2.3.8 4.3 1.8 4.3 2.4-4.1 1.5-4.4"></path><path id="Fill-303" class="plane-cls-1" d="M48.8 86.7c-.8-.3-1.5 2-1.6 2.5s-1-2.7-1.7-2.4.7 4.4 1.7 4.3 2.5-4.1 1.6-4.4"></path><path id="Fill-305" class="plane-cls-1" d="M48.8 90.5c-.8-.3-1.5 2-1.6 2.4s-1-2.6-1.7-2.3.7 4.3 1.7 4.3 2.5-4.1 1.6-4.4"></path><path id="Fill-307" class="plane-cls-1" d="M48.8 94.2c-.8-.2-1.5 2.1-1.6 2.5s-1-2.7-1.7-2.4.7 4.4 1.7 4.4 2.5-4.1 1.6-4.5.3.2 0 0"></path><path id="Fill-309" class="plane-cls-1" d="M48.8 98c-.8-.2-1.5 2.1-1.6 2.5s-1-2.7-1.7-2.4.7 4.4 1.7 4.3 2.5-4.1 1.6-4.4"></path><path id="Fill-311" class="plane-cls-1" d="M48.8 101.8c-.8-.3-1.5 2-1.6 2.4s-1-2.6-1.7-2.3.7 4.3 1.7 4.3 2.5-4.1 1.6-4.4"></path><path id="Fill-313" class="plane-cls-1" d="M109.1 52.8c-.8-.3-1.5 2-1.6 2.4s-1-2.6-1.7-2.3.7 4.4 1.7 4.3 2.5-4.1 1.6-4.4"></path><path id="Fill-315" class="plane-cls-1" d="M109.1 56.6c-.8-.3-1.5 2-1.6 2.4s-1-2.6-1.7-2.3.7 4.3 1.7 4.3 2.5-4.1 1.6-4.4"></path><path id="Fill-317" class="plane-cls-1" d="M105.3 52.8c-.8-.3-1.5 2-1.6 2.4s-1-2.6-1.7-2.3.8 4.4 1.8 4.3 2.4-4.1 1.5-4.4"></path><path id="Fill-319" class="plane-cls-1" d="M105.3 56.6c-.8-.3-1.5 2-1.6 2.4s-1-2.6-1.7-2.3.8 4.3 1.8 4.3 2.4-4.1 1.5-4.4.4.1 0 0"></path><path id="Fill-321" class="plane-cls-1" d="M112.8 56.6c-.7-.3-1.4 2-1.5 2.4s-1-2.6-1.8-2.3.8 4.3 1.8 4.3 2.4-4.1 1.5-4.4.4.1 0 0"></path><path id="Fill-323" class="plane-cls-1" d="M112.8 52.8c-.7-.3-1.4 2-1.5 2.4s-1-2.6-1.8-2.3.8 4.4 1.8 4.3 2.4-4.1 1.5-4.4"></path><path id="Fill-325" class="plane-cls-1" d="M22.4 56.6c-.8-.3-1.5 2-1.6 2.4s-1-2.6-1.7-2.3.8 4.3 1.7 4.3 2.5-4.1 1.6-4.4"></path><path id="Fill-327" class="plane-cls-1" d="M22.4 52.8c-.8-.3-1.5 2-1.6 2.4s-1-2.6-1.7-2.3.8 4.4 1.7 4.3 2.5-4.1 1.6-4.4"></path><path id="Fill-329" class="plane-cls-1" d="M18.6 52.8c-.7-.3-1.4 2-1.6 2.4s-.9-2.6-1.7-2.3.8 4.4 1.8 4.3 2.4-4.1 1.5-4.4"></path><path id="Fill-331" class="plane-cls-1" d="M18.6 56.6c-.7-.3-1.4 2-1.6 2.4s-.9-2.6-1.7-2.3.8 4.3 1.8 4.3 2.4-4.1 1.5-4.4.4.1 0 0"></path><path id="Fill-333" class="plane-cls-1" d="M26.2 56.6c-.8-.3-1.5 2-1.6 2.4s-1-2.6-1.7-2.3.7 4.3 1.7 4.3 2.5-4.1 1.6-4.4"></path><path id="Fill-335" class="plane-cls-1" d="M26.2 52.8c-.8-.3-1.5 2-1.6 2.4s-1-2.6-1.7-2.3.7 4.4 1.7 4.3 2.5-4.1 1.6-4.4"></path><path id="Fill-337" class="plane-cls-1" d="M11.1 52.8c-.8-.3-1.5 2-1.6 2.4s-1-2.6-1.7-2.3.7 4.4 1.7 4.3 2.5-4.1 1.6-4.4"></path><path id="Fill-339" class="plane-cls-1" d="M11.1 56.6c-.8-.3-1.5 2-1.6 2.4s-1-2.6-1.7-2.3.7 4.3 1.7 4.3 2.5-4.1 1.6-4.4"></path><path id="Fill-341" class="plane-cls-1" d="M11.1 60.3c-.8-.2-1.5 2.1-1.6 2.5s-1-2.7-1.7-2.4.7 4.4 1.7 4.4 2.5-4.2 1.6-4.5.3.2 0 0"></path><path id="Fill-343" class="plane-cls-1" d="M11.1 64.4c-.8-.3-1.5 2-1.6 2.4s-1-2.6-1.7-2.3.7 4.4 1.7 4.3 2.5-4.1 1.6-4.4"></path><path id="Fill-345" class="plane-cls-1" d="M11.1 49c-.8-.2-1.5 2.1-1.6 2.5s-1-2.7-1.7-2.4.7 4.4 1.7 4.4 2.5-4.2 1.6-4.5"></path><path id="Fill-347" class="plane-cls-1" d="M11.1 67.9c-.8-.3-1.5 2-1.6 2.4s-1-2.6-1.7-2.3.7 4.3 1.7 4.3 2.5-4.1 1.6-4.4"></path><path id="Fill-349" class="plane-cls-1" d="M7.3 67.9c-.7-.3-1.4 2-1.6 2.4S4.8 67.7 4 68s.8 4.3 1.8 4.3 2.4-4.1 1.5-4.4.4.1 0 0"></path><path id="Fill-351" class="plane-cls-1" d="M14.9 56.6c-.8-.3-1.5 2-1.6 2.4s-1-2.6-1.7-2.3.7 4.3 1.7 4.3 2.5-4.1 1.6-4.4"></path><path id="Fill-353" class="plane-cls-1" d="M14.9 60.3c-.8-.2-1.5 2.1-1.6 2.5s-1-2.7-1.7-2.4.7 4.4 1.7 4.4 2.5-4.2 1.6-4.5.3.2 0 0"></path><path id="Fill-355" class="plane-cls-1" d="M14.9 52.8c-.8-.3-1.5 2-1.6 2.4s-1-2.6-1.7-2.3.7 4.4 1.7 4.3 2.5-4.1 1.6-4.4"></path><path id="Fill-357" class="plane-cls-2" d="M75.1 37.7c-.7-.2-1.4 2.1-1.5 2.5s-1-2.7-1.7-2.4.7 4.4 1.7 4.3 2.5-4.1 1.5-4.4"></path><path id="Fill-359" class="plane-cls-2" d="M75.1 34c-.7-.3-1.4 2-1.5 2.4s-1-2.7-1.7-2.4.7 4.4 1.7 4.4 2.5-4.1 1.5-4.4.4.1 0 0"></path><path id="Fill-361" class="plane-cls-2" d="M71.4 30.2c-.8-.3-1.5 2-1.6 2.4s-1-2.6-1.7-2.3.7 4.4 1.7 4.3 2.5-4.1 1.6-4.4"></path><path id="Fill-363" class="plane-cls-2" d="M78.9 41.5c-.7-.3-1.4 2-1.6 2.4s-.9-2.6-1.7-2.3.8 4.4 1.8 4.3 2.4-4.1 1.5-4.4"></path><path id="Fill-365" class="plane-cls-2" d="M82.7 45.3c-.8-.3-1.5 2-1.6 2.4s-1-2.7-1.7-2.3.7 4.3 1.7 4.3 2.5-4.1 1.6-4.4"></path><path id="Fill-367" class="plane-cls-2" d="M48.8 0c-.8-.2-1.5 2.1-1.6 2.5s-1-2.7-1.7-2.4.7 4.4 1.7 4.4S49.7.4 48.8 0s.3.2 0 0"></path><path id="Fill-369" class="plane-cls-2" d="M52.5 37.7c-.7-.2-1.4 2.1-1.5 2.5s-1-2.7-1.8-2.4.8 4.4 1.8 4.3 2.4-4.1 1.5-4.4"></path><path id="Fill-371" class="plane-cls-2" d="M52.5 41.5c-.7-.3-1.4 2-1.5 2.4s-1-2.6-1.8-2.3.8 4.4 1.8 4.3 2.4-4.1 1.5-4.4"></path><path id="Fill-373" class="plane-cls-2" d="M48.8 30.2c-.8-.3-1.5 2-1.6 2.4s-1-2.6-1.7-2.3.7 4.4 1.7 4.3 2.5-4.1 1.6-4.4"></path><path id="Fill-375" class="plane-cls-2" d="M48.8 34c-.8-.3-1.5 2-1.6 2.4s-1-2.7-1.7-2.4.7 4.4 1.7 4.4 2.5-4.1 1.6-4.4"></path><path id="Fill-377" class="plane-cls-2" d="M48.8 26.4c-.8-.2-1.5 2.1-1.6 2.5s-1-2.7-1.7-2.4.7 4.4 1.7 4.3 2.5-4.1 1.6-4.4"></path><path id="Fill-379" class="plane-cls-2" d="M60.1 15.1c-.8-.3-1.5 2-1.6 2.5s-1-2.7-1.7-2.4.7 4.4 1.7 4.3 2.5-4.1 1.6-4.4"></path><path id="Fill-381" class="plane-cls-2" d="M60.1 18.9c-.8-.3-1.5 2-1.6 2.4s-1-2.6-1.7-2.3.7 4.3 1.7 4.3 2.5-4.1 1.6-4.4"></path><path id="Fill-383" class="plane-cls-2" d="M56.3 11.3c-.7-.2-1.4 2.1-1.6 2.5s-1-2.7-1.7-2.4.8 4.4 1.8 4.4 2.4-4.1 1.5-4.5"></path><path id="Fill-385" class="plane-cls-2" d="M67.6 26.4c-.7-.2-1.4 2.1-1.6 2.5s-1-2.7-1.7-2.4.8 4.4 1.8 4.3 2.4-4.1 1.5-4.4"></path><path id="Fill-387" class="plane-cls-2" d="M63.8 22.6c-.7-.2-1.4 2.1-1.5 2.5s-1-2.7-1.8-2.4.8 4.4 1.8 4.4 2.5-4.1 1.5-4.5"></path><path id="Fill-389" class="plane-cls-2" d="M52.5 7.6c-.7-.3-1.4 2-1.5 2.4s-1-2.6-1.8-2.3S50 12 51 12s2.4-4.1 1.5-4.4.4.1 0 0"></path><path id="Fill-391" class="plane-cls-2" d="M52.5 3.8c-.7-.3-1.4 2-1.5 2.5s-1-2.7-1.8-2.4.8 4.4 1.8 4.3 2.4-4.1 1.5-4.4"></path><path id="Fill-393" class="plane-cls-2" d="M56.3 45.3c-.7-.3-1.4 2-1.6 2.4s-1-2.7-1.7-2.3.8 4.3 1.8 4.3 2.4-4.1 1.5-4.4.4.1 0 0"></path><path id="Fill-395" class="plane-cls-2" d="M37.5 3.8c-.8-.3-1.5 2-1.6 2.5s-1-2.7-1.7-2.4.7 4.4 1.7 4.3 2.5-4.1 1.6-4.4"></path><path id="Fill-397" class="plane-cls-2" d="M37.5 0c-.8-.2-1.5 2.1-1.6 2.5s-1-2.7-1.7-2.4.7 4.4 1.7 4.4S38.4.4 37.5 0s.3.2 0 0"></path><path id="Fill-399" class="plane-cls-2" d="M45 18.9c-.7-.3-1.5 2-1.6 2.4s-1-2.6-1.7-2.3.8 4.3 1.8 4.3 2.4-4.1 1.5-4.4"></path><path id="Fill-401" class="plane-cls-2" d="M45 22.6c-.7-.2-1.5 2.1-1.6 2.5s-1-2.7-1.7-2.4.8 4.4 1.8 4.4 2.4-4.1 1.5-4.5"></path><path id="Fill-403" class="plane-cls-2" d="M45 0c-.7-.2-1.5 2.1-1.6 2.5s-1-2.7-1.7-2.4.8 4.4 1.8 4.4S45.9.4 45 0"></path><path id="Fill-405" class="plane-cls-2" d="M41.2 0c-.7-.2-1.4 2.1-1.5 2.5s-1-2.7-1.8-2.4.8 4.4 1.8 4.4S42.1.4 41.2 0"></path><path id="Fill-407" class="plane-cls-2" d="M41.2 7.6c-.7-.3-1.4 2-1.5 2.4s-1-2.6-1.8-2.3.8 4.3 1.8 4.3 2.4-4.1 1.5-4.4.4.1 0 0"></path><path id="Fill-409" class="plane-cls-2" d="M41.2 11.3c-.7-.2-1.4 2.1-1.5 2.5s-1-2.7-1.8-2.4.8 4.4 1.8 4.4 2.4-4.1 1.5-4.5"></path><path id="Fill-411" class="plane-cls-2" d="M41.2 15.1c-.7-.3-1.4 2-1.5 2.5s-1-2.7-1.8-2.4.8 4.4 1.8 4.3 2.4-4.1 1.5-4.4"></path><g mask="url(#mask)" id="Group-415"><path id="Fill-413" class="plane-cls-2" d="M3.6 41.5c-.8-.3-1.5 2-1.6 2.4S1 41.3.3 41.6 1 46 2 45.9s2.5-4.1 1.6-4.4"></path></g><g mask="url(#mask-2-2)" id="Group-418"><path id="Fill-416" class="plane-cls-2" d="M3.6 37.7c-.8-.2-1.5 2.1-1.6 2.5S1 37.5.3 37.8 1 42.2 2 42.1s2.5-4.1 1.6-4.4"></path></g><path id="Fill-419" class="plane-cls-2" d="M14.9 41.5c-.8-.3-1.5 2-1.6 2.4s-1-2.6-1.7-2.3.7 4.4 1.7 4.3 2.5-4.1 1.6-4.4"></path><path id="Fill-421" class="plane-cls-2" d="M14.9 45.3c-.8-.3-1.5 2-1.6 2.4s-1-2.7-1.7-2.3.7 4.3 1.7 4.3 2.5-4.1 1.6-4.4"></path><path id="Fill-423" class="plane-cls-2" d="M7.3 37.7c-.7-.2-1.4 2.1-1.6 2.5s-.9-2.7-1.7-2.4.8 4.4 1.8 4.3 2.4-4.1 1.5-4.4"></path><path id="Fill-425" class="plane-cls-2" d="M7.3 45.3c-.7-.3-1.4 2-1.6 2.4S4.8 45 4 45.4s.8 4.3 1.8 4.3 2.4-4.1 1.5-4.4.4.1 0 0"></path><path id="Fill-427" class="plane-cls-2" d="M11.1 37.7c-.8-.2-1.5 2.1-1.6 2.5s-1-2.7-1.7-2.4.7 4.4 1.7 4.3 2.5-4.1 1.6-4.4"></path><path id="Fill-429" class="plane-cls-2" d="M78.9 67.9c-.7-.3-1.4 2-1.6 2.4s-.9-2.6-1.7-2.3.8 4.3 1.8 4.3 2.4-4.1 1.5-4.4.4.1 0 0"></path><path id="Fill-431" class="plane-cls-2" d="M82.7 60.3c-.8-.2-1.5 2.1-1.6 2.5s-1-2.7-1.7-2.4.7 4.4 1.7 4.4 2.5-4.2 1.6-4.5.3.2 0 0"></path><path id="Fill-433" class="plane-cls-2" d="M82.7 64.1c-.8-.3-1.5 2-1.6 2.5s-1-2.7-1.7-2.4.7 4.4 1.7 4.3 2.5-4.1 1.6-4.4"></path><path id="Fill-435" class="plane-cls-2" d="M67.6 79.2c-.7-.3-1.4 2-1.6 2.4s-1-2.6-1.7-2.3.8 4.3 1.8 4.3 2.4-4.1 1.5-4.4.4.1 0 0"></path><path id="Fill-437" class="plane-cls-2" d="M75.1 71.6c-.7-.2-1.4 2.1-1.5 2.5s-1-2.7-1.7-2.4.7 4.4 1.7 4.4 2.5-4.1 1.5-4.5"></path><path id="Fill-439" class="plane-cls-2" d="M71.4 75.4c-.8-.3-1.5 2-1.6 2.4s-1-2.7-1.7-2.3.7 4.3 1.7 4.3 2.5-4.1 1.6-4.4"></path><path id="Fill-441" class="plane-cls-2" d="M97.8 60.3c-.8-.2-1.5 2.1-1.6 2.5s-1-2.7-1.7-2.4.7 4.4 1.7 4.4 2.5-4.2 1.6-4.5.3.2 0 0"></path><path id="Fill-443" class="plane-cls-2" d="M97.8 49c-.8-.2-1.5 2.1-1.6 2.5s-1-2.7-1.7-2.4.7 4.4 1.7 4.4 2.5-4.2 1.6-4.5"></path><path id="Fill-445" class="plane-cls-2" d="M101.5 60.3c-.7-.2-1.4 2.1-1.5 2.5s-1-2.7-1.8-2.4.8 4.4 1.8 4.4 2.4-4.2 1.5-4.5"></path><path id="Fill-447" class="plane-cls-2" d="M101.5 49c-.7-.2-1.4 2.1-1.5 2.5s-1-2.7-1.8-2.4.8 4.4 1.8 4.4 2.4-4.2 1.5-4.5"></path><path id="Fill-449" class="plane-cls-2" d="M86.5 60.3c-.8-.2-1.5 2.1-1.6 2.5s-1-2.7-1.7-2.4.7 4.4 1.7 4.4 2.5-4.2 1.6-4.5.3.2 0 0"></path><path id="Fill-451" class="plane-cls-2" d="M86.5 49c-.8-.2-1.5 2.1-1.6 2.5s-1-2.7-1.7-2.4.7 4.4 1.7 4.4 2.5-4.2 1.6-4.5"></path><path id="Fill-453" class="plane-cls-2" d="M94 60.3c-.8-.2-1.5 2.1-1.6 2.5s-1-2.7-1.7-2.4.7 4.4 1.7 4.4 2.5-4.2 1.6-4.5.3.2 0 0"></path><path id="Fill-455" class="plane-cls-2" d="M94 49c-.8-.2-1.5 2.1-1.6 2.5s-1-2.7-1.7-2.4.7 4.4 1.7 4.4 2.5-4.2 1.6-4.5"></path><path id="Fill-457" class="plane-cls-2" d="M90.2 60.3c-.7-.2-1.4 2.1-1.6 2.5s-.9-2.7-1.7-2.4.8 4.4 1.8 4.4 2.4-4.2 1.5-4.5"></path><path id="Fill-459" class="plane-cls-2" d="M90.2 49c-.7-.2-1.4 2.1-1.6 2.5s-.9-2.7-1.7-2.4.8 4.4 1.8 4.4 2.4-4.2 1.5-4.5"></path><path id="Fill-461" class="plane-cls-2" d="M37.5 60.3c-.8-.2-1.5 2.1-1.6 2.5s-1-2.7-1.7-2.4.7 4.4 1.7 4.4 2.5-4.2 1.6-4.5.3.2 0 0"></path><g mask="url(#mask-3)" id="Group-465"><path id="Fill-463" class="plane-cls-2" d="M37.5 109.3c-.8-.2-1.5 2.1-1.6 2.5s-1-2.7-1.7-2.4.7 4.4 1.7 4.3 2.5-4.1 1.6-4.4"></path></g><path id="Fill-466" class="plane-cls-2" d="M37.5 105.5c-.8-.2-1.5 2.1-1.6 2.5s-1-2.7-1.7-2.4.7 4.4 1.7 4.4 2.5-4.1 1.6-4.5.3.2 0 0"></path><path id="Fill-468" class="plane-cls-2" d="M37.5 101.8c-.8-.3-1.5 2-1.6 2.4s-1-2.6-1.7-2.3.7 4.3 1.7 4.3 2.5-4.1 1.6-4.4"></path><path id="Fill-470" class="plane-cls-2" d="M33.7 49c-.8-.2-1.5 2.1-1.6 2.5s-1-2.7-1.7-2.4.8 4.4 1.8 4.4 2.4-4.2 1.5-4.5"></path><path id="Fill-472" class="plane-cls-2" d="M33.7 60.3c-.8-.2-1.5 2.1-1.6 2.5s-1-2.7-1.7-2.4.8 4.4 1.8 4.4 2.4-4.2 1.5-4.5.4.2 0 0"></path><path id="Fill-474" class="plane-cls-2" d="M41.2 98c-.7-.2-1.4 2.1-1.5 2.5s-1-2.7-1.8-2.4.8 4.4 1.8 4.3 2.4-4.1 1.5-4.4"></path><g mask="url(#mask-4-2)" id="Group-478"><path id="Fill-476" class="plane-cls-2" d="M41.2 109.3c-.7-.2-1.4 2.1-1.5 2.5s-1-2.7-1.8-2.4.8 4.4 1.8 4.3 2.4-4.1 1.5-4.4"></path></g><path id="Fill-479" class="plane-cls-2" d="M41.2 60.3c-.7-.2-1.4 2.1-1.5 2.5s-1-2.7-1.8-2.4.8 4.4 1.8 4.4 2.4-4.2 1.5-4.5"></path><path id="Fill-481" class="plane-cls-2" d="M41.2 49c-.7-.2-1.4 2.1-1.5 2.5s-1-2.7-1.8-2.4.8 4.4 1.8 4.4 2.4-4.2 1.5-4.5"></path><path id="Fill-483" class="plane-cls-2" d="M41.2 94.2c-.7-.2-1.4 2.1-1.5 2.5s-1-2.7-1.8-2.4.8 4.4 1.8 4.4 2.4-4.1 1.5-4.5"></path><path id="Fill-485" class="plane-cls-2" d="M37.5 49c-.8-.2-1.5 2.1-1.6 2.5s-1-2.7-1.7-2.4.7 4.4 1.7 4.4 2.5-4.2 1.6-4.5"></path><path id="Fill-487" class="plane-cls-2" d="M14.9 49c-.8-.2-1.5 2.1-1.6 2.5s-1-2.7-1.7-2.4.7 4.4 1.7 4.4 2.5-4.2 1.6-4.5"></path><path id="Fill-489" class="plane-cls-2" d="M29.9 60.3c-.7-.2-1.4 2.1-1.5 2.5s-1-2.7-1.8-2.4.8 4.4 1.8 4.4 2.4-4.2 1.5-4.5"></path><path id="Fill-491" class="plane-cls-2" d="M29.9 49c-.7-.2-1.4 2.1-1.5 2.5s-1-2.7-1.8-2.4.8 4.4 1.8 4.4 2.4-4.2 1.5-4.5"></path><path id="Fill-493" class="plane-cls-2" d="M56.3 64.1c-.7-.3-1.4 2-1.6 2.5s-1-2.7-1.7-2.4.8 4.4 1.8 4.3 2.4-4.1 1.5-4.4"></path><path id="Fill-495" class="plane-cls-2" d="M56.3 60.3c-.7-.2-1.4 2.1-1.6 2.5s-1-2.7-1.7-2.4.8 4.4 1.8 4.4 2.4-4.2 1.5-4.5"></path><path id="Fill-497" class="plane-cls-2" d="M56.3 98c-.7-.2-1.4 2.1-1.6 2.5s-1-2.7-1.7-2.4.8 4.4 1.8 4.3 2.4-4.1 1.5-4.4"></path><path id="Fill-499" class="plane-cls-2" d="M56.3 94.2c-.7-.2-1.4 2.1-1.6 2.5s-1-2.7-1.7-2.4.8 4.4 1.8 4.4 2.4-4.1 1.5-4.5"></path><path id="Fill-501" class="plane-cls-2" d="M56.3 49c-.7-.2-1.4 2.1-1.6 2.5s-1-2.7-1.7-2.4.8 4.4 1.8 4.4 2.4-4.2 1.5-4.5"></path><path id="Fill-503" class="plane-cls-2" d="M52.5 49c-.7-.2-1.4 2.1-1.5 2.5s-1-2.7-1.8-2.4.8 4.4 1.8 4.4 2.4-4.2 1.5-4.5"></path><path id="Fill-505" class="plane-cls-2" d="M52.5 71.6c-.7-.2-1.4 2.1-1.5 2.5s-1-2.7-1.8-2.4.8 4.4 1.8 4.4 2.4-4.1 1.5-4.5"></path><path id="Fill-507" class="plane-cls-2" d="M52.5 60.3c-.7-.2-1.4 2.1-1.5 2.5s-1-2.7-1.8-2.4.8 4.4 1.8 4.4 2.4-4.2 1.5-4.5"></path><path id="Fill-509" class="plane-cls-2" d="M52.5 67.9c-.7-.3-1.4 2-1.5 2.4s-1-2.6-1.8-2.3.8 4.3 1.8 4.3 2.4-4.1 1.5-4.4.4.1 0 0"></path><path id="Fill-511" class="plane-cls-2" d="M63.8 86.7c-.7-.3-1.4 2-1.5 2.5s-1-2.7-1.8-2.4.8 4.4 1.8 4.3 2.5-4.1 1.5-4.4"></path><path id="Fill-513" class="plane-cls-2" d="M67.7 82.9c-.7-.2-1.4 2.1-1.5 2.5s-1-2.7-1.8-2.4.8 4.4 1.8 4.4 2.4-4.1 1.5-4.5"></path><path id="Fill-515" class="plane-cls-2" d="M60.1 90.5c-.8-.3-1.5 2-1.6 2.4s-1-2.6-1.7-2.3.7 4.3 1.7 4.3 2.5-4.1 1.6-4.4"></path><path id="Fill-517" class="plane-cls-2" d="M45 82.9c-.7-.2-1.5 2.1-1.6 2.5s-1-2.7-1.7-2.4.8 4.4 1.8 4.4 2.4-4.1 1.5-4.5"></path><path id="Fill-519" class="plane-cls-2" d="M45 60.3c-.7-.2-1.5 2.1-1.6 2.5s-1-2.7-1.7-2.4.8 4.4 1.8 4.4 2.4-4.2 1.5-4.5.4.2 0 0"></path><path id="Fill-521" class="plane-cls-2" d="M45 90.5c-.7-.3-1.5 2-1.6 2.4s-1-2.6-1.7-2.3.8 4.3 1.8 4.3 2.4-4.1 1.5-4.4"></path><path id="Fill-523" class="plane-cls-2" d="M45 86.7c-.7-.3-1.5 2-1.6 2.5s-1-2.7-1.7-2.4.8 4.4 1.8 4.3 2.4-4.1 1.5-4.4"></path><g mask="url(#mask-5)" id="Group-527"><path id="Fill-525" class="plane-cls-2" d="M45 109.3c-.7-.2-1.5 2.1-1.6 2.5s-1-2.7-1.7-2.4.8 4.4 1.8 4.3 2.4-4.1 1.5-4.4"></path></g><path id="Fill-528" class="plane-cls-2" d="M45 49c-.7-.2-1.5 2.1-1.6 2.5s-1-2.7-1.7-2.4.8 4.4 1.8 4.4 2.4-4.2 1.5-4.5"></path><path id="Fill-530" class="plane-cls-2" d="M48.8 49c-.8-.2-1.5 2.1-1.6 2.5s-1-2.7-1.7-2.4.7 4.4 1.7 4.4 2.5-4.2 1.6-4.5"></path><path id="Fill-532" class="plane-cls-2" d="M52.5 101.8c-.7-.3-1.4 2-1.5 2.4s-1-2.6-1.8-2.3.8 4.3 1.8 4.3 2.4-4.1 1.5-4.4"></path><path id="Fill-534" class="plane-cls-2" d="M48.8 60.3c-.8-.2-1.5 2.1-1.6 2.5s-1-2.7-1.7-2.4.7 4.4 1.7 4.4 2.5-4.2 1.6-4.5.3.2 0 0"></path><path id="Fill-536" class="plane-cls-2" d="M48.8 79.2c-.8-.3-1.5 2-1.6 2.4s-1-2.6-1.7-2.3.7 4.3 1.7 4.3 2.5-4.1 1.6-4.4"></path><path id="Fill-538" class="plane-cls-2" d="M48.8 75.4c-.8-.3-1.5 2-1.6 2.5s-1-2.7-1.7-2.4.7 4.4 1.7 4.3 2.5-4.1 1.6-4.4"></path><path id="Fill-540" class="plane-cls-2" d="M48.8 105.5c-.8-.2-1.5 2.1-1.6 2.5s-1-2.7-1.7-2.4.7 4.4 1.7 4.4 2.5-4.1 1.6-4.5.3.2 0 0"></path><path id="Fill-542" class="plane-cls-2" d="M116.6 56.6c-.7-.3-1.5 2-1.6 2.4s-1-2.6-1.7-2.3.8 4.3 1.8 4.3 2.4-4.1 1.5-4.4.4.1 0 0"></path><path id="Fill-544" class="plane-cls-2" d="M116.6 52.8c-.7-.3-1.5 2-1.6 2.4s-1-2.6-1.7-2.3.8 4.4 1.8 4.3 2.4-4.1 1.5-4.4"></path><path id="Fill-546" class="plane-cls-2" d="M109.1 49c-.8-.2-1.5 2.1-1.6 2.5s-1-2.7-1.7-2.4.7 4.4 1.7 4.4 2.5-4.2 1.6-4.5"></path><path id="Fill-548" class="plane-cls-2" d="M109.1 60.3c-.8-.2-1.5 2.1-1.6 2.5s-1-2.7-1.7-2.4.7 4.4 1.7 4.4 2.5-4.2 1.6-4.5.3.2 0 0"></path><path id="Fill-550" class="plane-cls-2" d="M105.3 49c-.8-.2-1.5 2.1-1.6 2.5s-1-2.7-1.7-2.4.8 4.4 1.8 4.4 2.4-4.2 1.5-4.5"></path><path id="Fill-552" class="plane-cls-2" d="M105.3 60.3c-.8-.2-1.5 2.1-1.6 2.5s-1-2.7-1.7-2.4.8 4.4 1.8 4.4 2.4-4.2 1.5-4.5.4.2 0 0"></path><path id="Fill-554" class="plane-cls-2" d="M112.8 60.3c-.7-.2-1.4 2.1-1.5 2.5s-1-2.7-1.8-2.4.8 4.4 1.8 4.4 2.4-4.2 1.5-4.5"></path><path id="Fill-556" class="plane-cls-2" d="M112.8 49c-.7-.2-1.4 2.1-1.5 2.5s-1-2.7-1.8-2.4.8 4.4 1.8 4.4 2.4-4.2 1.5-4.5"></path><path id="Fill-558" class="plane-cls-2" d="M18.6 49c-.7-.2-1.4 2.1-1.6 2.5s-.9-2.7-1.7-2.4.8 4.4 1.8 4.4 2.4-4.2 1.5-4.5"></path><path id="Fill-560" class="plane-cls-2" d="M22.4 60.3c-.8-.2-1.5 2.1-1.6 2.5s-1-2.7-1.7-2.4.8 4.4 1.7 4.4 2.5-4.2 1.6-4.5.3.2 0 0"></path><path id="Fill-562" class="plane-cls-2" d="M22.4 49c-.8-.2-1.5 2.1-1.6 2.5s-1-2.7-1.7-2.4.8 4.4 1.7 4.4 2.5-4.2 1.6-4.5"></path><path id="Fill-564" class="plane-cls-2" d="M18.6 60.3c-.7-.2-1.4 2.1-1.6 2.5s-.9-2.7-1.7-2.4.8 4.4 1.8 4.4 2.4-4.2 1.5-4.5"></path><path id="Fill-566" class="plane-cls-2" d="M26.2 49c-.8-.2-1.5 2.1-1.6 2.5s-1-2.7-1.7-2.4.7 4.4 1.7 4.4 2.5-4.2 1.6-4.5"></path><path id="Fill-568" class="plane-cls-2" d="M26.2 60.3c-.8-.2-1.5 2.1-1.6 2.5s-1-2.7-1.7-2.4.7 4.4 1.7 4.4 2.5-4.2 1.6-4.5.3.2 0 0"></path><path id="Fill-570" class="plane-cls-2" d="M11.1 71.7c-.8-.3-1.5 2-1.6 2.4s-1-2.6-1.7-2.3.7 4.3 1.7 4.3 2.5-4.1 1.6-4.4"></path><path id="Fill-572" class="plane-cls-2" d="M7.3 71.6c-.7-.2-1.4 2.1-1.6 2.5s-.9-2.7-1.7-2.4.8 4.4 1.8 4.4 2.4-4.1 1.5-4.5"></path><path id="Fill-574" class="plane-cls-2" d="M7.3 60.3c-.7-.2-1.4 2.1-1.6 2.5s-.9-2.7-1.7-2.4.8 4.4 1.8 4.4 2.4-4.2 1.5-4.5"></path><path id="Fill-576" class="plane-cls-2" d="M7.3 56.6c-.7-.3-1.4 2-1.6 2.4s-.9-2.6-1.7-2.3.8 4.3 1.8 4.3 2.4-4.1 1.5-4.4.4.1 0 0"></path><path id="Fill-578" class="plane-cls-2" d="M7.3 64.1c-.7-.3-1.4 2-1.6 2.5s-.9-2.7-1.7-2.4.8 4.4 1.8 4.3 2.4-4.1 1.5-4.4"></path><path id="Fill-580" class="plane-cls-2" d="M7.3 52.8c-.7-.3-1.4 2-1.6 2.4s-.9-2.6-1.7-2.3.8 4.4 1.8 4.3 2.4-4.1 1.5-4.4"></path><path id="Fill-582" class="plane-cls-2" d="M7.3 49c-.7-.2-1.4 2.1-1.6 2.5s-.9-2.7-1.7-2.4.8 4.4 1.8 4.4 2.4-4.2 1.5-4.5"></path><path id="Fill-584" class="plane-cls-2" d="M14.9 67.9c-.8-.3-1.5 2-1.6 2.4s-1-2.6-1.7-2.3.7 4.3 1.7 4.3 2.5-4.1 1.6-4.4"></path><path id="Fill-586" class="plane-cls-2" d="M14.9 64.1c-.8-.3-1.5 2-1.6 2.5s-1-2.7-1.7-2.4.7 4.4 1.7 4.3 2.5-4.1 1.6-4.4"></path><g mask="url(#mask-6-2)" id="Group-590"><path id="Fill-588" class="plane-cls-2" d="M3.6 67.8c-.8-.2-1.5 2.1-1.6 2.5S1 67.6.3 67.9 1 72.3 2 72.2s2.5-4.1 1.6-4.4"></path></g><g mask="url(#mask-7)" id="Group-593"><path id="Fill-591" class="plane-cls-2" d="M3.6 71.6c-.8-.2-1.5 2.1-1.6 2.5S1 71.4.3 71.7 1 76.1 2 76.1s2.5-4.1 1.6-4.5.3.2 0 0"></path></g></g></g></g></svg>