<svg xmlns="http://www.w3.org/2000/svg" width="720" height="240" viewBox="0 0 720 240">
  <defs>
    <linearGradient id="carry-on-size-change-image-a" x1="-15.128%" x2="84.876%" y1="50.001%" y2="50.001%">
      <stop offset="0%" stop-color="#1B6A8E"/>
      <stop offset=".338%" stop-color="#1C6F93"/>
      <stop offset="2.154%" stop-color="#2285A9"/>
      <stop offset="4.3%" stop-color="#2796BA"/>
      <stop offset="6.955%" stop-color="#2BA1C5"/>
      <stop offset="10.68%" stop-color="#2CA8CC"/>
      <stop offset="21.02%" stop-color="#2DAACE"/>
      <stop offset="100%" stop-color="#86C69B"/>
    </linearGradient>
  </defs>
  <g fill="none" fill-rule="evenodd">
    <rect width="720" height="240" fill="#01426A"/>
    <g fill-rule="nonzero" transform="translate(297 15)">
      <polygon fill="#032235" points="89 8.975 89 0 29 0 29 8.975 33.947 8.975 33.947 82 38.123 82 38.123 8.975 79.877 8.975 79.877 82 84.053 82 84.053 8.975"/>
      <path fill="url(#carry-on-size-change-image-a)" d="M113.829111,19 L84.2720352,19 L80.1019671,19 L37.943037,19 L33.727144,19 L16.4511477,19 L4.17006808,19 C1.87882188,19 0,20.8690697 0,23.148423 L0,186.851577 C0,189.13093 1.87882188,191 4.17006808,191 L113.829111,191 C116.120357,191 117.999179,189.13093 117.999179,186.851577 L117.999179,23.148423 C118.045004,20.8690697 116.166182,19 113.829111,19 Z"/>
      <g transform="translate(51 19)">
        <rect width="16.309" height="171.681" x=".046" fill="#4DA9C4" opacity=".82"/>
        <path fill="#FFF" d="M30.75,1.72910053 L20.7277778,10.5566138 L20.7277778,43.3640212 L30.75,43.3640212 L40.7722222,43.3640212 L40.7722222,10.5566138 L30.75,1.72910053 Z M30.75,11.6486772 C29.3377778,11.6486772 28.1533333,10.5111111 28.1533333,9.05502646 C28.1533333,7.5989418 29.2922222,6.46137566 30.75,6.46137566 C32.2077778,6.46137566 33.3466667,7.5989418 33.3466667,9.05502646 C33.3466667,10.5111111 32.1622222,11.6486772 30.75,11.6486772 Z"/>
      </g>
      <g fill="#032235" transform="translate(3 193)">
        <ellipse cx="6.839" cy="6.91" rx="6.839" ry="6.729"/>
        <ellipse cx="105.161" cy="6.91" rx="6.839" ry="6.729"/>
      </g>
    </g>
  </g>
</svg>
