<?xml version="1.0" encoding="UTF-8"?>
<svg width="720px" height="240px" viewBox="0 0 720 240" version="1.1" xmlns="http://www.w3.org/2000/svg" xmlns:xlink="http://www.w3.org/1999/xlink">
    <!-- Generator: Sketch 51.3 (57544) - http://www.bohemiancoding.com/sketch -->
    <title>Artboard 2</title>
    <desc>Created with Sketch.</desc>
    <defs>
        <polygon id="path-1" points="0.0576 0.785035768 11.22048 0.785035768 11.22048 13.8952292 0.0576 13.8952292"></polygon>
    </defs>
    <g id="Artboard-2" stroke="none" stroke-width="1" fill="none" fill-rule="evenodd">
        <rect fill="#FFFFFF" x="0" y="0" width="720" height="240"></rect>
        <g id="BEST-AIRLINES-US-WINNER[1]" transform="translate(264.000000, 23.000000)">
            <path d="M96.03456,175.806694 C140.064,175.806694 175.75872,140.081321 175.75872,96.0107392 C175.75872,51.9391963 140.064,16.2138232 96.03456,16.2138232 C52.00416,16.2138232 16.3104,51.9391963 16.3104,96.0107392 C16.3104,140.081321 52.00416,175.806694 96.03456,175.806694" id="Fill-1" fill="#D8252D"></path>
            <path d="M96.03456,170.543015 C137.16,170.543015 170.49696,137.172749 170.49696,96.0107392 C170.49696,54.8477683 137.16,21.4784633 96.03456,21.4784633 C54.90912,21.4784633 21.5712,54.8477683 21.5712,96.0107392 C21.5712,137.172749 54.90912,170.543015 96.03456,170.543015 Z" id="Stroke-2" stroke="#FFFFFE" stroke-width="0.8769024"></path>
            <path d="M155.1648,91.4167906 C155.1648,93.204981 156.57312,94.6683953 158.35968,94.6683953 C160.14528,94.6683953 161.60736,93.204981 161.60736,91.4167906 C161.60736,89.6824093 160.25376,88.164225 158.2512,88.164225 C156.24672,88.164225 153.70272,89.3028632 152.8368,93.042593 L152.8368,88.489962 L144.17184,88.489962 L144.17184,88.8147381 L144.44352,88.8147381 C146.39232,88.8147381 146.88,89.7362183 146.88,91.1996326 L146.88,103.177914 C146.88,104.912295 146.06784,105.670427 144.01056,105.670427 L143.7936,105.670427 L143.7936,105.997124 L156.67968,105.997124 L156.67968,105.670427 L155.70528,105.670427 C153.648,105.670427 152.8368,104.912295 152.8368,103.177914 L152.8368,95.5908364 C152.8368,92.1566652 154.3872,89.5459649 156.4848,88.8051294 C155.56992,89.5392387 155.1648,90.6192634 155.1648,91.4167906" id="Fill-3" fill="#FFFFFE"></path>
            <polygon id="Fill-4" fill="#FFFFFE" points="30.45984 77.3793518 161.60832 77.3793518 161.60832 77.0536148 30.45984 77.0536148"></polygon>
            <path d="M127.76544,105.670427 L127.224,105.670427 C125.21952,105.670427 124.35552,104.912295 124.35552,103.177914 L124.35552,79.4385092 L115.41888,79.4385092 L115.41888,79.7642462 L115.96032,79.7642462 C117.91104,79.7642462 118.39872,80.6309565 118.39872,82.0943707 L118.39872,103.177914 C118.39872,104.912295 117.53184,105.670427 115.52736,105.670427 L114.98592,105.670427 L114.98592,105.997124 L127.76544,105.997124 L127.76544,105.670427" id="Fill-5" fill="#FFFFFE"></path>
            <path d="M119.3712,73.042918 L120.56352,73.260076 C121.104,73.368655 121.70016,73.531043 121.70016,74.0729771 C121.70016,74.6149112 121.104,74.8320692 120.56352,74.8320692 C119.10144,74.8320692 118.28928,73.9105891 117.8016,73.2062669 L117.69312,73.042918 L117.36864,73.042918 L117.36864,75.1568454 L117.74784,75.1568454 C117.8016,74.9406482 118.0176,74.5611022 118.344,74.5063322 C118.77696,74.7772993 119.58912,75.1568454 120.61824,75.1568454 C122.67552,75.1568454 123.54144,74.1267862 123.54144,73.0976879 C123.54144,71.8504707 122.51424,71.3633065 121.32096,71.1461485 L119.80608,70.8742206 C119.20992,70.7666025 118.88544,70.5504054 118.88544,70.1708593 C118.88544,69.7913133 119.31936,69.4117672 120.24,69.4117672 C121.32096,69.4117672 122.18784,69.9537013 122.6208,70.5504054 L122.72928,70.7127934 L123.05376,70.7127934 L123.05376,69.0869911 L122.67552,69.0869911 C122.6208,69.2493791 122.4576,69.4665371 122.2416,69.5741553 C121.64544,69.2493791 120.83424,69.0869911 120.24,69.0869911 C118.50528,69.0869911 117.26016,69.8998923 117.26016,71.1461485 C117.26016,72.3924048 118.344,72.8805299 119.3712,73.042918" id="Fill-6" fill="#FFFFFE"></path>
            <path d="M104.37312,74.7234902 L103.72224,74.7234902 C103.28928,74.7234902 103.1808,74.5063322 103.1808,74.1815561 L103.1808,70.2246684 L107.08032,75.0482664 L108.27168,75.0482664 L108.27168,70.0622803 C108.27168,69.7375042 108.38016,69.5203462 108.81312,69.5203462 L109.19232,69.5203462 L109.19232,69.1955701 L106.91808,69.1955701 L106.91808,69.5203462 L107.29632,69.5203462 C107.72928,69.5203462 107.83872,69.7375042 107.83872,70.0622803 L107.83872,72.5557538 L105.02208,69.1955701 L101.82816,69.1955701 L101.82816,69.5203462 L102.47808,69.5203462 L102.7488,69.7913133 L102.7488,74.1815561 C102.7488,74.5063322 102.64032,74.7234902 102.20736,74.7234902 L101.82816,74.7234902 L101.82816,75.0482664 L104.37312,75.0482664 L104.37312,74.7234902" id="Fill-7" fill="#FFFFFE"></path>
            <path d="M111.95424,70.2794383 L112.97184,72.9352998 L111.05568,72.9352998 L111.95424,70.2794383 Z M109.08288,75.0482664 L111.57504,75.0482664 L111.57504,74.7234902 L111.08736,74.7234902 C110.76288,74.7234902 110.4912,74.5611022 110.7072,73.9643981 L110.9472,73.260076 L113.09568,73.260076 L113.47104,74.2353652 C113.5776,74.5611022 113.47104,74.7234902 113.14464,74.7234902 L112.82016,74.7234902 L112.82016,75.0482664 L116.6112,75.0482664 L116.6112,74.7234902 L116.448,74.7234902 C116.12352,74.7234902 115.90656,74.5611022 115.8,74.2353652 L113.79552,69.1955701 L111.46656,69.1955701 C111.62976,69.4665371 111.68352,69.6827343 111.68352,69.7375042 C111.68352,69.8451223 111.62976,70.0622803 111.52032,70.3332474 L110.22144,73.9105891 C110.00352,74.5611022 109.73376,74.7234902 109.35552,74.7234902 L109.08288,74.7234902 L109.08288,75.0482664 Z" id="Fill-8" fill="#FFFFFE"></path>
            <path d="M124.62528,71.0923395 C124.89504,69.7913133 125.43744,69.5203462 126.35808,69.5203462 L126.35808,74.1815561 C126.35808,74.5063322 126.24864,74.7234902 125.81568,74.7234902 L125.21952,74.7234902 L125.21952,75.0482664 L129.768,75.0482664 L129.768,74.7234902 L129.17376,74.7234902 C128.73888,74.7234902 128.63232,74.5063322 128.63232,74.1815561 L128.63232,69.5203462 C129.55296,69.5203462 130.0944,69.7913133 130.36416,71.0923395 L130.41888,71.3633065 L130.74336,71.3633065 L130.74336,69.1955701 L124.24608,69.1955701 L124.24608,71.3633065 L124.57056,71.3633065 L124.62528,71.0923395" id="Fill-9" fill="#FFFFFE"></path>
            <path d="M86.77536,74.1267862 L86.77536,69.5203462 L87.85824,69.5203462 C88.23744,69.5203462 88.50816,69.7375042 88.50816,70.1160894 L88.50816,74.1267862 C88.50816,74.5063322 88.23744,74.7234902 87.85824,74.7234902 L87.42432,74.7234902 C87.04608,74.7234902 86.77536,74.5063322 86.77536,74.1267862 Z M90.9984,72.1214378 C90.9984,70.3332474 89.53632,69.1955701 87.74976,69.1955701 L83.63424,69.1955701 L83.63424,69.5203462 L84.01344,69.5203462 C84.4464,69.5203462 84.55488,69.7375042 84.55488,70.0622803 L84.55488,74.1815561 C84.55488,74.5063322 84.4464,74.7234902 84.01344,74.7234902 L83.63424,74.7234902 L83.63424,75.0482664 L87.74976,75.0482664 C89.53632,75.0482664 90.9984,73.9105891 90.9984,72.1214378 Z" id="Fill-10" fill="#FFFFFE"></path>
            <path d="M78.05664,74.7234902 L77.40768,74.7234902 C76.97376,74.7234902 76.86528,74.5063322 76.86528,74.1815561 L76.86528,70.2246684 L80.7648,75.0482664 L81.95616,75.0482664 L81.95616,70.0622803 C81.95616,69.7375042 82.06368,69.5203462 82.4976,69.5203462 L82.87584,69.5203462 L82.87584,69.1955701 L80.6016,69.1955701 L80.6016,69.5203462 L80.9808,69.5203462 C81.41472,69.5203462 81.52224,69.7375042 81.52224,70.0622803 L81.52224,72.5557538 L78.70656,69.1955701 L75.51168,69.1955701 L75.51168,69.5203462 L76.1616,69.5203462 L76.43232,69.7913133 L76.43232,74.1815561 C76.43232,74.5063322 76.32384,74.7234902 75.89088,74.7234902 L75.51168,74.7234902 L75.51168,75.0482664 L78.05664,75.0482664 L78.05664,74.7234902" id="Fill-11" fill="#FFFFFE"></path>
            <path d="M98.25312,72.6643328 L97.87488,72.6643328 L97.82016,72.9352998 C97.60416,74.1267862 97.06272,74.7234902 95.70912,74.7234902 L95.38464,74.7234902 C95.00544,74.7234902 94.8432,74.5063322 94.8432,74.1815561 L94.8432,72.2300168 C95.65536,72.2300168 95.87232,72.3924048 95.97984,73.0976879 L96.03456,73.531043 L96.41376,73.531043 L96.41376,70.6042144 L96.03456,70.6042144 L95.97984,71.0375695 C95.87232,71.7428526 95.65536,71.8504707 94.8432,71.8504707 L94.8432,69.5203462 L95.65536,69.5203462 C97.06272,69.5203462 97.44096,70.0622803 97.71264,71.1461485 L97.76736,71.3633065 L98.1456,71.3633065 L98.1456,69.1955701 L91.70304,69.1955701 L91.70304,69.5203462 L92.08128,69.5203462 C92.5152,69.5203462 92.62272,69.7375042 92.62272,70.0622803 L92.62272,74.1815561 C92.62272,74.5063322 92.5152,74.7234902 92.08128,74.7234902 L91.70304,74.7234902 L91.70304,75.0482664 L98.25312,75.0482664 L98.25312,72.6643328" id="Fill-12" fill="#FFFFFE"></path>
            <path d="M70.80096,70.0084713 C70.80096,69.6289252 71.07168,69.4117672 71.45088,69.4117672 L71.88384,69.4117672 C72.26304,69.4117672 72.53376,69.6289252 72.53376,70.0084713 L72.53376,74.2353652 C72.53376,74.6149112 72.26304,74.8320692 71.88384,74.8320692 L71.45088,74.8320692 C71.07168,74.8320692 70.80096,74.6149112 70.80096,74.2353652 L70.80096,70.0084713 Z M71.66784,75.1568454 C73.56288,75.1568454 75.02496,73.8558191 75.02496,72.1214378 C75.02496,70.3870564 73.56288,69.0869911 71.66784,69.0869911 C69.77184,69.0869911 68.31072,70.3870564 68.31072,72.1214378 C68.31072,73.8558191 69.77184,75.1568454 71.66784,75.1568454 Z" id="Fill-13" fill="#FFFFFE"></path>
            <path d="M64.46592,75.1568454 C65.38656,75.1568454 66.144,74.8320692 66.57792,74.5063322 C66.74016,74.6149112 66.95616,74.8858783 67.01088,75.1568454 L67.33536,75.1568454 L67.33536,73.151497 L67.01088,73.151497 L66.95616,73.313885 C66.57792,74.3967924 65.44032,74.8320692 64.62816,74.8320692 C63.86976,74.8320692 63.70752,74.4525232 63.70752,74.0729771 L63.70752,70.1708593 C63.70752,69.7913133 63.86976,69.4117672 64.62816,69.4117672 C65.44032,69.4117672 66.5232,69.8451223 66.9024,70.9299514 L66.95616,71.0923395 L67.2816,71.0923395 L67.2816,69.0869911 L66.95616,69.0869911 C66.9024,69.3579581 66.68544,69.6289252 66.5232,69.7375042 C66.09024,69.4117672 65.38656,69.0869911 64.46592,69.0869911 C62.8416,69.0869911 61.21632,70.2246684 61.21632,72.1214378 C61.21632,74.0191681 62.8416,75.1568454 64.46592,75.1568454" id="Fill-14" fill="#FFFFFE"></path>
            <polyline id="Fill-15" fill="#FFFFFE" points="97.008 67.7321558 93.38112 68.436478 93.38112 68.598866 97.008 68.598866 97.008 67.7321558"></polyline>
            <path d="M39.82752,79.7642462 L39.82752,103.177914 C39.82752,104.912295 38.52864,105.670427 36.52512,105.670427 L34.9008,105.670427 L34.9008,105.997124 L62.62464,105.997124 L62.62464,105.670427 L61.65024,105.670427 C59.592,105.670427 58.77984,104.912295 58.77984,103.177914 L58.77984,95.5908364 C58.77984,92.1566652 60.33216,89.5459649 62.42976,88.8051294 C61.51392,89.5392387 61.1088,90.6192634 61.1088,91.4167906 C61.1088,93.204981 62.51616,94.6683953 64.30368,94.6683953 C66.09024,94.6683953 67.55232,93.204981 67.55232,91.4167906 C67.55232,89.6824093 66.19776,88.164225 64.1952,88.164225 C62.19168,88.164225 59.64672,89.3028632 58.77984,93.042593 L58.77984,88.489962 L50.11584,88.489962 L50.11584,88.8147381 L50.38656,88.8147381 C52.33632,88.8147381 52.824,89.7362183 52.824,91.1996326 L52.824,103.177914 C52.824,104.857525 51.74112,105.670427 49.7376,105.670427 L48.9792,105.670427 C46.8672,105.670427 46.1088,104.912295 46.1088,103.177914 L46.1088,79.7642462 C50.27904,80.2514104 53.58144,83.666364 55.152,87.5146728 L55.47648,87.5146728 L55.47648,79.4385092 L30.45984,79.4385092 L30.45984,87.5146728 L30.78528,87.5146728 C32.35584,83.666364 35.65824,80.2514104 39.82752,79.7642462" id="Fill-16" fill="#FFFFFE"></path>
            <path d="M133.23552,90.8748565 C133.23552,89.3566723 134.15616,88.4351921 135.50976,88.4351921 L135.9408,88.4351921 C137.2944,88.4351921 138.21504,89.3566723 138.21504,90.8748565 L138.21504,96.3489676 L133.23552,96.3489676 L133.23552,90.8748565 Z M144.55296,99.2200654 L144.22656,99.2200654 L144.22656,99.2748353 C144.22656,103.069335 141.08544,105.670427 137.78208,105.670427 C135.29184,105.670427 133.23552,104.206051 133.23552,101.063026 L133.23552,96.6737437 L144.71424,96.6737437 L144.71424,96.5123165 C144.71424,94.2350402 142.71168,88.164225 135.7248,88.164225 C129.12,88.164225 126.30336,93.4759481 126.30336,97.485684 C126.30336,101.443533 128.9568,106.321901 136.2672,106.321901 C140.8704,106.321901 144.55296,103.664117 144.55296,99.2200654 Z" id="Fill-17" fill="#FFFFFE"></path>
            <path d="M91.48608,105.615657 C93.92256,99.1134081 95.54688,94.5598163 97.008,91.8501457 C98.09184,89.8447973 99.33696,88.8147381 100.52736,88.8147381 L100.6368,88.8147381 L100.6368,88.489962 L92.7312,88.489962 L92.7312,88.8147381 L93.00192,88.8147381 C94.62624,88.8147381 95.92608,89.3566723 95.92608,91.3620207 C95.92608,92.3382708 95.54688,93.6931061 94.89696,95.4812965 L92.89344,101.008256 L87.96672,88.8147381 L90.83616,88.8147381 L90.83616,88.489962 L78.70656,88.489962 L78.70656,88.8147381 L81.03552,88.8147381 L88.61568,106.321901 L91.21536,106.321901 L91.48608,105.615657" id="Fill-18" fill="#FFFFFE"></path>
            <path d="M74.26656,101.7145 C74.26656,103.232684 73.34592,104.154164 71.99232,104.154164 L71.5584,104.154164 C70.20576,104.154164 69.28512,103.232684 69.28512,101.7145 L69.28512,96.6189738 L74.26656,96.6189738 L74.26656,101.7145 Z M83.14656,99.2200654 L82.82208,99.2200654 L82.82208,102.58121 C82.82208,103.720809 82.3344,104.154164 81.52224,104.154164 C80.7648,104.154164 80.22336,103.720809 80.22336,102.58121 L80.22336,94.3436192 C80.22336,91.0910536 77.62368,88.164225 72.15456,88.164225 C70.53024,88.164225 68.95968,88.4351921 67.71456,88.9233171 L67.93152,89.1942842 C69.06816,88.7609291 70.53024,88.489962 72.15456,88.489962 C72.80448,88.489962 73.61664,88.5437711 74.26656,88.6523501 L74.26656,96.2941977 L69.6096,96.2941977 C64.68192,96.2941977 62.78688,98.9500592 62.78688,101.281145 C62.78688,103.720809 64.68192,106.321901 68.52672,106.321901 C71.7216,106.321901 73.77888,104.532749 74.37504,102.799329 C74.37504,104.260821 75.67488,106.321901 78.70656,106.321901 C81.46848,106.321901 83.14656,105.075644 83.14656,102.799329 L83.14656,99.2200654 Z" id="Fill-19" fill="#FFFFFE"></path>
            <path d="M104.59104,90.8748565 C104.59104,89.3566723 105.51168,88.4351921 106.86336,88.4351921 L107.29632,88.4351921 C108.64992,88.4351921 109.57056,89.3566723 109.57056,90.8748565 L109.57056,96.3489676 L104.59104,96.3489676 L104.59104,90.8748565 Z M107.6208,106.321901 C112.224,106.321901 115.90656,103.664117 115.90656,99.2200654 L115.58208,99.2200654 L115.58208,99.2748353 C115.58208,103.069335 112.44096,105.670427 109.1376,105.670427 C106.64736,105.670427 104.59104,104.206051 104.59104,101.063026 L104.59104,96.6737437 L116.06976,96.6737437 L116.06976,96.5123165 C116.06976,94.2350402 114.06528,88.164225 107.08032,88.164225 C100.47456,88.164225 97.65888,93.4759481 97.65888,97.485684 C97.65888,101.443533 100.31232,106.321901 107.6208,106.321901 Z" id="Fill-20" fill="#FFFFFE"></path>
            <path d="M60.10944,117.104852 L131.95968,117.104852 M60.10944,59.471504 L131.95968,59.471504" id="Stroke-21" stroke="#FFFFFE" stroke-width="0.8557824"></path>
            <path d="M54.31584,125.996799 L54.06144,125.996799 L54.06144,129.739412 L54.64224,129.739412 C55.34976,129.739412 55.56768,129.357944 55.56768,128.050192 C55.56768,126.016017 55.15008,125.996799 54.31584,125.996799 Z M55.58592,137.914546 C55.38624,137.405281 55.27776,136.369457 55.27776,135.371107 L55.27776,133.66363 C55.27776,132.392391 55.05984,131.774547 54.26112,131.774547 L54.06144,131.774547 L54.06144,137.914546 L51.2304,137.914546 L51.2304,123.962625 L55.22304,123.962625 C57.14688,123.962625 58.4352,124.980193 58.4352,127.505375 C58.4352,129.703859 57.96288,130.538861 56.2032,130.756019 C57.87264,130.866519 58.16256,132.229042 58.1808,134.426565 C58.2,135.697804 58.41696,137.387986 58.77984,137.914546 L55.58592,137.914546 Z" id="Fill-22" fill="#FFFFFE"></path>
            <path d="M62.22624,129.067759 C61.89984,129.067759 61.77216,129.357944 61.77216,130.938585 L61.77216,131.973449 L62.58912,131.973449 C62.60736,131.738034 62.64288,130.955881 62.64288,130.666657 C62.64288,129.521293 62.6256,129.067759 62.22624,129.067759 Z M64.82208,133.391702 L61.80864,133.391702 L61.80864,134.298769 C61.84512,136.369457 61.97184,136.569319 62.35296,136.569319 C62.66208,136.569319 62.73408,136.442483 62.73408,135.171244 C62.73408,134.916612 62.67936,134.390052 62.64288,134.099868 L64.82208,134.13542 C64.87584,134.371795 64.93056,135.116474 64.93056,135.406659 C64.93056,137.332255 64.09536,138.096151 62.3712,138.096151 C60.19296,138.096151 59.26752,137.405281 59.26752,133.391702 C59.26752,129.012989 60.19296,127.813816 62.22624,127.813816 C64.22208,127.813816 64.96608,128.994733 64.96608,131.918679 C64.96608,132.173311 64.8576,133.154365 64.82208,133.391702 Z" id="Fill-23" fill="#FFFFFE"></path>
            <path d="M69.01152,133.427254 C68.3952,133.645373 68.2128,133.953814 68.2128,135.262528 C68.2128,136.260878 68.3952,136.388674 68.61216,136.388674 C68.8848,136.388674 69.01152,136.225325 69.01152,135.589225 L69.01152,133.427254 Z M72.00672,137.931841 C71.75232,138.041381 71.28096,138.096151 70.7904,138.096151 C70.0464,138.096151 69.44736,137.877071 69.35712,137.387986 C69.01152,137.951059 68.7216,138.096151 68.06784,138.096151 C66.99744,138.096151 65.61792,137.731979 65.61792,135.116474 C65.61792,133.117852 66.4704,132.518265 67.77792,132.173311 L68.37696,132.009962 C68.95776,131.86487 69.01152,131.574685 69.01152,130.338998 C69.01152,129.667346 68.90304,129.43001 68.54016,129.43001 C68.19552,129.43001 68.10432,129.703859 68.10432,130.139136 C68.10432,130.412025 68.1408,130.775236 68.19552,131.066382 L66.08928,131.247026 C66.01728,130.975098 65.85408,130.666657 65.85408,130.012301 C65.85408,128.576752 66.7248,127.813816 68.5584,127.813816 C70.40928,127.813816 71.35296,128.341337 71.35296,130.157393 L71.35296,135.752574 C71.35296,136.079272 71.4432,136.279135 71.71584,136.279135 C71.8608,136.279135 71.98848,136.260878 72.1152,136.206108 L72.00672,137.931841 Z" id="Fill-24" fill="#FFFFFE"></path>
            <path d="M75.65184,129.376201 C75.21696,129.376201 75.16224,129.775925 75.16224,132.97276 C75.16224,136.152299 75.21696,136.46074 75.57984,136.46074 C75.9792,136.46074 76.08768,136.260878 76.08768,132.991977 C76.08768,130.102623 76.01568,129.376201 75.65184,129.376201 Z M76.21536,137.914546 L76.21536,137.115097 C75.9792,137.731979 75.7248,138.023125 75.01728,138.023125 C73.4928,138.023125 72.60288,137.205419 72.60288,133.209135 C72.60288,128.90441 73.67424,127.813816 75.08928,127.813816 C75.5616,127.813816 75.816,127.995422 76.08768,128.395146 L76.08768,123.962625 L78.57408,123.962625 L78.57408,137.914546 L76.21536,137.914546 Z" id="Fill-25" fill="#FFFFFE"></path>
            <path d="M82.3296,129.067759 C82.00224,129.067759 81.87552,129.357944 81.87552,130.938585 L81.87552,131.973449 L82.69248,131.973449 C82.71072,131.738034 82.74624,130.955881 82.74624,130.666657 C82.74624,129.521293 82.72896,129.067759 82.3296,129.067759 Z M84.92448,133.391702 L81.912,133.391702 L81.912,134.298769 C81.94848,136.369457 82.0752,136.569319 82.45632,136.569319 C82.76448,136.569319 82.83744,136.442483 82.83744,135.171244 C82.83744,134.916612 82.78272,134.390052 82.74624,134.099868 L84.92448,134.13542 C84.9792,134.371795 85.03392,135.116474 85.03392,135.406659 C85.03392,137.332255 84.19872,138.096151 82.47456,138.096151 C80.29632,138.096151 79.37088,137.405281 79.37088,133.391702 C79.37088,129.012989 80.29632,127.813816 82.3296,127.813816 C84.32544,127.813816 85.06944,128.994733 85.06944,131.918679 C85.06944,132.173311 84.96096,133.154365 84.92448,133.391702 Z" id="Fill-26" fill="#FFFFFE"></path>
            <path d="M91.25664,132.301107 L89.22336,132.373173 C89.29632,131.918679 89.38752,131.301796 89.38752,130.775236 C89.38752,130.102623 89.2416,129.775925 88.95168,129.775925 C88.5888,129.775925 88.47936,130.12088 88.47936,131.374823 L88.47936,137.914546 L85.95744,137.914546 L85.95744,127.977165 L88.4256,127.977165 L88.4256,128.939963 C88.64256,128.158771 89.15136,127.813816 89.87712,127.813816 C91.05696,127.813816 91.58304,128.485469 91.58304,130.157393 C91.58304,130.902072 91.43808,131.701521 91.25664,132.301107" id="Fill-27" fill="#FFFFFE"></path>
            <path d="M95.00544,138.096151 C93.31776,138.096151 92.22816,137.314959 92.22816,135.697804 C92.22816,135.279823 92.26464,135.043448 92.3376,134.643723 L94.53312,134.498631 C94.46016,134.862803 94.4064,135.206797 94.4064,135.461429 C94.4064,136.152299 94.4784,136.51551 94.91424,136.51551 C95.35008,136.51551 95.44128,136.188812 95.44128,135.497942 C95.44128,134.463079 95.09568,134.099868 94.09824,133.60886 L93.46272,133.300419 C92.55552,132.864181 92.1744,132.118541 92.1744,130.520604 C92.1744,128.704548 93.46272,127.813816 95.00544,127.813816 C96.71136,127.813816 97.74528,128.504686 97.74528,130.192945 C97.74528,130.538861 97.74528,130.70221 97.70976,130.883815 L95.49504,131.029868 C95.51328,130.902072 95.54976,130.502347 95.54976,130.247715 C95.54976,129.576063 95.42208,129.357944 95.09568,129.357944 C94.78752,129.357944 94.60608,129.629872 94.60608,130.12088 C94.60608,130.830006 94.6416,131.120191 95.45952,131.465145 L96.16704,131.774547 C97.43808,132.318403 98.07264,133.372484 98.07264,135.098218 C98.07264,137.133353 97.056,138.096151 95.00544,138.096151" id="Fill-28" fill="#FFFFFE"></path>
            <path d="M100.55712,129.521293 C100.35744,129.684642 100.19424,129.793221 99.97632,129.884504 L99.432,129.067759 C99.61248,128.976476 99.84864,128.813127 100.10304,128.485469 C100.4304,128.068448 100.5024,127.578401 100.4304,126.959597 L99.26784,126.959597 L99.26784,123.962625 L101.71872,123.962625 L101.71872,126.959597 C101.71872,128.286567 101.37312,128.867897 100.55712,129.521293" id="Fill-29" fill="#FFFFFE"></path>
            <path d="M107.59104,138.20473 C105.0672,138.20473 103.9968,137.368768 103.9968,131.738034 C103.9968,125.488496 104.76,123.744506 107.5536,123.744506 C109.89504,123.744506 110.71296,125.034002 110.71296,127.268039 C110.71296,127.850329 110.65824,128.921706 110.56608,129.449227 L107.95296,129.521293 C107.9904,128.776614 108.07968,127.958908 108.07968,127.268039 C108.07968,126.033313 108.07968,125.670102 107.60736,125.670102 C107.15424,125.670102 107.064,125.979504 107.064,131.083677 C107.064,135.87941 107.13696,136.134042 107.68032,136.134042 C108.18912,136.134042 108.18912,135.625739 108.18912,133.55409 C108.18912,132.954503 108.1536,132.282851 108.06144,131.718817 L110.74848,131.75533 C110.83872,132.554779 110.87616,133.136109 110.87616,134.008584 C110.87616,136.715372 109.84032,138.20473 107.59104,138.20473" id="Fill-30" fill="#FFFFFE"></path>
            <path d="M115.22976,137.914546 L115.22976,130.212163 C115.22976,129.847991 115.04736,129.721155 114.8304,129.721155 C114.59424,129.721155 114.33888,129.939274 114.33888,130.538861 L114.33888,137.914546 L111.83616,137.914546 L111.83616,123.962625 L114.26784,123.962625 L114.26784,128.685331 C114.53952,128.268311 115.06464,127.813816 115.80864,127.813816 C117.22464,127.813816 117.71616,128.649778 117.71616,129.648129 L117.71616,137.914546 L115.22976,137.914546" id="Fill-31" fill="#FFFFFE"></path>
            <path d="M121.61568,129.43001 C121.28736,129.43001 121.17888,129.629872 121.17888,133.081339 C121.17888,136.425188 121.19808,136.588537 121.61568,136.588537 C121.94208,136.588537 122.05056,136.425188 122.05056,133.081339 C122.05056,129.648129 121.9776,129.43001 121.61568,129.43001 Z M121.61568,138.096151 C119.45568,138.096151 118.584,137.04207 118.584,133.081339 C118.584,129.230147 119.25504,127.813816 121.61568,127.813816 C123.88416,127.813816 124.64544,129.339687 124.64544,133.081339 C124.64544,137.04207 123.95616,138.096151 121.61568,138.096151 Z" id="Fill-32" fill="#FFFFFE"></path>
            <path d="M125.56992,137.914546 L128.12736,137.914546 L128.12736,127.977165 L125.56992,127.977165 L125.56992,137.914546 Z M125.56992,126.851018 L128.12736,126.851018 L128.12736,124.507441 L125.56992,124.507441 L125.56992,126.851018 Z" id="Fill-33" fill="#FFFFFE"></path>
            <path d="M132.08352,138.096151 C129.7776,138.096151 129.05184,137.04207 129.05184,132.809411 C129.05184,128.413403 130.30464,127.813816 132.02976,127.813816 C133.82592,127.813816 134.66016,128.613265 134.66016,130.720466 C134.66016,131.066382 134.60544,131.555468 134.55168,131.846613 L132.264,131.883126 C132.31968,131.610238 132.3744,131.192256 132.3744,130.720466 C132.3744,129.53955 132.30144,129.321431 132.02976,129.321431 C131.66592,129.321431 131.59296,129.612576 131.6112,133.009273 C131.6304,136.333904 131.6112,136.51551 132.12,136.51551 C132.33696,136.51551 132.50016,136.279135 132.50016,134.862803 C132.50016,134.571658 132.46464,133.935558 132.42912,133.408998 L134.6976,133.463768 C134.76864,133.808722 134.87808,134.463079 134.87808,135.043448 C134.87808,137.332255 134.1168,138.096151 132.08352,138.096151" id="Fill-34" fill="#FFFFFE"></path>
            <path d="M138.4704,129.067759 C138.144,129.067759 138.01632,129.357944 138.01632,130.938585 L138.01632,131.973449 L138.83424,131.973449 C138.85056,131.738034 138.888,130.955881 138.888,130.666657 C138.888,129.521293 138.86976,129.067759 138.4704,129.067759 Z M141.06528,133.391702 L138.05184,133.391702 L138.05184,134.298769 C138.08928,136.369457 138.21504,136.569319 138.59808,136.569319 C138.90528,136.569319 138.97824,136.442483 138.97824,135.171244 C138.97824,134.916612 138.92352,134.390052 138.888,134.099868 L141.06528,134.13542 C141.12,134.371795 141.17376,135.116474 141.17376,135.406659 C141.17376,137.332255 140.33952,138.096151 138.6144,138.096151 C136.43808,138.096151 135.51168,137.405281 135.51168,133.391702 C135.51168,129.012989 136.43808,127.813816 138.4704,127.813816 C140.4672,127.813816 141.2112,128.994733 141.2112,131.918679 C141.2112,132.173311 141.10272,133.154365 141.06528,133.391702 Z" id="Fill-35" fill="#FFFFFE"></path>
            <path d="M78.43008,147.997979 C78.33984,147.343623 78.3216,146.144449 78.24864,144.801145 C78.21216,146.180963 78.1584,147.398393 78.10368,148.034493 C78.01344,149.087613 77.83104,150.723024 77.83104,150.723024 L78.75744,150.723024 C78.75744,150.723024 78.53952,149.0511 78.43008,147.997979 Z M79.26528,154.519445 L78.97536,152.266191 L77.63136,152.266191 L77.34144,154.519445 L74.85504,154.519445 L77.03328,140.550229 L79.66464,140.550229 L82.24224,154.519445 L79.26528,154.519445 Z" id="Fill-36" fill="#FFFFFE"></path>
            <path d="M88.83168,154.519445 L86.87136,154.519445 C86.87136,154.519445 86.52672,151.885684 86.32704,150.250273 C86.27232,149.850548 86.21856,149.232705 86.21856,148.99729 L86.12736,150.250273 C85.90944,151.90298 85.49184,154.519445 85.49184,154.519445 L83.54976,154.519445 L81.71712,144.582065 L84.11328,144.582065 C84.11328,144.582065 84.36672,146.962155 84.54816,148.524539 C84.58464,148.960777 84.63936,150.105181 84.6576,150.359813 C84.6576,150.123437 84.7296,148.960777 84.78432,148.524539 C85.00224,146.962155 85.32864,144.582065 85.32864,144.582065 L87.21696,144.582065 C87.21696,144.582065 87.4704,146.998668 87.6336,148.524539 C87.68832,148.942521 87.7248,149.905318 87.74208,150.26853 C87.74208,149.923575 87.79776,148.960777 87.86976,148.524539 L88.43232,144.582065 L90.7008,144.582065 L88.83168,154.519445" id="Fill-37" fill="#FFFFFE"></path>
            <path d="M94.45536,150.032154 C93.83808,150.250273 93.65664,150.559675 93.65664,151.867427 C93.65664,152.865778 93.83808,152.993574 94.056,152.993574 C94.32768,152.993574 94.45536,152.830225 94.45536,152.194125 L94.45536,150.032154 Z M97.4496,154.536741 C97.19616,154.647242 96.72288,154.701051 96.23328,154.701051 C95.48928,154.701051 94.89024,154.482932 94.8,153.992885 C94.45536,154.555959 94.16448,154.701051 93.51168,154.701051 C92.44032,154.701051 91.0608,154.336879 91.0608,151.722335 C91.0608,149.723713 91.91424,149.124126 93.2208,148.778211 L93.81984,148.614862 C94.40064,148.469769 94.45536,148.179585 94.45536,146.943898 C94.45536,146.272246 94.34592,146.03587 93.98304,146.03587 C93.6384,146.03587 93.5472,146.308759 93.5472,146.744036 C93.5472,147.016925 93.58368,147.380136 93.6384,147.671281 L91.53312,147.851926 C91.46016,147.579998 91.29696,147.271557 91.29696,146.6172 C91.29696,145.181652 92.16864,144.418716 94.00128,144.418716 C95.85216,144.418716 96.7968,144.946237 96.7968,146.763254 L96.7968,152.357474 C96.7968,152.685133 96.88608,152.884995 97.15968,152.884995 C97.30464,152.884995 97.43232,152.865778 97.55904,152.811008 L97.4496,154.536741 Z" id="Fill-38" fill="#FFFFFE"></path>
            <path d="M103.54656,148.906007 L101.51328,148.978073 C101.58528,148.524539 101.67744,147.906696 101.67744,147.380136 C101.67744,146.707523 101.53056,146.380825 101.24064,146.380825 C100.87872,146.380825 100.76928,146.725779 100.76928,147.979723 L100.76928,154.519445 L98.24544,154.519445 L98.24544,144.582065 L100.71552,144.582065 L100.71552,145.544863 C100.93248,144.76367 101.44032,144.418716 102.16608,144.418716 C103.34592,144.418716 103.87296,145.090368 103.87296,146.763254 C103.87296,147.506972 103.728,148.306421 103.54656,148.906007" id="Fill-39" fill="#FFFFFE"></path>
            <path d="M107.42784,145.9811 C106.99296,145.9811 106.93824,146.380825 106.93824,149.57766 C106.93824,152.757199 106.99296,153.06564 107.35488,153.06564 C107.75424,153.06564 107.86272,152.865778 107.86272,149.596877 C107.86272,146.707523 107.79168,145.9811 107.42784,145.9811 Z M107.9904,154.519445 L107.9904,153.719996 C107.75424,154.336879 107.5008,154.628024 106.79232,154.628024 C105.26784,154.628024 104.37888,153.81128 104.37888,149.814035 C104.37888,145.50931 105.44928,144.418716 106.86528,144.418716 C107.3376,144.418716 107.59104,144.601282 107.86272,145.001007 L107.86272,140.567525 L110.35104,140.567525 L110.35104,154.519445 L107.9904,154.519445 Z" id="Fill-40" fill="#FFFFFE"></path>
            <path d="M114.0144,154.701051 C112.3248,154.701051 111.23808,153.919859 111.23808,152.302704 C111.23808,151.885684 111.2736,151.649308 111.34656,151.249584 L113.54208,151.103531 C113.46912,151.467703 113.4144,151.811697 113.4144,152.066329 C113.4144,152.757199 113.48736,153.12041 113.92224,153.12041 C114.36,153.12041 114.44928,152.793712 114.44928,152.102842 C114.44928,151.067978 114.10464,150.704767 113.1072,150.21376 L112.47168,149.905318 C111.56352,149.469081 111.18336,148.724402 111.18336,147.125504 C111.18336,145.309448 112.47168,144.418716 114.0144,144.418716 C115.72032,144.418716 116.75424,145.109586 116.75424,146.798806 C116.75424,147.14376 116.75424,147.307109 116.71872,147.488715 L114.504,147.634768 C114.52224,147.506972 114.55872,147.107247 114.55872,146.852615 C114.55872,146.180963 114.43104,145.963805 114.10464,145.963805 C113.79744,145.963805 113.61504,146.235733 113.61504,146.725779 C113.61504,147.434906 113.65056,147.726051 114.46848,148.070045 L115.17504,148.379447 C116.44608,148.924264 117.0816,149.977384 117.0816,151.703118 C117.0816,153.738253 116.06592,154.701051 114.0144,154.701051" id="Fill-41" fill="#FFFFFE"></path>
            <path d="M77.472,9.13120551 C76.63968,9.30704584 75.90048,8.89386912 75.70464,7.96374106 C75.5136,7.05090877 76.0224,6.374452 76.85664,6.19861168 C77.67264,6.02661485 78.41184,6.43979157 78.60384,7.35358474 C78.79872,8.28275192 78.28896,8.95920869 77.472,9.13120551" id="Fill-42" fill="#0A0B09"></path>
            <polyline id="Fill-43" fill="#D8252D" points="86.8608 11.6160311 85.61184 11.7774583 84.06144 5.38859313 84.0864 11.9744379 82.8528 12.1339433 80.22336 1.47398393 81.62016 1.29333922 83.16096 8.51047955 83.064 1.10692926 84.168 0.964719597 85.82208 8.16648591 85.59648 0.780231387 86.89536 0.612078071 86.8608 11.6160311"></polyline>
            <polyline id="Fill-44" fill="#D8252D" points="88.73184 11.4603692 87.9216 0.582290912 89.35776 0.475633666 90.168 11.3537119 88.73184 11.4603692"></polyline>
            <polyline id="Fill-45" fill="#D8252D" points="94.31904 11.1740281 92.62176 5.9968277 92.1312 4.38832112 92.33952 11.2345633 91.04736 11.2739592 90.7152 0.367054667 92.05728 0.325736995 93.5904 5.52407666 94.04928 7.14987901 93.84 0.271927934 95.1168 0.232532014 95.448 11.1394365 94.31904 11.1740281"></polyline>
            <polyline id="Fill-46" fill="#D8252D" points="99.5232 11.2355242 98.13984 5.96607966 97.74624 4.33162943 97.54368 11.1769107 96.25248 11.1394365 96.57312 0.231571138 97.9152 0.271927934 99.1344 5.55290294 99.49536 7.20272719 99.69888 0.323815243 100.97472 0.362250287 100.65216 11.2691548 99.5232 11.2355242"></polyline>
            <polyline id="Fill-47" fill="#D8252D" points="101.54784 11.3364161 102.46464 0.468907533 105.93696 0.761974742 105.82368 2.09951426 103.76928 1.92655657 103.4928 5.20602667 104.92704 5.32805794 104.81856 6.61755365 103.38432 6.49552239 103.08 10.1016904 105.1344 10.2756089 105.02016 11.6304442 101.54784 11.3364161"></polyline>
            <path d="M109.45056,3.17665636 C109.50912,2.75387088 109.39008,2.53959551 109.08192,2.49635609 L108.40032,2.40219023 L107.8992,6.03814537 L108.51552,6.12366334 C108.85536,6.17074627 109.06272,5.98433631 109.12512,5.52984191 L109.45056,3.17665636 Z M109.0128,12.2127351 C108.49344,12.1416303 108.37248,11.4632518 108.48,10.6839813 L108.83712,8.10306809 C108.888,7.73024817 108.73344,7.4112373 108.36096,7.35935 L107.72832,7.27191027 L107.08992,11.8975678 L105.66336,11.6996273 L107.15616,0.890732138 L109.34496,1.19340811 C110.26944,1.32120463 111.05856,1.94289146 110.86368,3.35537932 L110.55072,5.62785128 C110.46048,6.27740351 110.11968,6.70979776 109.53216,6.89332509 C110.04768,7.22867085 110.28864,7.75811357 110.20128,8.39133092 L109.87008,10.7935212 C109.80192,11.2806853 109.83744,11.632366 109.96032,11.9311984 L109.90464,12.3366882 L109.0128,12.2127351 Z" id="Fill-48" fill="#D8252D"></path>
            <path d="M114.21216,9.11006624 C113.37888,8.93518679 112.86816,8.25873002 113.06304,7.32860196 C113.25408,6.4148088 113.99328,5.99971032 114.82656,6.17458977 C115.64352,6.34562572 116.1552,7.02208249 115.9632,7.93683653 C115.76832,8.86696459 115.03008,9.28110218 114.21216,9.11006624" id="Fill-49" fill="#0A0B09"></path>
            <path d="M122.15424,5.932449 C122.2704,5.52215491 122.16576,5.28866202 121.8672,5.20410492 L121.2048,5.01673408 L120.26592,8.34232624 L120.864,8.51240131 C121.1952,8.60560629 121.44096,8.45474874 121.56192,8.02908063 L122.15424,5.932449 Z M120.89184,10.461058 C121.008,10.0507639 120.86976,9.75673585 120.55488,9.66737437 L119.94048,9.4934558 L118.96032,12.9612576 L119.63904,13.152472 C119.9376,13.2370291 120.1488,13.0928976 120.264,12.6826036 L120.89184,10.461058 Z M119.37216,14.4554199 L117.21504,13.8452636 L120.18048,3.34865318 L122.32128,3.954966 C123.21984,4.20863729 123.88896,4.90815508 123.50208,6.27932527 L122.96256,8.18666431 C122.77152,8.86408196 122.39712,9.28590656 121.75296,9.34163738 C122.28,9.76346198 122.37696,10.3198092 122.19072,10.980892 L121.5936,13.0928976 C121.20096,14.4804027 120.25344,14.7052477 119.37216,14.4554199 Z" id="Fill-50" fill="#0A0B09"></path>
            <polyline id="Fill-51" fill="#0A0B09" points="121.78464 15.1741553 125.30688 4.84281551 128.60736 5.96992317 128.17344 7.24212311 126.2208 6.5752751 125.15904 9.69331803 126.52128 10.1583821 126.10464 11.3844599 124.74048 10.918435 123.5712 14.3468409 125.52384 15.013689 125.08512 16.3012629 121.78464 15.1741553"></polyline>
            <path d="M127.33152,17.3582266 C126.1296,16.8768277 125.7168,15.7939203 126.22752,14.5149943 L126.66528,13.4195955 L127.88064,13.9057988 L127.4256,15.0473196 C127.21248,15.5806058 127.31328,15.9908999 127.75392,16.1677011 C128.22528,16.3560329 128.57472,16.1436792 128.77536,15.641141 C129.15264,14.6975607 129.0912,13.7904937 128.80512,12.4760152 C128.52192,11.2854897 128.26368,9.59338691 128.7312,8.42111808 C129.24192,7.14315287 130.25472,6.4186523 131.5776,6.94809503 C132.67296,7.38625453 133.07136,8.46339663 132.55968,9.74136183 L132.09792,10.8992175 L130.89696,10.4178186 L131.37696,9.21576261 C131.5776,8.71322441 131.4864,8.32406959 131.09088,8.16552504 C130.71168,8.01370661 130.3344,8.16264241 130.14624,8.63443257 C129.696,9.76057935 129.86304,10.445684 130.16064,11.9062157 C130.48032,13.3580994 130.63392,14.7427219 130.16448,15.9149907 C129.52704,17.5129277 128.30496,17.7473814 127.33152,17.3582266" id="Fill-52" fill="#0A0B09"></path>
            <polyline id="Fill-53" fill="#0A0B09" points="136.0512 10.592698 132.06816 19.2386611 130.77408 18.6419571 134.75808 9.99599399 133.52352 9.42619447 134.10624 8.16072066 137.82336 9.87684536 137.23968 11.1413583 136.0512 10.592698"></polyline>
            <path d="M140.78208,14.5803338 L138.06144,18.4276817 L138.89184,18.8869805 L140.78208,14.5803338 Z M137.53152,22.0645977 L138.38016,20.1197845 L137.27712,19.5096282 L136.0416,21.2411269 L134.89536,20.6079096 L141.43968,11.7620843 L142.8144,12.5230981 L138.8208,22.7766069 L137.53152,22.0645977 Z" id="Fill-54" fill="#0A0B09"></path>
            <polyline id="Fill-55" fill="#0A0B09" points="139.24032 23.0543001 144.88896 13.7193889 146.1216 14.4659896 140.47296 23.8009008 139.24032 23.0543001"></polyline>
            <path d="M148.37952,18.2499196 C148.61568,17.8953564 148.60128,17.650333 148.34304,17.4773753 L147.77088,17.0968683 L145.73952,20.1505325 L146.25696,20.4954871 C146.544,20.6867014 146.81088,20.6088704 147.06528,20.2274026 L148.37952,18.2499196 Z M144.06048,26.1934823 C143.62464,25.9032977 143.80992,25.2402932 144.2448,24.5859366 L145.68672,22.4172392 C145.89504,22.1039936 145.89504,21.7494304 145.58208,21.5409203 L145.05024,21.1873178 L142.46688,25.0731008 L141.26784,24.2746127 L147.30624,15.1933728 L149.1456,16.4184898 C149.92128,16.9354411 150.36288,17.8396255 149.57376,19.0263075 L148.30464,20.9346074 C147.94176,21.4803851 147.44736,21.721565 146.83968,21.6312426 C147.15744,22.1578027 147.144,22.7391327 146.79072,23.2714581 L145.44864,25.2892979 C145.17696,25.6976702 145.05408,26.0301334 145.0368,26.3529877 L144.80928,26.6931379 L144.06048,26.1934823 Z" id="Fill-56" fill="#0A0B09"></path>
            <polyline id="Fill-57" fill="#0A0B09" points="145.27296 26.9852442 151.76928 18.2258977 152.91264 19.0753122 147.2256 26.7431034 148.8144 27.9240201 148.00512 29.0155754 145.27296 26.9852442"></polyline>
            <polyline id="Fill-58" fill="#0A0B09" points="148.4496 29.3883953 155.26944 20.8731114 156.3936 21.775374 149.57376 30.2896971 148.4496 29.3883953"></polyline>
            <polyline id="Fill-59" fill="#0A0B09" points="152.7456 33.0108982 155.03904 28.0700733 155.77728 26.5595761 151.25856 31.7021849 150.28704 30.8470052 157.48704 22.6545756 158.49504 23.5414643 156.06816 28.3871624 155.2944 29.8880509 159.8352 24.7214201 160.79424 25.5650693 153.59424 33.7584598 152.7456 33.0108982"></polyline>
            <polyline id="Fill-60" fill="#0A0B09" points="154.21536 34.3542029 161.84448 26.5614978 164.33472 29.0040449 163.39584 29.9629992 161.92224 28.5188024 159.62016 30.8700662 160.64832 31.8789861 159.744 32.8033489 158.71488 31.794429 156.18336 34.3801466 157.656 35.8243434 156.7056 36.7957891 154.21536 34.3542029"></polyline>
            <path d="M158.25984,38.7079325 C157.38336,37.7557043 157.4784,36.6007313 158.48832,35.6677206 L159.35616,34.8692325 L160.24224,35.8329913 L159.33984,36.66511 C158.91936,37.0542648 158.832,37.4674415 159.1536,37.8172004 C159.49728,38.1909812 159.90432,38.1496635 160.30176,37.7835697 C161.04768,37.0955824 161.38464,36.2509724 161.6928,34.9422591 C161.95104,33.7469293 162.4464,32.1086355 163.37376,31.2544167 C164.3856,30.3223669 165.61056,30.1061697 166.57536,31.1544856 C167.37312,32.0221567 167.26848,33.1655992 166.2576,34.0986099 L165.34176,34.9422591 L164.46624,33.98907 L165.4176,33.112751 C165.81504,32.7466572 165.90048,32.3555807 165.61152,32.0423351 C165.33504,31.74062 164.92992,31.7127546 164.55744,32.0567482 C163.66656,32.8782973 163.5216,33.5682063 163.16064,35.0143248 C162.82368,36.4614042 162.36384,37.7758827 161.43744,38.6301016 C160.17216,39.7956443 158.96928,39.479516 158.25984,38.7079325" id="Fill-61" fill="#0A0B09"></path>
            <polyline id="Fill-62" fill="#0A0B09" points="161.39424 42.0460161 169.85184 35.1622997 170.76 36.2807595 162.3024 43.1644758 161.39424 42.0460161"></polyline>
            <polyline id="Fill-63" fill="#0A0B09" points="164.832 46.4948724 168.11232 42.1469081 169.152 40.8266643 163.65312 44.9017398 162.8832 43.8620719 171.64416 37.3684713 172.44288 38.4475351 169.0512 42.6734682 167.97984 43.9783379 173.50464 39.883084 174.26496 40.9102605 165.504 47.4038612 164.832 46.4948724"></polyline>
            <polyline id="Fill-64" fill="#0A0B09" points="176.29344 46.5400336 168.24288 51.608655 167.48448 50.4017946 175.536 45.3331732 174.81216 44.1820436 175.99008 43.4402473 178.16928 46.9080491 176.99136 47.6498454 176.29344 46.5400336"></polyline>
            <polyline id="Fill-65" fill="#0A0B09" points="170.55744 55.602056 174.64992 53.329584 173.98272 52.1265672 169.88928 54.3990391 169.19136 53.1383697 178.72224 47.8458642 179.42112 49.1065336 175.2 51.4510713 175.86624 52.6540881 180.08832 50.3095505 180.7872 51.5702199 171.25536 56.8627254 170.55744 55.602056"></polyline>
            <polyline id="Fill-66" fill="#0A0B09" points="171.65376 57.6592917 181.45824 52.8943072 182.9808 56.0325285 181.77408 56.6196238 180.8736 54.7622503 177.91488 56.2016427 178.54368 57.4978645 177.38016 58.0628597 176.75136 56.7656769 173.49792 58.347279 174.3984 60.2046525 173.17632 60.7984739 171.65376 57.6592917"></polyline>
            <path d="M174.75936,64.977324 C174.32352,63.8809644 174.79968,62.7231087 176.00064,62.2455533 L184.28064,58.9593571 L184.81152,60.2997792 L176.472,63.6109582 C176.0448,63.7791115 175.8864,64.0894745 176.03808,64.4699815 C176.20032,64.8812364 176.52768,64.9984633 176.95488,64.8283882 L185.2944,61.519131 L185.80128,62.7980571 L177.52224,66.0842533 C176.32032,66.5618087 175.19328,66.0746445 174.75936,64.977324" id="Fill-67" fill="#0A0B09"></path>
            <polyline id="Fill-68" fill="#0A0B09" points="175.89504 67.5255674 177.57792 66.9346286 177.95712 68.0165751 176.27424 68.6075139 175.89504 67.5255674"></polyline>
            <path d="M176.94336,71.2057229 C176.56224,69.9690753 177.14496,68.9668816 178.4592,68.5613919 L179.58624,68.2145156 L179.9712,69.4665371 L178.79808,69.8287874 C178.24992,69.9969407 177.99456,70.3332474 178.13376,70.7877418 C178.28256,71.2729842 178.66848,71.4113503 179.18496,71.2518449 C180.15456,70.9530125 180.8208,70.33613 181.66368,69.2878142 C182.41056,68.320212 183.56256,67.055699 184.76736,66.6848008 C186.0816,66.2793111 187.27968,66.6127351 187.70016,67.9752574 C188.04672,69.1023651 187.46016,70.0891848 186.14592,70.4946746 L184.95744,70.8607683 L184.57632,69.6241208 L185.81184,69.242653 C186.32832,69.0841085 186.57312,68.7679802 186.44832,68.3605688 C186.32736,67.9694922 185.97504,67.76963 185.49024,67.9195266 C184.33248,68.2760117 183.90528,68.8362024 182.95776,69.9863711 C182.0304,71.1461485 181.04928,72.13489 179.84448,72.5057882 C178.20192,73.0121699 177.25152,72.2079166 176.94336,71.2057229" id="Fill-69" fill="#0A0B09"></path>
            <polyline id="Fill-70" fill="#0A0B09" points="177.84672 73.7299444 179.57088 73.2706456 179.8656 74.3794966 178.14144 74.8378345 177.84672 73.7299444"></polyline>
            <path d="M182.87136,77.7387194 C182.69568,76.9056398 183.10848,76.1648044 184.0368,75.9687857 C184.94976,75.7756496 185.6256,76.2858748 185.80128,77.1189543 C185.97408,77.9366599 185.56128,78.6765345 184.64832,78.8696706 C183.72,79.0656893 183.04416,78.556425 182.87136,77.7387194" id="Fill-71" fill="#0A0B09"></path>
            <polyline id="Fill-72" fill="#D8252D" points="180.39552 87.1726009 180.23424 85.9215402 186.61728 84.3697253 180.03744 84.3947081 179.87808 83.1599823 190.52736 80.5291036 190.70784 81.9262174 183.49824 83.4684236 190.89408 83.3713751 191.03712 84.4763826 183.84096 86.132933 191.22144 85.9061662 191.38944 87.2062316 180.39552 87.1726009"></polyline>
            <polyline id="Fill-73" fill="#D8252D" points="180.54912 89.0088351 191.41728 88.1892078 191.5248 89.6257176 180.6576 90.4463057 180.54912 89.0088351"></polyline>
            <polyline id="Fill-74" fill="#D8252D" points="180.83712 94.6366864 186.0096 92.9378575 187.61568 92.4468498 180.77664 92.6553599 180.73728 91.3610598 191.6352 91.0295575 191.67552 92.3728623 186.48096 93.9073814 184.8576 94.3666802 191.72928 94.1581701 191.76864 95.4351744 180.87168 95.7666767 180.83712 94.6366864"></polyline>
            <polyline id="Fill-75" fill="#D8252D" points="180.77472 99.8455957 186.04032 98.4609732 187.67328 98.067014 180.83424 97.8642692 180.87264 96.57093 191.76864 96.8928235 191.72928 98.2361282 186.45312 99.4564409 184.8048 99.8177303 191.67744 100.021436 191.64 101.29844 180.74208 100.975586 180.77472 99.8455957"></polyline>
            <polyline id="Fill-76" fill="#D8252D" points="180.6768 101.838453 191.5344 102.756089 191.24064 106.231578 189.90432 106.118195 190.07808 104.06192 186.80064 103.785188 186.67968 105.220737 185.39232 105.112158 185.51328 103.676609 181.9104 103.37105 181.73664 105.428286 180.38304 105.313942 180.6768 101.838453"></polyline>
            <path d="M188.82912,109.766641 C189.25056,109.824294 189.4656,109.705145 189.50784,109.397665 L189.60192,108.715443 L185.96928,108.212905 L185.88384,108.829787 C185.83776,109.170898 186.024,109.378447 186.47808,109.440904 L188.82912,109.766641 Z M179.80032,109.328482 C179.87232,108.808648 180.55008,108.687577 181.32768,108.795196 L183.9072,109.151681 C184.27968,109.203568 184.59936,109.048867 184.64928,108.676047 L184.7376,108.04283 L180.11616,107.403847 L180.31296,105.974063 L191.11296,107.469187 L190.8096,109.659984 C190.68192,110.585308 190.0608,111.375148 188.6496,111.18009 L186.38016,110.866844 C185.7312,110.776522 185.2992,110.436372 185.1168,109.848316 C184.7808,110.364306 184.25088,110.605486 183.6192,110.518046 L181.2192,110.185583 C180.73248,110.118322 180.38112,110.152914 180.08256,110.276867 L179.67744,110.220175 L179.80032,109.328482 Z" id="Fill-77" fill="#D8252D"></path>
            <path d="M182.89824,114.547961 C183.07296,113.71392 183.7488,113.202734 184.67904,113.397792 C185.592,113.589006 186.00576,114.328881 185.83104,115.162921 C185.66016,115.980627 184.98432,116.492774 184.07136,116.300599 C183.14112,116.105541 182.72736,115.366627 182.89824,114.547961" id="Fill-78" fill="#0A0B09"></path>
            <path d="M186.0816,122.464619 C186.49056,122.581846 186.72384,122.47711 186.80928,122.178278 L186.99648,121.515273 L183.67392,120.575537 L183.50496,121.174162 C183.41088,121.504704 183.5616,121.751649 183.98784,121.872719 L186.0816,122.464619 Z M181.55808,121.202028 C181.96704,121.318294 182.26176,121.179928 182.35104,120.863799 L182.52384,120.2498 L179.06016,119.268745 L178.86816,119.947124 C178.78368,120.246917 178.92768,120.45831 179.3376,120.573615 L181.55808,121.202028 Z M177.56544,119.680961 L178.176,117.521872 L188.664,120.490019 L188.05824,122.632772 C187.80384,123.532152 187.10496,124.201883 185.73408,123.81465 L183.82944,123.274637 C183.15264,123.083423 182.73024,122.707721 182.67552,122.062973 C182.25408,122.590494 181.6992,122.688503 181.03776,122.502093 L178.92672,121.903467 C177.54144,121.51143 177.3168,120.563045 177.56544,119.680961 Z" id="Fill-79" fill="#0A0B09"></path>
            <polyline id="Fill-80" fill="#0A0B09" points="176.83968 122.128312 187.1616 125.653767 186.03648 128.957259 184.76448 128.522943 185.43168 126.568521 182.31648 125.505792 181.85088 126.869275 180.62688 126.452255 181.09152 125.08685 177.6672 123.916503 177 125.870925 175.71456 125.431804 176.83968 122.128312"></polyline>
            <path d="M174.6576,127.678333 C175.1376,126.475316 176.22048,126.062139 177.49728,126.573325 L178.59264,127.011485 L178.10592,128.227954 L176.96544,127.772498 C176.4336,127.559184 176.02272,127.660076 175.84608,128.101118 C175.65792,128.572908 175.87104,128.922667 176.37312,129.12349 C177.31584,129.501115 178.22208,129.439618 179.53536,129.153277 C180.72384,128.869819 182.4144,128.611343 183.5856,129.07929 C184.86336,129.590476 185.5872,130.6042 185.05824,131.928288 C184.62048,133.024647 183.54432,133.423411 182.26656,132.912225 L181.11168,132.449082 L181.59168,131.247026 L182.79264,131.727464 C183.29376,131.928288 183.68352,131.837004 183.84096,131.441123 C183.9936,131.061577 183.84384,130.683953 183.37344,130.495621 C182.24736,130.04497 181.56384,130.212163 180.10464,130.510034 C178.65408,130.830967 177.27072,130.983746 176.09952,130.513878 C174.50304,129.875856 174.2688,128.652661 174.6576,127.678333" id="Fill-81" fill="#0A0B09"></path>
            <polyline id="Fill-82" fill="#0A0B09" points="181.41888 136.406931 172.7808 132.420256 173.37696 131.124995 182.01504 135.112631 182.58432 133.876944 183.84768 134.460196 182.13408 138.180708 180.87072 137.596496 181.41888 136.406931"></polyline>
            <path d="M177.43392,141.142128 L173.58912,138.419006 L173.13024,139.250163 L177.43392,141.142128 Z M169.95648,137.888602 L171.89856,138.738016 L172.50816,137.63397 L170.77824,136.397322 L171.41088,135.250036 L180.24864,141.800329 L179.48928,143.176303 L169.2432,139.179059 L169.95648,137.888602 Z" id="Fill-83" fill="#0A0B09"></path>
            <polyline id="Fill-84" fill="#0A0B09" points="168.984 139.573018 178.31136 145.226813 177.56448 146.460578 168.23808 140.805822 168.984 139.573018"></polyline>
            <path d="M173.76672,148.746502 C174.12096,148.982877 174.36576,148.968464 174.53856,148.709989 L174.91968,148.137306 L171.86784,146.104093 L171.5232,146.622005 C171.33312,146.909307 171.40992,147.17643 171.792,147.431062 L173.76672,148.746502 Z M165.8304,144.42352 C166.12032,143.987283 166.78272,144.172732 167.43744,144.608008 L169.60224,146.051244 C169.91616,146.259754 170.2704,146.259754 170.47968,145.946509 L170.83296,145.414184 L166.94976,142.828466 L167.74848,141.628332 L176.82048,147.672242 L175.59744,149.513281 C175.08,150.289669 174.17664,150.731672 172.992,149.941832 L171.08448,148.671553 C170.5392,148.308342 170.29824,147.813491 170.38944,147.205257 C169.8624,147.523307 169.2816,147.509854 168.75072,147.156252 L166.73376,145.812947 C166.3248,145.541019 165.99456,145.418027 165.672,145.400731 L165.3312,145.173004 L165.8304,144.42352 Z" id="Fill-85" fill="#0A0B09"></path>
            <polyline id="Fill-86" fill="#0A0B09" points="165.04032 145.637107 173.79072 152.139355 172.94208 153.283759 165.28128 147.591529 164.10144 149.181779 163.00992 148.37176 165.04032 145.637107"></polyline>
            <polyline id="Fill-87" fill="#0A0B09" points="162.63936 148.816646 171.14688 155.64271 170.24544 156.767895 161.73792 149.941832 162.63936 148.816646"></polyline>
            <polyline id="Fill-88" fill="#0A0B09" points="159.02016 153.116566 163.95744 155.412099 165.4656 156.151013 160.32768 151.628169 161.18208 150.655763 169.36704 157.862333 168.48 158.871253 163.63968 156.442158 162.14016 155.667692 167.30208 160.212636 166.4592 161.172551 158.27424 153.965981 159.02016 153.116566"></polyline>
            <polyline id="Fill-89" fill="#0A0B09" points="157.67808 154.587668 165.46272 162.22375 163.02336 164.716262 162.06432 163.776526 163.50816 162.301581 161.15808 159.9974 160.15008 161.026498 159.22656 160.121353 160.23456 159.091294 157.6512 156.557464 156.20736 158.031447 155.23776 157.08018 157.67808 154.587668"></polyline>
            <path d="M153.3264,158.635839 C154.27872,157.758559 155.43264,157.853685 156.36384,158.864527 L157.16256,159.733159 L156.19968,160.620048 L155.36736,159.716824 C154.97952,159.29596 154.56576,159.208521 154.21728,159.530414 C153.84288,159.874408 153.88416,160.281819 154.25088,160.679622 C154.93824,161.426223 155.78208,161.76349 157.0896,162.071931 C158.28384,162.330407 159.91968,162.826219 160.77408,163.754426 C161.70528,164.767189 161.92032,165.993267 160.87392,166.958947 C160.00608,167.757435 158.86464,167.6527 157.93248,166.640897 L157.0896,165.724221 L158.04096,164.847902 L158.91744,165.800131 C159.2832,166.197933 159.67392,166.283451 159.98688,165.994228 C160.28736,165.717495 160.31616,165.312006 159.97152,164.939186 C159.15168,164.047493 158.4624,163.9024 157.0176,163.541111 C155.57184,163.203844 154.25856,162.743584 153.40416,161.816338 C152.23968,160.549904 152.55648,159.345926 153.3264,158.635839" id="Fill-90" fill="#0A0B09"></path>
            <polyline id="Fill-91" fill="#0A0B09" points="149.99424 161.773099 156.87168 170.238417 155.75424 171.147406 148.87584 162.682088 149.99424 161.773099"></polyline>
            <polyline id="Fill-92" fill="#0A0B09" points="145.57344 165.196701 149.92128 168.479053 151.24224 169.518721 147.16512 164.015784 148.20384 163.2442 154.70208 172.013156 153.62304 172.813565 149.39616 169.420712 148.09152 168.347413 152.18976 173.878216 151.16256 174.63923 144.66624 165.870275 145.57344 165.196701"></polyline>
            <polyline id="Fill-93" fill="#0A0B09" points="145.52832 176.666678 140.46528 168.608772 141.67104 167.849679 146.73408 175.908547 147.88416 175.184047 148.62528 176.362081 145.16064 178.54423 144.42048 177.364274 145.52832 176.666678"></polyline>
            <polyline id="Fill-94" fill="#0A0B09" points="136.44864 170.944661 138.72 175.040876 139.92096 174.373067 137.65056 170.275892 138.91104 169.577335 144.19872 179.116912 142.93824 179.81643 140.5968 175.591458 139.39488 176.258306 141.73632 180.484239 140.47776 181.183757 135.18912 171.643218 136.44864 170.944661"></polyline>
            <polyline id="Fill-95" fill="#0A0B09" points="134.40864 172.034295 139.16928 181.847722 136.03392 183.371672 135.44736 182.163851 137.30208 181.262549 135.86592 178.301129 134.56992 178.930503 134.00448 177.765921 135.30048 177.136547 133.72032 173.880138 131.86656 174.78144 131.27328 173.558244 134.40864 172.034295"></polyline>
            <path d="M127.08192,175.147533 C128.17824,174.713217 129.33408,175.189812 129.81024,176.392829 L133.0848,184.679424 L131.74656,185.209828 L128.44608,176.862697 C128.27904,176.435107 127.96896,176.276563 127.5888,176.42742 C127.17696,176.590769 127.0608,176.917467 127.22976,177.345057 L130.52832,185.692188 L129.2496,186.19953 L125.97504,177.911974 C125.49888,176.708957 125.98656,175.581849 127.08192,175.147533" id="Fill-96" fill="#0A0B09"></path>
            <polyline id="Fill-97" fill="#0A0B09" points="124.53504 176.287132 125.12544 177.971548 124.04544 178.351094 123.45408 176.666678 124.53504 176.287132"></polyline>
            <path d="M120.88992,177.325839 C122.12544,176.945333 123.12672,177.527623 123.53184,178.843063 L123.87936,179.971131 L122.62752,180.356443 L122.26656,179.182252 C122.0976,178.634553 121.76064,178.377999 121.30752,178.517326 C120.82272,178.667222 120.68448,179.052534 120.84288,179.569485 C121.1424,180.53997 121.75968,181.206818 122.80608,182.050467 C123.7728,182.798029 125.03616,183.952041 125.40672,185.15794 C125.81184,186.47338 125.47872,187.672553 124.1184,188.092456 C122.99136,188.440293 122.00544,187.852237 121.60032,186.536798 L121.23456,185.347233 L122.47008,184.965765 L122.85024,186.202413 C123.0096,186.720325 123.32544,186.964388 123.73152,186.840435 C124.1232,186.719364 124.32288,186.365762 124.17312,185.880519 C123.81696,184.721703 123.25728,184.294113 122.10912,183.345728 C120.94944,182.417522 119.9616,181.436467 119.59104,180.230568 C119.08416,178.586509 119.88864,177.634281 120.88992,177.325839" id="Fill-98" fill="#0A0B09"></path>
            <polyline id="Fill-99" fill="#0A0B09" points="118.3536 178.235789 118.81152 179.961523 117.70464 180.256512 117.24576 178.530778 118.3536 178.235789"></polyline>
            <path d="M114.33216,183.269819 C115.16448,183.093979 115.90368,183.507155 116.10048,184.436323 C116.29248,185.350116 115.78368,186.026572 114.95136,186.202413 C114.1344,186.37537 113.3952,185.962194 113.20224,185.048401 C113.00544,184.119233 113.51616,183.442777 114.33216,183.269819" id="Fill-100" fill="#0A0B09"></path>
            <polyline id="Fill-101" fill="#D8252D" points="104.90784 180.79172 106.15776 180.630292 107.7072 187.019157 107.68224 180.433313 108.9168 180.273807 111.54528 190.932806 110.14944 191.11345 108.60768 183.897271 108.70464 191.29986 107.60064 191.443031 105.94656 184.240304 106.17216 191.627519 104.87424 191.795673 104.90784 180.79172"></polyline>
            <polyline id="Fill-102" fill="#D8252D" points="103.07232 180.94546 103.8912 191.823538 102.45504 191.931156 101.63616 181.054039 103.07232 180.94546"></polyline>
            <polyline id="Fill-103" fill="#D8252D" points="97.46688 181.231801 99.1632 186.409001 99.65472 188.016547 99.4464 181.171266 100.73856 181.13187 101.07072 192.039735 99.72864 192.080092 98.19552 186.881752 97.73664 185.25595 97.94592 192.133901 96.66912 192.173297 96.33888 181.266392 97.46688 181.231801"></polyline>
            <polyline id="Fill-104" fill="#D8252D" points="92.24544 181.171266 93.6288 186.441671 94.0224 188.076121 94.22496 181.23084 95.51712 181.269275 95.19552 192.175219 93.8544 192.135823 92.63424 186.854848 92.27328 185.205023 92.06976 192.083935 90.79392 192.046461 91.11648 181.138596 92.24544 181.171266"></polyline>
            <polyline id="Fill-105" fill="#D8252D" points="90.25536 181.073256 89.33856 191.940765 85.86528 191.646737 85.97952 190.309197 88.03296 190.483116 88.30944 187.202685 86.8752 187.081614 86.98368 185.79308 88.41888 185.91415 88.7232 182.307982 86.66784 182.134063 86.78208 180.779228 90.25536 181.073256"></polyline>
            <path d="M82.3344,189.233016 C82.27584,189.654841 82.39488,189.870077 82.70208,189.912355 L83.38368,190.006521 L83.88576,186.370566 L83.26944,186.285048 C82.9296,186.238926 82.72128,186.425336 82.65984,186.87983 L82.3344,189.233016 Z M82.77216,180.195976 C83.29152,180.268042 83.41248,180.946421 83.304,181.72473 L82.94784,184.306604 C82.89696,184.679424 83.05152,184.999396 83.42304,185.049361 L84.05664,185.137762 L84.69504,180.512105 L86.12256,180.709084 L84.6288,191.51894 L82.44,191.215303 C81.51552,191.087507 80.7264,190.46582 80.92128,189.053332 L81.23424,186.781821 C81.32448,186.132269 81.66432,185.699875 82.2528,185.517308 C81.73728,185.181002 81.49632,184.650598 81.58272,184.018341 L81.91488,181.616151 C81.98208,181.128987 81.94752,180.777306 81.82368,180.478474 L81.88032,180.072984 L82.77216,180.195976 Z" id="Fill-106" fill="#D8252D"></path>
            <path d="M77.55648,183.296723 C78.38976,183.471603 78.90048,184.14806 78.7056,185.079149 C78.51456,185.992942 77.77632,186.407079 76.94208,186.2322 C76.12512,186.061164 75.6144,185.384707 75.80544,184.470914 C76.00032,183.539825 76.73856,183.125688 77.55648,183.296723" id="Fill-107" fill="#0A0B09"></path>
            <path d="M70.90848,181.95534 C70.79232,182.364674 70.93152,182.659663 71.2464,182.749024 L71.85984,182.921982 L72.84,179.455141 L72.16224,179.262966 C71.86272,179.178409 71.65248,179.32254 71.53728,179.732834 L70.90848,181.95534 Z M69.64704,186.482989 C69.53088,186.892322 69.63456,187.125815 69.93408,187.211333 L70.59552,187.398704 L71.53536,184.073111 L70.93728,183.903997 C70.60608,183.809831 70.35936,183.960689 70.2384,184.387318 L69.64704,186.482989 Z M72.42816,177.959057 L74.58528,178.570174 L71.6208,189.067745 L69.47904,188.461432 C68.58048,188.2068 67.91136,187.507283 68.2992,186.135151 L68.83776,184.228773 C69.0288,183.551356 69.40416,183.12857 70.04832,183.0738 C69.52128,182.651976 69.42336,182.096589 69.61056,181.434546 L70.20768,179.321579 C70.59936,177.935035 71.54688,177.71019 72.42816,177.959057 Z" id="Fill-108" fill="#0A0B09"></path>
            <polyline id="Fill-109" fill="#0A0B09" points="69.98304 177.232634 66.4608 187.563974 63.16032 186.437827 63.59424 185.164667 65.54688 185.832475 66.6096 182.714433 65.2464 182.248408 65.66304 181.023291 67.0272 181.488355 68.19648 178.06091 66.24384 177.393101 66.68256 176.106488 69.98304 177.232634"></polyline>
            <path d="M64.43904,175.048563 C65.64096,175.529001 66.05472,176.612869 65.54304,177.890835 L65.10528,178.987194 L63.88992,178.50003 L64.34496,177.358509 C64.55808,176.826184 64.45824,176.414929 64.0176,176.238128 C63.54528,176.049796 63.19584,176.26311 62.9952,176.765649 C62.61888,177.709229 62.67936,178.616296 62.96544,179.930775 C63.24864,181.120339 63.50688,182.812442 63.03936,183.984711 C62.52864,185.263637 61.51584,185.988137 60.19296,185.458695 C59.09856,185.020535 58.70016,183.943393 59.21088,182.664467 L59.67264,181.508533 L60.8736,181.988971 L60.3936,183.191027 C60.19296,183.692604 60.28416,184.08272 60.67968,184.240304 C61.05984,184.393083 61.43616,184.243186 61.62432,183.772357 C62.07456,182.645249 61.90752,181.961106 61.60992,180.500574 C61.29024,179.04869 61.1376,177.664068 61.60608,176.491799 C62.24352,174.893862 63.4656,174.659408 64.43904,175.048563" id="Fill-110" fill="#0A0B09"></path>
            <polyline id="Fill-111" fill="#0A0B09" points="55.71744 181.816013 59.70048 173.17005 60.99456 173.766754 57.01152 182.412717 58.24512 182.982517 57.6624 184.24703 53.94528 182.531866 54.52896 181.267353 55.71744 181.816013"></polyline>
            <path d="M50.9856,177.827417 L53.70624,173.979108 L52.87584,173.519809 L50.9856,177.827417 Z M54.23616,170.343153 L53.38752,172.287005 L54.49152,172.897162 L55.72608,171.165663 L56.87232,171.79888 L50.32896,180.644705 L48.95328,179.884652 L52.94688,169.629222 L54.23616,170.343153 Z" id="Fill-112" fill="#0A0B09"></path>
            <polyline id="Fill-113" fill="#0A0B09" points="52.55424 169.369785 46.9056 178.705658 45.67296 177.958096 51.32256 168.623185 52.55424 169.369785"></polyline>
            <path d="M43.41696,174.175127 C43.17984,174.52969 43.19424,174.774713 43.45344,174.947671 L44.02464,175.328178 L46.05696,172.273553 L45.53952,171.929559 C45.25248,171.739306 44.98464,171.816176 44.7312,172.197644 L43.41696,174.175127 Z M47.736,166.230603 C48.17184,166.520788 47.9856,167.183792 47.55072,167.83911 L46.1088,170.006846 C45.90048,170.321053 45.90048,170.674655 46.2144,170.884126 L46.74528,171.237729 L49.3296,167.350985 L50.52864,168.149473 L44.49024,177.231674 L42.65088,176.006557 C41.87424,175.488644 41.43264,174.585421 42.22176,173.398739 L43.49184,171.490439 C43.85472,170.944661 44.34816,170.703481 44.9568,170.793804 C44.63904,170.266283 44.65248,169.685914 45.00576,169.153588 L46.34688,167.135748 C46.61952,166.726415 46.74144,166.394913 46.75968,166.072059 L46.98624,165.731909 L47.736,166.230603 Z" id="Fill-114" fill="#0A0B09"></path>
            <polyline id="Fill-115" fill="#0A0B09" points="46.49856 165.422506 40.00032 174.180892 38.85792 173.331478 44.544 165.663686 42.9552 164.48277 43.76448 163.390253 46.49856 165.422506"></polyline>
            <polyline id="Fill-116" fill="#0A0B09" points="43.31904 163.019355 36.50016 171.534639 35.376 170.632377 42.19488 162.117093 43.31904 163.019355"></polyline>
            <polyline id="Fill-117" fill="#0A0B09" points="39.04608 159.418953 36.75936 164.364582 36.02208 165.875079 40.53504 160.727666 41.50656 161.580924 34.31712 169.783923 33.30816 168.897034 35.72928 164.048454 36.50112 162.546604 31.96704 167.719 31.00704 166.876312 38.19744 158.674274 39.04608 159.418953"></polyline>
            <polyline id="Fill-118" fill="#0A0B09" points="37.55424 158.053548 29.92512 165.845292 27.43488 163.403706 28.37472 162.443791 29.84736 163.888948 32.14944 161.536723 31.12128 160.527804 32.0256 159.603441 33.05568 160.612361 35.58624 158.026643 34.1136 156.581485 35.064 155.611001 37.55424 158.053548"></polyline>
            <path d="M33.5088,153.697896 C34.38528,154.651085 34.2912,155.806058 33.28032,156.738108 L32.41344,157.537557 L31.5264,156.573798 L32.4288,155.740719 C32.85024,155.352525 32.9376,154.938387 32.616,154.589589 C32.27136,154.214848 31.86432,154.256165 31.46688,154.62322 C30.72096,155.311207 30.384,156.155817 30.07584,157.464531 C29.81856,158.65986 29.32224,160.297193 28.39488,161.152373 C27.38304,162.084423 26.15808,162.299659 25.19328,161.252304 C24.39552,160.383672 24.50016,159.24119 25.51104,158.30818 L26.42688,157.464531 L27.3024,158.416759 L26.35104,159.294039 C25.9536,159.660132 25.86816,160.051209 26.15712,160.364455 C26.4336,160.665209 26.83872,160.694035 27.21216,160.349081 C28.10208,159.528492 28.24704,158.838583 28.608,157.392465 C28.94496,155.945385 29.4048,154.630907 30.33216,153.775727 C31.59648,152.610185 32.79936,152.927274 33.5088,153.697896" id="Fill-119" fill="#0A0B09"></path>
            <polyline id="Fill-120" fill="#0A0B09" points="30.39744 150.384796 21.93888 157.269473 21.02976 156.151013 29.48832 149.266336 30.39744 150.384796"></polyline>
            <polyline id="Fill-121" fill="#0A0B09" points="26.95392 145.937861 23.67456 150.289669 22.63584 151.611834 28.13472 147.530994 28.90464 148.570661 20.14368 155.074832 19.344 153.994807 22.73472 149.76407 23.80608 148.458239 18.28032 152.560219 17.52 151.532082 26.28096 145.029833 26.95392 145.937861"></polyline>
            <polyline id="Fill-122" fill="#0A0B09" points="15.49536 145.8927 23.54496 140.825039 24.30336 142.0319 16.2528 147.09956 16.97664 148.25069 15.79872 148.992486 13.61952 145.524684 14.79744 144.783849 15.49536 145.8927"></polyline>
            <polyline id="Fill-123" fill="#0A0B09" points="21.21216 136.804734 17.11872 139.078167 17.78592 140.280223 21.87936 138.007751 22.57824 139.269381 13.0464 144.561886 12.34752 143.300256 16.5696 140.956679 15.9024 139.753662 11.68032 142.097239 10.98144 140.837531 20.51328 135.544064 21.21216 136.804734"></polyline>
            <polyline id="Fill-124" fill="#0A0B09" points="20.12256 134.762872 10.31808 139.527857 8.79552 136.389635 10.00224 135.80254 10.90272 137.658953 13.86144 136.221482 13.23264 134.924299 14.39616 134.358343 15.02496 135.655526 18.2784 134.073924 17.37888 132.218472 18.6 131.624651 20.12256 134.762872"></polyline>
            <path d="M17.01696,127.44484 C17.45184,128.54216 16.97664,129.700016 15.77472,130.177571 L7.49472,133.463768 L6.96384,132.122385 L15.30336,128.812166 C15.73056,128.643052 15.88896,128.33365 15.73824,127.952182 C15.576,127.540927 15.24768,127.424661 14.82048,127.592815 L6.48096,130.903994 L5.97408,129.625068 L14.25312,126.338871 C15.456,125.861316 16.58208,126.347519 17.01696,127.44484" id="Fill-125" fill="#0A0B09"></path>
            <polyline id="Fill-126" fill="#0A0B09" points="15.8736 124.880261 14.19072 125.4712 13.81248 124.390215 15.49536 123.798315 15.8736 124.880261"></polyline>
            <path d="M14.83584,121.231815 C15.21696,122.468462 14.63424,123.470656 13.32,123.876146 L12.19296,124.223983 L11.808,122.971001 L12.98112,122.609711 C13.52928,122.440597 13.78464,122.10333 13.64544,121.649796 C13.49664,121.164554 13.11072,121.026187 12.59424,121.184732 C11.62464,121.484525 10.9584,122.102369 10.11552,123.149724 C9.36864,124.117326 8.21664,125.381839 7.01184,125.752737 C5.6976,126.158227 4.49952,125.824803 4.07904,124.463241 C3.73248,123.335173 4.31904,122.348353 5.63328,121.942863 L6.82176,121.576769 L7.20288,122.813417 L5.96736,123.193924 C5.45088,123.353429 5.20608,123.669558 5.33088,124.076008 C5.45184,124.468046 5.80416,124.667908 6.28896,124.518011 C7.44672,124.161526 7.87392,123.601335 8.82144,122.452128 C9.7488,121.291389 10.72992,120.302648 11.93472,119.93175 C13.57728,119.424407 14.52768,120.229621 14.83584,121.231815" id="Fill-127" fill="#0A0B09"></path>
            <polyline id="Fill-128" fill="#0A0B09" points="13.9296 118.708554 12.20544 119.169775 11.90976 118.059963 13.63488 117.600664 13.9296 118.708554"></polyline>
            <path d="M8.89824,114.66807 C9.07296,115.50115 8.66016,116.241024 7.7328,116.438004 C6.81984,116.630179 6.14304,116.120915 5.96736,115.287835 C5.79456,114.47013 6.20736,113.730255 7.12032,113.537119 C8.04864,113.34014 8.72448,113.851326 8.89824,114.66807" id="Fill-129" fill="#0A0B09"></path>
            <polyline id="Fill-130" fill="#D8252D" points="11.37696 105.251485 11.53824 106.502545 5.15424 108.053399 11.73504 108.029377 11.8944 109.264103 1.24416 111.894982 1.06368 110.497868 8.27328 108.955662 0.87744 109.05175 0.73536 107.947703 7.93056 106.291153 0.55008 106.517919 0.38208 105.217854 11.37696 105.251485"></polyline>
            <g id="Group-135" transform="translate(0.000000, 90.322353)">
                <mask id="mask-2" fill="white">
                    <use xlink:href="#path-1"></use>
                </mask>
                <g id="Clip-132"></g>
                <polyline id="Fill-131" fill="#D8252D" mask="url(#mask-2)" points="11.22048 13.0756019 0.35232 13.8952292 0.2448 12.4577585 11.11296 11.6381312 11.22048 13.0756019"></polyline>
                <polyline id="Fill-133" fill="#D8252D" mask="url(#mask-2)" points="10.93536 7.48138126 5.76192 9.18021019 4.15584 9.67217875 10.99488 9.46366864 11.03424 10.7570079 0.13728 11.0885101 0.09696 9.74616621 5.29056 8.21068621 6.91392 7.75234832 0.04224 7.96085843 0.00288 6.68289323 10.89984 6.35235185 10.93536 7.48138126"></polyline>
                <polyline id="Fill-134" fill="#D8252D" mask="url(#mask-2)" points="10.99392 2.23691954 5.72928 3.62250287 4.09632 4.01646207 10.93536 4.21824605 10.89696 5.51254615 0 5.19065265 0.03936 3.84734788 5.31552 2.62703524 6.96384 2.26574583 0.09216 2.0620401 0.1296 0.785035768 11.02656 1.10692926 10.99392 2.23691954"></polyline>
            </g>
            <polyline id="Fill-136" fill="#D8252D" points="11.0928 90.5692979 0.23424 89.6516612 0.528 86.1752115 1.86432 86.2885949 1.69152 88.3448697 4.968 88.621602 5.08896 87.1860532 6.37728 87.2946322 6.25632 88.730181 9.8592 89.0347788 10.032 86.9794648 11.3856 87.0938091 11.0928 90.5692979"></polyline>
            <path d="M2.94048,82.6411092 C2.51808,82.5824958 2.30304,82.7016444 2.2608,83.0100857 L2.16672,83.6913468 L5.79936,84.193885 L5.8848,83.5770026 C5.93184,83.2368524 5.74464,83.0283423 5.29152,82.9658854 L2.94048,82.6411092 Z M11.96832,83.0792687 C11.89728,83.5981418 11.21952,83.7201731 10.44096,83.6115941 L7.86144,83.2551091 C7.48992,83.2041826 7.17024,83.3579228 7.11936,83.7317036 L7.03104,84.364921 L11.65344,85.0039036 L11.45664,86.4317654 L0.65664,84.938564 L0.95904,82.7477665 C1.08672,81.8224428 1.70784,81.0306809 3.11904,81.2266996 L5.38848,81.5409061 C6.03744,81.6302676 6.46944,81.9713786 6.6528,82.5584739 C6.98784,82.0434443 7.51776,81.8022644 8.14944,81.8887433 L10.54944,82.2212064 C11.03616,82.2884677 11.38752,82.2548371 11.68608,82.1299232 L12.09216,82.1866149 L11.96832,83.0792687 Z" id="Fill-137" fill="#D8252D"></path>
            <path d="M8.86464,77.8914987 C8.69088,78.7255392 8.01504,79.2367252 7.0848,79.0416674 C6.17184,78.8504531 5.75712,78.1115393 5.9328,77.2774989 C6.10272,76.4588325 6.77952,75.9476464 7.69248,76.1388607 C8.62176,76.3339186 9.03552,77.0737932 8.86464,77.8914987" id="Fill-138" fill="#0A0B09"></path>
            <path d="M10.21152,71.2057229 C9.8016,71.0894569 9.50688,71.227823 9.41856,71.5429904 L9.2448,72.1569902 L12.70848,73.1380447 L12.90048,72.460627 C12.98496,72.1608337 12.84096,71.949441 12.43104,71.8341358 L10.21152,71.2057229 Z M5.68704,69.9421708 C5.27808,69.8259048 5.0448,69.9306403 4.95936,70.2294728 L4.77312,70.8915164 L8.09568,71.8322141 L8.26368,71.2335883 C8.35776,70.902086 8.20704,70.6551409 7.7808,70.5350314 L5.68704,69.9421708 Z M14.2032,72.7267897 L13.59264,74.8858783 L3.10464,71.917732 L3.7104,69.7740175 C3.9648,68.8755983 4.66368,68.2058677 6.03456,68.5931008 L7.94016,69.1321523 C8.61696,69.3243275 9.0384,69.6990692 9.09408,70.3447779 C9.51456,69.8172569 10.06944,69.7182867 10.73184,69.9056575 L12.84192,70.5033224 C14.2272,70.8953599 14.4528,71.8437446 14.2032,72.7267897 Z" id="Fill-139" fill="#0A0B09"></path>
            <polyline id="Fill-140" fill="#0A0B09" points="14.92896 70.2794383 4.60704 66.7549448 5.73312 63.4504919 7.00416 63.8848079 6.33792 65.8392299 9.45312 66.9029197 9.91776 65.5375148 11.14176 65.9564568 10.67712 67.3209008 14.10144 68.4912479 14.76864 66.5358651 16.05504 66.9759463 14.92896 70.2794383"></polyline>
            <path d="M17.09856,64.7582443 C16.61952,65.9603003 15.5376,66.3753987 14.25984,65.8651735 L13.16544,65.4289358 L13.65024,64.2115058 L14.79072,64.6660002 C15.32256,64.8783538 15.73344,64.7774618 15.90816,64.3364197 C16.09728,63.8646295 15.88416,63.5148706 15.38112,63.3150084 C14.43936,62.938345 13.53408,62.999841 12.21984,63.287143 C11.03232,63.5715623 9.34176,63.8319597 8.17152,63.3649739 C6.89472,62.8547487 6.16992,61.8419853 6.69792,60.5178981 C7.13472,59.4224993 8.20992,59.0227749 9.48768,59.5320392 L10.64256,59.9942206 L10.16352,61.1962766 L8.96256,60.7167994 C8.46048,60.5159763 8.07168,60.6082204 7.91328,61.0041014 C7.76256,61.3846083 7.91136,61.7612717 8.38272,61.9496035 C9.50784,62.3983326 10.19136,62.2301793 11.65056,61.9303859 C13.10016,61.6094533 14.48352,61.456674 15.65472,61.9246207 C17.2512,62.5616815 17.4864,63.7839159 17.09856,64.7582443" id="Fill-141" fill="#0A0B09"></path>
            <polyline id="Fill-142" fill="#0A0B09" points="10.33536 56.0382937 18.9744 60.0163208 18.3792 61.3106209 9.74016 57.3325938 9.1728 58.5682805 7.90848 57.9859896 9.6192 54.2654773 10.88256 54.8477683 10.33536 56.0382937"></polyline>
            <path d="M14.31168,51.298292 L18.16128,54.0175713 L18.6192,53.1854526 L14.31168,51.298292 Z M21.79584,54.5431705 L19.85184,53.6966387 L19.2432,54.8016462 L20.97504,56.036372 L20.34336,57.1846189 L11.496,50.6439354 L12.25344,49.266039 L22.50624,53.2517531 L21.79584,54.5431705 Z" id="Fill-143" fill="#0A0B09"></path>
            <polyline id="Fill-144" fill="#0A0B09" points="22.78464 52.8347328 13.4592 47.1809379 14.20512 45.947173 23.53248 51.6009679 22.78464 52.8347328"></polyline>
            <path d="M17.98368,43.6881533 C17.62944,43.4517778 17.38464,43.4661909 17.2128,43.7256275 L16.83168,44.2973488 L19.88352,46.3305626 L20.2272,45.8126504 C20.41824,45.5263093 20.34048,45.2582249 19.95936,45.0045536 L17.98368,43.6881533 Z M25.92096,48.0120957 C25.63104,48.4483335 24.96864,48.2619235 24.31392,47.8266466 L22.14816,46.3834108 C21.83424,46.1749006 21.48096,46.1749006 21.27168,46.4891071 L20.9184,47.0204716 L24.8016,49.60715 L24.00384,50.8072843 L14.93088,44.7624128 L16.15392,42.9223351 C16.67136,42.1449863 17.57472,41.7029833 18.75936,42.4928235 L20.66592,43.7631017 C21.21216,44.1263128 21.45312,44.621164 21.36192,45.2303594 C21.88896,44.9113486 22.4688,44.9248008 23.00064,45.2793641 L25.0176,46.6226689 C25.4256,46.8945968 25.7568,47.0166281 26.07936,47.0348847 L26.42016,47.2616515 L25.92096,48.0120957 Z" id="Fill-145" fill="#0A0B09"></path>
            <polyline id="Fill-146" fill="#0A0B09" points="26.72928 46.7716047 17.97888 40.2683953 18.82656 39.1239919 26.48736 44.8162218 27.6672 43.225011 28.75872 44.0350296 26.72928 46.7716047"></polyline>
            <polyline id="Fill-147" fill="#0A0B09" points="29.11104 43.6141659 20.60352 36.789063 21.504 35.6638771 30.01248 42.48898 29.11104 43.6141659"></polyline>
            <polyline id="Fill-148" fill="#0A0B09" points="32.7264 39.3123236 27.78528 37.0235167 26.27616 36.2865248 31.41984 40.8036033 30.5664 41.7760099 22.37184 34.5800088 23.25792 33.5691672 28.10112 35.9924967 29.6016 36.7650411 24.43392 32.2268233 25.27584 31.2659472 33.4704 38.4629091 32.7264 39.3123236"></polyline>
            <polyline id="Fill-149" fill="#0A0B09" points="34.06944 37.843144 26.2848 30.2070617 28.72416 27.71551 29.6832 28.6552468 28.23936 30.1292308 30.58848 32.4343725 31.59744 31.4043133 32.52096 32.3104195 31.51296 33.3395178 34.09632 35.8733481 35.54016 34.3993641 36.50976 35.3506315 34.06944 37.843144"></polyline>
            <path d="M38.4432,33.7699903 C37.49184,34.6472702 36.33792,34.5531043 35.40576,33.5403409 L34.60704,32.6736307 L35.57088,31.7848203 L36.40224,32.6890047 C36.79008,33.1108293 37.20384,33.1973081 37.55232,32.8754146 C37.92672,32.531421 37.88544,32.1240095 37.51872,31.7262068 C36.83136,30.9786452 35.98752,30.6432995 34.68,30.3338974 C33.48576,30.0763826 31.84992,29.5796096 30.99552,28.6514033 C30.06432,27.6386399 29.84832,26.4135229 30.89664,25.4468816 C31.76352,24.6483935 32.90496,24.753129 33.83712,25.7658924 L34.68,26.6816073 L33.72864,27.5579263 L32.85312,26.606659 C32.4864,26.2088563 32.09664,26.1223775 31.78272,26.4116012 C31.48224,26.6892944 31.4544,27.0938232 31.79808,27.467604 C32.61888,28.359297 33.3072,28.5034284 34.752,28.8647178 C36.19776,29.2019853 37.51104,29.662245 38.36544,30.5904513 C39.52992,31.8559251 39.21408,33.0599029 38.4432,33.7699903" id="Fill-150" fill="#0A0B09"></path>
            <polyline id="Fill-151" fill="#0A0B09" points="41.75232 30.65483 34.87392 22.1895116 35.99136 21.279562 42.86976 29.7448803 41.75232 30.65483"></polyline>
            <polyline id="Fill-152" fill="#0A0B09" points="46.19616 27.2091283 41.84832 23.9277365 40.52736 22.8871077 44.60448 28.3910059 43.56576 29.1625894 37.06752 20.3936342 38.14656 19.5922635 42.3744 22.9860779 43.67808 24.0584156 39.57984 18.5285737 40.60704 17.766599 47.10336 26.5355542 46.19616 27.2091283"></polyline>
            <polyline id="Fill-153" fill="#0A0B09" points="46.24128 15.7381895 51.30432 23.7970573 50.09952 24.5561494 45.03552 16.4972816 43.88544 17.2217822 43.14432 16.0427872 46.60896 13.8615985 47.34912 15.0405935 46.24128 15.7381895"></polyline>
            <polyline id="Fill-154" fill="#0A0B09" points="55.29312 21.4765416 53.01888 17.3803268 51.816 18.0490965 54.0912 22.1462722 52.83168 22.8467509 47.5344 13.3062121 48.79296 12.6057335 51.14016 16.8316665 52.34208 16.1628968 49.99584 11.9369637 51.25536 11.236485 56.55264 20.7760629 55.29312 21.4765416"></polyline>
            <polyline id="Fill-155" fill="#0A0B09" points="57.36192 20.3724949 52.60032 10.5590674 55.73664 9.0351179 56.32224 10.2429392 54.46752 11.1442409 55.90368 14.1066219 57.19968 13.4772481 57.76512 14.640869 56.46912 15.2702429 58.04928 18.5266519 59.90304 17.6253502 60.49728 18.8485454 57.36192 20.3724949"></polyline>
            <path d="M64.65792,17.269826 C63.5616,17.7051029 62.4048,17.2294692 61.92768,16.0264524 L58.64448,7.73889605 L59.98368,7.20753157 L63.29184,15.5556231 C63.45984,15.9822521 63.76992,16.1417575 64.15008,15.9908999 C64.56192,15.827551 64.67808,15.4989314 64.50912,15.0723024 L61.20192,6.7242109 L62.47968,6.21686832 L65.76288,14.5044246 C66.24,15.7074415 65.75328,16.83551 64.65792,17.269826" id="Fill-156" fill="#0A0B09"></path>
            <polyline id="Fill-157" fill="#0A0B09" points="67.20288 16.1321487 66.61248 14.4477329 67.69248 14.0681869 68.28384 15.7526027 67.20288 16.1321487"></polyline>
            <path d="M70.87872,15.0799894 C69.6432,15.4614572 68.64192,14.8782054 68.2368,13.5637269 L67.89024,12.4356584 L69.14112,12.0493862 L69.50208,13.2245377 C69.67104,13.772237 70.008,14.028791 70.46112,13.888503 C70.94592,13.7395673 71.08416,13.3542559 70.92576,12.8373046 C70.62624,11.8658589 70.00992,11.1990109 68.96256,10.3563225 C67.99584,9.60876093 66.73344,8.45474874 66.36192,7.24884924 C65.9568,5.93437075 66.29088,4.73423651 67.6512,4.31433366 C68.77824,3.96649651 69.7632,4.55455268 70.16832,5.86999205 L70.53504,7.05955665 L69.29952,7.44102446 L68.9184,6.20341606 C68.75904,5.68742559 68.4432,5.44144131 68.03712,5.56731608 C67.64544,5.68742559 67.44576,6.04006712 67.59552,6.52627042 C67.95168,7.68412611 68.51136,8.11267685 69.65952,9.06106156 C70.82016,9.98926786 71.80704,10.9712832 72.17856,12.1762218 C72.68448,13.8212417 71.88,14.7715482 70.87872,15.0799894" id="Fill-158" fill="#0A0B09"></path>
            <polyline id="Fill-159" fill="#0A0B09" points="73.39968 14.1748441 72.93984 12.4481498 74.04768 12.1531608 74.50656 13.8788943 73.39968 14.1748441"></polyline>
            <path d="M84.80928,46.6457299 C85.80672,45.2755206 86.59584,44.1147823 86.59584,42.1642038 C86.59584,39.5400512 85.24992,38.0775978 82.55808,38.0775978 C79.728,38.0775978 78.59136,39.8888492 78.59136,42.6292679 L78.59136,43.6968012 L81.32928,43.6968012 L81.32928,42.4197969 C81.32928,41.1889146 81.58368,40.3760134 82.55808,40.3760134 C83.55648,40.3760134 83.78784,41.1197315 83.78784,42.1411428 C83.78784,43.6506791 83.0688,44.6951515 82.18752,45.9029727 L78.56832,50.8495628 L78.56832,52.8923854 L86.59584,52.8923854 L86.59584,50.4546428 L81.9552,50.4546428 L84.80928,46.6457299" id="Fill-160" fill="#FFFFFE"></path>
            <path d="M97.10016,44.6720904 C97.10016,40.4922794 95.8944,38.0775978 92.76192,38.0775978 C89.6064,38.0775978 88.40064,40.4922794 88.40064,44.6720904 L88.40064,46.4833419 C88.40064,50.6631529 89.6064,53.0787954 92.76192,53.0787954 C95.8944,53.0787954 97.10016,50.6631529 97.10016,46.4833419 L97.10016,44.6720904 Z M91.36992,43.232698 C91.36992,41.5377126 91.64832,40.4230964 92.76192,40.4230964 C93.87552,40.4230964 94.15392,41.5377126 94.15392,43.232698 L94.15392,47.9236951 C94.15392,49.6186806 93.87552,50.7332968 92.76192,50.7332968 C91.64832,50.7332968 91.36992,49.6186806 91.36992,47.9236951 L91.36992,43.232698 Z" id="Fill-161" fill="#FFFFFE"></path>
            <path d="M98.71968,42.3275528 L100.39104,42.3275528 L100.39104,52.8923854 L103.2672,52.8923854 L103.2672,38.2169248 L101.15616,38.2169248 C100.7616,39.7956443 100.41312,40.4230964 98.71968,40.4461574 L98.71968,42.3275528" id="Fill-162" fill="#FFFFFE"></path>
            <path d="M109.41024,44.5097024 C108.48192,44.5097024 108.08832,43.8130672 108.08832,42.4197969 C108.08832,40.9804045 108.48192,40.3068303 109.41024,40.3068303 C110.3616,40.3068303 110.73312,40.9804045 110.73312,42.4197969 C110.73312,43.8130672 110.3616,44.5097024 109.41024,44.5097024 Z M109.41024,50.8495628 C108.50592,50.8495628 108.08832,50.2221107 108.08832,48.7125744 C108.08832,47.2030381 108.50592,46.5765469 109.41024,46.5765469 C110.31552,46.5765469 110.75712,47.2030381 110.75712,48.7125744 C110.75712,50.2221107 110.31552,50.8495628 109.41024,50.8495628 Z M109.41024,53.0787954 C112.28736,53.0787954 113.51808,51.452993 113.51808,48.8749625 C113.51808,46.994528 112.752,45.9029727 111.59232,45.5311137 C112.752,45.1832765 113.47104,44.0455992 113.47104,42.2574088 C113.47104,39.7034002 112.28736,38.0775978 109.41024,38.0775978 C106.53408,38.0775978 105.35136,39.7034002 105.35136,42.2574088 C105.35136,44.0455992 106.02336,45.1832765 107.184,45.5311137 C106.02336,45.9029727 105.30432,46.994528 105.30432,48.8749625 C105.30432,51.452993 106.53408,53.0787954 109.41024,53.0787954 Z" id="Fill-163" fill="#FFFFFE"></path>
        </g>
    </g>
</svg>