<svg data-name="Layer 1" xmlns="http://www.w3.org/2000/svg" viewBox="0 0 80 82.5"><defs><style>.check-cls-1{fill:#fff}.check-cls-2{fill:#2774ae}.check-cls-3{fill:#b3d57d}</style><mask id="mask" x="76" y="36.6" width="4" height="4.7" maskUnits="userSpaceOnUse"><g id="mask-2"><path id="path-1" class="check-cls-1" d="M76 36.6h4v4.7h-4v-4.7z"></path></g></mask><mask id="mask-2-2" x="76" y="32" width="4" height="4.7" maskUnits="userSpaceOnUse"><g id="mask-4"><path id="path-3" class="check-cls-1" d="M76 32h4v4.7h-4V32z"></path></g></mask></defs><g id="Page-1"><g id="Artboard-2"><g id="Group-543"><path id="Fill-1" class="check-cls-2" d="M27.7 64c-.4-.1-1 .8-1.5 2.1l-.2.5-.2-.5c-.5-1.2-1.2-2.1-1.6-2s-.2 1.3.3 2.6 1.2 2 1.6 2 1-.8 1.5-2.1.5-2.5.1-2.6"></path><path id="Fill-3" class="check-cls-1" d="M31.7 64c-.3-.1-1 .8-1.5 2.1a1.1 1.1 0 0 0-.1.5.8.8 0 0 1-.2-.5c-.6-1.2-1.3-2.1-1.7-2s-.2 1.3.3 2.6 1.2 2 1.6 2 1-.8 1.5-2.1.5-2.5.1-2.6"></path><path id="Fill-5" class="check-cls-3" d="M27.7 68.6c-.4-.1-1 .8-1.5 2.1l-.2.5-.2-.5c-.1-.2-1.2-2.2-1.6-2s-.2 1.3.3 2.6 1.2 2 1.6 2 1-.8 1.5-2.1.5-2.5.1-2.6"></path><path id="Fill-7" class="check-cls-2" d="M31.7 68.6c-.3-.1-1 .8-1.5 2.1a.9.9 0 0 0-.1.5l-.2-.5c0-.2-1.3-2.2-1.7-2s-.2 1.3.3 2.6 1.2 2 1.6 2 1-.8 1.5-2.1.5-2.5.1-2.6"></path><path id="Fill-9" class="check-cls-1" d="M35.7 64c-.3-.1-1 .8-1.5 2.1a4.3 4.3 0 0 1-.1.5.8.8 0 0 1-.2-.5c-.6-1.2-1.3-2.1-1.7-2s-.2 1.3.3 2.6 1.2 2 1.6 2 1-.8 1.5-2.1.5-2.5.1-2.6"></path><path id="Fill-11" class="check-cls-1" d="M39.8 64c-.4-.1-1.1.8-1.6 2.1a4.3 4.3 0 0 1-.1.5l-.2-.5c-.1-.2-1.3-2.1-1.7-2s-.2 1.3.3 2.6 1.2 2 1.6 2 1.1-.8 1.5-2.1.5-2.5.2-2.6"></path><path id="Fill-13" class="check-cls-2" d="M39.8 68.6c-.4-.1-1.1.8-1.6 2.1s-.1.3-.1.5l-.2-.5c-.5-1.3-1.3-2.2-1.7-2s-.2 1.3.3 2.6 1.2 2 1.6 2 1.1-.8 1.5-2.1.5-2.5.2-2.6"></path><path id="Fill-15" class="check-cls-1" d="M19.7 54.9c-.4-.2-1.1.8-1.5 2.1l-.2.5-.2-.5c-.1-.2-1.2-2.2-1.6-2s-.2 1.3.3 2.6 1.2 2 1.6 2 1-.9 1.5-2.1.5-2.5.1-2.6"></path><path id="Fill-17" class="check-cls-1" d="M23.7 54.9c-.4-.2-1.1.8-1.5 2.1l-.2.5-.2-.5c-.1-.2-1.2-2.2-1.6-2s-.2 1.3.3 2.6 1.2 2 1.6 2 1-.9 1.5-2.1.5-2.5.1-2.6"></path><path id="Fill-19" class="check-cls-1" d="M27.7 54.9c-.4-.2-1 .8-1.5 2.1l-.2.5-.2-.5c-.1-.2-1.2-2.2-1.6-2s-.2 1.3.3 2.6 1.2 2 1.6 2 1-.9 1.5-2.1.5-2.5.1-2.6"></path><path id="Fill-21" class="check-cls-1" d="M31.7 54.9c-.3-.2-1 .8-1.5 2.1a.9.9 0 0 0-.1.5l-.2-.5c0-.2-1.3-2.2-1.7-2s-.2 1.3.3 2.6 1.2 2 1.6 2 1-.9 1.5-2.1.5-2.5.1-2.6"></path><path id="Fill-23" class="check-cls-1" d="M35.7 54.9c-.3-.2-1 .8-1.5 2.1s-.1.3-.1.5l-.2-.5c0-.2-1.3-2.2-1.7-2s-.2 1.3.3 2.6 1.2 2 1.6 2 1-.9 1.5-2.1.5-2.5.1-2.6"></path><path id="Fill-25" class="check-cls-1" d="M39.8 54.9c-.4-.2-1.1.8-1.6 2.1s-.1.3-.1.5l-.2-.5c-.5-1.3-1.3-2.2-1.7-2s-.2 1.3.3 2.6 1.2 2 1.6 2 1.1-.9 1.5-2.1.5-2.5.2-2.6"></path><path id="Fill-27" class="check-cls-1" d="M23.7 59.4c-.4-.1-1.1.9-1.5 2.2s-.1.3-.2.5a.8.8 0 0 0-.2-.5c-.5-1.3-1.2-2.2-1.6-2.1s-.2 1.4.3 2.6 1.2 2.1 1.6 2.1 1-.9 1.5-2.2.5-2.4.1-2.6"></path><path id="Fill-29" class="check-cls-2" d="M23.7 64c-.4-.1-1.1.8-1.5 2.1s-.1.4-.2.5l-.2-.5c-.5-1.2-1.2-2.1-1.6-2s-.2 1.3.3 2.6 1.2 2 1.6 2 1-.8 1.5-2.1.5-2.5.1-2.6"></path><path id="Fill-31" class="check-cls-2" d="M19.7 59.4c-.4-.1-1.1.9-1.5 2.2s-.1.3-.2.5a.8.8 0 0 0-.2-.5c-.5-1.3-1.2-2.2-1.6-2.1s-.2 1.4.3 2.6 1.2 2.1 1.6 2.1 1-.9 1.5-2.2.5-2.4.1-2.6"></path><path id="Fill-33" class="check-cls-1" d="M27.7 59.4c-.4-.1-1 .9-1.5 2.2l-.2.5a.8.8 0 0 0-.2-.5c-.5-1.3-1.2-2.2-1.6-2.1s-.2 1.4.3 2.6 1.2 2.1 1.6 2.1 1-.9 1.5-2.2.5-2.4.1-2.6"></path><path id="Fill-35" class="check-cls-1" d="M31.7 59.4c-.3-.1-1 .9-1.5 2.2a.7.7 0 0 0-.1.5 1.7 1.7 0 0 1-.2-.5c-.6-1.3-1.3-2.2-1.7-2.1s-.2 1.4.3 2.6 1.2 2.1 1.6 2.1 1-.9 1.5-2.2.5-2.4.1-2.6"></path><path id="Fill-37" class="check-cls-1" d="M35.7 59.4c-.3-.1-1 .9-1.5 2.2a4.3 4.3 0 0 0-.1.5 1.7 1.7 0 0 1-.2-.5c-.6-1.3-1.3-2.2-1.7-2.1s-.2 1.4.3 2.6 1.2 2.1 1.6 2.1 1-.9 1.5-2.2.5-2.4.1-2.6"></path><path id="Fill-39" class="check-cls-1" d="M39.8 59.4c-.4-.1-1.1.9-1.6 2.2a4.3 4.3 0 0 0-.1.5l-.2-.5c-.1-.1-1.3-2.2-1.7-2.1s-.2 1.4.3 2.6 1.2 2.1 1.6 2.1 1.1-.9 1.5-2.2.5-2.4.2-2.6"></path><path id="Fill-41" class="check-cls-1" d="M15.7 45.7c-.4-.1-1.1.8-1.5 2.1s-.1.4-.2.5l-.2-.4c-.5-1.3-1.3-2.2-1.6-2.1s-.3 1.4.3 2.6 1.2 2.1 1.5 2 1.1-.8 1.5-2.1.6-2.4.2-2.6"></path><path id="Fill-43" class="check-cls-1" d="M19.7 45.7c-.4-.1-1.1.8-1.5 2.1s-.1.4-.2.5l-.2-.4c-.5-1.3-1.2-2.2-1.6-2.1s-.2 1.4.3 2.6 1.2 2.1 1.6 2 1-.8 1.5-2.1.5-2.4.1-2.6"></path><path id="Fill-45" class="check-cls-1" d="M23.7 45.7c-.4-.1-1.1.8-1.5 2.1s-.1.4-.2.5l-.2-.4c-.5-1.3-1.2-2.2-1.6-2.1s-.2 1.4.3 2.6 1.2 2.1 1.6 2 1-.8 1.5-2.1.5-2.4.1-2.6"></path><path id="Fill-47" class="check-cls-1" d="M27.7 45.7c-.4-.1-1 .8-1.5 2.1l-.2.5-.2-.4c-.5-1.3-1.2-2.2-1.6-2.1s-.2 1.4.3 2.6 1.2 2.1 1.6 2 1-.8 1.5-2.1.5-2.4.1-2.6"></path><path id="Fill-49" class="check-cls-3" d="M31.7 45.7c-.3-.1-1 .8-1.5 2.1a1.1 1.1 0 0 0-.1.5.8.8 0 0 1-.2-.4c-.6-1.3-1.3-2.2-1.7-2.1s-.2 1.4.3 2.6 1.2 2.1 1.6 2 1-.8 1.5-2.1.5-2.4.1-2.6"></path><path id="Fill-51" class="check-cls-3" d="M35.7 45.7c-.3-.1-1 .8-1.5 2.1a4.3 4.3 0 0 1-.1.5.8.8 0 0 1-.2-.4c-.6-1.3-1.3-2.2-1.7-2.1s-.2 1.4.3 2.6 1.2 2.1 1.6 2 1-.8 1.5-2.1.5-2.4.1-2.6"></path><path id="Fill-53" class="check-cls-3" d="M39.8 45.7c-.4-.1-1.1.8-1.6 2.1a4.3 4.3 0 0 1-.1.5l-.2-.4c-.1-.1-1.3-2.2-1.7-2.1s-.2 1.4.3 2.6 1.2 2.1 1.6 2 1.1-.8 1.5-2.1.5-2.4.2-2.6"></path><path id="Fill-55" class="check-cls-1" d="M19.7 50.3c-.4-.1-1.1.8-1.5 2.1s-.1.4-.2.5a1.7 1.7 0 0 0-.2-.5c-.5-1.2-1.2-2.2-1.6-2s-.2 1.3.3 2.6 1.2 2 1.6 2 1-.8 1.5-2.1.5-2.5.1-2.6"></path><path id="Fill-57" class="check-cls-2" d="M15.7 54.9c-.4-.2-1.1.8-1.5 2.1l-.2.5-.2-.5c-.1-.2-1.2-2.2-1.6-2s-.2 1.3.3 2.6 1.2 2 1.6 2 1-.9 1.5-2.1.5-2.5.1-2.6"></path><path id="Fill-59" class="check-cls-1" d="M15.7 50.3c-.4-.1-1.1.8-1.5 2.1s-.1.4-.2.5a1.7 1.7 0 0 0-.2-.5c-.5-1.2-1.2-2.2-1.6-2s-.2 1.3.3 2.6 1.2 2 1.6 2 1-.8 1.5-2.1.5-2.5.1-2.6"></path><path id="Fill-61" class="check-cls-1" d="M23.7 50.3c-.4-.1-1.1.8-1.5 2.1s-.1.4-.2.5a1.7 1.7 0 0 0-.2-.5c-.5-1.2-1.2-2.2-1.6-2s-.2 1.3.3 2.6 1.2 2 1.6 2 1-.8 1.5-2.1.5-2.5.1-2.6"></path><path id="Fill-63" class="check-cls-1" d="M27.7 50.3c-.4-.1-1 .8-1.5 2.1l-.2.5a1.7 1.7 0 0 0-.2-.5c-.5-1.2-1.2-2.2-1.6-2s-.2 1.3.3 2.6 1.2 2 1.6 2 1-.8 1.5-2.1.5-2.5.1-2.6"></path><path id="Fill-65" class="check-cls-1" d="M31.7 50.3c-.3-.1-1 .8-1.5 2.1a1.1 1.1 0 0 0-.1.5.8.8 0 0 1-.2-.5c-.6-1.2-1.3-2.2-1.7-2s-.2 1.3.3 2.6 1.2 2 1.6 2 1-.8 1.5-2.1.5-2.5.1-2.6"></path><path id="Fill-67" class="check-cls-3" d="M35.7 50.3c-.3-.1-1 .8-1.5 2.1a4.3 4.3 0 0 1-.1.5.8.8 0 0 1-.2-.5c-.6-1.2-1.3-2.2-1.7-2s-.2 1.3.3 2.6 1.2 2 1.6 2 1-.8 1.5-2.1.5-2.5.1-2.6"></path><path id="Fill-69" class="check-cls-3" d="M39.8 50.3c-.4-.1-1.1.8-1.6 2.1a4.3 4.3 0 0 1-.1.5l-.2-.5c-.1-.2-1.3-2.2-1.7-2s-.2 1.3.3 2.6 1.2 2 1.6 2 1.1-.8 1.5-2.1.5-2.5.2-2.6"></path><path id="Fill-71" class="check-cls-1" d="M19.7 36.6c-.4-.1-1.1.8-1.5 2.1l-.2.5-.2-.5c-.1-.2-1.2-2.2-1.6-2s-.2 1.3.3 2.6 1.2 2 1.6 2 1-.8 1.5-2.1.5-2.5.1-2.6"></path><path id="Fill-73" class="check-cls-1" d="M23.7 36.6c-.4-.1-1.1.8-1.5 2.1l-.2.5-.2-.5c-.1-.2-1.2-2.2-1.6-2s-.2 1.3.3 2.6 1.2 2 1.6 2 1-.8 1.5-2.1.5-2.5.1-2.6"></path><path id="Fill-75" class="check-cls-1" d="M27.7 36.6c-.4-.1-1 .8-1.5 2.1l-.2.5-.2-.5c-.1-.2-1.2-2.2-1.6-2s-.2 1.3.3 2.6 1.2 2 1.6 2 1-.8 1.5-2.1.5-2.5.1-2.6"></path><path id="Fill-77" class="check-cls-1" d="M31.7 36.6c-.3-.1-1 .8-1.5 2.1a.9.9 0 0 0-.1.5l-.2-.5c0-.2-1.3-2.2-1.7-2s-.2 1.3.3 2.6 1.2 2 1.6 2 1-.8 1.5-2.1.5-2.5.1-2.6"></path><path id="Fill-79" class="check-cls-1" d="M35.7 36.6c-.3-.1-1 .8-1.5 2.1s-.1.3-.1.5l-.2-.5c0-.2-1.3-2.2-1.7-2s-.2 1.3.3 2.6 1.2 2 1.6 2 1-.8 1.5-2.1.5-2.5.1-2.6"></path><path id="Fill-81" class="check-cls-1" d="M39.8 36.6c-.4-.1-1.1.8-1.6 2.1s-.1.3-.1.5l-.2-.5c-.5-1.3-1.3-2.2-1.7-2s-.2 1.3.3 2.6 1.2 2 1.6 2 1.1-.8 1.5-2.1.5-2.5.2-2.6"></path><path id="Fill-83" class="check-cls-1" d="M15.7 41.2c-.4-.2-1.1.8-1.5 2.1s-.1.3-.2.5a.8.8 0 0 0-.2-.5c-.5-1.3-1.3-2.2-1.6-2s-.3 1.3.3 2.5 1.2 2.1 1.5 2.1 1.1-.9 1.5-2.1.6-2.5.2-2.6"></path><path id="Fill-85" class="check-cls-1" d="M19.7 41.2c-.4-.2-1.1.8-1.5 2.1s-.1.3-.2.5a.8.8 0 0 0-.2-.5c-.5-1.3-1.2-2.2-1.6-2s-.2 1.3.3 2.5 1.2 2.1 1.6 2.1 1-.9 1.5-2.1.5-2.5.1-2.6"></path><path id="Fill-87" class="check-cls-1" d="M23.7 41.2c-.4-.2-1.1.8-1.5 2.1s-.1.3-.2.5a.8.8 0 0 0-.2-.5c-.5-1.3-1.2-2.2-1.6-2s-.2 1.3.3 2.5 1.2 2.1 1.6 2.1 1-.9 1.5-2.1.5-2.5.1-2.6"></path><path id="Fill-89" class="check-cls-3" d="M27.7 41.2c-.4-.2-1 .8-1.5 2.1l-.2.5a.8.8 0 0 0-.2-.5c-.5-1.3-1.2-2.2-1.6-2s-.2 1.3.3 2.5 1.2 2.1 1.6 2.1 1-.9 1.5-2.1.5-2.5.1-2.6"></path><path id="Fill-91" class="check-cls-1" d="M31.7 41.2c-.3-.2-1 .8-1.5 2.1a.7.7 0 0 0-.1.5 1.7 1.7 0 0 1-.2-.5c-.6-1.3-1.3-2.2-1.7-2s-.2 1.3.3 2.5 1.2 2.1 1.6 2.1 1-.9 1.5-2.1.5-2.5.1-2.6"></path><path id="Fill-93" class="check-cls-1" d="M35.7 41.2c-.3-.2-1 .8-1.5 2.1a4.3 4.3 0 0 0-.1.5 1.7 1.7 0 0 1-.2-.5c-.6-1.3-1.3-2.2-1.7-2s-.2 1.3.3 2.5 1.2 2.1 1.6 2.1 1-.9 1.5-2.1.5-2.5.1-2.6"></path><path id="Fill-95" class="check-cls-1" d="M39.8 41.2c-.4-.2-1.1.8-1.6 2.1a4.3 4.3 0 0 0-.1.5l-.2-.5c-.1-.1-1.3-2.2-1.7-2s-.2 1.3.3 2.5 1.2 2.1 1.6 2.1 1.1-.9 1.5-2.1.5-2.5.2-2.6"></path><path id="Fill-97" class="check-cls-1" d="M19.7 27.4c-.4-.1-1.1.9-1.5 2.2s-.1.3-.2.5a.8.8 0 0 0-.2-.5c-.5-1.3-1.2-2.2-1.6-2.1s-.2 1.4.3 2.6 1.2 2.1 1.6 2.1 1-.9 1.5-2.2.5-2.4.1-2.6"></path><path id="Fill-99" class="check-cls-1" d="M19.7 22.9c-.4-.2-1.1.8-1.5 2.1l-.2.5-.2-.5c-.1-.2-1.2-2.2-1.6-2s-.2 1.3.3 2.6 1.2 2 1.6 2 1-.9 1.5-2.1.5-2.5.1-2.6"></path><path id="Fill-101" class="check-cls-2" d="M15.7 22.9c-.4-.2-1.1.8-1.5 2.1l-.2.5-.2-.5c-.1-.2-1.2-2.2-1.6-2s-.2 1.3.3 2.6 1.2 2 1.6 2 1-.9 1.5-2.1.5-2.5.1-2.6"></path><path id="Fill-103" class="check-cls-1" d="M23.7 27.4c-.4-.1-1.1.9-1.5 2.2s-.1.3-.2.5a.8.8 0 0 0-.2-.5c-.5-1.3-1.2-2.2-1.6-2.1s-.2 1.4.3 2.6 1.2 2.1 1.6 2.1 1-.9 1.5-2.2.5-2.4.1-2.6"></path><path id="Fill-105" class="check-cls-1" d="M27.7 27.4c-.4-.1-1 .9-1.5 2.2l-.2.5a.8.8 0 0 0-.2-.5c-.5-1.3-1.2-2.2-1.6-2.1s-.2 1.4.3 2.6 1.2 2.1 1.6 2.1 1-.9 1.5-2.2.5-2.4.1-2.6"></path><path id="Fill-107" class="check-cls-1" d="M31.7 27.4c-.3-.1-1 .9-1.5 2.2a.7.7 0 0 0-.1.5l-.2-.5c-.6-1.3-1.3-2.2-1.7-2.1s-.2 1.4.3 2.6 1.2 2.1 1.6 2.1 1-.9 1.5-2.2.5-2.4.1-2.6"></path><path id="Fill-109" class="check-cls-1" d="M35.7 27.4c-.3-.1-1 .9-1.5 2.2a4.3 4.3 0 0 0-.1.5l-.2-.5c-.6-1.3-1.3-2.2-1.7-2.1s-.2 1.4.3 2.6 1.2 2.1 1.6 2.1 1-.9 1.5-2.2.5-2.4.1-2.6"></path><path id="Fill-111" class="check-cls-1" d="M39.8 27.4c-.4-.1-1.1.9-1.6 2.2a4.3 4.3 0 0 0-.1.5l-.2-.5c-.1-.1-1.3-2.2-1.7-2.1s-.2 1.4.3 2.6 1.2 2.1 1.6 2.1 1.1-.9 1.5-2.2.5-2.4.2-2.6"></path><path id="Fill-113" class="check-cls-1" d="M19.7 32c-.4-.1-1.1.8-1.5 2.1s-.1.4-.2.5a1.7 1.7 0 0 0-.2-.5c-.5-1.2-1.2-2.1-1.6-2s-.2 1.3.3 2.6 1.2 2 1.6 2 1-.8 1.5-2.1.5-2.5.1-2.6"></path><path id="Fill-115" class="check-cls-1" d="M15.7 27.4c-.4-.1-1.1.9-1.5 2.2s-.1.3-.2.5a.8.8 0 0 0-.2-.5c-.5-1.3-1.2-2.2-1.6-2.1s-.2 1.4.3 2.6 1.2 2.1 1.6 2.1 1-.9 1.5-2.2.5-2.4.1-2.6"></path><path id="Fill-117" class="check-cls-2" d="M11.7 27.4c-.4-.1-1.1.9-1.5 2.2s-.1.3-.2.5a.8.8 0 0 0-.2-.5c-.5-1.3-1.2-2.2-1.6-2.1s-.2 1.4.3 2.6 1.2 2.1 1.6 2.1 1-.9 1.5-2.2.5-2.4.1-2.6"></path><path id="Fill-119" class="check-cls-1" d="M15.7 32c-.4-.1-1.1.8-1.5 2.1s-.1.4-.2.5a1.7 1.7 0 0 0-.2-.5c-.5-1.2-1.2-2.1-1.6-2s-.2 1.3.3 2.6 1.2 2 1.6 2 1-.8 1.5-2.1.5-2.5.1-2.6"></path><path id="Fill-121" class="check-cls-2" d="M11.7 32c-.4-.1-1.1.8-1.5 2.1s-.1.4-.2.5a1.7 1.7 0 0 0-.2-.5c-.5-1.2-1.2-2.1-1.6-2s-.2 1.3.3 2.6 1.2 2 1.6 2 1-.8 1.5-2.1.5-2.5.1-2.6"></path><path id="Fill-123" class="check-cls-1" d="M23.7 32c-.4-.1-1.1.8-1.5 2.1s-.1.4-.2.5a1.7 1.7 0 0 0-.2-.5c-.5-1.2-1.2-2.1-1.6-2s-.2 1.3.3 2.6 1.2 2 1.6 2 1-.8 1.5-2.1.5-2.5.1-2.6"></path><path id="Fill-125" class="check-cls-1" d="M27.7 32c-.4-.1-1 .8-1.5 2.1l-.2.5a1.7 1.7 0 0 0-.2-.5c-.5-1.2-1.2-2.1-1.6-2s-.2 1.3.3 2.6 1.2 2 1.6 2 1-.8 1.5-2.1.5-2.5.1-2.6"></path><path id="Fill-127" class="check-cls-1" d="M31.7 32c-.3-.1-1 .8-1.5 2.1a1.1 1.1 0 0 0-.1.5.8.8 0 0 1-.2-.5c-.6-1.2-1.3-2.1-1.7-2s-.2 1.3.3 2.6 1.2 2 1.6 2 1-.8 1.5-2.1.5-2.5.1-2.6"></path><path id="Fill-129" class="check-cls-1" d="M35.7 32c-.3-.1-1 .8-1.5 2.1a4.3 4.3 0 0 1-.1.5.8.8 0 0 1-.2-.5c-.6-1.2-1.3-2.1-1.7-2s-.2 1.3.3 2.6 1.2 2 1.6 2 1-.8 1.5-2.1.5-2.5.1-2.6"></path><path id="Fill-131" class="check-cls-1" d="M39.8 32c-.4-.1-1.1.8-1.6 2.1a4.3 4.3 0 0 1-.1.5l-.2-.5c-.1-.2-1.3-2.1-1.7-2s-.2 1.3.3 2.6 1.2 2 1.6 2 1.1-.8 1.5-2.1.5-2.5.2-2.6"></path><path id="Fill-133" class="check-cls-1" d="M31.7 18.3c-.3-.1-1 .8-1.5 2.1a1.1 1.1 0 0 0-.1.5.8.8 0 0 1-.2-.5c-.6-1.2-1.3-2.2-1.7-2s-.2 1.3.3 2.6 1.2 2 1.6 2 1-.8 1.5-2.1.5-2.5.1-2.6"></path><path id="Fill-135" class="check-cls-1" d="M35.7 18.3c-.3-.1-1 .8-1.5 2.1a4.3 4.3 0 0 1-.1.5.8.8 0 0 1-.2-.5c-.6-1.2-1.3-2.2-1.7-2s-.2 1.3.3 2.6 1.2 2 1.6 2 1-.8 1.5-2.1.5-2.5.1-2.6"></path><path id="Fill-137" class="check-cls-1" d="M39.8 18.3c-.4-.1-1.1.8-1.6 2.1a4.3 4.3 0 0 1-.1.5l-.2-.5c-.1-.2-1.3-2.2-1.7-2s-.2 1.3.3 2.6 1.2 2 1.6 2 1.1-.8 1.5-2.1.5-2.5.2-2.6"></path><path id="Fill-139" class="check-cls-1" d="M23.7 22.9c-.4-.2-1.1.8-1.5 2.1l-.2.5-.2-.5c-.1-.2-1.2-2.2-1.6-2s-.2 1.3.3 2.6 1.2 2 1.6 2 1-.9 1.5-2.1.5-2.5.1-2.6"></path><path id="Fill-141" class="check-cls-1" d="M23.7 18.3c-.4-.1-1.1.8-1.5 2.1s-.1.4-.2.5l-.2-.5c-.5-1.2-1.2-2.2-1.6-2s-.2 1.3.3 2.6 1.2 2 1.6 2 1-.8 1.5-2.1.5-2.5.1-2.6"></path><path id="Fill-143" class="check-cls-2" d="M19.7 18.3c-.4-.1-1.1.8-1.5 2.1s-.1.4-.2.5l-.2-.5c-.5-1.2-1.2-2.2-1.6-2s-.2 1.3.3 2.6 1.2 2 1.6 2 1-.8 1.5-2.1.5-2.5.1-2.6"></path><path id="Fill-145" class="check-cls-1" d="M27.7 22.9c-.4-.2-1 .8-1.5 2.1l-.2.5-.2-.5c-.1-.2-1.2-2.2-1.6-2s-.2 1.3.3 2.6 1.2 2 1.6 2 1-.9 1.5-2.1.5-2.5.1-2.6"></path><path id="Fill-147" class="check-cls-1" d="M31.7 22.9c-.3-.2-1 .8-1.5 2.1a.9.9 0 0 0-.1.5l-.2-.5c0-.2-1.3-2.2-1.7-2s-.2 1.3.3 2.6 1.2 2 1.6 2 1-.9 1.5-2.1.5-2.5.1-2.6"></path><path id="Fill-149" class="check-cls-1" d="M35.7 22.9c-.3-.2-1 .8-1.5 2.1s-.1.3-.1.5l-.2-.5c0-.2-1.3-2.2-1.7-2s-.2 1.3.3 2.6 1.2 2 1.6 2 1-.9 1.5-2.1.5-2.5.1-2.6"></path><path id="Fill-151" class="check-cls-1" d="M39.8 22.9c-.4-.2-1.1.8-1.6 2.1s-.1.3-.1.5l-.2-.5c-.5-1.3-1.3-2.2-1.7-2s-.2 1.3.3 2.6 1.2 2 1.6 2 1.1-.9 1.5-2.1.5-2.5.2-2.6"></path><path id="Fill-153" class="check-cls-2" d="M52.3 64c.3-.1 1 .8 1.5 2.1a4.3 4.3 0 0 0 .1.5.8.8 0 0 0 .2-.5c.6-1.2 1.3-2.1 1.7-2s.2 1.3-.3 2.6-1.2 2-1.6 2-1-.8-1.5-2.1-.5-2.5-.1-2.6"></path><path id="Fill-155" class="check-cls-1" d="M48.2 64c.4-.1 1.1.8 1.6 2.1a4.3 4.3 0 0 0 .1.5l.2-.5c.1-.2 1.3-2.1 1.7-2s.2 1.3-.3 2.6-1.2 2-1.6 2-1.1-.8-1.5-2.1-.5-2.5-.2-2.6"></path><path id="Fill-157" class="check-cls-3" d="M52.3 68.6c.3-.1 1 .8 1.5 2.1s.1.3.1.5l.2-.5c0-.2 1.3-2.2 1.7-2s.2 1.3-.3 2.6-1.2 2-1.6 2-1-.8-1.5-2.1-.5-2.5-.1-2.6"></path><path id="Fill-159" class="check-cls-2" d="M48.2 68.6c.4-.1 1.1.8 1.6 2.1s.1.3.1.5l.2-.5c.5-1.3 1.3-2.2 1.7-2s.2 1.3-.3 2.6-1.2 2-1.6 2-1.1-.8-1.5-2.1-.5-2.5-.2-2.6"></path><path id="Fill-161" class="check-cls-1" d="M44.2 64c.4-.1 1.1.8 1.5 2.1l.2.5.2-.5c.1-.2 1.3-2.1 1.6-2s.3 1.3-.3 2.6-1.1 2-1.5 2-1.1-.8-1.5-2.1-.5-2.5-.2-2.6"></path><path id="Fill-163" class="check-cls-1" d="M40.2 64c.4-.1 1.1.8 1.5 2.1s.1.4.2.5l.2-.5c.5-1.2 1.3-2.1 1.6-2s.3 1.3-.3 2.6-1.2 2-1.5 2-1.1-.8-1.5-2.1-.6-2.5-.2-2.6"></path><path id="Fill-165" class="check-cls-2" d="M40.2 68.6c.4-.1 1.1.8 1.5 2.1l.2.5.2-.5c.1-.2 1.3-2.2 1.6-2s.3 1.3-.3 2.6-1.2 2-1.5 2-1.1-.8-1.5-2.1-.6-2.5-.2-2.6"></path><path id="Fill-167" class="check-cls-2" d="M47.8 68.6c-.4-.1-1.1.8-1.6 2.1s-.1.3-.1.5l-.2-.5c-.5-1.3-1.3-2.2-1.7-2s-.2 1.3.3 2.6 1.2 2 1.6 2 1.1-.8 1.5-2.1.5-2.5.2-2.6"></path><path id="Fill-169" class="check-cls-2" d="M35.8 68.6c-.4-.1-1.1.8-1.6 2.1s-.1.3-.1.5l-.2-.5c-.5-1.3-1.3-2.2-1.7-2s-.2 1.3.3 2.6 1.2 2 1.6 2 1.1-.8 1.5-2.1.5-2.5.2-2.6"></path><path id="Fill-171" class="check-cls-1" d="M39.8 13.7c-.4-.1-1.1.8-1.6 2.1a4.3 4.3 0 0 1-.1.5l-.2-.4c-.1-.1-1.3-2.2-1.7-2.1s-.2 1.4.3 2.6 1.2 2.1 1.6 2 1.1-.8 1.5-2.1.5-2.4.2-2.6"></path><path id="Fill-173" class="check-cls-1" d="M40.2 13.7c.4-.1 1.1.8 1.5 2.1s.1.4.2.5a.8.8 0 0 1 .2-.4c.5-1.3 1.3-2.2 1.6-2.1s.3 1.4-.3 2.6-1.2 2.1-1.5 2-1.1-.8-1.5-2.1-.6-2.4-.2-2.6"></path><path id="Fill-175" class="check-cls-1" d="M60.3 54.9c.3-.2 1 .8 1.5 2.1s.1.3.1.5l.2-.5c0-.2 1.3-2.2 1.7-2s.2 1.3-.3 2.6-1.2 2-1.6 2-1-.9-1.5-2.1-.5-2.5-.1-2.6"></path><path id="Fill-177" class="check-cls-1" d="M56.3 54.9c.4-.2 1 .8 1.5 2.1l.2.5.1-.5c0-.2 1.3-2.2 1.7-2s.2 1.3-.3 2.6-1.2 2-1.6 2-1-.9-1.5-2.1-.5-2.5-.1-2.6"></path><path id="Fill-179" class="check-cls-1" d="M52.3 54.9c.3-.2 1 .8 1.5 2.1s.1.3.1.5l.2-.5c0-.2 1.3-2.2 1.7-2s.2 1.3-.3 2.6-1.2 2-1.6 2-1-.9-1.5-2.1-.5-2.5-.1-2.6"></path><path id="Fill-181" class="check-cls-1" d="M48.2 54.9c.4-.2 1.1.8 1.6 2.1s.1.3.1.5l.2-.5c.5-1.3 1.3-2.2 1.7-2s.2 1.3-.3 2.6-1.2 2-1.6 2-1.1-.9-1.5-2.1-.5-2.5-.2-2.6"></path><path id="Fill-183" class="check-cls-1" d="M44.2 54.9c.4-.2 1.1.8 1.5 2.1s.2.3.2.5l.2-.5c.5-1.3 1.3-2.2 1.6-2s.3 1.3-.3 2.6-1.1 2-1.5 2-1.1-.9-1.5-2.1-.5-2.5-.2-2.6"></path><path id="Fill-185" class="check-cls-1" d="M40.2 54.9c.4-.2 1.1.8 1.5 2.1l.2.5.2-.5c.1-.2 1.3-2.2 1.6-2s.3 1.3-.3 2.6-1.2 2-1.5 2-1.1-.9-1.5-2.1-.6-2.5-.2-2.6"></path><path id="Fill-187" class="check-cls-1" d="M56.3 59.4c.4-.1 1 .9 1.5 2.2l.2.5a4.3 4.3 0 0 1 .1-.5c.6-1.3 1.3-2.2 1.7-2.1s.2 1.4-.3 2.6-1.2 2.1-1.6 2.1-1-.9-1.5-2.2-.5-2.4-.1-2.6"></path><path id="Fill-189" class="check-cls-2" d="M56.3 64c.3-.1 1 .8 1.5 2.1a4.3 4.3 0 0 0 .1.5.8.8 0 0 0 .2-.5c.6-1.2 1.3-2.1 1.7-2s.2 1.3-.3 2.6-1.2 2-1.6 2-1-.8-1.5-2.1-.5-2.5-.1-2.6"></path><path id="Fill-191" class="check-cls-2" d="M60.3 59.4c.4-.1 1 .9 1.5 2.2l.2.5a4.3 4.3 0 0 1 .1-.5c.6-1.3 1.3-2.2 1.7-2.1s.2 1.4-.3 2.6-1.2 2.1-1.6 2.1-1-.9-1.5-2.2-.5-2.4-.1-2.6"></path><path id="Fill-193" class="check-cls-1" d="M52.3 59.4c.3-.1 1 .9 1.5 2.2a4.3 4.3 0 0 1 .1.5 1.7 1.7 0 0 0 .2-.5c.6-1.3 1.3-2.2 1.7-2.1s.2 1.4-.3 2.6-1.2 2.1-1.6 2.1-1-.9-1.5-2.2-.5-2.4-.1-2.6"></path><path id="Fill-195" class="check-cls-1" d="M48.2 59.4c.4-.1 1.1.9 1.6 2.2a4.3 4.3 0 0 1 .1.5l.2-.5c.1-.1 1.3-2.2 1.7-2.1s.2 1.4-.3 2.6-1.2 2.1-1.6 2.1-1.1-.9-1.5-2.2-.5-2.4-.2-2.6"></path><path id="Fill-197" class="check-cls-1" d="M44.2 59.4c.4-.1 1.1.9 1.5 2.2a.8.8 0 0 1 .2.5l.2-.5c.1-.1 1.3-2.2 1.6-2.1s.3 1.4-.3 2.6-1.1 2.1-1.5 2.1-1.1-.9-1.5-2.2-.5-2.4-.2-2.6"></path><path id="Fill-199" class="check-cls-1" d="M40.2 59.4c.4-.1 1.1.9 1.5 2.2s.1.3.2.5a.8.8 0 0 1 .2-.5c.5-1.3 1.3-2.2 1.6-2.1s.3 1.4-.3 2.6-1.2 2.1-1.5 2.1-1.1-.9-1.5-2.2-.6-2.4-.2-2.6"></path><path id="Fill-201" class="check-cls-1" d="M64.3 45.7c.4-.1 1 .8 1.5 2.1l.2.5c.1.1.1-.3.1-.4s1.3-2.2 1.7-2.1.2 1.4-.3 2.6-1.2 2.1-1.6 2-1-.8-1.5-2.1-.5-2.4-.1-2.6"></path><path id="Fill-203" class="check-cls-1" d="M60.3 45.7c.3-.1 1 .8 1.5 2.1a4.3 4.3 0 0 0 .1.5.8.8 0 0 0 .2-.4c.6-1.3 1.3-2.2 1.7-2.1s.2 1.4-.3 2.6-1.2 2.1-1.6 2-1-.8-1.5-2.1-.5-2.4-.1-2.6"></path><path id="Fill-205" class="check-cls-1" d="M56.3 45.7c.4-.1 1 .8 1.5 2.1l.2.5c.1.1.1-.3.1-.4s1.3-2.2 1.7-2.1.2 1.4-.3 2.6-1.2 2.1-1.6 2-1-.8-1.5-2.1-.5-2.4-.1-2.6"></path><path id="Fill-207" class="check-cls-1" d="M52.3 45.7c.3-.1 1 .8 1.5 2.1a4.3 4.3 0 0 0 .1.5.8.8 0 0 0 .2-.4c.6-1.3 1.3-2.2 1.7-2.1s.2 1.4-.3 2.6-1.2 2.1-1.6 2-1-.8-1.5-2.1-.5-2.4-.1-2.6"></path><path id="Fill-209" class="check-cls-1" d="M48.2 45.7c.4-.1 1.1.8 1.6 2.1a4.3 4.3 0 0 0 .1.5l.2-.4c.1-.1 1.3-2.2 1.7-2.1s.2 1.4-.3 2.6-1.2 2.1-1.6 2-1.1-.8-1.5-2.1-.5-2.4-.2-2.6"></path><path id="Fill-211" class="check-cls-1" d="M44.2 45.7c.4-.1 1.1.8 1.5 2.1l.2.5.2-.4c.1-.1 1.3-2.2 1.6-2.1s.3 1.4-.3 2.6-1.1 2.1-1.5 2-1.1-.8-1.5-2.1-.5-2.4-.2-2.6"></path><path id="Fill-213" class="check-cls-3" d="M40.2 45.7c.4-.1 1.1.8 1.5 2.1s.1.4.2.5l.2-.4c.5-1.3 1.3-2.2 1.6-2.1s.3 1.4-.3 2.6-1.2 2.1-1.5 2-1.1-.8-1.5-2.1-.6-2.4-.2-2.6"></path><path id="Fill-215" class="check-cls-1" d="M60.3 50.3c.3-.1 1 .8 1.5 2.1a4.3 4.3 0 0 0 .1.5.8.8 0 0 0 .2-.5c.6-1.2 1.3-2.2 1.7-2s.2 1.3-.3 2.6-1.2 2-1.6 2-1-.8-1.5-2.1-.5-2.5-.1-2.6"></path><path id="Fill-217" class="check-cls-2" d="M64.3 54.9c.3-.2 1 .8 1.5 2.1s.1.3.1.5l.2-.5c0-.2 1.3-2.2 1.7-2s.2 1.3-.3 2.6-1.2 2-1.6 2-1-.9-1.5-2.1-.5-2.5-.1-2.6"></path><path id="Fill-219" class="check-cls-3" d="M64.3 59.4c.3-.1 1 .9 1.5 2.2a4.3 4.3 0 0 1 .1.5 1.7 1.7 0 0 0 .2-.5c.6-1.3 1.3-2.2 1.7-2.1s.2 1.4-.3 2.6-1.2 2.1-1.6 2.1-1-.9-1.5-2.2-.5-2.4-.1-2.6"></path><path id="Fill-221" class="check-cls-3" d="M64.3 64c.3-.1 1 .8 1.5 2.1a4.3 4.3 0 0 0 .1.5.8.8 0 0 0 .2-.5c.6-1.2 1.3-2.1 1.7-2s.2 1.3-.3 2.6-1.2 2-1.6 2-1-.8-1.5-2.1-.5-2.5-.1-2.6"></path><path id="Fill-223" class="check-cls-3" d="M60.3 64c.3-.1 1 .8 1.5 2.1a4.3 4.3 0 0 0 .1.5.8.8 0 0 0 .2-.5c.6-1.2 1.3-2.1 1.7-2s.2 1.3-.3 2.6-1.2 2-1.6 2-1-.8-1.5-2.1-.5-2.5-.1-2.6"></path><path id="Fill-225" class="check-cls-3" d="M68.3 59.4c.3-.1 1 .9 1.5 2.2a4.3 4.3 0 0 1 .1.5 1.7 1.7 0 0 0 .2-.5c.6-1.3 1.3-2.2 1.7-2.1s.2 1.4-.3 2.6-1.2 2.1-1.6 2.1-1-.9-1.5-2.2-.5-2.4-.1-2.6"></path><path id="Fill-227" class="check-cls-1" d="M64.3 50.3c.3-.1 1 .8 1.5 2.1a4.3 4.3 0 0 0 .1.5.8.8 0 0 0 .2-.5c.6-1.2 1.3-2.2 1.7-2s.2 1.3-.3 2.6-1.2 2-1.6 2-1-.8-1.5-2.1-.5-2.5-.1-2.6"></path><path id="Fill-229" class="check-cls-1" d="M56.3 50.3c.4-.1 1 .8 1.5 2.1l.2.5a4.3 4.3 0 0 0 .1-.5c.6-1.2 1.3-2.2 1.7-2s.2 1.3-.3 2.6-1.2 2-1.6 2-1-.8-1.5-2.1-.5-2.5-.1-2.6"></path><path id="Fill-231" class="check-cls-1" d="M52.3 50.3c.3-.1 1 .8 1.5 2.1a4.3 4.3 0 0 0 .1.5.8.8 0 0 0 .2-.5c.6-1.2 1.3-2.2 1.7-2s.2 1.3-.3 2.6-1.2 2-1.6 2-1-.8-1.5-2.1-.5-2.5-.1-2.6"></path><path id="Fill-233" class="check-cls-1" d="M48.2 50.3c.4-.1 1.1.8 1.6 2.1a4.3 4.3 0 0 0 .1.5l.2-.5c.1-.2 1.3-2.2 1.7-2s.2 1.3-.3 2.6-1.2 2-1.6 2-1.1-.8-1.5-2.1-.5-2.5-.2-2.6"></path><path id="Fill-235" class="check-cls-1" d="M44.2 50.3c.4-.1 1.1.8 1.5 2.1a1.7 1.7 0 0 1 .2.5l.2-.5c.1-.2 1.3-2.2 1.6-2s.3 1.3-.3 2.6-1.1 2-1.5 2-1.1-.8-1.5-2.1-.5-2.5-.2-2.6"></path><path id="Fill-237" class="check-cls-1" d="M40.2 50.3c.4-.1 1.1.8 1.5 2.1s.1.4.2.5a1.7 1.7 0 0 1 .2-.5c.5-1.2 1.3-2.2 1.6-2s.3 1.3-.3 2.6-1.2 2-1.5 2-1.1-.8-1.5-2.1-.6-2.5-.2-2.6"></path><path id="Fill-239" class="check-cls-1" d="M60.3 36.6c.3-.1 1 .8 1.5 2.1s.1.3.1.5l.2-.5c0-.2 1.3-2.2 1.7-2s.2 1.3-.3 2.6-1.2 2-1.6 2-1-.8-1.5-2.1-.5-2.5-.1-2.6"></path><path id="Fill-241" class="check-cls-1" d="M56.3 36.6c.4-.1 1 .8 1.5 2.1l.2.5.1-.5c0-.2 1.3-2.2 1.7-2s.2 1.3-.3 2.6-1.2 2-1.6 2-1-.8-1.5-2.1-.5-2.5-.1-2.6"></path><path id="Fill-243" class="check-cls-1" d="M52.3 36.6c.3-.1 1 .8 1.5 2.1s.1.3.1.5l.2-.5c0-.2 1.3-2.2 1.7-2s.2 1.3-.3 2.6-1.2 2-1.6 2-1-.8-1.5-2.1-.5-2.5-.1-2.6"></path><path id="Fill-245" class="check-cls-3" d="M48.2 36.6c.4-.1 1.1.8 1.6 2.1s.1.3.1.5l.2-.5c.5-1.3 1.3-2.2 1.7-2s.2 1.3-.3 2.6-1.2 2-1.6 2-1.1-.8-1.5-2.1-.5-2.5-.2-2.6"></path><path id="Fill-247" class="check-cls-3" d="M44.2 36.6c.4-.1 1.1.8 1.5 2.1s.2.3.2.5l.2-.5c.5-1.3 1.3-2.2 1.6-2s.3 1.3-.3 2.6-1.1 2-1.5 2-1.1-.8-1.5-2.1-.5-2.5-.2-2.6"></path><path id="Fill-249" class="check-cls-1" d="M40.2 36.6c.4-.1 1.1.8 1.5 2.1l.2.5.2-.5c.1-.2 1.3-2.2 1.6-2s.3 1.3-.3 2.6-1.2 2-1.5 2-1.1-.8-1.5-2.1-.6-2.5-.2-2.6"></path><path id="Fill-251" class="check-cls-1" d="M64.3 41.2c.4-.2 1 .8 1.5 2.1l.2.5a4.3 4.3 0 0 1 .1-.5c.6-1.3 1.3-2.2 1.7-2s.2 1.3-.3 2.5-1.2 2.1-1.6 2.1-1-.9-1.5-2.1-.5-2.5-.1-2.6"></path><path id="Fill-253" class="check-cls-1" d="M15.7 36.6c-.4-.1-1.1.8-1.5 2.1l-.2.5-.2-.5c-.1-.2-1.3-2.2-1.6-2s-.3 1.3.3 2.6 1.2 2 1.5 2 1.1-.8 1.5-2.1.6-2.5.2-2.6"></path><path id="Fill-255" class="check-cls-2" d="M11.7 45.7c-.4-.1-1.1.8-1.5 2.1s-.1.4-.2.5l-.2-.4c-.5-1.3-1.3-2.2-1.6-2.1s-.3 1.4.3 2.6 1.2 2.1 1.5 2 1.1-.8 1.5-2.1.6-2.4.2-2.6"></path><path id="Fill-257" class="check-cls-2" d="M11.7 50.3c-.4-.1-1.1.8-1.5 2.1s-.1.4-.2.5a1.7 1.7 0 0 0-.2-.5c-.5-1.2-1.3-2.2-1.6-2s-.3 1.3.3 2.6 1.2 2 1.5 2 1.1-.8 1.5-2.1.6-2.5.2-2.6"></path><path id="Fill-259" class="check-cls-2" d="M11.7 41.2c-.4-.2-1.1.8-1.5 2.1s-.1.3-.2.5a.8.8 0 0 0-.2-.5c-.5-1.3-1.3-2.2-1.6-2s-.3 1.3.3 2.5 1.2 2.1 1.5 2.1 1.1-.9 1.5-2.1.6-2.5.2-2.6"></path><path id="Fill-261" class="check-cls-2" d="M11.7 36.6c-.4-.1-1.1.8-1.5 2.1l-.2.5-.2-.5c-.1-.2-1.3-2.2-1.6-2s-.3 1.3.3 2.6 1.2 2 1.5 2 1.1-.8 1.5-2.1.6-2.5.2-2.6"></path><path id="Fill-263" class="check-cls-1" d="M64.3 36.6c.4-.1 1 .8 1.5 2.1l.2.5.1-.5c0-.2 1.3-2.2 1.7-2s.2 1.3-.3 2.6-1.2 2-1.6 2-1-.8-1.5-2.1-.5-2.5-.1-2.6"></path><path id="Fill-265" class="check-cls-2" d="M68.3 45.7c.4-.1 1 .8 1.5 2.1l.2.5c.1.1.1-.3.1-.4s1.3-2.2 1.7-2.1.2 1.4-.3 2.6-1.2 2.1-1.6 2-1-.8-1.5-2.1-.5-2.4-.1-2.6"></path><path id="Fill-267" class="check-cls-2" d="M68.3 41.2c.4-.2 1 .8 1.5 2.1l.2.5a4.3 4.3 0 0 1 .1-.5c.6-1.3 1.3-2.2 1.7-2s.2 1.3-.3 2.5-1.2 2.1-1.6 2.1-1-.9-1.5-2.1-.5-2.5-.1-2.6"></path><path id="Fill-269" class="check-cls-2" d="M68.3 36.6c.4-.1 1 .8 1.5 2.1l.2.5.1-.5c0-.2 1.3-2.2 1.7-2s.2 1.3-.3 2.6-1.2 2-1.6 2-1-.8-1.5-2.1-.5-2.5-.1-2.6"></path><path id="Fill-271" class="check-cls-1" d="M60.3 41.2c.3-.2 1 .8 1.5 2.1a4.3 4.3 0 0 1 .1.5 1.7 1.7 0 0 0 .2-.5c.6-1.3 1.3-2.2 1.7-2s.2 1.3-.3 2.5-1.2 2.1-1.6 2.1-1-.9-1.5-2.1-.5-2.5-.1-2.6"></path><path id="Fill-273" class="check-cls-1" d="M56.3 41.2c.4-.2 1 .8 1.5 2.1l.2.5a4.3 4.3 0 0 1 .1-.5c.6-1.3 1.3-2.2 1.7-2s.2 1.3-.3 2.5-1.2 2.1-1.6 2.1-1-.9-1.5-2.1-.5-2.5-.1-2.6"></path><path id="Fill-275" class="check-cls-1" d="M52.3 41.2c.3-.2 1 .8 1.5 2.1a4.3 4.3 0 0 1 .1.5 1.7 1.7 0 0 0 .2-.5c.6-1.3 1.3-2.2 1.7-2s.2 1.3-.3 2.5-1.2 2.1-1.6 2.1-1-.9-1.5-2.1-.5-2.5-.1-2.6"></path><path id="Fill-277" class="check-cls-1" d="M48.2 41.2c.4-.2 1.1.8 1.6 2.1a4.3 4.3 0 0 1 .1.5l.2-.5c.1-.1 1.3-2.2 1.7-2s.2 1.3-.3 2.5-1.2 2.1-1.6 2.1-1.1-.9-1.5-2.1-.5-2.5-.2-2.6"></path><path id="Fill-279" class="check-cls-3" d="M44.2 41.2c.4-.2 1.1.8 1.5 2.1a.8.8 0 0 1 .2.5l.2-.5c.1-.1 1.3-2.2 1.6-2s.3 1.3-.3 2.5-1.1 2.1-1.5 2.1-1.1-.9-1.5-2.1-.5-2.5-.2-2.6"></path><path id="Fill-281" class="check-cls-3" d="M40.2 41.2c.4-.2 1.1.8 1.5 2.1s.1.3.2.5a.8.8 0 0 1 .2-.5c.5-1.3 1.3-2.2 1.6-2s.3 1.3-.3 2.5-1.2 2.1-1.5 2.1-1.1-.9-1.5-2.1-.6-2.5-.2-2.6"></path><path id="Fill-283" class="check-cls-1" d="M60.3 27.4c.3-.1 1 .9 1.5 2.2a4.3 4.3 0 0 1 .1.5l.2-.5c.6-1.3 1.3-2.2 1.7-2.1s.2 1.4-.3 2.6-1.2 2.1-1.6 2.1-1-.9-1.5-2.2-.5-2.4-.1-2.6"></path><path id="Fill-285" class="check-cls-1" d="M56.3 27.4c.4-.1 1 .9 1.5 2.2l.2.5a4.3 4.3 0 0 1 .1-.5c.6-1.3 1.3-2.2 1.7-2.1s.2 1.4-.3 2.6-1.2 2.1-1.6 2.1-1-.9-1.5-2.2-.5-2.4-.1-2.6"></path><path id="Fill-287" class="check-cls-1" d="M52.3 27.4c.3-.1 1 .9 1.5 2.2a4.3 4.3 0 0 1 .1.5l.2-.5c.6-1.3 1.3-2.2 1.7-2.1s.2 1.4-.3 2.6-1.2 2.1-1.6 2.1-1-.9-1.5-2.2-.5-2.4-.1-2.6"></path><path id="Fill-289" class="check-cls-1" d="M48.2 27.4c.4-.1 1.1.9 1.6 2.2a4.3 4.3 0 0 1 .1.5l.2-.5c.1-.1 1.3-2.2 1.7-2.1s.2 1.4-.3 2.6-1.2 2.1-1.6 2.1-1.1-.9-1.5-2.2-.5-2.4-.2-2.6"></path><path id="Fill-291" class="check-cls-1" d="M44.2 27.4c.4-.1 1.1.9 1.5 2.2a.8.8 0 0 1 .2.5l.2-.5c.1-.1 1.3-2.2 1.6-2.1s.3 1.4-.3 2.6-1.1 2.1-1.5 2.1-1.1-.9-1.5-2.2-.5-2.4-.2-2.6"></path><path id="Fill-293" class="check-cls-1" d="M40.2 27.4c.4-.1 1.1.9 1.5 2.2s.1.3.2.5a.8.8 0 0 1 .2-.5c.5-1.3 1.3-2.2 1.6-2.1s.3 1.4-.3 2.6-1.2 2.1-1.5 2.1-1.1-.9-1.5-2.2-.6-2.4-.2-2.6"></path><path id="Fill-295" class="check-cls-1" d="M60.3 32c.3-.1 1 .8 1.5 2.1a4.3 4.3 0 0 0 .1.5.8.8 0 0 0 .2-.5c.6-1.2 1.3-2.1 1.7-2s.2 1.3-.3 2.6-1.2 2-1.6 2-1-.8-1.5-2.1-.5-2.5-.1-2.6"></path><path id="Fill-297" class="check-cls-1" d="M64.3 27.4c.3-.1 1 .9 1.5 2.2a4.3 4.3 0 0 1 .1.5l.2-.5c.6-1.3 1.3-2.2 1.7-2.1s.2 1.4-.3 2.6-1.2 2.1-1.6 2.1-1-.9-1.5-2.2-.5-2.4-.1-2.6"></path><path id="Fill-299" class="check-cls-2" d="M68.3 27.4c.3-.1 1 .9 1.5 2.2a4.3 4.3 0 0 1 .1.5l.2-.5c.6-1.3 1.3-2.2 1.7-2.1s.2 1.4-.3 2.6-1.2 2.1-1.6 2.1-1-.9-1.5-2.2-.5-2.4-.1-2.6"></path><path id="Fill-301" class="check-cls-1" d="M64.3 32c.3-.1 1 .8 1.5 2.1a4.3 4.3 0 0 0 .1.5.8.8 0 0 0 .2-.5c.6-1.2 1.3-2.1 1.7-2s.2 1.3-.3 2.6-1.2 2-1.6 2-1-.8-1.5-2.1-.5-2.5-.1-2.6"></path><path id="Fill-303" class="check-cls-2" d="M68.3 32c.3-.1 1 .8 1.5 2.1a4.3 4.3 0 0 0 .1.5.8.8 0 0 0 .2-.5c.6-1.2 1.3-2.1 1.7-2s.2 1.3-.3 2.6-1.2 2-1.6 2-1-.8-1.5-2.1-.5-2.5-.1-2.6"></path><path id="Fill-305" class="check-cls-1" d="M56.3 32c.4-.1 1 .8 1.5 2.1l.2.5a4.3 4.3 0 0 0 .1-.5c.6-1.2 1.3-2.1 1.7-2s.2 1.3-.3 2.6-1.2 2-1.6 2-1-.8-1.5-2.1-.5-2.5-.1-2.6"></path><path id="Fill-307" class="check-cls-3" d="M52.3 32c.3-.1 1 .8 1.5 2.1a4.3 4.3 0 0 0 .1.5.8.8 0 0 0 .2-.5c.6-1.2 1.3-2.1 1.7-2s.2 1.3-.3 2.6-1.2 2-1.6 2-1-.8-1.5-2.1-.5-2.5-.1-2.6"></path><path id="Fill-309" class="check-cls-3" d="M48.2 32c.4-.1 1.1.8 1.6 2.1a4.3 4.3 0 0 0 .1.5l.2-.5c.1-.2 1.3-2.1 1.7-2s.2 1.3-.3 2.6-1.2 2-1.6 2-1.1-.8-1.5-2.1-.5-2.5-.2-2.6"></path><path id="Fill-311" class="check-cls-1" d="M44.2 32c.4-.1 1.1.8 1.5 2.1a1.7 1.7 0 0 1 .2.5l.2-.5c.1-.2 1.3-2.1 1.6-2s.3 1.3-.3 2.6-1.1 2-1.5 2-1.1-.8-1.5-2.1-.5-2.5-.2-2.6"></path><path id="Fill-313" class="check-cls-1" d="M40.2 32c.4-.1 1.1.8 1.5 2.1s.1.4.2.5a1.7 1.7 0 0 1 .2-.5c.5-1.2 1.3-2.1 1.6-2s.3 1.3-.3 2.6-1.2 2-1.5 2-1.1-.8-1.5-2.1-.6-2.5-.2-2.6"></path><path id="Fill-315" class="check-cls-1" d="M48.2 18.3c.4-.1 1.1.8 1.6 2.1a4.3 4.3 0 0 0 .1.5l.2-.5c.1-.2 1.3-2.2 1.7-2s.2 1.3-.3 2.6-1.2 2-1.6 2-1.1-.8-1.5-2.1-.5-2.5-.2-2.6"></path><path id="Fill-317" class="check-cls-1" d="M44.2 18.3c.4-.1 1.1.8 1.5 2.1l.2.5.2-.5c.1-.2 1.3-2.2 1.6-2s.3 1.3-.3 2.6-1.1 2-1.5 2-1.1-.8-1.5-2.1-.5-2.5-.2-2.6"></path><path id="Fill-319" class="check-cls-1" d="M35.7 13.7c-.3-.1-1 .8-1.5 2.1a4.3 4.3 0 0 1-.1.5l-.2-.4c-.6-1.3-1.3-2.2-1.7-2.1s-.2 1.4.3 2.6 1.2 2.1 1.6 2 1-.8 1.5-2.1.5-2.4.1-2.6"></path><path id="Fill-321" class="check-cls-1" d="M44.2 13.7c.4-.1 1.1.8 1.5 2.1a1.7 1.7 0 0 1 .2.5l.2-.4c.1-.1 1.3-2.2 1.6-2.1s.3 1.4-.3 2.6-1.1 2.1-1.5 2-1.1-.8-1.5-2.1-.5-2.4-.2-2.6"></path><path id="Fill-323" class="check-cls-2" d="M39.8 9.2c-.4-.2-1.1.8-1.6 2.1a4.3 4.3 0 0 0-.1.5l-.2-.5c-.1-.1-1.3-2.2-1.7-2s-.2 1.3.3 2.5 1.2 2.1 1.6 2.1 1.1-.9 1.5-2.1.5-2.5.2-2.6"></path><path id="Fill-325" class="check-cls-2" d="M40.2 9.2c.4-.2 1.1.8 1.5 2.1s.1.3.2.5a.8.8 0 0 1 .2-.5c.5-1.3 1.3-2.2 1.6-2s.3 1.3-.3 2.5-1.2 2.1-1.5 2.1-1.1-.9-1.5-2.1-.6-2.5-.2-2.6"></path><path id="Fill-327" class="check-cls-2" d="M35.7 9.2c-.3-.2-1 .8-1.5 2.1a4.3 4.3 0 0 0-.1.5l-.2-.5c-.6-1.3-1.3-2.2-1.7-2s-.2 1.3.3 2.5 1.2 2.1 1.6 2.1 1-.9 1.5-2.1.5-2.5.1-2.6"></path><path id="Fill-329" class="check-cls-2" d="M31.7 9.2c-.3-.2-1 .8-1.5 2.1a4.3 4.3 0 0 0-.1.5l-.2-.5c-.6-1.3-1.3-2.2-1.7-2s-.2 1.3.3 2.5 1.2 2.1 1.6 2.1 1-.9 1.5-2.1.5-2.5.1-2.6"></path><path id="Fill-331" class="check-cls-2" d="M44.2 9.2c.4-.2 1.1.8 1.5 2.1a.8.8 0 0 1 .2.5l.2-.5c.1-.1 1.3-2.2 1.6-2s.3 1.3-.3 2.5-1.1 2.1-1.5 2.1-1.1-.9-1.5-2.1-.5-2.5-.2-2.6"></path><path id="Fill-333" class="check-cls-2" d="M48.2 9.2c.4-.2 1.1.8 1.5 2.1a.8.8 0 0 1 .2.5l.2-.5c.1-.1 1.3-2.2 1.6-2s.3 1.3-.3 2.5-1.1 2.1-1.5 2.1-1.1-.9-1.5-2.1-.5-2.5-.2-2.6"></path><path id="Fill-335" class="check-cls-1" d="M40.2 18.3c.4-.1 1.1.8 1.5 2.1s.1.4.2.5l.2-.5c.5-1.2 1.3-2.2 1.6-2s.3 1.3-.3 2.6-1.2 2-1.5 2-1.1-.8-1.5-2.1-.6-2.5-.2-2.6"></path><path id="Fill-337" class="check-cls-1" d="M56.3 22.9c.4-.2 1 .8 1.5 2.1l.2.5.1-.5c0-.2 1.3-2.2 1.7-2s.2 1.3-.3 2.6-1.2 2-1.6 2-1-.9-1.5-2.1-.5-2.5-.1-2.6"></path><path id="Fill-339" class="check-cls-1" d="M52.3 22.9c.3-.2 1 .8 1.5 2.1s.1.3.1.5l.2-.5c0-.2 1.3-2.2 1.7-2s.2 1.3-.3 2.6-1.2 2-1.6 2-1-.9-1.5-2.1-.5-2.5-.1-2.6"></path><path id="Fill-341" class="check-cls-1" d="M27.7 18.3c-.4-.1-1 .8-1.5 2.1l-.2.5-.2-.5c-.5-1.2-1.2-2.2-1.6-2s-.2 1.3.3 2.6 1.2 2 1.6 2 1-.8 1.5-2.1.5-2.5.1-2.6"></path><path id="Fill-343" class="check-cls-1" d="M31.7 13.7c-.3-.1-1 .8-1.5 2.1a1.1 1.1 0 0 0-.1.5l-.2-.4c-.6-1.3-1.3-2.2-1.7-2.1s-.2 1.4.3 2.6 1.2 2.1 1.6 2 1-.8 1.5-2.1.5-2.4.1-2.6"></path><path id="Fill-345" class="check-cls-2" d="M27.7 13.7c-.4-.1-1 .8-1.5 2.1l-.2.5a.8.8 0 0 0-.2-.4c-.5-1.3-1.2-2.2-1.6-2.1s-.2 1.4.3 2.6 1.2 2.1 1.6 2 1-.8 1.5-2.1.5-2.4.1-2.6"></path><path id="Fill-347" class="check-cls-2" d="M23.7 13.7c-.4-.1-1 .8-1.5 2.1l-.2.5a.8.8 0 0 0-.2-.4c-.5-1.3-1.2-2.2-1.6-2.1s-.2 1.4.3 2.6 1.2 2.1 1.6 2 1-.8 1.5-2.1.5-2.4.1-2.6"></path><path id="Fill-349" class="check-cls-1" d="M52.3 18.3c.3-.1 1 .8 1.5 2.1a4.3 4.3 0 0 0 .1.5.8.8 0 0 0 .2-.5c.6-1.2 1.3-2.2 1.7-2s.2 1.3-.3 2.6-1.2 2-1.6 2-1-.8-1.5-2.1-.5-2.5-.1-2.6"></path><path id="Fill-351" class="check-cls-1" d="M48.2 13.7c.4-.1 1.1.8 1.6 2.1a4.3 4.3 0 0 0 .1.5l.2-.4c.1-.1 1.3-2.2 1.7-2.1s.2 1.4-.3 2.6-1.2 2.1-1.6 2-1.1-.8-1.5-2.1-.5-2.4-.2-2.6"></path><path id="Fill-353" class="check-cls-3" d="M39.8 4.6c-.4-.1-1.1.8-1.6 2.1s-.1.3-.1.5l-.2-.5c-.5-1.3-1.3-2.2-1.7-2s-.2 1.3.3 2.6 1.2 2 1.6 2 1.1-.8 1.5-2.1.5-2.5.2-2.6"></path><path id="Fill-355" class="check-cls-3" d="M40.2 4.6c.4-.1 1.1.8 1.5 2.1l.2.5.2-.5c.1-.2 1.3-2.2 1.6-2s.3 1.3-.3 2.6-1.2 2-1.5 2-1.1-.8-1.5-2.1-.6-2.5-.2-2.6"></path><path id="Fill-357" class="check-cls-3" d="M39.8 0c-.4-.1-1.1.8-1.6 2.1a4.3 4.3 0 0 1-.1.5l-.2-.5c-.1-.2-1.3-2.1-1.7-2s-.2 1.3.3 2.6 1.2 2 1.6 2 1.1-.8 1.5-2.1.5-2.5.2-2.6"></path><path id="Fill-359" class="check-cls-3" d="M40.2 0c.4-.1 1.1.8 1.5 2.1s.1.4.2.5a1.7 1.7 0 0 1 .2-.5c.5-1.2 1.3-2.1 1.6-2s.3 1.3-.3 2.6-1.2 2-1.5 2-1.1-.8-1.5-2.1-.6-2.5-.2-2.6"></path><path id="Fill-361" class="check-cls-3" d="M35.7 4.6c-.3-.1-1 .8-1.5 2.1s-.1.3-.1.5l-.2-.5c0-.2-1.3-2.2-1.7-2s-.2 1.3.3 2.6 1.2 2 1.6 2 1-.8 1.5-2.1.5-2.5.1-2.6"></path><path id="Fill-363" class="check-cls-3" d="M44.2 4.6c.4-.1 1.1.8 1.5 2.1s.2.3.2.5l.2-.5c.5-1.3 1.3-2.2 1.6-2s.3 1.3-.3 2.6-1.1 2-1.5 2-1.1-.8-1.5-2.1-.5-2.5-.2-2.6"></path><path id="Fill-365" class="check-cls-3" d="M35.7 0c-.3-.1-1 .8-1.5 2.1a4.3 4.3 0 0 1-.1.5.8.8 0 0 1-.2-.5C33.3.9 32.6 0 32.2.1s-.2 1.3.3 2.6 1.2 2 1.6 2 1-.8 1.5-2.1.5-2.5.1-2.6"></path><path id="Fill-367" class="check-cls-3" d="M44.2 0c.4-.1 1.1.8 1.5 2.1a1.7 1.7 0 0 1 .2.5l.2-.5c.1-.2 1.3-2.1 1.6-2s.3 1.3-.3 2.6-1.1 2-1.5 2-1.1-.8-1.5-2.1-.5-2.5-.2-2.6"></path><path id="Fill-369" class="check-cls-3" d="M39.8 77.7c-.4-.1-1.1.8-1.6 2.1a4.3 4.3 0 0 1-.1.5l-.2-.4c-.1-.1-1.3-2.2-1.7-2.1s-.2 1.4.3 2.6 1.2 2.1 1.6 2 1.1-.8 1.5-2.1.5-2.4.2-2.6"></path><path id="Fill-371" class="check-cls-3" d="M40.2 77.7c.4-.1 1.1.8 1.5 2.1s.1.4.2.5l.2-.4c.5-1.3 1.3-2.2 1.6-2.1s.3 1.4-.3 2.6-1.2 2.1-1.5 2-1.1-.8-1.5-2.1-.6-2.4-.2-2.6"></path><path id="Fill-373" class="check-cls-3" d="M35.7 77.7c-.3-.1-1 .8-1.5 2.1a4.3 4.3 0 0 1-.1.5.8.8 0 0 1-.2-.4c-.6-1.3-1.3-2.2-1.7-2.1s-.2 1.4.3 2.6 1.2 2.1 1.6 2 1-.8 1.5-2.1.5-2.4.1-2.6"></path><path id="Fill-375" class="check-cls-3" d="M44.2 77.7c.4-.1 1.1.8 1.5 2.1l.2.5.2-.4c.1-.1 1.3-2.2 1.6-2.1s.3 1.4-.3 2.6-1.1 2.1-1.5 2-1.1-.8-1.5-2.1-.5-2.4-.2-2.6"></path><path id="Fill-377" class="check-cls-3" d="M31.7 4.6c-.3-.1-1 .8-1.5 2.1a.9.9 0 0 0-.1.5l-.2-.5c0-.2-1.3-2.2-1.7-2s-.2 1.3.3 2.6 1.2 2 1.6 2 1-.8 1.5-2.1.5-2.5.1-2.6"></path><path id="Fill-379" class="check-cls-3" d="M48.2 4.6c.4-.1 1.1.8 1.6 2.1s.1.3.1.5l.2-.5c.5-1.3 1.3-2.2 1.7-2s.2 1.3-.3 2.6-1.2 2-1.6 2-1.1-.8-1.5-2.1-.5-2.5-.2-2.6"></path><path id="Fill-381" class="check-cls-3" d="M52.2 4.6c.4-.1 1.1.8 1.6 2.1s.1.3.1.5l.2-.5c.5-1.3 1.3-2.2 1.7-2s.2 1.3-.3 2.6-1.2 2-1.6 2-1.1-.8-1.5-2.1-.5-2.5-.2-2.6"></path><path id="Fill-383" class="check-cls-3" d="M52.2 9.2c.4-.2 1.1.8 1.6 2.1a4.3 4.3 0 0 1 .1.5l.2-.5c.1-.1 1.3-2.2 1.7-2s.2 1.3-.3 2.5-1.2 2.1-1.6 2.1-1.1-.9-1.5-2.1-.5-2.5-.2-2.6"></path><path id="Fill-385" class="check-cls-3" d="M56.2 9.2c.4-.2 1.1.8 1.6 2.1a4.3 4.3 0 0 1 .1.5l.2-.5c.1-.1 1.3-2.2 1.7-2s.2 1.3-.3 2.5-1.2 2.1-1.6 2.1-1.1-.9-1.5-2.1-.5-2.5-.2-2.6"></path><path id="Fill-387" class="check-cls-3" d="M60.2 9.2c.4-.2 1.1.8 1.6 2.1a4.3 4.3 0 0 1 .1.5l.2-.5c.1-.1 1.3-2.2 1.7-2s.2 1.3-.3 2.5-1.2 2.1-1.6 2.1-1.1-.9-1.5-2.1-.5-2.5-.2-2.6"></path><path id="Fill-389" class="check-cls-3" d="M16.2 9.2c.4-.2 1.1.8 1.6 2.1a4.3 4.3 0 0 1 .1.5l.2-.5c.1-.1 1.3-2.2 1.7-2s.2 1.3-.3 2.5-1.2 2.1-1.6 2.1-1.1-.9-1.5-2.1-.5-2.5-.2-2.6"></path><path id="Fill-391" class="check-cls-3" d="M20.2 9.2c.4-.2 1.1.8 1.6 2.1a4.3 4.3 0 0 1 .1.5l.2-.5c.1-.1 1.3-2.2 1.7-2s.2 1.3-.3 2.5-1.2 2.1-1.6 2.1-1.1-.9-1.5-2.1-.5-2.5-.2-2.6"></path><path id="Fill-393" class="check-cls-3" d="M24.2 9.2c.4-.2 1.1.8 1.6 2.1a4.3 4.3 0 0 1 .1.5l.2-.5c.1-.1 1.3-2.2 1.7-2s.2 1.3-.3 2.5-1.2 2.1-1.6 2.1-1.1-.9-1.5-2.1-.5-2.5-.2-2.6"></path><path id="Fill-395" class="check-cls-3" d="M60.2 13.7c.4-.1 1.1.8 1.6 2.1a4.3 4.3 0 0 0 .1.5l.2-.4c.1-.1 1.3-2.2 1.7-2.1s.2 1.4-.3 2.6-1.2 2.1-1.6 2-1.1-.8-1.5-2.1-.5-2.4-.2-2.6"></path><path id="Fill-397" class="check-cls-3" d="M64.2 13.7c.4-.1 1.1.8 1.6 2.1a4.3 4.3 0 0 0 .1.5l.2-.4c.1-.1 1.3-2.2 1.7-2.1s.2 1.4-.3 2.6-1.2 2.1-1.6 2-1.1-.8-1.5-2.1-.5-2.4-.2-2.6"></path><path id="Fill-399" class="check-cls-3" d="M12.2 13.7c.4-.1 1.1.8 1.6 2.1a4.3 4.3 0 0 0 .1.5l.2-.4c.1-.1 1.3-2.2 1.7-2.1s.2 1.4-.3 2.6-1.2 2.1-1.6 2-1.1-.8-1.5-2.1-.5-2.4-.2-2.6"></path><path id="Fill-401" class="check-cls-3" d="M16.2 13.7c.4-.1 1.1.8 1.6 2.1a4.3 4.3 0 0 0 .1.5l.2-.4c.1-.1 1.3-2.2 1.7-2.1s.2 1.4-.3 2.6-1.2 2.1-1.6 2-1.1-.8-1.5-2.1-.5-2.4-.2-2.6"></path><path id="Fill-403" class="check-cls-3" d="M64.2 18.3c.4-.1 1.1.8 1.6 2.1a4.3 4.3 0 0 0 .1.5l.2-.5c.1-.2 1.3-2.2 1.7-2s.2 1.3-.3 2.6-1.2 2-1.6 2-1.1-.8-1.5-2.1-.5-2.5-.2-2.6"></path><path id="Fill-405" class="check-cls-3" d="M68.2 18.3c.4-.1 1.1.8 1.6 2.1a4.3 4.3 0 0 0 .1.5l.2-.5c.1-.2 1.3-2.2 1.7-2s.2 1.3-.3 2.6-1.2 2-1.6 2-1.1-.8-1.5-2.1-.5-2.5-.2-2.6"></path><path id="Fill-407" class="check-cls-3" d="M68.2 22.9c.4-.2 1.1.8 1.6 2.1s.1.3.1.5l.2-.5c.5-1.3 1.3-2.2 1.7-2s.2 1.3-.3 2.6-1.2 2-1.6 2-1.1-.9-1.5-2.1-.5-2.5-.2-2.6"></path><path id="Fill-409" class="check-cls-2" d="M68.2 50.3c.4-.1 1.1.8 1.6 2.1a4.3 4.3 0 0 0 .1.5l.2-.5c.1-.2 1.3-2.2 1.7-2s.2 1.3-.3 2.6-1.2 2-1.6 2-1.1-.8-1.5-2.1-.5-2.5-.2-2.6"></path><path id="Fill-411" class="check-cls-3" d="M68.2 54.9c.4-.2 1.1.8 1.6 2.1s.1.3.1.5l.2-.5c.5-1.3 1.3-2.2 1.7-2s.2 1.3-.3 2.6-1.2 2-1.6 2-1.1-.9-1.5-2.1-.5-2.5-.2-2.6"></path><path id="Fill-413" class="check-cls-3" d="M72.2 22.9c.4-.2 1.1.8 1.6 2.1s.1.3.1.5l.2-.5c.5-1.3 1.3-2.2 1.7-2s.2 1.3-.3 2.6-1.2 2-1.6 2-1.1-.9-1.5-2.1-.5-2.5-.2-2.6"></path><path id="Fill-415" class="check-cls-3" d="M4.2 22.9c.4-.2 1.1.8 1.6 2.1s.1.3.1.5l.2-.5c.5-1.3 1.3-2.2 1.7-2s.2 1.3-.3 2.6-1.2 2-1.6 2-1.1-.9-1.5-2.1-.5-2.5-.2-2.6"></path><path id="Fill-417" class="check-cls-3" d="M8.2 22.9c.4-.2 1.1.8 1.6 2.1s.1.3.1.5l.2-.5c.5-1.3 1.3-2.2 1.7-2s.2 1.3-.3 2.6-1.2 2-1.6 2-1.1-.9-1.5-2.1-.5-2.5-.2-2.6"></path><path id="Fill-419" class="check-cls-3" d="M72.2 27.4c.4-.1 1.1.9 1.6 2.2a4.3 4.3 0 0 1 .1.5l.2-.5c.1-.1 1.3-2.2 1.7-2.1s.2 1.4-.3 2.6-1.2 2.1-1.6 2.1-1.1-.9-1.5-2.2-.5-2.4-.2-2.6"></path><path id="Fill-421" class="check-cls-3" d="M4.2 27.4c.4-.1 1.1.9 1.6 2.2a4.3 4.3 0 0 1 .1.5l.2-.5c.1-.1 1.3-2.2 1.7-2.1s.2 1.4-.3 2.6-1.2 2.1-1.6 2.1-1.1-.9-1.5-2.2-.5-2.4-.2-2.6"></path><path id="Fill-423" class="check-cls-3" d="M72.2 32c.4-.1 1.1.8 1.6 2.1a4.3 4.3 0 0 0 .1.5l.2-.5c.1-.2 1.3-2.1 1.7-2s.2 1.3-.3 2.6-1.2 2-1.6 2-1.1-.8-1.5-2.1-.5-2.5-.2-2.6"></path><path id="Fill-425" class="check-cls-3" d="M72.2 36.6c.4-.1 1.1.8 1.6 2.1s.1.3.1.5l.2-.5c.5-1.3 1.3-2.2 1.7-2s.2 1.3-.3 2.6-1.2 2-1.6 2-1.1-.8-1.5-2.1-.5-2.5-.2-2.6"></path><g mask="url(#mask)" id="Group-429"><path id="Fill-427" class="check-cls-3" d="M76.2 36.6c.4-.1 1.1.8 1.6 2.1s.1.3.1.5l.2-.5c.5-1.3 1.3-2.2 1.7-2s.2 1.3-.3 2.6-1.2 2-1.6 2-1.1-.8-1.5-2.1-.5-2.5-.2-2.6"></path></g><path id="Fill-430" class="check-cls-3" d="M76.2 41.2c.4-.2 1.1.8 1.6 2.1a4.3 4.3 0 0 1 .1.5l.2-.5c.1-.1 1.3-2.2 1.6-2.1s.3 1.4-.2 2.6-1.2 2.1-1.6 2.1-1-.9-1.5-2.1-.6-2.5-.2-2.6"></path><path id="Fill-432" class="check-cls-3" d="M72.2 41.2c.4-.2 1.1.8 1.6 2.1a4.3 4.3 0 0 1 .1.5l.2-.5c.1-.1 1.3-2.2 1.6-2.1s.3 1.4-.2 2.6-1.2 2.1-1.6 2.1-1-.9-1.5-2.1-.6-2.5-.2-2.6"></path><path id="Fill-434" class="check-cls-3" d="M72.2 45.7c.4-.1 1.1.9 1.6 2.1a4.3 4.3 0 0 0 .1.5l.2-.4c.1-.1 1.3-2.2 1.6-2.1s.3 1.3-.2 2.6-1.2 2.1-1.6 2-1-.8-1.5-2.1-.6-2.4-.2-2.6"></path><path id="Fill-436" class="check-cls-3" d="M72.2 50.3c.4-.1 1.1.8 1.6 2.1a4.3 4.3 0 0 0 .1.5l.2-.5c.1-.2 1.3-2.2 1.6-2s.3 1.3-.2 2.6-1.2 2-1.6 2-1-.8-1.5-2.1-.6-2.4-.2-2.6"></path><path id="Fill-438" class="check-cls-3" d="M72.2 54.9c.4-.1 1.1.8 1.6 2.1s.1.3.1.5l.2-.5c.5-1.3 1.3-2.2 1.6-2s.3 1.3-.2 2.5-1.2 2.1-1.6 2.1-1-.8-1.5-2.1-.6-2.5-.2-2.6"></path><path id="Fill-440" class="check-cls-3" d="M72.2 59.5c.4-.2 1.1.8 1.6 2.1a4.3 4.3 0 0 1 .1.5l.2-.5c.1-.1 1.3-2.2 1.6-2.1s.3 1.3-.2 2.6-1.2 2.1-1.6 2.1-1-.9-1.5-2.1-.6-2.5-.2-2.6"></path><g mask="url(#mask-2-2)" id="Group-444"><path id="Fill-442" class="check-cls-3" d="M76.2 32c.4-.1 1.1.8 1.6 2.1a4.3 4.3 0 0 0 .1.5l.2-.5c.1-.2 1.3-2.1 1.7-2s.2 1.3-.3 2.6-1.2 2-1.6 2-1.1-.8-1.5-2.1-.5-2.5-.2-2.6"></path></g><path id="Fill-445" class="check-cls-3" d="M.2 32c.4-.1 1.1.8 1.6 2.1a4.3 4.3 0 0 0 .1.5l.2-.5c.1-.2 1.3-2.1 1.7-2s.2 1.3-.3 2.6-1.2 2-1.6 2-1.1-.8-1.5-2.1-.5-2.5-.2-2.6"></path><path id="Fill-447" class="check-cls-3" d="M.2 36.6c.4-.1 1.1.8 1.6 2.1s.1.3.1.5l.2-.5c.5-1.3 1.3-2.2 1.7-2s.2 1.3-.3 2.6-1.2 2-1.6 2-1.1-.8-1.5-2.1-.5-2.5-.2-2.6"></path><path id="Fill-449" class="check-cls-3" d="M4.2 36.6c.4-.1 1.1.8 1.6 2.1s.1.3.1.5l.2-.5c.5-1.3 1.3-2.2 1.7-2s.2 1.3-.3 2.6-1.2 2-1.6 2-1.1-.8-1.5-2.1-.5-2.5-.2-2.6"></path><path id="Fill-451" class="check-cls-3" d="M.2 41.2c.4-.2 1.1.8 1.6 2.1a4.3 4.3 0 0 1 .1.5l.2-.5c.1-.1 1.3-2.2 1.7-2s.2 1.3-.3 2.5-1.2 2.1-1.6 2.1S.8 45 .4 43.8s-.5-2.5-.2-2.6"></path><path id="Fill-453" class="check-cls-3" d="M4.2 41.2c.4-.2 1.1.8 1.6 2.1a4.3 4.3 0 0 1 .1.5l.2-.5c.1-.1 1.3-2.2 1.7-2s.2 1.3-.3 2.5-1.2 2.1-1.6 2.1-1.1-.9-1.5-2.1-.5-2.5-.2-2.6"></path><path id="Fill-455" class="check-cls-3" d="M4.2 45.7c.4-.1 1.1.8 1.6 2.1a4.3 4.3 0 0 0 .1.5l.2-.4c.1-.1 1.3-2.2 1.7-2.1s.2 1.4-.3 2.6-1.2 2.1-1.6 2-1.1-.8-1.5-2.1-.5-2.4-.2-2.6"></path><path id="Fill-457" class="check-cls-3" d="M4.2 50.3c.4-.1 1.1.8 1.6 2.1a4.3 4.3 0 0 0 .1.5l.2-.5c.1-.2 1.3-2.2 1.7-2s.2 1.3-.3 2.6-1.2 2-1.6 2-1.1-.8-1.5-2.1-.5-2.5-.2-2.6"></path><path id="Fill-459" class="check-cls-3" d="M4.2 54.9c.4-.2 1.1.8 1.6 2.1s.1.3.1.5l.2-.5c.5-1.3 1.3-2.2 1.7-2s.2 1.3-.3 2.6-1.2 2-1.6 2-1.1-.9-1.5-2.1-.5-2.5-.2-2.6"></path><path id="Fill-461" class="check-cls-3" d="M4.2 59.4c.4-.1 1.1.9 1.6 2.2a4.3 4.3 0 0 1 .1.5l.2-.5c.1-.1 1.3-2.2 1.7-2.1s.2 1.4-.3 2.6-1.2 2.1-1.6 2.1-1.1-.9-1.5-2.2-.5-2.4-.2-2.6"></path><path id="Fill-463" class="check-cls-3" d="M8.2 54.9c.4-.2 1.1.8 1.6 2.1s.1.3.1.5l.2-.5c.5-1.3 1.3-2.2 1.7-2s.2 1.3-.3 2.6-1.2 2-1.6 2-1.1-.9-1.5-2.1-.5-2.5-.2-2.6"></path><path id="Fill-465" class="check-cls-3" d="M8.2 59.4c.4-.1 1.1.9 1.6 2.2a4.3 4.3 0 0 1 .1.5l.2-.5c.1-.1 1.3-2.2 1.7-2.1s.2 1.4-.3 2.6-1.2 2.1-1.6 2.1-1.1-.9-1.5-2.2-.5-2.4-.2-2.6"></path><path id="Fill-467" class="check-cls-3" d="M12.2 59.4c.4-.1 1.1.9 1.6 2.2a4.3 4.3 0 0 1 .1.5l.2-.5c.1-.1 1.3-2.2 1.7-2.1s.2 1.4-.3 2.6-1.2 2.1-1.6 2.1-1.1-.9-1.5-2.2-.5-2.4-.2-2.6"></path><path id="Fill-469" class="check-cls-3" d="M12.2 64c.4-.1 1.1.8 1.6 2.1a4.3 4.3 0 0 0 .1.5l.2-.5c.1-.2 1.3-2.1 1.7-2s.2 1.3-.3 2.6-1.2 2-1.6 2-1.1-.8-1.5-2.1-.5-2.5-.2-2.6"></path><path id="Fill-471" class="check-cls-3" d="M16.2 64c.4-.1 1.1.8 1.6 2.1a4.3 4.3 0 0 0 .1.5l.2-.5c.1-.2 1.3-2.1 1.7-2s.2 1.3-.3 2.6-1.2 2-1.6 2-1.1-.8-1.5-2.1-.5-2.5-.2-2.6"></path><path id="Fill-473" class="check-cls-3" d="M16.2 68.6c.4-.1 1.1.8 1.6 2.1s.1.3.1.5l.2-.5c.5-1.3 1.3-2.2 1.7-2s.2 1.3-.3 2.6-1.2 2-1.6 2-1.1-.8-1.5-2.1-.5-2.5-.2-2.6"></path><path id="Fill-475" class="check-cls-3" d="M20.2 68.6c.4-.1 1.1.8 1.6 2.1s.1.3.1.5l.2-.5c.5-1.3 1.3-2.2 1.7-2s.2 1.3-.3 2.6-1.2 2-1.6 2-1.1-.8-1.5-2.1-.5-2.5-.2-2.6"></path><path id="Fill-477" class="check-cls-3" d="M4.2 32c.4-.1 1.1.8 1.6 2.1a4.3 4.3 0 0 0 .1.5l.2-.5c.1-.2 1.3-2.1 1.7-2s.2 1.3-.3 2.6-1.2 2-1.6 2-1.1-.8-1.5-2.1-.5-2.5-.2-2.6"></path><path id="Fill-479" class="check-cls-3" d="M72.2 18.3c.4-.1 1.1.8 1.6 2.1a4.3 4.3 0 0 0 .1.5l.2-.5c.1-.2 1.3-2.2 1.7-2s.2 1.3-.3 2.6-1.2 2-1.6 2-1.1-.8-1.5-2.1-.5-2.5-.2-2.6"></path><path id="Fill-481" class="check-cls-3" d="M4.2 18.3c.4-.1 1.1.8 1.6 2.1a4.3 4.3 0 0 0 .1.5l.2-.5c.1-.2 1.3-2.2 1.7-2s.2 1.3-.3 2.6-1.2 2-1.6 2-1.1-.8-1.5-2.1-.5-2.5-.2-2.6"></path><path id="Fill-483" class="check-cls-3" d="M8.2 18.3c.4-.1 1.1.8 1.6 2.1a4.3 4.3 0 0 0 .1.5l.2-.5c.1-.2 1.3-2.2 1.7-2s.2 1.3-.3 2.6-1.2 2-1.6 2-1.1-.8-1.5-2.1-.5-2.5-.2-2.6"></path><path id="Fill-485" class="check-cls-3" d="M12.2 18.3c.4-.1 1.1.8 1.6 2.1a4.3 4.3 0 0 0 .1.5l.2-.5c.1-.2 1.3-2.2 1.7-2s.2 1.3-.3 2.6-1.2 2-1.6 2-1.1-.8-1.5-2.1-.5-2.5-.2-2.6"></path><path id="Fill-487" class="check-cls-3" d="M60.2 4.6c.4-.1 1.1.8 1.6 2.1s.1.3.1.5l.2-.5c.5-1.3 1.3-2.2 1.7-2s.2 1.3-.3 2.6-1.2 2-1.6 2-1.1-.8-1.5-2.1-.5-2.5-.2-2.6"></path><path id="Fill-489" class="check-cls-3" d="M56.2 4.6c.4-.1 1.1.8 1.6 2.1s.1.3.1.5l.2-.5c.5-1.3 1.3-2.2 1.7-2s.2 1.3-.3 2.6-1.2 2-1.6 2-1.1-.8-1.5-2.1-.5-2.5-.2-2.6"></path><path id="Fill-491" class="check-cls-3" d="M16.2 4.6c.4-.1 1.1.8 1.6 2.1s.1.3.1.5l.2-.5c.5-1.3 1.3-2.2 1.7-2s.2 1.3-.3 2.6-1.2 2-1.6 2-1.1-.8-1.5-2.1-.5-2.5-.2-2.6"></path><path id="Fill-493" class="check-cls-3" d="M24.2 4.6c.4-.1 1.1.8 1.6 2.1s.1.3.1.5l.2-.5c.5-1.3 1.3-2.2 1.7-2s.2 1.3-.3 2.6-1.2 2-1.6 2-1.1-.8-1.5-2.1-.5-2.5-.2-2.6"></path><path id="Fill-495" class="check-cls-3" d="M20.2 4.6c.4-.1 1.1.8 1.6 2.1s.1.3.1.5l.2-.5c.5-1.3 1.3-2.2 1.7-2s.2 1.3-.3 2.6-1.2 2-1.6 2-1.1-.8-1.5-2.1-.5-2.5-.2-2.6"></path><path id="Fill-497" class="check-cls-3" d="M39.8 73.2c-.4-.2-1.1.8-1.6 2.1a4.3 4.3 0 0 0-.1.5l-.2-.5c-.1-.1-1.3-2.2-1.7-2s-.2 1.3.3 2.5 1.2 2.1 1.6 2.1 1.1-.9 1.5-2.1.5-2.5.2-2.6"></path><path id="Fill-499" class="check-cls-3" d="M40.2 73.2c.4-.2 1.1.8 1.5 2.1s.1.3.2.5a.8.8 0 0 1 .2-.5c.5-1.3 1.3-2.2 1.6-2s.3 1.3-.3 2.5-1.2 2.1-1.5 2.1-1.1-.9-1.5-2.1-.6-2.5-.2-2.6"></path><path id="Fill-501" class="check-cls-3" d="M35.7 73.2c-.3-.2-1 .8-1.5 2.1a4.3 4.3 0 0 0-.1.5 1.7 1.7 0 0 1-.2-.5c-.6-1.3-1.3-2.2-1.7-2s-.2 1.3.3 2.5 1.2 2.1 1.6 2.1 1-.9 1.5-2.1.5-2.5.1-2.6"></path><path id="Fill-503" class="check-cls-3" d="M44.2 73.2c.4-.2 1.1.8 1.5 2.1a.8.8 0 0 1 .2.5l.2-.5c.1-.1 1.3-2.2 1.6-2s.3 1.3-.3 2.5-1.1 2.1-1.5 2.1-1.1-.9-1.5-2.1-.5-2.5-.2-2.6"></path><path id="Fill-505" class="check-cls-3" d="M31.7 73.2c-.3-.2-1 .8-1.5 2.1a.7.7 0 0 0-.1.5 1.7 1.7 0 0 1-.2-.5c-.6-1.3-1.3-2.2-1.7-2s-.2 1.3.3 2.5 1.2 2.1 1.6 2.1 1-.9 1.5-2.1.5-2.5.1-2.6"></path><path id="Fill-507" class="check-cls-3" d="M48.2 73.2c.4-.2 1.1.8 1.6 2.1a4.3 4.3 0 0 1 .1.5l.2-.5c.1-.1 1.3-2.2 1.7-2s.2 1.3-.3 2.5-1.2 2.1-1.6 2.1-1.1-.9-1.5-2.1-.5-2.5-.2-2.6"></path><path id="Fill-509" class="check-cls-3" d="M52.2 73.2c.4-.2 1.1.8 1.6 2.1a4.3 4.3 0 0 1 .1.5l.2-.5c.1-.1 1.3-2.2 1.7-2s.2 1.3-.3 2.5-1.2 2.1-1.6 2.1-1.1-.9-1.5-2.1-.5-2.5-.2-2.6"></path><path id="Fill-511" class="check-cls-3" d="M60.2 73.2c.4-.2 1.1.8 1.6 2.1a4.3 4.3 0 0 1 .1.5l.2-.5c.1-.1 1.3-2.2 1.7-2s.2 1.3-.3 2.5-1.2 2.1-1.6 2.1-1.1-.9-1.5-2.1-.5-2.5-.2-2.6"></path><path id="Fill-513" class="check-cls-3" d="M60.2 68.6c.4-.1 1.1.8 1.6 2.1s.1.3.1.5l.2-.5c.5-1.3 1.3-2.2 1.7-2s.2 1.3-.3 2.6-1.2 2-1.6 2-1.1-.8-1.5-2.1-.5-2.5-.2-2.6"></path><path id="Fill-515" class="check-cls-3" d="M56.2 73.2c.4-.2 1.1.8 1.6 2.1a4.3 4.3 0 0 1 .1.5l.2-.5c.1-.1 1.3-2.2 1.7-2s.2 1.3-.3 2.5-1.2 2.1-1.6 2.1-1.1-.9-1.5-2.1-.5-2.5-.2-2.6"></path><path id="Fill-517" class="check-cls-3" d="M56.2 68.6c.4-.1 1.1.8 1.6 2.1s.1.3.1.5l.2-.5c.5-1.3 1.3-2.2 1.7-2s.2 1.3-.3 2.6-1.2 2-1.6 2-1.1-.8-1.5-2.1-.5-2.5-.2-2.6"></path><path id="Fill-519" class="check-cls-3" d="M16.2 73.2c.4-.2 1.1.8 1.6 2.1a4.3 4.3 0 0 1 .1.5l.2-.5c.1-.1 1.3-2.2 1.7-2s.2 1.3-.3 2.5-1.2 2.1-1.6 2.1-1.1-.9-1.5-2.1-.5-2.5-.2-2.6"></path><path id="Fill-521" class="check-cls-3" d="M24.2 73.2c.4-.2 1.1.8 1.6 2.1a4.3 4.3 0 0 1 .1.5l.2-.5c.1-.1 1.3-2.2 1.7-2s.2 1.3-.3 2.5-1.2 2.1-1.6 2.1-1.1-.9-1.5-2.1-.5-2.5-.2-2.6"></path><path id="Fill-523" class="check-cls-3" d="M20.2 73.2c.4-.2 1.1.8 1.6 2.1a4.3 4.3 0 0 1 .1.5l.2-.5c.1-.1 1.3-2.2 1.7-2s.2 1.3-.3 2.5-1.2 2.1-1.6 2.1-1.1-.9-1.5-2.1-.5-2.5-.2-2.6"></path><path id="Fill-525" class="check-cls-2" d="M52.3 13.7c.3-.1 1 .8 1.5 2.1a4.3 4.3 0 0 0 .1.5l.2-.4c.6-1.3 1.3-2.2 1.7-2.1s.2 1.4-.3 2.6-1.2 2.1-1.6 2-1-.8-1.5-2.1-.5-2.4-.1-2.6"></path><path id="Fill-527" class="check-cls-2" d="M56.3 13.7c.3-.1 1 .8 1.5 2.1a4.3 4.3 0 0 0 .1.5l.2-.4c.6-1.3 1.3-2.2 1.7-2.1s.2 1.4-.3 2.6-1.2 2.1-1.6 2-1-.8-1.5-2.1-.5-2.4-.1-2.6"></path><path id="Fill-529" class="check-cls-1" d="M60.3 22.9c.4-.2 1 .8 1.5 2.1l.2.5.1-.5c0-.2 1.3-2.2 1.7-2s.2 1.3-.3 2.6-1.2 2-1.6 2-1-.9-1.5-2.1-.5-2.5-.1-2.6"></path><path id="Fill-531" class="check-cls-2" d="M64.3 22.9c.4-.2 1 .8 1.5 2.1l.2.5.1-.5c0-.2 1.3-2.2 1.7-2s.2 1.3-.3 2.6-1.2 2-1.6 2-1-.9-1.5-2.1-.5-2.5-.1-2.6"></path><path id="Fill-533" class="check-cls-1" d="M56.3 18.3c.3-.1 1 .8 1.5 2.1a4.3 4.3 0 0 0 .1.5.8.8 0 0 0 .2-.5c.6-1.2 1.3-2.2 1.7-2s.2 1.3-.3 2.6-1.2 2-1.6 2-1-.8-1.5-2.1-.5-2.5-.1-2.6"></path><path id="Fill-535" class="check-cls-2" d="M60.3 18.3c.3-.1 1 .8 1.5 2.1a4.3 4.3 0 0 0 .1.5.8.8 0 0 0 .2-.5c.6-1.2 1.3-2.2 1.7-2s.2 1.3-.3 2.6-1.2 2-1.6 2-1-.8-1.5-2.1-.5-2.5-.1-2.6"></path><path id="Fill-537" class="check-cls-1" d="M48.2 22.9c.4-.2 1.1.8 1.6 2.1s.1.3.1.5l.2-.5c.5-1.3 1.3-2.2 1.7-2s.2 1.3-.3 2.6-1.2 2-1.6 2-1.1-.9-1.5-2.1-.5-2.5-.2-2.6"></path><path id="Fill-539" class="check-cls-1" d="M44.2 22.9c.4-.2 1.1.8 1.5 2.1s.2.3.2.5l.2-.5c.5-1.3 1.3-2.2 1.6-2s.3 1.3-.3 2.6-1.1 2-1.5 2-1.1-.9-1.5-2.1-.5-2.5-.2-2.6"></path><path id="Fill-541" class="check-cls-1" d="M40.2 22.9c.4-.2 1.1.8 1.5 2.1l.2.5.2-.5c.1-.2 1.3-2.2 1.6-2s.3 1.3-.3 2.6-1.2 2-1.5 2-1.1-.9-1.5-2.1-.6-2.5-.2-2.6"></path></g></g></g></svg>