<svg class="icon-credit" id="Layer_1" data-name="Layer 1" xmlns="http://www.w3.org/2000/svg" viewBox="0 0 91.6 59.3"><defs><style>.cls-1{fill:#fff}.cls-2{fill:#b3d57d}.cls-3{fill:#2774ae}</style>
</defs><g id="Page-1"><g id="Artboard-2-Copy"><g id="Group-591">
<path id="Fill-1" class="cls-1" d="M71.5 50c-.4-.1-1 .8-1.5 2.1l-.2.5-.1-.5c0-.2-1.3-2.2-1.7-2s-.2 1.3.3 2.6 1.2 2 1.6 2 1-.9 1.5-2.1.5-2.5.1-2.6"></path>
<path id="Fill-3" class="cls-2" d="M3.7 50c-.4-.1-1.1.8-1.5 2.1l-.2.5-.2-.5c-.1-.2-1.2-2.2-1.6-2s-.2 1.3.3 2.6 1.2 2 1.6 2 1-.9 1.5-2.1.5-2.5.1-2.6"></path><path id="Fill-5" class="cls-1" d="M7.7 50c-.4-.1-1.1.8-1.5 2.1s-.1.4-.2.5a1.7 1.7 0 0 0-.2-.5c-.5-1.2-1.2-2.1-1.6-2s-.2 1.3.3 2.6 1.2 2 1.6 2 1-.8 1.4-2.1.6-2.4.2-2.6"></path>
<path id="Fill-7" class="cls-1" d="M11.7 50c-.4-.1-1.1.8-1.5 2.1a1.7 1.7 0 0 0-.2.5l-.2-.5c-.1-.2-1.3-2.1-1.6-2s-.3 1.3.3 2.6 1.1 2 1.5 2 1.1-.8 1.5-2.1.5-2.4.2-2.6"></path>
<path id="Fill-9" class="cls-1" d="M15.7 50c-.4-.1-1.1.8-1.6 2.1a4.3 4.3 0 0 1-.1.5l-.2-.5c-.1-.2-1.3-2.1-1.6-2s-.3 1.3.3 2.6 1.1 2 1.5 2 1.1-.8 1.5-2.1.5-2.4.2-2.6"></path>
<path id="Fill-11" class="cls-1" d="M51.6 50c-.4-.1-1.1.8-1.5 2.1s-.1.4-.2.5a1.7 1.7 0 0 0-.2-.5c-.5-1.2-1.2-2.1-1.6-2s-.2 1.3.3 2.6 1.2 2 1.5 2 1.1-.8 1.5-2.1.6-2.4.2-2.6"></path>
<path id="Fill-13" class="cls-1" d="M55.6 50c-.4-.1-1.1.8-1.5 2.1a1.7 1.7 0 0 0-.2.5l-.2-.5c-.1-.2-1.3-2.1-1.6-2s-.3 1.3.3 2.6 1.1 2 1.5 2 1.1-.8 1.5-2.1.5-2.4.2-2.6"></path>
<path id="Fill-15" class="cls-1" d="M19.6 50c-.3-.1-1 .8-1.5 2.1a4.3 4.3 0 0 1-.1.5l-.2-.5c-.1-.2-1.3-2.1-1.6-2s-.3 1.3.3 2.6 1.1 2 1.5 2 1.1-.8 1.5-2.1.5-2.5.1-2.6"></path>
<path id="Fill-17" class="cls-1" d="M23.6 50c-.3-.1-1 .8-1.5 2.1a4.3 4.3 0 0 1-.1.5l-.2-.5c-.1-.2-1.3-2.1-1.7-2s-.2 1.3.3 2.6 1.2 2 1.6 2 1-.8 1.5-2.1.5-2.5.1-2.6"></path>
<path id="Fill-19" class="cls-1" d="M27.6 50c-.3-.1-1 .8-1.5 2.1a4.3 4.3 0 0 1-.1.5.8.8 0 0 1-.2-.5c-.6-1.2-1.3-2.1-1.7-2s-.2 1.3.3 2.6 1.2 2 1.6 2 1-.8 1.5-2.1.5-2.5.1-2.6"></path>
<path id="Fill-21" class="cls-1" d="M31.6 50c-.4-.1-1.1.8-1.5 2.1s-.1.4-.2.5a1.7 1.7 0 0 0-.2-.5c-.5-1.2-1.2-2.1-1.6-2s-.2 1.3.3 2.6 1.2 2 1.6 2 1-.8 1.5-2.1.5-2.5.1-2.6"></path>
<path id="Fill-23" class="cls-1" d="M35.6 50c-.4-.1-1.1.8-1.5 2.1s-.1.4-.2.5a1.7 1.7 0 0 0-.2-.5c-.5-1.2-1.2-2.1-1.6-2s-.2 1.3.3 2.6 1.2 2 1.6 2 1-.8 1.4-2.1.6-2.5.2-2.6"></path>
<path id="Fill-25" class="cls-1" d="M39.6 50c-.4-.1-1.1.8-1.5 2.1s-.1.4-.2.5a1.7 1.7 0 0 0-.2-.5c-.5-1.2-1.2-2.1-1.6-2s-.2 1.3.3 2.6 1.2 2 1.5 2 1.1-.8 1.5-2.1.6-2.5.2-2.6"></path>
<path id="Fill-27" class="cls-1" d="M43.6 50c-.4-.1-1.1.8-1.5 2.1a1.7 1.7 0 0 0-.2.5l-.2-.5c-.1-.2-1.3-2.1-1.6-2s-.3 1.3.3 2.6 1.1 2 1.5 2 1.1-.8 1.5-2.1.5-2.5.2-2.6"></path>
<path id="Fill-29" class="cls-1" d="M47.6 50c-.4-.1-1.1.8-1.6 2.1a4.3 4.3 0 0 1-.1.5l-.2-.5c-.1-.2-1.3-2.1-1.6-2s-.3 1.3.3 2.6 1.1 2 1.5 2 1.1-.8 1.5-2.1.5-2.5.2-2.6"></path>
<path id="Fill-31" class="cls-1" d="M67.5 50c-.4-.1-1 .8-1.5 2.1a4.3 4.3 0 0 1-.1.5.8.8 0 0 1-.2-.5c-.6-1.2-1.3-2.1-1.7-2s-.2 1.3.3 2.6 1.2 2 1.6 2 1-.8 1.5-2.1.5-2.5.1-2.6"></path>
<path id="Fill-33" class="cls-1" d="M59.5 50c-.4-.1-1 .8-1.5 2.1l-.2.5a4.3 4.3 0 0 1-.1-.5c-.6-1.2-1.3-2.1-1.7-2s-.2 1.3.3 2.6 1.2 2 1.6 2 1-.8 1.5-2.1.5-2.5.1-2.6"></path>
<path id="Fill-35" class="cls-1" d="M63.5 50c-.4-.1-1.1.8-1.5 2.1l-.2.5a1.7 1.7 0 0 0-.2-.5c-.5-1.2-1.2-2.1-1.6-2s-.2 1.3.3 2.6 1.2 2 1.6 2 1-.8 1.5-2.1.5-2.5.1-2.6"></path>
<path id="Fill-37" class="cls-2" d="M91.4 50c-.4-.1-1.1.8-1.5 2.1l-.2.5-.2-.5c-.1-.2-1.2-2.2-1.6-2s-.2 1.3.3 2.6 1.2 2 1.6 2 1-.9 1.4-2.1.6-2.5.2-2.6"></path>
<path id="Fill-39" class="cls-1" d="M75.4 50c-.3-.1-1 .8-1.5 2.1a4.3 4.3 0 0 1-.1.5l-.2-.5c-.1-.2-1.3-2.1-1.6-2s-.3 1.3.3 2.6 1.1 2 1.5 2 1.1-.8 1.5-2.1.5-2.4.1-2.6"></path>
<path id="Fill-41" class="cls-1" d="M87.4 50c-.4-.1-1.1.8-1.5 2.1s-.1.4-.2.5a1.7 1.7 0 0 0-.2-.5c-.5-1.2-1.2-2.1-1.6-2s-.2 1.3.3 2.6 1.2 2 1.6 2 1-.8 1.5-2.1.5-2.5.1-2.6"></path>
<path id="Fill-43" class="cls-1" d="M79.4 50c-.4-.1-1.1.8-1.5 2.1l-.2.5a1.7 1.7 0 0 0-.2-.5c-.5-1.2-1.2-2.1-1.6-2s-.2 1.3.3 2.6 1.2 2 1.6 2 1-.8 1.4-2.1.6-2.5.2-2.6"></path>
<path id="Fill-45" class="cls-1" d="M83.4 50c-.4-.1-1.1.8-1.5 2.1l-.2.5a1.7 1.7 0 0 0-.2-.5c-.5-1.2-1.2-2.1-1.6-2s-.2 1.3.3 2.6 1.2 2 1.5 2 1.1-.8 1.5-2.1.6-2.5.2-2.6"></path>
<path id="Fill-47" class="cls-2" d="M71.5 54.5c-.4-.1-1 .8-1.5 2.1l-.2.5a4.3 4.3 0 0 1-.1-.5c-.6-1.2-1.3-2.1-1.7-2s-.2 1.3.3 2.6 1.2 2 1.6 2 1-.8 1.5-2.1.5-2.4.1-2.6"></path>
<path id="Fill-49" class="cls-2" d="M7.7 54.6c-.4-.2-1.1.8-1.5 2.1s-.1.3-.2.5a.8.8 0 0 0-.2-.5c-.5-1.3-1.2-2.2-1.6-2s-.2 1.3.3 2.5 1.2 2.1 1.6 2.1 1-.9 1.4-2.1.6-2.5.2-2.6"></path><path id="Fill-51" class="cls-2" d="M11.7 54.6c-.4-.2-1.1.8-1.5 2.1a.8.8 0 0 0-.2.5l-.2-.5c-.1-.1-1.3-2.2-1.6-2s-.3 1.3.3 2.5 1.1 2.1 1.5 2.1 1.1-.9 1.5-2.2.5-2.4.2-2.5"></path><path id="Fill-53" class="cls-2" d="M15.7 54.6c-.4-.2-1.1.8-1.6 2.1a4.3 4.3 0 0 0-.1.5l-.2-.5c-.1-.1-1.3-2.2-1.6-2s-.3 1.3.3 2.5 1.1 2.1 1.5 2.1 1.1-.9 1.5-2.2.5-2.4.2-2.5"></path><path id="Fill-55" class="cls-2" d="M51.6 54.6c-.4-.2-1.1.8-1.5 2.1s-.1.3-.2.5a.8.8 0 0 0-.2-.5c-.5-1.3-1.2-2.2-1.6-2s-.2 1.3.3 2.5 1.2 2.1 1.5 2.1 1.1-.9 1.5-2.1.6-2.5.2-2.6"></path><path id="Fill-57" class="cls-2" d="M55.6 54.6c-.4-.2-1.1.8-1.5 2.1a.8.8 0 0 0-.2.5l-.2-.5c-.1-.1-1.3-2.2-1.6-2s-.3 1.3.3 2.5 1.1 2.1 1.5 2.1 1.1-.9 1.5-2.1.5-2.5.2-2.6"></path><path id="Fill-59" class="cls-2" d="M19.6 54.6c-.3-.2-1 .8-1.5 2.1a4.3 4.3 0 0 0-.1.5l-.2-.5c-.1-.1-1.3-2.2-1.6-2s-.3 1.3.3 2.5 1.1 2.1 1.5 2 1.1-.8 1.5-2.1.5-2.4.1-2.5"></path><path id="Fill-61" class="cls-2" d="M23.6 54.6c-.3-.2-1 .8-1.5 2.1a4.3 4.3 0 0 0-.1.5l-.2-.5c-.1-.1-1.3-2.2-1.7-2s-.2 1.3.3 2.5 1.2 2.1 1.6 2 1-.8 1.5-2.1.5-2.4.1-2.5"></path><path id="Fill-63" class="cls-2" d="M27.6 54.6c-.3-.2-1 .8-1.5 2.1a4.3 4.3 0 0 0-.1.5l-.2-.5c-.6-1.3-1.3-2.2-1.7-2s-.2 1.3.3 2.5 1.2 2.1 1.6 2 1-.8 1.5-2.1.5-2.4.1-2.5"></path><path id="Fill-65" class="cls-2" d="M31.6 54.6c-.4-.2-1.1.8-1.5 2.1s-.1.3-.2.5a.8.8 0 0 0-.2-.5c-.5-1.3-1.2-2.2-1.6-2s-.2 1.3.3 2.5 1.2 2.1 1.6 2 1-.8 1.5-2.1.5-2.4.1-2.5"></path><path id="Fill-67" class="cls-2" d="M35.6 54.6c-.4-.2-1.1.8-1.5 2.1s-.1.3-.2.5a.8.8 0 0 0-.2-.5c-.5-1.3-1.2-2.2-1.6-2s-.2 1.3.3 2.5 1.2 2.1 1.6 2 1-.8 1.4-2.1.6-2.4.2-2.5"></path><path id="Fill-69" class="cls-2" d="M39.6 54.6c-.4-.2-1.1.8-1.5 2.1s-.1.3-.2.5a.8.8 0 0 0-.2-.5c-.5-1.3-1.2-2.2-1.6-2s-.2 1.3.3 2.5 1.2 2.1 1.5 2 1.1-.8 1.5-2.1.6-2.4.2-2.5"></path><path id="Fill-71" class="cls-2" d="M43.6 54.6c-.4-.2-1.1.8-1.5 2.1a.8.8 0 0 0-.2.5l-.2-.5c-.1-.1-1.3-2.2-1.6-2s-.3 1.3.3 2.5 1.1 2.1 1.5 2 1.1-.8 1.5-2.1.5-2.4.2-2.5"></path><path id="Fill-73" class="cls-2" d="M47.6 54.6c-.4-.2-1.1.8-1.6 2.1a4.3 4.3 0 0 0-.1.5l-.2-.5c-.1-.1-1.3-2.2-1.6-2s-.3 1.3.3 2.5 1.1 2.1 1.5 2 1.1-.8 1.5-2.1.5-2.4.2-2.5"></path><path id="Fill-75" class="cls-2" d="M67.5 54.6c-.4-.2-1 .8-1.5 2.1a4.3 4.3 0 0 0-.1.5l-.2-.5c-.6-1.3-1.3-2.2-1.7-2s-.2 1.3.3 2.5 1.2 2.1 1.6 2 1-.8 1.5-2.1.5-2.4.1-2.5"></path><path id="Fill-77" class="cls-2" d="M59.5 54.6c-.4-.2-1 .8-1.5 2.1l-.2.5a4.3 4.3 0 0 0-.1-.5c-.6-1.3-1.3-2.2-1.7-2s-.2 1.3.3 2.5 1.2 2.1 1.6 2 1-.8 1.5-2.1.5-2.4.1-2.5"></path><path id="Fill-79" class="cls-2" d="M63.5 54.6c-.4-.2-1.1.8-1.5 2.1s-.1.3-.2.5a.8.8 0 0 0-.2-.5c-.5-1.3-1.2-2.2-1.6-2s-.2 1.3.3 2.5 1.2 2.1 1.6 2 1-.8 1.5-2.1.5-2.4.1-2.5"></path><path id="Fill-81" class="cls-2" d="M75.4 54.6c-.3-.2-1 .8-1.5 2.1a4.3 4.3 0 0 0-.1.5l-.2-.5c-.1-.1-1.3-2.2-1.6-2s-.3 1.3.3 2.5 1.1 2.1 1.5 2.1 1.1-.9 1.5-2.1.5-2.5.1-2.6"></path><path id="Fill-83" class="cls-2" d="M87.4 54.6c-.4-.2-1.1.8-1.5 2.1s-.1.3-.2.5a.8.8 0 0 0-.2-.5c-.5-1.3-1.2-2.2-1.6-2s-.2 1.3.3 2.5 1.2 2.1 1.6 2 1-.8 1.5-2.1.5-2.4.1-2.5"></path><path id="Fill-85" class="cls-2" d="M79.4 54.6c-.4-.2-1.1.8-1.5 2.1s-.1.3-.2.5a.8.8 0 0 0-.2-.5c-.5-1.3-1.2-2.2-1.6-2s-.2 1.3.3 2.5 1.2 2.1 1.6 2 1-.8 1.4-2.1.6-2.4.2-2.5"></path><path id="Fill-87" class="cls-2" d="M83.4 54.6c-.4-.2-1.1.8-1.5 2.1s-.1.3-.2.5a.8.8 0 0 0-.2-.5c-.5-1.3-1.2-2.2-1.6-2s-.2 1.3.3 2.5 1.2 2.1 1.5 2 1.1-.8 1.5-2.1.6-2.4.2-2.5"></path><path id="Fill-89" class="cls-1" d="M71.5 40.9c-.4-.1-1 .8-1.5 2.1l-.2.5-.1-.5c0-.2-1.3-2.1-1.7-2s-.2 1.3.3 2.6 1.2 2 1.6 2 1-.8 1.5-2.1.5-2.5.1-2.6"></path><path id="Fill-91" class="cls-2" d="M3.7 40.9c-.4-.1-1.1.8-1.5 2.1l-.2.5-.2-.5c-.1-.2-1.2-2.1-1.6-2s-.2 1.3.3 2.6 1.2 2 1.6 2 1-.8 1.5-2.1.5-2.5.1-2.6"></path><path id="Fill-93" class="cls-1" d="M7.7 40.9c-.4-.1-1.1.9-1.5 2.1l-.2.5a.8.8 0 0 0-.2-.4c-.5-1.3-1.2-2.2-1.6-2.1s-.2 1.4.3 2.6 1.2 2 1.6 2 1-.8 1.4-2.1.6-2.4.2-2.6"></path><path id="Fill-95" class="cls-1" d="M11.7 40.9c-.4-.1-1.1.9-1.5 2.1a1.7 1.7 0 0 0-.2.5l-.2-.5c-.1-.2-1.3-2.1-1.6-2s-.3 1.3.3 2.6 1.1 2 1.5 2 1.1-.8 1.5-2.1.5-2.4.2-2.6"></path><path id="Fill-97" class="cls-1" d="M15.7 40.9c-.4-.1-1.1.9-1.6 2.1a4.3 4.3 0 0 1-.1.5l-.2-.5c-.1-.2-1.3-2.1-1.6-2s-.3 1.3.3 2.6 1.1 2 1.5 2 1.1-.8 1.5-2.1.5-2.4.2-2.6"></path><path id="Fill-99" class="cls-1" d="M51.6 40.9c-.4-.1-1.1.9-1.5 2.1l-.2.5a.8.8 0 0 0-.2-.4c-.5-1.3-1.2-2.2-1.6-2.1s-.2 1.4.3 2.6 1.2 2 1.5 2 1.1-.8 1.5-2.1.6-2.4.2-2.6"></path><path id="Fill-101" class="cls-1" d="M55.6 40.9c-.4-.1-1.1.9-1.5 2.1a1.7 1.7 0 0 0-.2.5l-.2-.4c-.1-.1-1.3-2.2-1.6-2.1s-.3 1.4.3 2.6 1.1 2 1.5 2 1.1-.8 1.5-2.1.5-2.4.2-2.6"></path><path id="Fill-103" class="cls-1" d="M19.6 40.9c-.3-.1-1 .8-1.5 2.1a4.3 4.3 0 0 1-.1.5l-.2-.5c-.1-.2-1.3-2.1-1.6-2s-.3 1.3.3 2.6 1.1 2 1.5 2 1.1-.8 1.5-2.1.5-2.4.1-2.6"></path><path id="Fill-105" class="cls-1" d="M23.6 40.9c-.3-.1-1 .8-1.5 2.1a4.3 4.3 0 0 1-.1.5l-.2-.5c-.1-.2-1.3-2.1-1.7-2s-.2 1.3.3 2.6 1.2 2 1.6 2 1-.8 1.5-2.1.5-2.4.1-2.6"></path><path id="Fill-107" class="cls-1" d="M27.6 40.9c-.3-.1-1 .8-1.5 2.1a4.3 4.3 0 0 1-.1.5.8.8 0 0 1-.2-.5c-.6-1.2-1.3-2.1-1.7-2s-.2 1.3.3 2.6 1.2 2 1.6 2 1-.8 1.5-2.1.5-2.4.1-2.6"></path><path id="Fill-109" class="cls-1" d="M31.6 40.9c-.4-.1-1.1.8-1.5 2.1s-.1.4-.2.5a1.7 1.7 0 0 0-.2-.5c-.5-1.2-1.2-2.1-1.6-2s-.2 1.3.3 2.6 1.2 2 1.6 2 1-.8 1.5-2.1.5-2.4.1-2.6"></path><path id="Fill-111" class="cls-1" d="M35.6 40.9c-.4-.1-1.1.8-1.5 2.1s-.1.4-.2.5a1.7 1.7 0 0 0-.2-.5c-.5-1.2-1.2-2.1-1.6-2s-.2 1.3.3 2.6 1.2 2 1.6 2 1-.8 1.4-2.1.6-2.4.2-2.6"></path><path id="Fill-113" class="cls-1" d="M39.6 40.9c-.4-.1-1.1.8-1.5 2.1s-.1.4-.2.5a1.7 1.7 0 0 0-.2-.5c-.5-1.2-1.2-2.1-1.6-2s-.2 1.3.3 2.6 1.2 2 1.5 2 1.1-.8 1.5-2.1.6-2.4.2-2.6"></path><path id="Fill-115" class="cls-1" d="M43.6 40.9c-.4-.1-1.1.8-1.5 2.1a1.7 1.7 0 0 0-.2.5l-.2-.5c-.1-.2-1.3-2.1-1.6-2s-.3 1.3.3 2.6 1.1 2 1.5 2 1.1-.8 1.5-2.1.5-2.4.2-2.6"></path><path id="Fill-117" class="cls-1" d="M47.6 40.9c-.4-.1-1.1.8-1.6 2.1a4.3 4.3 0 0 1-.1.5l-.2-.5c-.1-.2-1.3-2.1-1.6-2s-.3 1.3.3 2.6 1.1 2 1.5 2 1.1-.8 1.5-2.1.5-2.4.2-2.6"></path><path id="Fill-119" class="cls-1" d="M67.5 40.9c-.4-.1-1 .8-1.5 2.1a4.3 4.3 0 0 1-.1.5.8.8 0 0 1-.2-.5c-.6-1.2-1.3-2.1-1.7-2s-.2 1.3.3 2.6 1.2 2 1.6 2 1-.8 1.5-2.1.5-2.4.1-2.6"></path><path id="Fill-121" class="cls-1" d="M59.5 40.9c-.4-.1-1 .8-1.5 2.1l-.2.5a4.3 4.3 0 0 1-.1-.5c-.6-1.2-1.3-2.1-1.7-2s-.2 1.3.3 2.6 1.2 2 1.6 2 1-.8 1.5-2.1.5-2.4.1-2.6"></path><path id="Fill-123" class="cls-1" d="M63.5 40.9c-.4-.1-1.1.8-1.5 2.1s-.1.4-.2.5a1.7 1.7 0 0 0-.2-.5c-.5-1.2-1.2-2.1-1.6-2s-.2 1.3.3 2.6 1.2 2 1.6 2 1-.8 1.5-2.1.5-2.4.1-2.6"></path><path id="Fill-125" class="cls-2" d="M91.4 40.9c-.4-.1-1.1.8-1.5 2.1l-.2.5-.2-.5c-.1-.2-1.2-2.1-1.6-2s-.2 1.3.3 2.6 1.2 2 1.6 2 1-.8 1.4-2.1.6-2.5.2-2.6"></path><path id="Fill-127" class="cls-1" d="M75.4 40.9c-.3-.1-1 .9-1.5 2.1a4.3 4.3 0 0 1-.1.5l-.2-.4c-.1-.1-1.3-2.2-1.6-2.1s-.3 1.4.3 2.6 1.1 2 1.5 2 1.1-.8 1.5-2.1.5-2.4.1-2.6"></path><path id="Fill-129" class="cls-1" d="M87.4 40.9c-.4-.1-1.1.8-1.5 2.1s-.1.4-.2.5a1.7 1.7 0 0 0-.2-.5c-.5-1.2-1.2-2.1-1.6-2s-.2 1.3.3 2.6 1.2 2 1.6 2 1-.8 1.5-2.1.5-2.4.1-2.6"></path><path id="Fill-131" class="cls-1" d="M79.4 40.9c-.4-.1-1.1.8-1.5 2.1s-.1.4-.2.5a1.7 1.7 0 0 0-.2-.5c-.5-1.2-1.2-2.1-1.6-2s-.2 1.3.3 2.6 1.2 2 1.6 2 1-.8 1.4-2.1.6-2.4.2-2.6"></path><path id="Fill-133" class="cls-1" d="M83.4 40.9c-.4-.1-1.1.8-1.5 2.1s-.1.4-.2.5a1.7 1.7 0 0 0-.2-.5c-.5-1.2-1.2-2.1-1.6-2s-.2 1.3.3 2.6 1.2 2 1.5 2 1.1-.8 1.5-2.1.6-2.4.2-2.6"></path><path id="Fill-135" class="cls-1" d="M71.5 45.4c-.4-.1-1 .9-1.5 2.2s-.1.3-.2.4-.1-.3-.1-.4-1.3-2.2-1.7-2.1-.2 1.4.3 2.6 1.2 2 1.6 2 1-.8 1.5-2.1.5-2.4.1-2.6"></path><path id="Fill-137" class="cls-2" d="M3.7 45.4c-.4-.1-1.1.9-1.5 2.2s-.1.3-.2.4a.8.8 0 0 0-.2-.4C1.3 46.3.6 45.4.2 45.5s-.2 1.4.3 2.6 1.2 2 1.6 2 1-.8 1.5-2.1.5-2.4.1-2.6"></path><path id="Fill-139" class="cls-1" d="M7.7 45.5c-.4-.1-1.1.8-1.5 2.1l-.2.5-.2-.5c-.1-.2-1.2-2.2-1.6-2s-.2 1.3.3 2.6 1.2 2 1.6 2 1-.9 1.4-2.1.6-2.5.2-2.6"></path><path id="Fill-141" class="cls-3" d="M11.7 45.5c-.4-.2-1.1.8-1.5 2.1a.8.8 0 0 0-.2.5l-.2-.5c-.5-1.3-1.3-2.2-1.6-2s-.3 1.3.3 2.6 1.1 2 1.5 2 1.1-.9 1.5-2.1.5-2.5.2-2.6"></path><path id="Fill-143" class="cls-3" d="M15.7 45.5c-.4-.2-1.1.8-1.6 2.1a4.3 4.3 0 0 0-.1.5l-.2-.5c-.5-1.3-1.3-2.2-1.6-2s-.3 1.3.3 2.6 1.1 2 1.5 2 1.1-.9 1.5-2.1.5-2.5.2-2.6"></path><path id="Fill-145" class="cls-1" d="M51.6 45.5c-.4-.1-1.1.8-1.5 2.1l-.2.5-.2-.5c-.1-.2-1.2-2.2-1.6-2s-.2 1.3.3 2.6 1.2 2 1.5 2 1.1-.9 1.5-2.1.6-2.5.2-2.6"></path><path id="Fill-147" class="cls-1" d="M55.6 45.5c-.4-.1-1.1.8-1.5 2.1s-.2.3-.2.5l-.2-.5c-.5-1.3-1.3-2.2-1.6-2s-.3 1.3.3 2.6 1.1 2 1.5 2 1.1-.9 1.5-2.1.5-2.5.2-2.6"></path><path id="Fill-149" class="cls-1" d="M19.6 45.5c-.3-.2-1 .8-1.5 2.1a4.3 4.3 0 0 0-.1.5l-.2-.5c-.5-1.3-1.3-2.2-1.6-2s-.3 1.3.3 2.5 1.1 2.1 1.5 2.1 1.1-.9 1.5-2.1.5-2.5.1-2.6"></path><path id="Fill-151" class="cls-1" d="M23.6 45.5c-.3-.2-1 .8-1.5 2.1a4.3 4.3 0 0 0-.1.5l-.2-.5c-.5-1.3-1.3-2.2-1.7-2s-.2 1.3.3 2.5 1.2 2.1 1.6 2.1 1-.9 1.5-2.1.5-2.5.1-2.6"></path><path id="Fill-153" class="cls-3" d="M27.6 45.5c-.3-.2-1 .8-1.5 2.1a4.3 4.3 0 0 0-.1.5l-.2-.5c0-.2-1.3-2.2-1.7-2s-.2 1.3.3 2.5 1.2 2.1 1.6 2.1 1-.9 1.5-2.1.5-2.5.1-2.6"></path><path id="Fill-155" class="cls-3" d="M31.6 45.5c-.4-.2-1.1.8-1.5 2.1s-.1.3-.2.5-.1-.3-.2-.5-1.2-2.2-1.6-2-.2 1.3.3 2.5 1.2 2.1 1.6 2.1 1-.9 1.5-2.1.5-2.5.1-2.6"></path><path id="Fill-157" class="cls-3" d="M35.6 45.5c-.4-.2-1.1.8-1.5 2.1s-.1.3-.2.5-.1-.3-.2-.5-1.2-2.2-1.6-2-.2 1.3.3 2.5 1.2 2.1 1.6 2.1 1-.9 1.4-2.1.6-2.5.2-2.6"></path><path id="Fill-159" class="cls-3" d="M39.6 45.5c-.4-.2-1.1.8-1.5 2.1s-.1.3-.2.5-.1-.3-.2-.5-1.2-2.2-1.6-2-.2 1.3.3 2.5 1.2 2.1 1.5 2.1 1.1-.9 1.5-2.1.6-2.5.2-2.6"></path><path id="Fill-161" class="cls-1" d="M43.6 45.5c-.4-.2-1.1.8-1.5 2.1a.8.8 0 0 0-.2.5l-.2-.5c-.5-1.3-1.3-2.2-1.6-2s-.3 1.3.3 2.5 1.1 2.1 1.5 2.1 1.1-.9 1.5-2.1.5-2.5.2-2.6"></path><path id="Fill-163" class="cls-1" d="M47.6 45.5c-.4-.2-1.1.8-1.6 2.1a4.3 4.3 0 0 0-.1.5l-.2-.5c-.5-1.3-1.3-2.2-1.6-2s-.3 1.3.3 2.5 1.1 2.1 1.5 2.1 1.1-.9 1.5-2.1.5-2.5.2-2.6"></path><path id="Fill-165" class="cls-1" d="M67.5 45.5c-.4-.2-1 .8-1.5 2.1a4.3 4.3 0 0 0-.1.5l-.2-.5c0-.2-1.3-2.2-1.7-2s-.2 1.3.3 2.5 1.2 2.1 1.6 2.1 1-.9 1.5-2.1.5-2.5.1-2.6"></path><path id="Fill-167" class="cls-1" d="M59.5 45.5c-.4-.2-1 .8-1.5 2.1l-.2.5a4.3 4.3 0 0 0-.1-.5c-.6-1.3-1.3-2.2-1.7-2s-.2 1.3.3 2.5 1.2 2.1 1.6 2.1 1-.9 1.5-2.1.5-2.5.1-2.6"></path><path id="Fill-169" class="cls-1" d="M63.5 45.5c-.4-.2-1.1.8-1.5 2.1s-.1.3-.2.5a.8.8 0 0 0-.2-.5c-.5-1.3-1.2-2.2-1.6-2s-.2 1.3.3 2.5 1.2 2.1 1.6 2.1 1-.9 1.5-2.1.5-2.5.1-2.6"></path><path id="Fill-171" class="cls-2" d="M91.4 45.4c-.4-.1-1.1.9-1.5 2.2s-.1.3-.2.4a.8.8 0 0 0-.2-.4c-.5-1.3-1.2-2.2-1.6-2.1s-.2 1.4.3 2.6 1.2 2 1.6 2 1-.8 1.4-2.1.6-2.4.2-2.6"></path><path id="Fill-173" class="cls-1" d="M75.4 45.5c-.3-.1-1 .8-1.5 2.1s-.1.3-.1.5l-.2-.5c-.5-1.3-1.3-2.2-1.6-2s-.3 1.3.3 2.6 1.1 2 1.5 2 1.1-.9 1.5-2.1.5-2.5.1-2.6"></path><path id="Fill-175" class="cls-1" d="M87.4 45.5c-.4-.2-1.1.8-1.5 2.1s-.1.3-.2.5-.1-.3-.2-.5-1.2-2.2-1.6-2-.2 1.3.3 2.5 1.2 2.1 1.6 2.1 1-.9 1.5-2.1.5-2.5.1-2.6"></path><path id="Fill-177" class="cls-1" d="M79.4 45.5c-.4-.2-1.1.8-1.5 2.1s-.1.3-.2.5a.8.8 0 0 0-.2-.5c-.5-1.3-1.2-2.2-1.6-2s-.2 1.3.3 2.5 1.2 2.1 1.6 2.1 1-.9 1.4-2.1.6-2.5.2-2.6"></path><path id="Fill-179" class="cls-1" d="M83.4 45.5c-.4-.2-1.1.8-1.5 2.1s-.1.3-.2.5a.8.8 0 0 0-.2-.5c-.5-1.3-1.2-2.2-1.6-2s-.2 1.3.3 2.5 1.2 2.1 1.5 2.1 1.1-.9 1.5-2.1.6-2.5.2-2.6"></path><path id="Fill-181" class="cls-1" d="M71.5 31.8c-.4-.1-1 .8-1.5 2.1l-.2.5a4.3 4.3 0 0 1-.1-.5c-.6-1.2-1.3-2.1-1.7-2s-.2 1.3.3 2.6 1.2 2 1.6 2 1-.8 1.5-2.1.5-2.5.1-2.6"></path><path id="Fill-183" class="cls-2" d="M3.7 31.8c-.4-.1-1.1.8-1.5 2.1s-.1.4-.2.5a1.7 1.7 0 0 0-.2-.5c-.5-1.2-1.2-2.1-1.6-2s-.2 1.3.3 2.6 1.2 2 1.6 2 1-.8 1.5-2.1.5-2.5.1-2.6"></path><path id="Fill-185" class="cls-1" d="M7.7 31.9c-.4-.2-1.1.8-1.5 2.1s-.1.3-.2.5a.8.8 0 0 0-.2-.5c-.5-1.3-1.2-2.2-1.6-2s-.2 1.3.3 2.5 1.2 2.1 1.6 2 1-.8 1.4-2.1.6-2.4.2-2.5"></path><path id="Fill-187" class="cls-1" d="M11.7 31.8c-.4-.1-1.1.9-1.5 2.2a.8.8 0 0 0-.2.4l-.2-.4c-.1-.1-1.3-2.2-1.6-2s-.3 1.3.3 2.5 1.1 2.1 1.5 2 1.1-.8 1.5-2.1.5-2.4.2-2.6"></path><path id="Fill-189" class="cls-1" d="M15.7 31.8c-.4-.1-1.1.9-1.6 2.2s-.1.3-.1.4l-.2-.4c-.1-.1-1.3-2.2-1.6-2s-.3 1.3.3 2.5 1.1 2.1 1.5 2 1.1-.8 1.5-2.1.5-2.4.2-2.6"></path><path id="Fill-191" class="cls-1" d="M51.6 31.9c-.4-.2-1.1.8-1.5 2.1s-.1.3-.2.4a.8.8 0 0 0-.2-.4c-.5-1.3-1.2-2.2-1.6-2s-.2 1.3.3 2.5 1.2 2.1 1.5 2 1.1-.8 1.5-2.1.6-2.4.2-2.5"></path><path id="Fill-193" class="cls-1" d="M55.6 31.9c-.4-.2-1.1.8-1.5 2.1a.8.8 0 0 0-.2.4l-.2-.4c-.1-.1-1.3-2.2-1.6-2s-.3 1.3.3 2.5 1.1 2.1 1.5 2 1.1-.8 1.5-2.1.5-2.4.2-2.5"></path><path id="Fill-195" class="cls-1" d="M19.6 31.8c-.3-.1-1 .9-1.5 2.1a4.3 4.3 0 0 1-.1.5l-.2-.4c-.1-.1-1.3-2.2-1.6-2.1s-.3 1.4.3 2.6 1.1 2 1.5 2 1.1-.8 1.5-2.1.5-2.4.1-2.6"></path><path id="Fill-197" class="cls-1" d="M23.6 31.8c-.3-.1-1 .9-1.5 2.1a4.3 4.3 0 0 1-.1.5l-.2-.4c-.1-.1-1.3-2.2-1.7-2.1s-.2 1.4.3 2.6 1.2 2 1.6 2 1-.8 1.5-2.1.5-2.4.1-2.6"></path><path id="Fill-199" class="cls-1" d="M27.6 31.8c-.3-.1-1 .9-1.5 2.1a4.3 4.3 0 0 1-.1.5.8.8 0 0 1-.2-.4c-.6-1.3-1.3-2.2-1.7-2.1s-.2 1.4.3 2.6 1.2 2 1.6 2 1-.8 1.5-2.1.5-2.4.1-2.6"></path><path id="Fill-201" class="cls-1" d="M31.6 31.8c-.4-.1-1.1.9-1.5 2.1l-.2.5a.8.8 0 0 0-.2-.4c-.5-1.3-1.2-2.2-1.6-2.1s-.2 1.4.3 2.6 1.2 2 1.6 2 1-.8 1.5-2.1.5-2.4.1-2.6"></path><path id="Fill-203" class="cls-1" d="M35.6 31.8c-.4-.1-1.1.9-1.5 2.1l-.2.5a.8.8 0 0 0-.2-.4c-.5-1.3-1.2-2.2-1.6-2.1s-.2 1.4.3 2.6 1.2 2 1.6 2 1-.8 1.4-2.1.6-2.4.2-2.6"></path><path id="Fill-205" class="cls-1" d="M39.6 31.8c-.4-.1-1.1.9-1.5 2.1l-.2.5a.8.8 0 0 0-.2-.4c-.5-1.3-1.2-2.2-1.6-2.1s-.2 1.4.3 2.6 1.2 2 1.5 2 1.1-.8 1.5-2.1.6-2.4.2-2.6"></path><path id="Fill-207" class="cls-1" d="M43.6 31.8c-.4-.1-1.1.9-1.5 2.1a1.7 1.7 0 0 0-.2.5l-.2-.4c-.1-.1-1.3-2.2-1.6-2.1s-.3 1.4.3 2.6 1.1 2 1.5 2 1.1-.8 1.5-2.1.5-2.4.2-2.6"></path><path id="Fill-209" class="cls-1" d="M47.6 31.8c-.4-.1-1.1.9-1.6 2.1a4.3 4.3 0 0 1-.1.5l-.2-.4c-.1-.1-1.3-2.2-1.6-2.1s-.3 1.4.3 2.6 1.1 2 1.5 2 1.1-.8 1.5-2.1.5-2.4.2-2.6"></path><path id="Fill-211" class="cls-1" d="M67.5 31.8c-.4-.1-1 .9-1.5 2.2s-.1.3-.1.4a.8.8 0 0 1-.2-.4c-.6-1.3-1.3-2.2-1.7-2.1s-.2 1.4.3 2.6 1.2 2 1.6 2 1-.8 1.5-2.1.5-2.4.1-2.6"></path><path id="Fill-213" class="cls-1" d="M59.5 31.8c-.4-.1-1 .9-1.5 2.1l-.2.5c-.1.1-.1-.3-.1-.4s-1.3-2.2-1.7-2.1-.2 1.4.3 2.6 1.2 2 1.6 2 1-.8 1.5-2.1.5-2.4.1-2.6"></path><path id="Fill-215" class="cls-1" d="M63.5 31.8c-.4-.1-1.1.9-1.5 2.1l-.2.5a.8.8 0 0 0-.2-.4c-.5-1.3-1.2-2.2-1.6-2.1s-.2 1.4.3 2.6 1.2 2 1.6 2 1-.8 1.5-2.1.5-2.4.1-2.6"></path><path id="Fill-217" class="cls-2" d="M91.4 31.8c-.4-.1-1.1.8-1.5 2.1s-.1.4-.2.5a1.7 1.7 0 0 0-.2-.5c-.5-1.2-1.2-2.1-1.6-2s-.2 1.3.3 2.6 1.2 2 1.6 2 1-.8 1.4-2.1.6-2.5.2-2.6"></path><path id="Fill-219" class="cls-1" d="M75.4 31.9c-.3-.2-1 .8-1.5 2.1s-.1.3-.1.4l-.2-.4c-.1-.1-1.3-2.2-1.6-2s-.3 1.3.3 2.5 1.1 2.1 1.5 2 1.1-.8 1.5-2.1.5-2.4.1-2.5"></path><path id="Fill-221" class="cls-1" d="M87.4 31.8c-.4-.1-1.1.9-1.5 2.2s-.1.3-.2.4a.8.8 0 0 0-.2-.4c-.5-1.3-1.2-2.2-1.6-2.1s-.2 1.4.3 2.6 1.2 2 1.6 2 1-.8 1.5-2.1.5-2.4.1-2.6"></path><path id="Fill-223" class="cls-1" d="M79.4 31.8c-.4-.1-1.1.9-1.5 2.1l-.2.5a.8.8 0 0 0-.2-.4c-.5-1.3-1.2-2.2-1.6-2.1s-.2 1.4.3 2.6 1.2 2 1.6 2 1-.8 1.4-2.1.6-2.4.2-2.6"></path><path id="Fill-225" class="cls-1" d="M83.4 31.8c-.4-.1-1.1.9-1.5 2.1l-.2.5a.8.8 0 0 0-.2-.4c-.5-1.3-1.2-2.2-1.6-2.1s-.2 1.4.3 2.6 1.2 2 1.5 2 1.1-.8 1.5-2.1.6-2.4.2-2.6"></path><path id="Fill-227" class="cls-1" d="M71.5 36.4c-.4-.2-1 .8-1.5 2.1l-.2.5a4.3 4.3 0 0 0-.1-.5c-.6-1.3-1.3-2.2-1.7-2s-.2 1.3.3 2.5 1.2 2.1 1.6 2 1-.8 1.5-2.1.5-2.4.1-2.5"></path><path id="Fill-229" class="cls-2" d="M3.7 36.4c-.4-.2-1.1.8-1.5 2.1s-.1.3-.2.5a.8.8 0 0 0-.2-.5c-.5-1.3-1.2-2.2-1.6-2S0 37.8.5 39s1.2 2.1 1.6 2 1-.8 1.5-2.1.5-2.4.1-2.5"></path><path id="Fill-231" class="cls-1" d="M7.7 36.4c-.4-.1-1.1.8-1.5 2.1L6 39l-.2-.5c-.1-.2-1.2-2.2-1.6-2s-.2 1.3.3 2.6 1.2 2 1.6 2 1-.9 1.4-2.1.6-2.5.2-2.6"></path><path id="Fill-233" class="cls-1" d="M11.7 36.4c-.4-.1-1.1.8-1.5 2.1s-.2.3-.2.5l-.2-.5c-.5-1.3-1.3-2.2-1.6-2s-.3 1.3.3 2.6 1.1 2 1.5 2 1.1-.9 1.5-2.1.5-2.5.2-2.6"></path><path id="Fill-235" class="cls-1" d="M15.7 36.4c-.4-.1-1.1.8-1.6 2.1s-.1.3-.1.5l-.2-.5c-.5-1.3-1.3-2.2-1.6-2s-.3 1.3.3 2.6 1.1 2 1.5 2 1.1-.9 1.5-2.1.5-2.5.2-2.6"></path><path id="Fill-237" class="cls-1" d="M51.6 36.4c-.4-.1-1.1.8-1.5 2.1l-.2.5-.2-.5c-.1-.2-1.2-2.2-1.6-2s-.2 1.3.3 2.6 1.2 2 1.5 2 1.1-.9 1.5-2.1.6-2.5.2-2.6"></path><path id="Fill-239" class="cls-1" d="M55.6 36.4c-.4-.1-1.1.8-1.5 2.1s-.2.3-.2.5l-.2-.5c-.5-1.2-1.3-2.2-1.6-2s-.3 1.3.3 2.6 1.1 2 1.5 2 1.1-.9 1.5-2.1.5-2.5.2-2.6"></path><path id="Fill-241" class="cls-1" d="M19.6 36.4c-.3-.1-1 .8-1.5 2.1s-.1.3-.1.5l-.2-.5c-.5-1.3-1.3-2.2-1.6-2s-.3 1.3.3 2.6 1.1 2 1.5 2 1.1-.9 1.5-2.1.5-2.5.1-2.6"></path><path id="Fill-243" class="cls-1" d="M23.6 36.4c-.3-.1-1 .8-1.5 2.1s-.1.3-.1.5l-.2-.5c-.5-1.3-1.3-2.2-1.7-2s-.2 1.3.3 2.6 1.2 2 1.6 2 1-.9 1.5-2.1.5-2.5.1-2.6"></path><path id="Fill-245" class="cls-1" d="M27.6 36.4c-.3-.1-1 .8-1.5 2.1s-.1.3-.1.5l-.2-.5c0-.2-1.3-2.2-1.7-2s-.2 1.3.3 2.6 1.2 2 1.6 2 1-.9 1.5-2.1.5-2.5.1-2.6"></path><path id="Fill-247" class="cls-1" d="M31.6 36.4c-.4-.1-1.1.8-1.5 2.1l-.2.5-.2-.5c-.1-.2-1.2-2.2-1.6-2s-.2 1.3.3 2.6 1.2 2 1.6 2 1-.9 1.5-2.1.5-2.5.1-2.6"></path><path id="Fill-249" class="cls-1" d="M35.6 36.4c-.4-.1-1.1.8-1.5 2.1l-.2.5-.2-.5c-.1-.2-1.2-2.2-1.6-2s-.2 1.3.3 2.6 1.2 2 1.6 2 1-.9 1.4-2.1.6-2.5.2-2.6"></path><path id="Fill-251" class="cls-1" d="M39.6 36.4c-.4-.1-1.1.8-1.5 2.1l-.2.5-.2-.5c-.1-.2-1.2-2.2-1.6-2s-.2 1.3.3 2.6 1.2 2 1.5 2 1.1-.9 1.5-2.1.6-2.5.2-2.6"></path><path id="Fill-253" class="cls-1" d="M43.6 36.4c-.4-.1-1.1.8-1.5 2.1s-.2.3-.2.5l-.2-.5c-.5-1.3-1.3-2.2-1.6-2s-.3 1.3.3 2.6 1.1 2 1.5 2 1.1-.9 1.5-2.1.5-2.5.2-2.6"></path><path id="Fill-255" class="cls-1" d="M47.6 36.4c-.4-.1-1.1.8-1.6 2.1s-.1.3-.1.5l-.2-.5c-.5-1.3-1.3-2.2-1.6-2s-.3 1.3.3 2.6 1.1 2 1.5 2 1.1-.9 1.5-2.1.5-2.5.2-2.6"></path><path id="Fill-257" class="cls-1" d="M67.5 36.4c-.4-.1-1 .8-1.5 2.1s-.1.3-.1.5l-.2-.5c0-.2-1.3-2.2-1.7-2s-.2 1.3.3 2.6 1.2 2 1.6 2 1-.9 1.5-2.1.5-2.5.1-2.6"></path><path id="Fill-259" class="cls-1" d="M59.5 36.4c-.4-.2-1 .8-1.5 2.1l-.2.5-.1-.5c0-.2-1.3-2.2-1.7-2s-.2 1.3.3 2.6 1.2 2 1.6 2 1-.9 1.5-2.1.5-2.5.1-2.6"></path><path id="Fill-261" class="cls-1" d="M63.5 36.4c-.4-.2-1.1.8-1.5 2.1l-.2.5-.2-.5c-.1-.2-1.2-2.2-1.6-2s-.2 1.3.3 2.6 1.2 2 1.6 2 1-.9 1.5-2.1.5-2.5.1-2.6"></path><path id="Fill-263" class="cls-2" d="M91.4 36.4c-.4-.2-1.1.8-1.5 2.1s-.1.3-.2.5a.8.8 0 0 0-.2-.5c-.5-1.3-1.2-2.2-1.6-2s-.2 1.3.3 2.5 1.2 2.1 1.6 2 1-.8 1.4-2.1.6-2.4.2-2.5"></path><path id="Fill-265" class="cls-1" d="M75.4 36.4c-.3-.1-1 .8-1.5 2.1s-.1.3-.1.5l-.2-.5c-.5-1.2-1.3-2.2-1.6-2s-.3 1.3.3 2.6 1.1 2 1.5 2 1.1-.9 1.5-2.1.5-2.5.1-2.6"></path><path id="Fill-267" class="cls-1" d="M87.4 36.4c-.4-.1-1.1.8-1.5 2.1l-.2.5-.2-.5c-.1-.2-1.2-2.2-1.6-2s-.2 1.3.3 2.6 1.2 2 1.6 2 1-.9 1.5-2.1.5-2.5.1-2.6"></path><path id="Fill-269" class="cls-1" d="M79.4 36.4c-.4-.2-1.1.8-1.5 2.1l-.2.5-.2-.5c-.1-.2-1.2-2.2-1.6-2s-.2 1.3.3 2.6 1.2 2 1.6 2 1-.9 1.4-2.1.6-2.5.2-2.6"></path><path id="Fill-271" class="cls-1" d="M83.4 36.4c-.4-.2-1.1.8-1.5 2.1l-.2.5-.2-.5c-.1-.2-1.2-2.2-1.6-2s-.2 1.3.3 2.6 1.2 2 1.5 2 1.1-.9 1.5-2.1.6-2.5.2-2.6"></path><path id="Fill-273" class="cls-2" d="M71.5 22.7c-.4-.1-1 .8-1.5 2.1l-.2.5a4.3 4.3 0 0 1-.1-.5c-.6-1.2-1.3-2.1-1.7-2s-.2 1.3.3 2.6 1.2 2 1.6 2 1-.8 1.5-2.1.5-2.4.1-2.6"></path><path id="Fill-275" class="cls-2" d="M3.7 22.7c-.4-.1-1.1.8-1.5 2.1s-.1.4-.2.5a1.7 1.7 0 0 0-.2-.5c-.5-1.2-1.2-2.1-1.6-2s-.2 1.3.3 2.6 1.2 2 1.6 2 1-.8 1.5-2.1.5-2.4.1-2.6"></path><path id="Fill-277" class="cls-2" d="M7.7 22.8c-.4-.2-1.1.8-1.5 2.1s-.1.3-.2.5a.8.8 0 0 0-.2-.5c-.5-1.3-1.2-2.2-1.6-2s-.2 1.3.3 2.5 1.2 2.1 1.6 2.1 1-.9 1.4-2.1.6-2.5.2-2.6"></path><path id="Fill-279" class="cls-2" d="M11.7 22.8c-.4-.2-1.1.8-1.5 2.1a.8.8 0 0 0-.2.5l-.2-.5c-.1-.1-1.3-2.2-1.6-2s-.3 1.3.3 2.5 1.1 2.1 1.5 2.1 1.1-.9 1.5-2.2.5-2.4.2-2.5"></path><path id="Fill-281" class="cls-2" d="M15.7 22.8c-.4-.2-1.1.8-1.6 2.1a4.3 4.3 0 0 0-.1.5l-.2-.5c-.1-.1-1.3-2.2-1.6-2s-.3 1.3.3 2.5 1.1 2.1 1.5 2.1 1.1-.9 1.5-2.2.5-2.4.2-2.5"></path><path id="Fill-283" class="cls-2" d="M51.6 22.8c-.4-.2-1.1.8-1.5 2.1s-.1.3-.2.5a.8.8 0 0 0-.2-.5c-.5-1.3-1.2-2.2-1.6-2s-.2 1.3.3 2.5 1.2 2.1 1.5 2.1 1.1-.9 1.5-2.2.6-2.4.2-2.5"></path><path id="Fill-285" class="cls-2" d="M55.6 22.8c-.4-.2-1.1.8-1.5 2.1a.8.8 0 0 0-.2.5l-.2-.5c-.1-.1-1.3-2.2-1.6-2s-.3 1.3.3 2.5 1.1 2.1 1.5 2.1 1.1-.9 1.5-2.2.5-2.4.2-2.5"></path><path id="Fill-287" class="cls-2" d="M19.6 22.8c-.3-.2-1 .8-1.5 2.1a4.3 4.3 0 0 0-.1.5l-.2-.5c-.1-.1-1.3-2.2-1.6-2s-.3 1.3.3 2.5 1.1 2.1 1.5 2 1.1-.8 1.5-2.1.5-2.4.1-2.5"></path><path id="Fill-289" class="cls-2" d="M23.6 22.8c-.3-.2-1 .8-1.5 2.1a4.3 4.3 0 0 0-.1.5l-.2-.5c-.1-.1-1.3-2.2-1.7-2s-.2 1.3.3 2.5 1.2 2.1 1.6 2 1-.8 1.5-2.1.5-2.4.1-2.5"></path><path id="Fill-291" class="cls-2" d="M27.6 22.8c-.3-.2-1 .8-1.5 2.1a4.3 4.3 0 0 0-.1.5 1.7 1.7 0 0 1-.2-.5c-.6-1.3-1.3-2.2-1.7-2s-.2 1.3.3 2.5 1.2 2.1 1.6 2 1-.8 1.5-2.1.5-2.4.1-2.5"></path><path id="Fill-293" class="cls-2" d="M31.6 22.8c-.4-.2-1.1.8-1.5 2.1s-.1.3-.2.5a.8.8 0 0 0-.2-.5c-.5-1.3-1.2-2.2-1.6-2s-.2 1.3.3 2.5 1.2 2.1 1.6 2 1-.8 1.5-2.1.5-2.4.1-2.5"></path><path id="Fill-295" class="cls-2" d="M35.6 22.8c-.4-.2-1.1.8-1.5 2.1s-.1.3-.2.5a.8.8 0 0 0-.2-.5c-.5-1.3-1.2-2.2-1.6-2s-.2 1.3.3 2.5 1.2 2.1 1.6 2 1-.8 1.4-2.1.6-2.4.2-2.5"></path><path id="Fill-297" class="cls-2" d="M39.6 22.8c-.4-.2-1.1.8-1.5 2.1s-.1.3-.2.5a.8.8 0 0 0-.2-.5c-.5-1.3-1.2-2.2-1.6-2s-.2 1.3.3 2.5 1.2 2.1 1.5 2 1.1-.8 1.5-2.1.6-2.4.2-2.5"></path><path id="Fill-299" class="cls-2" d="M43.6 22.8c-.4-.2-1.1.8-1.5 2.1a.8.8 0 0 0-.2.5l-.2-.5c-.1-.1-1.3-2.2-1.6-2s-.3 1.3.3 2.5 1.1 2.1 1.5 2 1.1-.8 1.5-2.1.5-2.4.2-2.5"></path><path id="Fill-301" class="cls-2" d="M47.6 22.8c-.4-.2-1.1.8-1.6 2.1a4.3 4.3 0 0 0-.1.5l-.2-.5c-.1-.1-1.3-2.2-1.6-2s-.3 1.3.3 2.5 1.1 2.1 1.5 2 1.1-.8 1.5-2.1.5-2.4.2-2.5"></path><path id="Fill-303" class="cls-2" d="M67.5 22.8c-.4-.2-1 .8-1.5 2.1a4.3 4.3 0 0 0-.1.5 1.7 1.7 0 0 1-.2-.5c-.6-1.3-1.3-2.2-1.7-2s-.2 1.3.3 2.5 1.2 2.1 1.6 2 1-.8 1.5-2.1.5-2.4.1-2.5"></path><path id="Fill-305" class="cls-2" d="M59.5 22.7c-.4-.1-1 .9-1.5 2.2l-.2.5a4.3 4.3 0 0 0-.1-.5c-.6-1.3-1.3-2.2-1.7-2s-.2 1.3.3 2.5 1.2 2.1 1.6 2 1-.8 1.5-2.1.5-2.4.1-2.6"></path><path id="Fill-307" class="cls-2" d="M63.5 22.7c-.4-.1-1.1.9-1.5 2.2s-.1.3-.2.5a.8.8 0 0 0-.2-.5c-.5-1.3-1.2-2.2-1.6-2s-.2 1.3.3 2.5 1.2 2.1 1.6 2 1-.8 1.5-2.1.5-2.4.1-2.6"></path><path id="Fill-309" class="cls-2" d="M91.4 22.7c-.4-.1-1.1.8-1.5 2.1s-.1.4-.2.5a1.7 1.7 0 0 0-.2-.5c-.5-1.2-1.2-2.1-1.6-2s-.2 1.3.3 2.6 1.2 2 1.6 2 1-.8 1.4-2.1.6-2.4.2-2.6"></path><path id="Fill-311" class="cls-2" d="M75.4 22.8c-.3-.2-1 .8-1.5 2.1a4.3 4.3 0 0 0-.1.5l-.2-.5c-.1-.1-1.3-2.2-1.6-2s-.3 1.3.3 2.5 1.1 2.1 1.5 2.1 1.1-.9 1.5-2.2.5-2.4.1-2.5"></path><path id="Fill-313" class="cls-2" d="M87.4 22.8c-.4-.2-1.1.8-1.5 2.1s-.1.3-.2.5a.8.8 0 0 0-.2-.5c-.5-1.3-1.2-2.2-1.6-2s-.2 1.3.3 2.5 1.2 2.1 1.6 2 1-.8 1.5-2.1.5-2.4.1-2.5"></path><path id="Fill-315" class="cls-2" d="M79.4 22.7c-.4-.1-1.1.9-1.5 2.2s-.1.3-.2.5a.8.8 0 0 0-.2-.5c-.5-1.3-1.2-2.2-1.6-2s-.2 1.3.3 2.5 1.2 2.1 1.6 2 1-.8 1.4-2.1.6-2.4.2-2.6"></path><path id="Fill-317" class="cls-2" d="M83.4 22.7c-.4-.1-1.1.9-1.5 2.2s-.1.3-.2.5a.8.8 0 0 0-.2-.5c-.5-1.3-1.2-2.2-1.6-2s-.2 1.3.3 2.5 1.2 2.1 1.5 2 1.1-.8 1.5-2.1.6-2.4.2-2.6"></path><path id="Fill-319" class="cls-2" d="M71.5 27.3c-.4-.2-1 .8-1.5 2.1l-.2.5c-.1.2-.1-.3-.1-.5s-1.3-2.2-1.7-2-.2 1.3.3 2.5 1.2 2.1 1.6 2.1 1-.9 1.5-2.1.5-2.5.1-2.6"></path><path id="Fill-321" class="cls-2" d="M3.7 27.3c-.4-.2-1.1.8-1.5 2.1s-.1.3-.2.5-.1-.3-.2-.5-1.2-2.2-1.6-2-.2 1.3.3 2.5S1.7 32 2.1 32s1-.9 1.5-2.1.5-2.5.1-2.6"></path><path id="Fill-323" class="cls-2" d="M7.7 27.3c-.4-.1-1.1.8-1.5 2.1l-.2.5-.2-.5c-.5-1.2-1.2-2.1-1.6-2s-.2 1.3.3 2.6 1.2 2 1.6 2 1-.8 1.4-2.1.6-2.5.2-2.6"></path><path id="Fill-325" class="cls-2" d="M11.7 27.3c-.4-.1-1.1.8-1.5 2.1s-.2.3-.2.5l-.2-.5c-.5-1.2-1.3-2.1-1.6-2s-.3 1.3.3 2.6 1.1 2 1.5 2 1.1-.8 1.5-2.1.5-2.5.2-2.6"></path><path id="Fill-327" class="cls-2" d="M15.7 27.3c-.4-.1-1.1.8-1.6 2.1s-.1.3-.1.5l-.2-.5c-.5-1.2-1.3-2.1-1.6-2s-.3 1.3.3 2.6 1.1 2 1.5 2 1.1-.8 1.5-2.1.5-2.5.2-2.6"></path><path id="Fill-329" class="cls-2" d="M51.6 27.3c-.4-.1-1.1.8-1.5 2.1l-.2.5-.2-.5c-.1-.2-1.2-2.1-1.6-2s-.2 1.3.3 2.6 1.2 2 1.5 2 1.1-.8 1.5-2.1.6-2.5.2-2.6"></path><path id="Fill-331" class="cls-2" d="M55.6 27.3c-.4-.1-1.1.8-1.5 2.1s-.2.3-.2.5l-.2-.5c-.5-1.2-1.3-2.1-1.6-2s-.3 1.3.3 2.6 1.1 2 1.5 2 1.1-.8 1.5-2.1.5-2.5.2-2.6"></path><path id="Fill-333" class="cls-2" d="M19.6 27.3c-.3-.1-1 .8-1.5 2.1s-.1.3-.1.5l-.2-.5c-.5-1.2-1.3-2.1-1.6-2s-.3 1.3.3 2.6 1.1 2 1.5 2 1.1-.8 1.5-2.1.5-2.5.1-2.6"></path><path id="Fill-335" class="cls-2" d="M23.6 27.3c-.3-.1-1 .8-1.5 2.1s-.1.3-.1.5l-.2-.5c-.5-1.2-1.3-2.1-1.7-2s-.2 1.3.3 2.6 1.2 2 1.6 2 1-.8 1.5-2.1.5-2.5.1-2.6"></path><path id="Fill-337" class="cls-2" d="M27.6 27.3c-.3-.1-1 .8-1.5 2.1s-.1.3-.1.5l-.2-.5c0-.2-1.3-2.1-1.7-2s-.2 1.3.3 2.6 1.2 2 1.6 2 1-.8 1.5-2.1.5-2.5.1-2.6"></path><path id="Fill-339" class="cls-2" d="M31.6 27.3c-.4-.1-1.1.8-1.5 2.1l-.2.5-.2-.5c-.1-.2-1.2-2.1-1.6-2s-.2 1.3.3 2.6 1.2 2 1.6 2 1-.8 1.5-2.1.5-2.5.1-2.6"></path><path id="Fill-341" class="cls-2" d="M35.6 27.3c-.4-.1-1.1.8-1.5 2.1l-.2.5-.2-.5c-.1-.2-1.2-2.1-1.6-2s-.2 1.3.3 2.6 1.2 2 1.6 2 1-.8 1.4-2.1.6-2.5.2-2.6"></path><path id="Fill-343" class="cls-2" d="M39.6 27.3c-.4-.1-1.1.8-1.5 2.1l-.2.5-.2-.5c-.1-.2-1.2-2.1-1.6-2s-.2 1.3.3 2.6 1.2 2 1.5 2 1.1-.8 1.5-2.1.6-2.5.2-2.6"></path><path id="Fill-345" class="cls-2" d="M43.6 27.3c-.4-.1-1.1.8-1.5 2.1s-.2.3-.2.5l-.2-.5c-.5-1.2-1.3-2.1-1.6-2s-.3 1.3.3 2.6 1.1 2 1.5 2 1.1-.8 1.5-2.1.5-2.5.2-2.6"></path><path id="Fill-347" class="cls-2" d="M47.6 27.3c-.4-.1-1.1.8-1.6 2.1s-.1.3-.1.5l-.2-.5c-.5-1.2-1.3-2.1-1.6-2s-.3 1.3.3 2.6 1.1 2 1.5 2 1.1-.8 1.5-2.1.5-2.5.2-2.6"></path><path id="Fill-349" class="cls-2" d="M67.5 27.3c-.4-.1-1 .8-1.5 2.1s-.1.3-.1.5l-.2-.5c0-.2-1.3-2.1-1.7-2s-.2 1.3.3 2.6 1.2 2 1.6 2 1-.8 1.5-2.1.5-2.5.1-2.6"></path><path id="Fill-351" class="cls-2" d="M59.5 27.3c-.4-.1-1 .8-1.5 2.1l-.2.5-.1-.5c0-.2-1.3-2.2-1.7-2s-.2 1.3.3 2.6 1.2 2 1.6 2 1-.9 1.5-2.1.5-2.5.1-2.6"></path><path id="Fill-353" class="cls-2" d="M63.5 27.3c-.4-.1-1.1.8-1.5 2.1l-.2.5-.2-.5c-.1-.2-1.2-2.2-1.6-2s-.2 1.3.3 2.6 1.2 2 1.6 2 1-.9 1.5-2.1.5-2.5.1-2.6"></path><path id="Fill-355" class="cls-2" d="M91.4 27.3c-.4-.2-1.1.8-1.5 2.1s-.1.3-.2.5-.1-.3-.2-.5-1.2-2.2-1.6-2-.2 1.3.3 2.5 1.2 2.1 1.6 2.1 1-.9 1.4-2.1.6-2.5.2-2.6"></path><path id="Fill-357" class="cls-2" d="M75.4 27.3c-.3-.1-1 .8-1.5 2.1s-.1.3-.1.5l-.2-.5c-.5-1.2-1.3-2.1-1.6-2s-.3 1.3.3 2.6 1.1 2 1.5 2 1.1-.8 1.5-2.1.5-2.5.1-2.6"></path><path id="Fill-359" class="cls-2" d="M87.4 27.3c-.4-.1-1.1.8-1.5 2.1l-.2.5-.2-.5c-.1-.2-1.2-2.1-1.6-2s-.2 1.3.3 2.6 1.2 2 1.6 2 1-.8 1.5-2.1.5-2.5.1-2.6"></path><path id="Fill-361" class="cls-2" d="M79.4 27.3c-.4-.1-1.1.8-1.5 2.1l-.2.5-.2-.5c-.1-.2-1.2-2.2-1.6-2s-.2 1.3.3 2.6 1.2 2 1.6 2 1-.9 1.4-2.1.6-2.5.2-2.6"></path><path id="Fill-363" class="cls-2" d="M83.4 27.3c-.4-.1-1.1.8-1.5 2.1l-.2.5-.2-.5c-.1-.2-1.2-2.2-1.6-2s-.2 1.3.3 2.6 1.2 2 1.5 2 1.1-.9 1.5-2.1.6-2.5.2-2.6"></path><path id="Fill-365" class="cls-1" d="M71.5 13.6c-.4-.1-1 .9-1.5 2.1l-.2.5v-.4c-.6-1.3-1.3-2.2-1.7-2.1s-.2 1.4.3 2.6 1.2 2 1.6 2 1-.8 1.5-2.1.5-2.4.1-2.6"></path><path id="Fill-367" class="cls-2" d="M3.7 13.6c-.4-.1-1.1.9-1.5 2.1l-.2.5-.2-.4C1.3 14.5.6 13.6.2 13.7s-.2 1.4.3 2.6 1.2 2 1.6 2 1-.8 1.5-2.1.5-2.4.1-2.6"></path><path id="Fill-369" class="cls-1" d="M7.7 13.7c-.4-.1-1.1.8-1.5 2.1l-.2.5-.2-.5c-.1-.2-1.2-2.2-1.6-2s-.2 1.3.3 2.6 1.2 2 1.6 2 1-.9 1.4-2.1.6-2.5.2-2.6"></path><path id="Fill-371" class="cls-1" d="M11.7 13.7c-.4-.2-1.1.8-1.5 2.1a.8.8 0 0 0-.2.5l-.2-.5c-.5-1.3-1.3-2.2-1.6-2s-.3 1.3.3 2.5 1.1 2.1 1.5 2.1 1.1-.9 1.5-2.1.5-2.5.2-2.6"></path><path id="Fill-373" class="cls-1" d="M15.7 13.7c-.4-.2-1.1.8-1.6 2.1a4.3 4.3 0 0 0-.1.5l-.2-.5c-.5-1.3-1.3-2.2-1.6-2s-.3 1.3.3 2.5 1.1 2.1 1.5 2.1 1.1-.9 1.5-2.1.5-2.5.2-2.6"></path><path id="Fill-375" class="cls-1" d="M51.6 13.7c-.4-.2-1.1.8-1.5 2.1l-.2.5-.2-.5c-.1-.2-1.2-2.2-1.6-2s-.2 1.3.3 2.6 1.2 2 1.5 2 1.1-.9 1.5-2.1.6-2.5.2-2.6"></path><path id="Fill-377" class="cls-1" d="M55.6 13.7c-.4-.2-1.1.8-1.5 2.1s-.2.3-.2.5l-.2-.5c-.5-1.3-1.3-2.2-1.6-2s-.3 1.3.3 2.6 1.1 2 1.5 2 1.1-.9 1.5-2.1.5-2.5.2-2.6"></path><path id="Fill-379" class="cls-1" d="M19.6 13.7c-.3-.2-1 .8-1.5 2.1a4.3 4.3 0 0 0-.1.5l-.2-.5c-.1-.1-1.3-2.2-1.6-2s-.3 1.3.3 2.5 1.1 2.1 1.5 2.1 1.1-.9 1.5-2.1.5-2.5.1-2.6"></path><path id="Fill-381" class="cls-1" d="M23.6 13.7c-.3-.2-1 .8-1.5 2.1a4.3 4.3 0 0 0-.1.5l-.2-.5c-.1-.1-1.3-2.2-1.7-2s-.2 1.3.3 2.5 1.2 2.1 1.6 2.1 1-.9 1.5-2.1.5-2.5.1-2.6"></path><path id="Fill-383" class="cls-1" d="M27.6 13.7c-.3-.2-1 .8-1.5 2.1a4.3 4.3 0 0 0-.1.5l-.2-.5c-.6-1.3-1.3-2.2-1.7-2s-.2 1.3.3 2.5 1.2 2.1 1.6 2.1 1-.9 1.5-2.1.5-2.5.1-2.6"></path><path id="Fill-385" class="cls-1" d="M31.6 13.7c-.4-.2-1.1.8-1.5 2.1s-.1.3-.2.5a.8.8 0 0 0-.2-.5c-.5-1.3-1.2-2.2-1.6-2s-.2 1.3.3 2.5 1.2 2.1 1.6 2.1 1-.9 1.5-2.1.5-2.5.1-2.6"></path><path id="Fill-387" class="cls-1" d="M35.6 13.7c-.4-.2-1.1.8-1.5 2.1s-.1.3-.2.5a.8.8 0 0 0-.2-.5c-.5-1.3-1.2-2.2-1.6-2s-.2 1.3.3 2.5 1.2 2.1 1.6 2.1 1-.9 1.4-2.1.6-2.5.2-2.6"></path><path id="Fill-389" class="cls-1" d="M39.6 13.7c-.4-.2-1.1.8-1.5 2.1s-.1.3-.2.5a.8.8 0 0 0-.2-.5c-.5-1.3-1.2-2.2-1.6-2s-.2 1.3.3 2.5 1.2 2.1 1.5 2.1 1.1-.9 1.5-2.1.6-2.5.2-2.6"></path><path id="Fill-391" class="cls-1" d="M43.6 13.7c-.4-.2-1.1.8-1.5 2.1a.8.8 0 0 0-.2.5l-.2-.5c-.1-.1-1.3-2.2-1.6-2s-.3 1.3.3 2.5 1.1 2.1 1.5 2.1 1.1-.9 1.5-2.1.5-2.5.2-2.6"></path><path id="Fill-393" class="cls-1" d="M47.6 13.7c-.4-.2-1.1.8-1.6 2.1a4.3 4.3 0 0 0-.1.5l-.2-.5c-.1-.1-1.3-2.2-1.6-2s-.3 1.3.3 2.5 1.1 2.1 1.5 2.1 1.1-.9 1.5-2.1.5-2.5.2-2.6"></path><path id="Fill-395" class="cls-1" d="M67.5 13.7c-.4-.2-1 .8-1.5 2.1a4.3 4.3 0 0 0-.1.5l-.2-.5c-.6-1.3-1.3-2.2-1.7-2s-.2 1.3.3 2.5 1.2 2.1 1.6 2.1 1-.9 1.5-2.1.5-2.5.1-2.6"></path><path id="Fill-397" class="cls-1" d="M59.5 13.7c-.4-.2-1 .8-1.5 2.1l-.2.5a4.3 4.3 0 0 0-.1-.5c-.6-1.3-1.3-2.2-1.7-2s-.2 1.3.3 2.5 1.2 2.1 1.6 2.1 1-.9 1.5-2.2.5-2.4.1-2.5"></path><path id="Fill-399" class="cls-1" d="M63.5 13.7c-.4-.2-1.1.8-1.5 2.1s-.1.3-.2.5a.8.8 0 0 0-.2-.5c-.5-1.3-1.2-2.2-1.6-2s-.2 1.3.3 2.5 1.2 2.1 1.6 2.1 1-.9 1.5-2.2.5-2.4.1-2.5"></path><path id="Fill-401" class="cls-2" d="M91.4 13.6c-.4-.1-1.1.9-1.5 2.1l-.2.5-.2-.4c-.5-1.3-1.2-2.2-1.6-2.1s-.2 1.4.3 2.6 1.2 2 1.6 2 1-.8 1.4-2.1.6-2.4.2-2.6"></path><path id="Fill-403" class="cls-1" d="M75.4 13.7c-.3-.2-1 .8-1.5 2.1s-.1.3-.1.5l-.2-.5c-.5-1.3-1.3-2.2-1.6-2s-.3 1.3.3 2.6 1.1 2 1.5 2 1.1-.9 1.5-2.1.5-2.5.1-2.6"></path><path id="Fill-405" class="cls-1" d="M87.4 13.7c-.4-.2-1.1.8-1.5 2.1s-.1.3-.2.5a.8.8 0 0 0-.2-.5c-.5-1.3-1.2-2.2-1.6-2s-.2 1.3.3 2.5 1.2 2.1 1.6 2.1 1-.9 1.5-2.1.5-2.5.1-2.6"></path><path id="Fill-407" class="cls-1" d="M79.4 13.7c-.4-.2-1.1.8-1.5 2.1s-.1.3-.2.5a.8.8 0 0 0-.2-.5c-.5-1.3-1.2-2.2-1.6-2s-.2 1.3.3 2.5 1.2 2.1 1.6 2.1 1-.9 1.4-2.2.6-2.4.2-2.5"></path><path id="Fill-409" class="cls-1" d="M83.4 13.7c-.4-.2-1.1.8-1.5 2.1s-.1.3-.2.5a.8.8 0 0 0-.2-.5c-.5-1.3-1.2-2.2-1.6-2s-.2 1.3.3 2.5 1.2 2.1 1.5 2.1 1.1-.9 1.5-2.2.6-2.4.2-2.5"></path><path id="Fill-411" class="cls-2" d="M71.5 18.2c-.4-.1-1 .8-1.5 2.1l-.2.5-.1-.5c0-.2-1.3-2.2-1.7-2s-.2 1.3.3 2.6 1.2 2 1.6 2 1-.9 1.5-2.1.5-2.5.1-2.6"></path><path id="Fill-413" class="cls-2" d="M3.7 18.2c-.4-.1-1.1.8-1.5 2.1l-.2.5-.2-.5c-.1-.2-1.2-2.2-1.6-2s-.2 1.3.3 2.6 1.2 2 1.6 2 1-.9 1.5-2.1.5-2.5.1-2.6"></path><path id="Fill-415" class="cls-2" d="M7.7 18.2c-.4-.1-1.1.8-1.5 2.1s-.1.4-.2.5a1.7 1.7 0 0 0-.2-.5c-.5-1.2-1.2-2.1-1.6-2s-.2 1.3.3 2.6 1.2 2 1.6 2 1-.8 1.4-2.1.6-2.4.2-2.6"></path><path id="Fill-417" class="cls-2" d="M11.7 18.2c-.4-.1-1.1.8-1.5 2.1a1.7 1.7 0 0 0-.2.5l-.2-.5c-.1-.2-1.3-2.1-1.6-2s-.3 1.3.3 2.6 1.1 2 1.5 2 1.1-.8 1.5-2.1.5-2.5.2-2.6"></path><path id="Fill-419" class="cls-2" d="M15.7 18.2c-.4-.1-1.1.8-1.6 2.1a4.3 4.3 0 0 1-.1.5l-.2-.5c-.1-.2-1.3-2.1-1.6-2s-.3 1.3.3 2.6 1.1 2 1.5 2 1.1-.8 1.5-2.1.5-2.5.2-2.6"></path><path id="Fill-421" class="cls-2" d="M51.6 18.2c-.4-.1-1.1.8-1.5 2.1s-.1.4-.2.5a1.7 1.7 0 0 0-.2-.5c-.5-1.2-1.2-2.1-1.6-2s-.2 1.3.3 2.6 1.2 2 1.5 2 1.1-.8 1.5-2.1.6-2.4.2-2.6"></path><path id="Fill-423" class="cls-2" d="M55.6 18.2c-.4-.1-1.1.8-1.5 2.1a1.7 1.7 0 0 0-.2.5l-.2-.5c-.1-.2-1.3-2.1-1.6-2s-.3 1.3.3 2.6 1.1 2 1.5 2 1.1-.8 1.5-2.1.5-2.4.2-2.6"></path><path id="Fill-425" class="cls-2" d="M19.6 18.2c-.3-.1-1 .8-1.5 2.1a4.3 4.3 0 0 1-.1.5l-.2-.5c-.1-.2-1.3-2.1-1.6-2s-.3 1.3.3 2.6 1.1 2 1.5 2 1.1-.8 1.5-2.1.5-2.5.1-2.6"></path><path id="Fill-427" class="cls-2" d="M23.6 18.2c-.3-.1-1 .8-1.5 2.1a4.3 4.3 0 0 1-.1.5l-.2-.5c-.1-.2-1.3-2.1-1.7-2s-.2 1.3.3 2.6 1.2 2 1.6 2 1-.8 1.5-2.1.5-2.5.1-2.6"></path><path id="Fill-429" class="cls-2" d="M27.6 18.2c-.3-.1-1 .8-1.5 2.1a4.3 4.3 0 0 1-.1.5.8.8 0 0 1-.2-.5c-.6-1.2-1.3-2.1-1.7-2s-.2 1.3.3 2.6 1.2 2 1.6 2 1-.8 1.5-2.1.5-2.5.1-2.6"></path><path id="Fill-431" class="cls-2" d="M31.6 18.2c-.4-.1-1.1.8-1.5 2.1s-.1.4-.2.5a1.7 1.7 0 0 0-.2-.5c-.5-1.2-1.2-2.1-1.6-2s-.2 1.3.3 2.6 1.2 2 1.6 2 1-.8 1.5-2.1.5-2.5.1-2.6"></path><path id="Fill-433" class="cls-2" d="M35.6 18.2c-.4-.1-1.1.8-1.5 2.1s-.1.4-.2.5a1.7 1.7 0 0 0-.2-.5c-.5-1.2-1.2-2.1-1.6-2s-.2 1.3.3 2.6 1.2 2 1.6 2 1-.8 1.4-2.1.6-2.5.2-2.6"></path><path id="Fill-435" class="cls-2" d="M39.6 18.2c-.4-.1-1.1.8-1.5 2.1s-.1.4-.2.5a1.7 1.7 0 0 0-.2-.5c-.5-1.2-1.2-2.1-1.6-2s-.2 1.3.3 2.6 1.2 2 1.5 2 1.1-.8 1.5-2.1.6-2.5.2-2.6"></path><path id="Fill-437" class="cls-2" d="M43.6 18.2c-.4-.1-1.1.8-1.5 2.1a1.7 1.7 0 0 0-.2.5l-.2-.5c-.1-.2-1.3-2.1-1.6-2s-.3 1.3.3 2.6 1.1 2 1.5 2 1.1-.8 1.5-2.1.5-2.5.2-2.6"></path><path id="Fill-439" class="cls-2" d="M47.6 18.2c-.4-.1-1.1.8-1.6 2.1a4.3 4.3 0 0 1-.1.5l-.2-.5c-.1-.2-1.3-2.1-1.6-2s-.3 1.3.3 2.6 1.1 2 1.5 2 1.1-.8 1.5-2.1.5-2.5.2-2.6"></path><path id="Fill-441" class="cls-2" d="M67.5 18.2c-.4-.1-1 .8-1.5 2.1a4.3 4.3 0 0 1-.1.5.8.8 0 0 1-.2-.5c-.6-1.2-1.3-2.1-1.7-2s-.2 1.3.3 2.6 1.2 2 1.6 2 1-.8 1.5-2.1.5-2.5.1-2.6"></path><path id="Fill-443" class="cls-2" d="M59.5 18.2c-.4-.1-1 .8-1.5 2.1l-.2.5-.1-.5c0-.2-1.3-2.1-1.7-2s-.2 1.3.3 2.6 1.2 2 1.6 2 1-.8 1.5-2.1.5-2.5.1-2.6"></path><path id="Fill-445" class="cls-2" d="M63.5 18.2c-.4-.1-1.1.8-1.5 2.1l-.2.5-.2-.5c-.1-.2-1.2-2.1-1.6-2s-.2 1.3.3 2.6 1.2 2 1.6 2 1-.8 1.5-2.1.5-2.5.1-2.6"></path><path id="Fill-447" class="cls-2" d="M91.4 18.2c-.4-.1-1.1.8-1.5 2.1l-.2.5-.2-.5c-.1-.2-1.2-2.2-1.6-2s-.2 1.3.3 2.6 1.2 2 1.6 2 1-.9 1.4-2.1.6-2.5.2-2.6"></path><path id="Fill-449" class="cls-2" d="M75.4 18.2c-.3-.1-1 .8-1.5 2.1a4.3 4.3 0 0 1-.1.5l-.2-.5c-.1-.2-1.3-2.1-1.6-2s-.3 1.3.3 2.6 1.1 2 1.5 2 1.1-.8 1.5-2.1.5-2.4.1-2.6"></path><path id="Fill-451" class="cls-2" d="M87.4 18.2c-.4-.1-1.1.8-1.5 2.1s-.1.4-.2.5a1.7 1.7 0 0 0-.2-.5c-.5-1.2-1.2-2.1-1.6-2s-.2 1.3.3 2.6 1.2 2 1.6 2 1-.8 1.5-2.1.5-2.5.1-2.6"></path><path id="Fill-453" class="cls-2" d="M79.4 18.2c-.4-.1-1.1.8-1.5 2.1l-.2.5-.2-.5c-.1-.2-1.2-2.1-1.6-2s-.2 1.3.3 2.6 1.2 2 1.6 2 1-.8 1.4-2.1.6-2.5.2-2.6"></path><path id="Fill-455" class="cls-2" d="M83.4 18.2c-.4-.1-1.1.8-1.5 2.1l-.2.5-.2-.5c-.1-.2-1.2-2.1-1.6-2s-.2 1.3.3 2.6 1.2 2 1.5 2 1.1-.8 1.5-2.1.6-2.5.2-2.6"></path><path id="Fill-457" class="cls-1" d="M71.5 4.6c-.4-.2-1 .8-1.5 2.1l-.2.5a4.3 4.3 0 0 0-.1-.5c-.6-1.3-1.3-2.2-1.7-2s-.2 1.3.3 2.5 1.2 2.1 1.6 2 1-.8 1.5-2.1.5-2.4.1-2.5"></path><path id="Fill-459" class="cls-2" d="M3.7 4.6c-.4-.2-1.1.8-1.5 2.1s-.1.3-.2.5a.8.8 0 0 0-.2-.5C1.3 5.4.6 4.5.2 4.7S0 6 .5 7.2s1.2 2.1 1.6 2 1-.8 1.5-2.1.5-2.4.1-2.5"></path><path id="Fill-461" class="cls-1" d="M7.7 4.6c-.4-.1-1.1.8-1.5 2.1l-.2.5-.2-.5c-.1-.2-1.2-2.2-1.6-2S4 6 4.5 7.3s1.2 2 1.6 2 1-.9 1.4-2.1.6-2.5.2-2.6"></path><path id="Fill-463" class="cls-1" d="M11.7 4.6c-.4-.1-1.1.8-1.5 2.1s-.2.3-.2.5l-.2-.5c-.5-1.3-1.3-2.2-1.6-2s-.3 1.3.3 2.6 1.1 2 1.5 2 1.1-.9 1.5-2.1.5-2.5.2-2.6"></path><path id="Fill-465" class="cls-1" d="M15.7 4.6c-.4-.1-1.1.8-1.6 2.1s-.1.3-.1.5l-.2-.5c-.5-1.3-1.3-2.2-1.6-2s-.3 1.3.3 2.6 1.1 2 1.5 2 1.1-.9 1.5-2.1.5-2.5.2-2.6"></path><path id="Fill-467" class="cls-1" d="M51.6 4.6c-.4-.1-1.1.8-1.5 2.1l-.2.5-.2-.5c-.1-.2-1.2-2.2-1.6-2s-.2 1.3.3 2.6 1.2 2 1.5 2 1.1-.9 1.5-2.1.6-2.5.2-2.6"></path><path id="Fill-469" class="cls-1" d="M55.6 4.6c-.4-.1-1.1.8-1.5 2.1s-.2.3-.2.5l-.2-.5c-.5-1.3-1.3-2.2-1.6-2s-.3 1.3.3 2.6 1.1 2 1.5 2 1.1-.9 1.5-2.1.5-2.5.2-2.6"></path><path id="Fill-471" class="cls-1" d="M19.6 4.6c-.3-.1-1 .8-1.5 2.1s-.1.3-.1.5l-.2-.5c-.5-1.3-1.3-2.2-1.6-2s-.3 1.3.3 2.6 1.1 2 1.5 2 1.1-.9 1.5-2.1.5-2.5.1-2.6"></path><path id="Fill-473" class="cls-1" d="M23.6 4.6c-.3-.1-1 .8-1.5 2.1s-.1.3-.1.5l-.2-.5c-.5-1.3-1.3-2.2-1.7-2s-.2 1.3.3 2.6 1.2 2 1.6 2 1-.9 1.5-2.1.5-2.5.1-2.6"></path><path id="Fill-475" class="cls-1" d="M27.6 4.6c-.3-.1-1 .8-1.5 2.1s-.1.3-.1.5l-.2-.5c0-.2-1.3-2.2-1.7-2s-.2 1.3.3 2.6 1.2 2 1.6 2 1-.9 1.5-2.1.5-2.5.1-2.6"></path><path id="Fill-477" class="cls-1" d="M31.6 4.6c-.4-.1-1.1.8-1.5 2.1l-.2.5-.2-.5c-.1-.2-1.2-2.2-1.6-2s-.2 1.3.3 2.6 1.2 2 1.6 2 1-.9 1.5-2.1.5-2.5.1-2.6"></path><path id="Fill-479" class="cls-1" d="M35.6 4.6c-.4-.1-1.1.8-1.5 2.1l-.2.5-.2-.5c-.1-.2-1.2-2.2-1.6-2s-.2 1.3.3 2.6 1.2 2 1.6 2 1-.9 1.4-2.1.6-2.5.2-2.6"></path><path id="Fill-481" class="cls-1" d="M39.6 4.6c-.4-.1-1.1.8-1.5 2.1l-.2.5-.2-.5c-.1-.2-1.2-2.2-1.6-2s-.2 1.3.3 2.6 1.2 2 1.5 2 1.1-.9 1.5-2.1.6-2.5.2-2.6"></path><path id="Fill-483" class="cls-1" d="M43.6 4.6c-.4-.1-1.1.8-1.5 2.1s-.2.3-.2.5l-.2-.5c-.5-1.3-1.3-2.2-1.6-2s-.3 1.3.3 2.6 1.1 2 1.5 2 1.1-.9 1.5-2.1.5-2.5.2-2.6"></path><path id="Fill-485" class="cls-1" d="M47.6 4.6c-.4-.1-1.1.8-1.6 2.1s-.1.3-.1.5l-.2-.5c-.5-1.3-1.3-2.2-1.6-2s-.3 1.3.3 2.6 1.1 2 1.5 2 1.1-.9 1.5-2.1.5-2.5.2-2.6"></path><path id="Fill-487" class="cls-1" d="M67.5 4.6c-.4-.1-1 .8-1.5 2.1s-.1.3-.1.5l-.2-.5c0-.2-1.3-2.2-1.7-2s-.2 1.3.3 2.6 1.2 2 1.6 2 1-.9 1.5-2.1.5-2.5.1-2.6"></path><path id="Fill-489" class="cls-1" d="M59.5 4.6c-.4-.2-1 .8-1.5 2.1l-.2.5-.1-.5c0-.2-1.3-2.2-1.7-2s-.2 1.3.3 2.6 1.2 2 1.6 2 1-.9 1.5-2.1.5-2.5.1-2.6"></path><path id="Fill-491" class="cls-1" d="M63.5 4.6c-.4-.2-1.1.8-1.5 2.1l-.2.5-.2-.5c-.1-.2-1.2-2.2-1.6-2s-.2 1.3.3 2.6 1.2 2 1.6 2 1-.9 1.5-2.1.5-2.5.1-2.6"></path><path id="Fill-493" class="cls-2" d="M91.4 4.6c-.4-.2-1.1.8-1.5 2.1s-.1.3-.2.5a.8.8 0 0 0-.2-.5c-.5-1.3-1.2-2.2-1.6-2s-.2 1.3.3 2.5 1.2 2.1 1.6 2 1-.8 1.4-2.1.6-2.4.2-2.5"></path><path id="Fill-495" class="cls-1" d="M75.4 4.6c-.3-.1-1 .8-1.5 2.1s-.1.3-.1.5l-.2-.5c-.5-1.3-1.3-2.2-1.6-2s-.3 1.3.3 2.6 1.1 2 1.5 2 1.1-.9 1.5-2.1.5-2.5.1-2.6"></path><path id="Fill-497" class="cls-1" d="M87.4 4.6c-.4-.1-1.1.8-1.5 2.1l-.2.5-.2-.5c-.1-.2-1.2-2.2-1.6-2s-.2 1.3.3 2.6 1.2 2 1.6 2 1-.9 1.5-2.1.5-2.5.1-2.6"></path><path id="Fill-499" class="cls-1" d="M79.4 4.6c-.4-.2-1.1.8-1.5 2.1l-.2.5-.2-.5c-.1-.2-1.2-2.2-1.6-2s-.2 1.3.3 2.6 1.2 2 1.6 2 1-.9 1.4-2.1.6-2.5.2-2.6"></path><path id="Fill-501" class="cls-1" d="M83.4 4.6c-.4-.2-1.1.8-1.5 2.1l-.2.5-.2-.5c-.1-.2-1.2-2.2-1.6-2s-.2 1.3.3 2.6 1.2 2 1.5 2 1.1-.9 1.5-2.1.6-2.5.2-2.6"></path><path id="Fill-503" class="cls-2" d="M71.5 0c-.4-.1-1 .8-1.5 2.1l-.2.5a4.3 4.3 0 0 1-.1-.5C69.1.9 68.4 0 68 .1s-.2 1.3.3 2.6 1.2 2 1.6 2 1-.8 1.5-2.1.5-2.5.1-2.6"></path><path id="Fill-505" class="cls-2" d="M7.7.1c-.4-.2-1.1.8-1.5 2.1s-.1.3-.2.5a.8.8 0 0 0-.2-.5C5.3.9 4.6 0 4.2.2s-.2 1.3.3 2.5 1.2 2.1 1.6 2 1-.8 1.4-2.1.6-2.4.2-2.5"></path><path id="Fill-507" class="cls-2" d="M11.7 0c-.4-.1-1.1.9-1.5 2.2a.8.8 0 0 0-.2.4l-.2-.4C9.7 2.1 8.5 0 8.2.1s-.3 1.4.3 2.6 1.1 2.1 1.5 2 1.1-.8 1.5-2.1.5-2.4.2-2.6"></path><path id="Fill-509" class="cls-2" d="M15.7 0c-.4-.1-1.1.9-1.6 2.2s-.1.3-.1.4l-.2-.4c-.1-.1-1.3-2.2-1.6-2.1s-.3 1.4.3 2.6 1.1 2.1 1.5 2 1.1-.8 1.5-2.1.5-2.4.2-2.6"></path><path id="Fill-511" class="cls-2" d="M51.6 0c-.4-.1-1.1.9-1.5 2.2s-.1.3-.2.4a.8.8 0 0 0-.2-.4C49.2.9 48.5 0 48.1.2s-.2 1.3.3 2.5 1.2 2.1 1.5 2 1.1-.8 1.5-2.1.6-2.4.2-2.6"></path><path id="Fill-513" class="cls-2" d="M55.6 0c-.4-.1-1.1.9-1.5 2.2a.8.8 0 0 0-.2.4l-.2-.4c-.1-.1-1.3-2.2-1.6-2s-.3 1.3.3 2.5 1.1 2.1 1.5 2 1.1-.8 1.5-2.1.5-2.4.2-2.6"></path><path id="Fill-515" class="cls-2" d="M19.6 0c-.3-.1-1 .9-1.5 2.1a4.3 4.3 0 0 1-.1.5l-.2-.4c-.1-.1-1.3-2.2-1.6-2.1s-.3 1.4.3 2.6 1.1 2 1.5 2 1.1-.8 1.5-2.1.5-2.4.1-2.6"></path><path id="Fill-517" class="cls-2" d="M23.6 0c-.3-.1-1 .9-1.5 2.1a4.3 4.3 0 0 1-.1.5l-.2-.4c-.1-.1-1.3-2.2-1.7-2.1s-.2 1.4.3 2.6 1.2 2 1.6 2 1-.8 1.5-2.1.5-2.4.1-2.6"></path><path id="Fill-519" class="cls-2" d="M27.6 0c-.3-.1-1 .9-1.5 2.1a4.3 4.3 0 0 1-.1.5.8.8 0 0 1-.2-.4C25.2.9 24.5 0 24.1.1s-.2 1.4.3 2.6 1.2 2 1.6 2 1-.8 1.5-2.1.5-2.4.1-2.6"></path><path id="Fill-521" class="cls-2" d="M31.6 0c-.4-.1-1.1.9-1.5 2.1l-.2.5a.8.8 0 0 0-.2-.4C29.2.9 28.5 0 28.1.1s-.2 1.4.3 2.6 1.2 2 1.6 2 1-.8 1.5-2.1.5-2.4.1-2.6"></path><path id="Fill-523" class="cls-2" d="M35.6 0c-.4-.1-1.1.9-1.5 2.1l-.2.5a.8.8 0 0 0-.2-.4C33.2.9 32.5 0 32.1.1s-.2 1.4.3 2.6 1.2 2 1.6 2 1-.8 1.4-2.1.6-2.4.2-2.6"></path><path id="Fill-525" class="cls-2" d="M39.6 0c-.4-.1-1.1.9-1.5 2.1l-.2.5a.8.8 0 0 0-.2-.4C37.2.9 36.5 0 36.1.1s-.2 1.4.3 2.6 1.2 2 1.5 2 1.1-.8 1.5-2.1.6-2.4.2-2.6"></path><path id="Fill-527" class="cls-2" d="M43.6 0c-.4-.1-1.1.9-1.5 2.1a1.7 1.7 0 0 0-.2.5l-.2-.4c-.1-.1-1.3-2.2-1.6-2.1s-.3 1.4.3 2.6 1.1 2 1.5 2 1.1-.8 1.5-2.1.5-2.4.2-2.6"></path><path id="Fill-529" class="cls-2" d="M47.6 0c-.4-.1-1.1.9-1.6 2.1a4.3 4.3 0 0 1-.1.5l-.2-.4c-.1-.1-1.3-2.2-1.6-2.1s-.3 1.4.3 2.6 1.1 2 1.5 2 1.1-.8 1.5-2.1.5-2.4.2-2.6"></path><path id="Fill-531" class="cls-2" d="M67.5 0c-.4-.1-1 .9-1.5 2.1a4.3 4.3 0 0 1-.1.5.8.8 0 0 1-.2-.4C65.1.9 64.4 0 64 .1s-.2 1.4.3 2.6 1.2 2 1.6 2 1-.8 1.5-2.1.5-2.4.1-2.6"></path><path id="Fill-533" class="cls-2" d="M59.5 0c-.4-.1-1 .9-1.5 2.1l-.2.5a4.3 4.3 0 0 1-.1-.5C57.1.9 56.4 0 56 .1s-.2 1.3.3 2.6 1.2 2 1.6 2 1-.8 1.5-2.1.5-2.4.1-2.6"></path><path id="Fill-535" class="cls-2" d="M63.5 0c-.4-.1-1.1.9-1.5 2.1l-.2.5a1.7 1.7 0 0 0-.2-.5C61.1.9 60.4 0 60 .1s-.2 1.3.3 2.6 1.2 2 1.6 2 1-.8 1.5-2.1.5-2.4.1-2.6"></path><path id="Fill-537" class="cls-2" d="M75.4 0c-.3-.1-1 .9-1.5 2.2s-.1.3-.1.4l-.2-.4c-.1-.1-1.3-2.2-1.6-2s-.3 1.3.3 2.5 1.1 2.1 1.5 2 1.1-.8 1.5-2.1.5-2.4.1-2.6"></path><path id="Fill-539" class="cls-2" d="M87.4 0c-.4-.1-1.1.9-1.5 2.1l-.2.5a.8.8 0 0 0-.2-.4C85 .9 84.3 0 83.9.1s-.2 1.4.3 2.6 1.2 2 1.6 2 1-.8 1.5-2.1.5-2.4.1-2.6"></path><path id="Fill-541" class="cls-2" d="M79.4 0c-.4-.1-1.1.9-1.5 2.1l-.2.5a1.7 1.7 0 0 0-.2-.5C77 .9 76.3 0 75.9.1s-.2 1.3.3 2.6 1.2 2 1.6 2 1-.8 1.4-2.1.6-2.4.2-2.6"></path><path id="Fill-543" class="cls-2" d="M83.4 0c-.4-.1-1.1.9-1.5 2.1l-.2.5a1.7 1.7 0 0 0-.2-.5C81 .9 80.3 0 79.9.1s-.2 1.3.3 2.6 1.2 2 1.5 2 1.1-.8 1.5-2.1.6-2.4.2-2.6"></path><path id="Fill-545" class="cls-1" d="M71.5 9.1c-.4-.1-1 .8-1.5 2.1l-.2.5-.1-.5c0-.2-1.3-2.1-1.7-2s-.2 1.3.3 2.6 1.2 2 1.6 2 1-.8 1.5-2.1.5-2.5.1-2.6"></path><path id="Fill-547" class="cls-2" d="M3.7 9.1c-.4-.1-1.1.8-1.5 2.1l-.2.5-.2-.5C1.7 11 .6 9.1.2 9.2s-.2 1.3.3 2.6 1.2 2 1.6 2 1-.8 1.5-2.1.5-2.5.1-2.6"></path><path id="Fill-549" class="cls-1" d="M7.7 9.1c-.4-.1-1.1.9-1.5 2.1l-.2.5-.2-.4C5.3 10 4.6 9.1 4.2 9.2s-.2 1.4.3 2.6 1.2 2 1.6 2 1-.8 1.4-2.1.6-2.4.2-2.6"></path><path id="Fill-551" class="cls-1" d="M11.7 9.1c-.4-.1-1.1.8-1.5 2.1l-.2.5-.2-.5c-.1-.2-1.3-2.1-1.6-2s-.3 1.3.3 2.6 1.1 2 1.5 2 1.1-.8 1.5-2.1.5-2.4.2-2.6"></path><path id="Fill-553" class="cls-1" d="M15.7 9.1c-.4-.1-1.1.8-1.6 2.1a4.3 4.3 0 0 1-.1.5l-.2-.5c-.1-.2-1.3-2.1-1.6-2s-.3 1.3.3 2.6 1.1 2 1.5 2 1.1-.8 1.5-2.1.5-2.4.2-2.6"></path><path id="Fill-555" class="cls-1" d="M51.6 9.1c-.4-.1-1.1.9-1.5 2.1l-.2.5-.2-.4c-.5-1.3-1.2-2.2-1.6-2.1s-.2 1.3.3 2.6 1.2 2 1.5 2 1.1-.8 1.5-2.1.6-2.4.2-2.6"></path><path id="Fill-557" class="cls-1" d="M55.6 9.1c-.4-.1-1.1.9-1.5 2.1l-.2.5-.2-.4c-.1-.1-1.3-2.2-1.6-2.1s-.3 1.3.3 2.6 1.1 2 1.5 2 1.1-.8 1.5-2.1.5-2.4.2-2.6"></path><path id="Fill-559" class="cls-1" d="M19.6 9.1c-.3-.1-1 .8-1.5 2.1a4.3 4.3 0 0 1-.1.5l-.2-.5c-.1-.2-1.3-2.1-1.6-2s-.3 1.3.3 2.6 1.1 2 1.5 2 1.1-.8 1.5-2.1.5-2.4.1-2.6"></path><path id="Fill-561" class="cls-1" d="M23.6 9.1c-.3-.1-1 .8-1.5 2.1a4.3 4.3 0 0 1-.1.5l-.2-.5c-.1-.2-1.3-2.1-1.7-2s-.2 1.3.3 2.6 1.2 2 1.6 2 1-.8 1.5-2.1.5-2.4.1-2.6"></path><path id="Fill-563" class="cls-1" d="M27.6 9.1c-.3-.1-1 .8-1.5 2.1a4.3 4.3 0 0 1-.1.5.8.8 0 0 1-.2-.5c-.6-1.2-1.3-2.1-1.7-2s-.2 1.3.3 2.6 1.2 2 1.6 2 1-.8 1.5-2.1.5-2.4.1-2.6"></path><path id="Fill-565" class="cls-1" d="M31.6 9.1c-.4-.1-1.1.8-1.5 2.1s-.1.4-.2.5l-.2-.5c-.5-1.2-1.2-2.1-1.6-2s-.2 1.3.3 2.6 1.2 2 1.6 2 1-.8 1.5-2.1.5-2.4.1-2.6"></path><path id="Fill-567" class="cls-1" d="M35.6 9.1c-.4-.1-1.1.8-1.5 2.1s-.1.4-.2.5l-.2-.5c-.5-1.2-1.2-2.1-1.6-2s-.2 1.3.3 2.6 1.2 2 1.6 2 1-.8 1.4-2.1.6-2.4.2-2.6"></path><path id="Fill-569" class="cls-1" d="M39.6 9.1c-.4-.1-1.1.8-1.5 2.1s-.1.4-.2.5l-.2-.5c-.5-1.2-1.2-2.1-1.6-2s-.2 1.3.3 2.6 1.2 2 1.5 2 1.1-.8 1.5-2.1.6-2.4.2-2.6"></path><path id="Fill-571" class="cls-1" d="M43.6 9.1c-.4-.1-1.1.8-1.5 2.1l-.2.5-.2-.5c-.1-.2-1.3-2.1-1.6-2s-.3 1.3.3 2.6 1.1 2 1.5 2 1.1-.8 1.5-2.1.5-2.4.2-2.6"></path><path id="Fill-573" class="cls-1" d="M47.6 9.1c-.4-.1-1.1.8-1.6 2.1a4.3 4.3 0 0 1-.1.5l-.2-.5c-.1-.2-1.3-2.1-1.6-2s-.3 1.3.3 2.6 1.1 2 1.5 2 1.1-.8 1.5-2.1.5-2.4.2-2.6"></path><path id="Fill-575" class="cls-1" d="M67.5 9.1c-.4-.1-1 .8-1.5 2.1a4.3 4.3 0 0 1-.1.5.8.8 0 0 1-.2-.5c-.6-1.2-1.3-2.1-1.7-2s-.2 1.3.3 2.6 1.2 2 1.6 2 1-.8 1.5-2.1.5-2.4.1-2.6"></path><path id="Fill-577" class="cls-1" d="M59.5 9.1c-.4-.1-1 .8-1.5 2.1l-.2.5a4.3 4.3 0 0 1-.1-.5c-.6-1.2-1.3-2.1-1.7-2s-.2 1.3.3 2.6 1.2 2 1.6 2 1-.8 1.5-2.1.5-2.4.1-2.6"></path><path id="Fill-579" class="cls-1" d="M63.5 9.1c-.4-.1-1.1.8-1.5 2.1s-.1.4-.2.5l-.2-.5c-.5-1.2-1.2-2.1-1.6-2s-.2 1.3.3 2.6 1.2 2 1.6 2 1-.8 1.5-2.1.5-2.4.1-2.6"></path><path id="Fill-581" class="cls-2" d="M91.4 9.1c-.4-.1-1.1.8-1.5 2.1l-.2.5-.2-.5c-.1-.2-1.2-2.1-1.6-2s-.2 1.3.3 2.6 1.2 2 1.6 2 1-.8 1.4-2.1.6-2.5.2-2.6"></path><path id="Fill-583" class="cls-1" d="M75.4 9.1c-.3-.1-1 .9-1.5 2.1a4.3 4.3 0 0 1-.1.5l-.2-.4c-.1-.1-1.3-2.2-1.6-2.1s-.3 1.3.3 2.6 1.1 2 1.5 2 1.1-.8 1.5-2.1.5-2.4.1-2.6"></path><path id="Fill-585" class="cls-1" d="M87.4 9.1c-.4-.1-1.1.8-1.5 2.1s-.1.4-.2.5l-.2-.5c-.5-1.2-1.2-2.1-1.6-2s-.2 1.3.3 2.6 1.2 2 1.6 2 1-.8 1.5-2.1.5-2.4.1-2.6"></path><path id="Fill-587" class="cls-1" d="M79.4 9.1c-.4-.1-1.1.8-1.5 2.1s-.1.4-.2.5l-.2-.5c-.5-1.2-1.2-2.1-1.6-2s-.2 1.3.3 2.6 1.2 2 1.6 2 1-.8 1.4-2.1.6-2.4.2-2.6"></path><path id="Fill-589" class="cls-1" d="M83.4 9.1c-.4-.1-1.1.8-1.5 2.1s-.1.4-.2.5l-.2-.5c-.5-1.2-1.2-2.1-1.6-2s-.2 1.3.3 2.6 1.2 2 1.5 2 1.1-.8 1.5-2.1.6-2.4.2-2.6"></path></g></g></g></svg>