<svg style="height: 105px;width: 105px;" id="Layer_cactus" data-name="Layer 1" xmlns="http://www.w3.org/2000/svg" viewBox="0 0 56.5 113.3"><defs><style>.cactus-cls-1{fill:#fff}.cactus-cls-2{fill:#2774ae}.cactus-cls-3{fill:#48a9c5}.cactus-cls-4{fill:#b3d57d}</style><mask id="mask" x="0" y="63.5" width="3.6" height="4.2" maskUnits="userSpaceOnUse"><g id="mask-2"><path id="path-1" class="cactus-cls-1" d="M0 63.5h3.6v4.2H0v-4.2z"></path></g></mask><mask id="mask-2-2" x="0" y="59.9" width="3.6" height="4.2" maskUnits="userSpaceOnUse"><g id="mask-4"><path id="path-3" class="cactus-cls-1" d="M0 59.9h3.6v4.2H0v-4.2z"></path></g></mask><mask id="mask-3" x="0" y="56.5" width="3.6" height="4.2" maskUnits="userSpaceOnUse"><g id="mask-6"><path id="path-5" class="cactus-cls-1" d="M0 56.4h3.6v4.2H0v-4.2z"></path></g></mask><mask id="mask-4-2" x="0" y="52.8" width="3.6" height="4.2" maskUnits="userSpaceOnUse"><g id="mask-8"><path id="path-7" class="cactus-cls-1" d="M0 52.8h3.6V57H0v-4.2z"></path></g></mask><mask id="mask-5" x="0" y="49.4" width="3.6" height="4.2" maskUnits="userSpaceOnUse"><g id="mask-10"><path id="path-9" class="cactus-cls-1" d="M0 49.4h3.6v4.1H0v-4.1z"></path></g></mask><mask id="mask-6-2" x="0" y="46.1" width="3.6" height="4.2" maskUnits="userSpaceOnUse"><g id="mask-12"><path id="path-11" class="cactus-cls-1" d="M0 46.1h3.6v4.2H0v-4.2z"></path></g></mask><mask id="mask-7" x="35.4" y="109.2" width="3.6" height="4.2" maskUnits="userSpaceOnUse"><g id="mask-14"><path id="path-13" class="cactus-cls-1" d="M35.4 109.2H39v4.1h-3.6v-4.1z"></path></g></mask><mask id="mask-8-2" x="31.9" y="109.2" width="3.6" height="4.2" maskUnits="userSpaceOnUse"><g id="mask-16"><path id="path-15" class="cactus-cls-1" d="M31.9 109.2h3.5v4.1h-3.5v-4.1z"></path></g></mask><mask id="mask-9" x="28.3" y="109.2" width="3.6" height="4.2" maskUnits="userSpaceOnUse"><g id="mask-18"><path id="path-17" class="cactus-cls-1" d="M28.3 109.2h3.6v4.1h-3.6v-4.1z"></path></g></mask><mask id="mask-10-2" x="24.7" y="109.2" width="3.6" height="4.2" maskUnits="userSpaceOnUse"><g id="mask-20"><path id="path-19" class="cactus-cls-1" d="M24.7 109.2h3.6v4.1h-3.6v-4.1z"></path></g></mask></defs><g id="Page-1"><g id="Artboard-2-Copy-3"><g id="Group-641"><path id="Fill-1" class="cactus-cls-2" d="M6.8 45.9c-.7-.3-1.3 1.9-1.4 2.3s-1-2.5-1.7-2.2.8 4 1.7 4 2.3-3.8 1.4-4.1"></path><path id="Fill-3" class="cactus-cls-2" d="M45.5 28.3c-.7-.3-1.3 1.9-1.4 2.3s-1-2.5-1.7-2.2.8 4.1 1.7 4 2.3-3.8 1.4-4.1"></path><path id="Fill-5" class="cactus-cls-2" d="M45.5 24.8c-.7-.3-1.3 1.9-1.4 2.3s-1-2.5-1.7-2.2.8 4 1.7 4 2.3-3.8 1.4-4.1.4.1 0 0"></path><path id="Fill-7" class="cactus-cls-2" d="M10.3 10.7c-.7-.3-1.3 1.9-1.4 2.3s-1-2.5-1.6-2.2.7 4.1 1.6 4 2.3-3.8 1.4-4.1"></path><path id="Fill-9" class="cactus-cls-2" d="M49 28.3c-.7-.3-1.3 1.9-1.4 2.3s-.9-2.5-1.6-2.2.7 4.1 1.6 4 2.3-3.8 1.4-4.1"></path><path id="Fill-11" class="cactus-cls-2" d="M31.5 10.7c-.7-.3-1.4 1.9-1.5 2.3s-.9-2.5-1.6-2.2.7 4.1 1.6 4 2.3-3.8 1.5-4.1"></path><path id="Fill-13" class="cactus-cls-2" d="M35 14.2c-.7-.2-1.4 1.9-1.5 2.3s-.9-2.5-1.6-2.2.7 4.1 1.6 4 2.3-3.8 1.5-4.1"></path><path id="Fill-15" class="cactus-cls-2" d="M35 10.7c-.7-.3-1.4 1.9-1.5 2.3s-.9-2.5-1.6-2.2.7 4.1 1.6 4 2.3-3.8 1.5-4.1"></path><path id="Fill-17" class="cactus-cls-2" d="M10.3 45.9c-.7-.3-1.3 1.9-1.4 2.3s-1-2.5-1.6-2.2.7 4 1.6 4 2.3-3.8 1.4-4.1"></path><path id="Fill-19" class="cactus-cls-2" d="M13.9 10.7c-.7-.3-1.4 1.9-1.5 2.3s-.9-2.5-1.6-2.2.7 4.1 1.6 4 2.3-3.8 1.5-4.1"></path><path id="Fill-21" class="cactus-cls-2" d="M13.9 7.2c-.7-.3-1.4 1.9-1.5 2.3s-.9-2.5-1.6-2.2.7 4 1.6 4 2.3-3.8 1.5-4.1"></path><path id="Fill-23" class="cactus-cls-2" d="M17.4 10.7c-.7-.3-1.4 1.9-1.5 2.3s-.9-2.5-1.6-2.2.7 4.1 1.6 4 2.3-3.8 1.5-4.1"></path><path id="Fill-25" class="cactus-cls-3" d="M13.9 3.8c-.7-.3-1.4 1.9-1.5 2.3s-.9-2.5-1.6-2.2.7 4.1 1.6 4 2.3-3.8 1.5-4.1"></path><path id="Fill-27" class="cactus-cls-3" d="M45.5 21.2c-.7-.2-1.3 1.9-1.4 2.3s-1-2.5-1.7-2.2.8 4.1 1.7 4.1 2.3-3.9 1.4-4.2"></path><path id="Fill-29" class="cactus-cls-3" d="M34.9 7.2c-.7-.3-1.4 1.9-1.5 2.3s-.9-2.5-1.6-2.2.7 4 1.7 4 2.3-3.8 1.4-4.1"></path><path id="Fill-31" class="cactus-cls-3" d="M10.3 42.4c-.7-.3-1.3 1.9-1.4 2.2s-1-2.4-1.6-2.2.7 4.1 1.6 4.1 2.3-3.8 1.4-4.1.4.1 0 0"></path><path id="Fill-33" class="cactus-cls-1" d="M35 105.7c-.7-.3-1.4 1.9-1.5 2.3s-.9-2.5-1.6-2.2.7 4.1 1.6 4 2.3-3.8 1.5-4.1"></path><path id="Fill-35" class="cactus-cls-1" d="M35 102.2c-.7-.3-1.4 1.9-1.5 2.3s-.9-2.5-1.6-2.2.7 4 1.6 4 2.3-3.8 1.5-4.1"></path><path id="Fill-37" class="cactus-cls-1" d="M31.5 84.6c-.7-.3-1.4 1.9-1.5 2.3s-.9-2.5-1.6-2.2.7 4 1.6 4 2.3-3.8 1.5-4.1"></path><path id="Fill-39" class="cactus-cls-1" d="M31.5 105.7c-.7-.3-1.4 1.9-1.5 2.3s-.9-2.5-1.6-2.2.7 4.1 1.6 4 2.3-3.8 1.5-4.1"></path><path id="Fill-41" class="cactus-cls-1" d="M31.5 102.2c-.7-.3-1.4 1.9-1.5 2.3s-.9-2.5-1.6-2.2.7 4 1.6 4 2.3-3.8 1.5-4.1"></path><path id="Fill-43" class="cactus-cls-1" d="M31.5 88.1c-.7-.2-1.4 1.9-1.5 2.3s-.9-2.5-1.6-2.2.7 4.1 1.6 4 2.3-3.8 1.5-4.1"></path><path id="Fill-45" class="cactus-cls-1" d="M31.5 98.7c-.7-.3-1.4 1.9-1.5 2.2s-.9-2.4-1.6-2.2.7 4.1 1.6 4.1 2.3-3.9 1.5-4.1"></path><path id="Fill-47" class="cactus-cls-1" d="M31.5 91.6c-.7-.2-1.4 1.9-1.5 2.3s-.9-2.5-1.6-2.2.7 4.1 1.6 4 2.3-3.8 1.5-4.1"></path><path id="Fill-49" class="cactus-cls-1" d="M31.5 95.1c-.7-.2-1.4 1.9-1.5 2.3s-.9-2.5-1.6-2.2.7 4.1 1.6 4.1 2.3-3.9 1.5-4.2"></path><path id="Fill-51" class="cactus-cls-1" d="M38.5 105.7c-.7-.3-1.4 1.9-1.5 2.3s-.9-2.5-1.6-2.2.7 4.1 1.6 4 2.3-3.8 1.5-4.1"></path><path id="Fill-53" class="cactus-cls-1" d="M38.5 102.2c-.7-.3-1.4 1.9-1.5 2.3s-.9-2.5-1.6-2.2.7 4 1.6 4 2.3-3.8 1.5-4.1"></path><path id="Fill-55" class="cactus-cls-1" d="M38.5 98.7c-.7-.3-1.4 1.9-1.5 2.2s-.9-2.4-1.6-2.2.7 4.1 1.6 4.1 2.3-3.9 1.5-4.1.3.1 0 0"></path><path id="Fill-57" class="cactus-cls-1" d="M38.5 88.1c-.7-.2-1.4 1.9-1.5 2.3s-.9-2.5-1.6-2.2.7 4.1 1.6 4 2.3-3.8 1.5-4.1"></path><path id="Fill-59" class="cactus-cls-1" d="M38.5 91.6c-.7-.2-1.4 1.9-1.5 2.3s-.9-2.5-1.6-2.2.7 4.1 1.6 4 2.3-3.8 1.5-4.1"></path><path id="Fill-61" class="cactus-cls-1" d="M38.5 95.1c-.7-.2-1.4 1.9-1.5 2.3s-.9-2.5-1.6-2.2.7 4.1 1.6 4.1 2.3-3.9 1.5-4.2"></path><path id="Fill-63" class="cactus-cls-1" d="M38.5 84.6c-.7-.3-1.4 1.9-1.5 2.3s-.9-2.5-1.6-2.2.7 4 1.6 4 2.3-3.8 1.5-4.1"></path><path id="Fill-65" class="cactus-cls-1" d="M35 98.7c-.7-.3-1.4 1.9-1.5 2.2s-.9-2.4-1.6-2.2.7 4.1 1.6 4.1 2.3-3.9 1.5-4.1"></path><path id="Fill-67" class="cactus-cls-1" d="M35 91.6c-.7-.2-1.4 1.9-1.5 2.3s-.9-2.5-1.6-2.2.7 4.1 1.6 4 2.3-3.8 1.5-4.1"></path><path id="Fill-69" class="cactus-cls-1" d="M35 84.6c-.7-.3-1.4 1.9-1.5 2.3s-.9-2.5-1.6-2.2.7 4 1.6 4 2.3-3.8 1.5-4.1"></path><path id="Fill-71" class="cactus-cls-1" d="M35 88.1c-.7-.2-1.4 1.9-1.5 2.3s-.9-2.5-1.6-2.2.7 4.1 1.6 4 2.3-3.8 1.5-4.1"></path><path id="Fill-73" class="cactus-cls-1" d="M35 95.1c-.7-.2-1.4 1.9-1.5 2.3s-.9-2.5-1.6-2.2.7 4.1 1.6 4.1 2.3-3.9 1.5-4.2"></path><path id="Fill-75" class="cactus-cls-1" d="M27.9 88.1c-.7-.2-1.3 1.9-1.4 2.3s-1-2.5-1.6-2.2.7 4.1 1.6 4 2.3-3.8 1.4-4.1"></path><path id="Fill-77" class="cactus-cls-1" d="M27.9 91.6c-.7-.2-1.3 1.9-1.4 2.3s-1-2.5-1.6-2.2.7 4.1 1.6 4 2.3-3.8 1.4-4.1"></path><path id="Fill-79" class="cactus-cls-1" d="M27.9 95.1c-.7-.2-1.3 1.9-1.4 2.3s-1-2.5-1.6-2.2.7 4.1 1.6 4.1 2.3-3.9 1.4-4.2"></path><path id="Fill-81" class="cactus-cls-1" d="M27.9 84.6c-.7-.3-1.3 1.9-1.4 2.3s-1-2.5-1.6-2.2.7 4 1.6 4 2.3-3.8 1.4-4.1"></path><path id="Fill-83" class="cactus-cls-1" d="M27.9 98.7c-.7-.3-1.3 1.9-1.4 2.2s-1-2.4-1.6-2.2.7 4.1 1.6 4.1 2.3-3.9 1.4-4.1.4.1 0 0"></path><path id="Fill-85" class="cactus-cls-1" d="M27.9 105.7c-.7-.3-1.3 1.9-1.4 2.3s-1-2.5-1.6-2.2.7 4.1 1.6 4 2.3-3.8 1.4-4.1"></path><path id="Fill-87" class="cactus-cls-1" d="M27.9 102.2c-.7-.3-1.3 1.9-1.4 2.3s-1-2.5-1.6-2.2.7 4 1.6 4 2.3-3.8 1.4-4.1"></path><path id="Fill-89" class="cactus-cls-1" d="M38.5 70.5c-.7-.2-1.4 1.9-1.5 2.3s-.9-2.5-1.6-2.2.7 4.1 1.6 4 2.3-3.8 1.5-4.1"></path><path id="Fill-91" class="cactus-cls-1" d="M38.5 74c-.7-.2-1.4 1.9-1.5 2.3s-.9-2.5-1.6-2.2.7 4.1 1.6 4.1 2.3-3.9 1.5-4.2"></path><path id="Fill-93" class="cactus-cls-1" d="M38.5 77.5c-.7-.2-1.4 1.9-1.5 2.3s-.9-2.5-1.6-2.2.7 4.1 1.6 4.1 2.3-3.9 1.5-4.2.3.2 0 0"></path><path id="Fill-95" class="cactus-cls-1" d="M38.5 67c-.7-.3-1.4 1.9-1.5 2.3s-.9-2.5-1.6-2.2.7 4.1 1.6 4 2.3-3.8 1.5-4.1"></path><path id="Fill-97" class="cactus-cls-1" d="M38.5 63.5c-.7-.3-1.4 1.9-1.5 2.3s-.9-2.5-1.6-2.2.7 4 1.6 4 2.3-3.8 1.5-4.1"></path><path id="Fill-99" class="cactus-cls-1" d="M38.5 81.1c-.7-.3-1.4 1.9-1.5 2.3s-.9-2.5-1.6-2.2.7 4 1.6 4 2.3-3.8 1.5-4.1"></path><path id="Fill-101" class="cactus-cls-1" d="M6.8 59.9c-.7-.2-1.3 2-1.4 2.3s-1-2.4-1.7-2.2.8 4.1 1.7 4.1 2.3-3.9 1.4-4.2"></path><path id="Fill-103" class="cactus-cls-1" d="M6.8 56.4c-.7-.2-1.3 1.9-1.4 2.3s-1-2.5-1.7-2.2.8 4.1 1.7 4.1 2.3-3.9 1.4-4.2"></path><path id="Fill-105" class="cactus-cls-1" d="M6.8 49.4c-.7-.3-1.3 1.9-1.4 2.3s-1-2.5-1.7-2.2.8 4.1 1.7 4 2.3-3.8 1.4-4.1"></path><path id="Fill-107" class="cactus-cls-1" d="M6.8 52.9c-.7-.2-1.3 1.9-1.4 2.3s-1-2.5-1.7-2.2.8 4.1 1.7 4 2.3-3.8 1.4-4.1"></path><path id="Fill-109" class="cactus-cls-1" d="M6.8 63.5c-.7-.3-1.3 1.9-1.4 2.3s-1-2.5-1.7-2.2.8 4 1.7 4 2.3-3.8 1.4-4.1"></path><path id="Fill-111" class="cactus-cls-1" d="M52.6 31.8c-.7-.2-1.4 1.9-1.5 2.3s-.9-2.5-1.6-2.2.7 4.1 1.6 4 2.3-3.8 1.5-4.1"></path><path id="Fill-113" class="cactus-cls-1" d="M52.6 45.9c-.7-.3-1.4 1.9-1.5 2.3s-.9-2.5-1.6-2.2.7 4 1.6 4 2.3-3.8 1.5-4.1"></path><path id="Fill-115" class="cactus-cls-1" d="M52.6 35.3c-.7-.2-1.4 1.9-1.5 2.3s-.9-2.5-1.6-2.2.7 4.1 1.6 4.1 2.3-3.9 1.5-4.2"></path><path id="Fill-117" class="cactus-cls-1" d="M52.6 42.4c-.7-.3-1.4 1.9-1.5 2.2s-.9-2.4-1.6-2.2.7 4.1 1.6 4.1 2.3-3.8 1.5-4.1"></path><path id="Fill-119" class="cactus-cls-1" d="M52.6 38.8c-.7-.2-1.4 1.9-1.5 2.3s-.9-2.5-1.6-2.2.7 4.1 1.6 4.1 2.3-3.9 1.5-4.2.3.2 0 0"></path><path id="Fill-121" class="cactus-cls-1" d="M52.6 49.4c-.7-.3-1.4 1.9-1.5 2.3s-.9-2.5-1.6-2.2.7 4.1 1.6 4 2.3-3.8 1.5-4.1"></path><path id="Fill-123" class="cactus-cls-1" d="M52.6 52.9c-.7-.2-1.4 1.9-1.5 2.3s-.9-2.5-1.6-2.2.7 4.1 1.6 4 2.3-3.8 1.5-4.1"></path><path id="Fill-125" class="cactus-cls-1" d="M45.5 56.4c-.7-.2-1.3 1.9-1.4 2.3s-1-2.5-1.7-2.2.8 4.1 1.7 4.1 2.3-3.9 1.4-4.2"></path><path id="Fill-127" class="cactus-cls-1" d="M42 59.9c-.7-.2-1.4 2-1.5 2.3s-.9-2.4-1.6-2.2.7 4.1 1.7 4.1 2.3-3.9 1.4-4.2.3.2 0 0"></path><path id="Fill-129" class="cactus-cls-1" d="M10.3 28.3c-.7-.3-1.3 1.9-1.4 2.3s-1-2.5-1.6-2.2.7 4.1 1.6 4 2.3-3.8 1.4-4.1"></path><path id="Fill-131" class="cactus-cls-1" d="M10.3 35.3c-.7-.2-1.3 1.9-1.4 2.3s-1-2.5-1.6-2.2.7 4.1 1.6 4.1 2.3-3.9 1.4-4.2"></path><path id="Fill-133" class="cactus-cls-1" d="M10.3 24.8c-.7-.3-1.3 1.9-1.4 2.3s-1-2.5-1.6-2.2.7 4 1.6 4 2.3-3.8 1.4-4.1.4.1 0 0"></path><path id="Fill-135" class="cactus-cls-1" d="M10.3 38.8c-.7-.2-1.3 1.9-1.4 2.3s-1-2.5-1.6-2.2S8 43 8.9 43s2.3-3.9 1.4-4.2"></path><path id="Fill-137" class="cactus-cls-1" d="M10.3 31.8c-.7-.2-1.3 1.9-1.4 2.3s-1-2.5-1.6-2.2.7 4.1 1.6 4 2.3-3.8 1.4-4.1"></path><path id="Fill-139" class="cactus-cls-1" d="M10.3 21.2c-.7-.2-1.3 1.9-1.4 2.3s-1-2.4-1.6-2.2.7 4.1 1.6 4.1 2.3-3.9 1.4-4.2"></path><path id="Fill-141" class="cactus-cls-1" d="M10.3 17.7c-.7-.2-1.3 1.9-1.4 2.3s-1-2.5-1.6-2.2.7 4.1 1.6 4.1 2.3-3.9 1.4-4.2"></path><path id="Fill-143" class="cactus-cls-1" d="M10.3 14.2c-.7-.2-1.3 1.9-1.4 2.3s-1-2.5-1.6-2.2.7 4.1 1.6 4 2.3-3.8 1.4-4.1"></path><path id="Fill-145" class="cactus-cls-1" d="M38.5 21.2c-.7-.2-1.4 1.9-1.5 2.3s-.9-2.4-1.6-2.2.7 4.1 1.6 4.1 2.3-3.9 1.5-4.2.3.2 0 0"></path><path id="Fill-147" class="cactus-cls-1" d="M38.5 17.7c-.7-.2-1.4 1.9-1.5 2.3s-.9-2.5-1.6-2.2.7 4.1 1.6 4.1 2.3-3.9 1.5-4.2"></path><path id="Fill-149" class="cactus-cls-1" d="M38.5 24.8c-.7-.3-1.4 1.9-1.5 2.3s-.9-2.5-1.6-2.2.7 4 1.6 4 2.3-3.8 1.5-4.1.3.1 0 0"></path><path id="Fill-151" class="cactus-cls-1" d="M38.5 35.3c-.7-.2-1.4 1.9-1.5 2.3s-.9-2.5-1.6-2.2.7 4.1 1.6 4.1 2.3-3.9 1.5-4.2"></path><path id="Fill-153" class="cactus-cls-1" d="M38.5 42.4c-.7-.3-1.4 1.9-1.5 2.2s-.9-2.4-1.6-2.2.7 4.1 1.6 4.1 2.3-3.8 1.5-4.1"></path><path id="Fill-155" class="cactus-cls-1" d="M38.5 38.8c-.7-.2-1.4 1.9-1.5 2.3s-.9-2.5-1.6-2.2.7 4.1 1.6 4.1 2.3-3.9 1.5-4.2.3.2 0 0"></path><path id="Fill-157" class="cactus-cls-1" d="M38.5 31.8c-.7-.2-1.4 1.9-1.5 2.3s-.9-2.5-1.6-2.2.7 4.1 1.6 4 2.3-3.8 1.5-4.1"></path><path id="Fill-159" class="cactus-cls-1" d="M38.5 45.9c-.7-.3-1.4 1.9-1.5 2.3s-.9-2.5-1.6-2.2.7 4 1.6 4 2.3-3.8 1.5-4.1"></path><path id="Fill-161" class="cactus-cls-1" d="M38.5 28.3c-.7-.3-1.4 1.9-1.5 2.3s-.9-2.5-1.6-2.2.7 4.1 1.6 4 2.3-3.8 1.5-4.1"></path><path id="Fill-163" class="cactus-cls-1" d="M49 31.8c-.7-.2-1.3 1.9-1.4 2.3s-.9-2.5-1.6-2.2.7 4.1 1.6 4 2.3-3.8 1.4-4.1"></path><path id="Fill-165" class="cactus-cls-1" d="M49 35.3c-.7-.2-1.3 1.9-1.4 2.3s-.9-2.5-1.6-2.2.7 4.1 1.6 4.1 2.3-3.9 1.4-4.2"></path><path id="Fill-167" class="cactus-cls-1" d="M49 52.9c-.7-.2-1.3 1.9-1.4 2.3s-.9-2.5-1.6-2.2.7 4.1 1.6 4 2.3-3.8 1.4-4.1"></path><path id="Fill-169" class="cactus-cls-1" d="M49 45.9c-.7-.3-1.3 1.9-1.4 2.3s-.9-2.5-1.6-2.2.7 4 1.6 4 2.3-3.8 1.4-4.1"></path><path id="Fill-171" class="cactus-cls-1" d="M49 38.8c-.7-.2-1.3 1.9-1.4 2.3s-.9-2.5-1.6-2.2.7 4.1 1.6 4.1 2.3-3.9 1.4-4.2"></path><path id="Fill-173" class="cactus-cls-1" d="M49 42.4c-.7-.3-1.3 1.9-1.4 2.2s-.9-2.4-1.6-2.2.7 4.1 1.6 4.1 2.3-3.8 1.4-4.1.4.1 0 0"></path><path id="Fill-175" class="cactus-cls-1" d="M49 49.4c-.7-.3-1.3 1.9-1.4 2.3s-.9-2.5-1.6-2.2.7 4.1 1.6 4 2.3-3.8 1.4-4.1"></path><path id="Fill-177" class="cactus-cls-1" d="M49 56.4c-.7-.2-1.3 1.9-1.4 2.3s-.9-2.5-1.6-2.2.7 4.1 1.6 4.1 2.3-3.9 1.4-4.2"></path><path id="Fill-179" class="cactus-cls-1" d="M45.5 38.8c-.7-.2-1.3 1.9-1.4 2.3s-1-2.5-1.7-2.2.8 4.1 1.7 4.1 2.3-3.9 1.4-4.2"></path><path id="Fill-181" class="cactus-cls-1" d="M45.5 45.9c-.7-.3-1.3 1.9-1.4 2.3s-1-2.5-1.7-2.2.8 4 1.7 4 2.3-3.8 1.4-4.1"></path><path id="Fill-183" class="cactus-cls-1" d="M45.5 49.4c-.7-.3-1.3 1.9-1.4 2.3s-1-2.5-1.7-2.2.8 4.1 1.7 4 2.3-3.8 1.4-4.1"></path><path id="Fill-185" class="cactus-cls-1" d="M45.5 42.4c-.7-.3-1.3 1.9-1.4 2.2s-1-2.4-1.7-2.2.8 4.1 1.7 4.1 2.3-3.8 1.4-4.1.4.1 0 0"></path><path id="Fill-187" class="cactus-cls-1" d="M45.5 52.9c-.7-.2-1.3 1.9-1.4 2.3s-1-2.5-1.7-2.2.8 4.1 1.7 4 2.3-3.8 1.4-4.1"></path><path id="Fill-189" class="cactus-cls-1" d="M42 56.4c-.7-.2-1.4 1.9-1.5 2.3s-.9-2.5-1.6-2.2.7 4.1 1.7 4.1 2.3-3.9 1.4-4.2"></path><path id="Fill-191" class="cactus-cls-1" d="M42 52.9c-.7-.2-1.4 1.9-1.5 2.3s-.9-2.5-1.6-2.2.7 4.1 1.7 4 2.3-3.8 1.4-4.1"></path><path id="Fill-193" class="cactus-cls-1" d="M42 49.4c-.7-.3-1.4 1.9-1.5 2.3s-.9-2.5-1.6-2.2.7 4.1 1.7 4 2.3-3.8 1.4-4.1"></path><path id="Fill-195" class="cactus-cls-1" d="M45.5 31.8c-.7-.2-1.3 1.9-1.4 2.3s-1-2.5-1.7-2.2.8 4.1 1.7 4 2.3-3.8 1.4-4.1"></path><path id="Fill-197" class="cactus-cls-1" d="M45.5 35.3c-.7-.2-1.3 1.9-1.4 2.3s-1-2.5-1.7-2.2.8 4.1 1.7 4.1 2.3-3.9 1.4-4.2"></path><path id="Fill-199" class="cactus-cls-1" d="M38.5 52.9c-.7-.2-1.4 1.9-1.5 2.3s-.9-2.5-1.6-2.2.7 4.1 1.6 4 2.3-3.8 1.5-4.1"></path><path id="Fill-201" class="cactus-cls-1" d="M38.5 59.9c-.7-.2-1.4 2-1.5 2.3s-.9-2.4-1.6-2.2.7 4.1 1.6 4.1 2.3-3.9 1.5-4.2.3.2 0 0"></path><path id="Fill-203" class="cactus-cls-1" d="M38.5 56.4c-.7-.2-1.4 1.9-1.5 2.3s-.9-2.5-1.6-2.2.7 4.1 1.6 4.1 2.3-3.9 1.5-4.2"></path><path id="Fill-205" class="cactus-cls-1" d="M38.5 49.4c-.7-.3-1.4 1.9-1.5 2.3s-.9-2.5-1.6-2.2.7 4.1 1.6 4 2.3-3.8 1.5-4.1"></path><path id="Fill-207" class="cactus-cls-1" d="M27.9 21.2c-.7-.2-1.3 1.9-1.4 2.3s-1-2.4-1.6-2.2.7 4.1 1.6 4.1 2.3-3.9 1.4-4.2"></path><path id="Fill-209" class="cactus-cls-1" d="M35 63.5c-.7-.3-1.4 1.9-1.5 2.3s-.9-2.5-1.6-2.2.7 4 1.6 4 2.3-3.8 1.5-4.1"></path><path id="Fill-211" class="cactus-cls-1" d="M35 67c-.7-.3-1.4 1.9-1.5 2.3s-.9-2.5-1.6-2.2.7 4.1 1.6 4 2.3-3.8 1.5-4.1"></path><path id="Fill-213" class="cactus-cls-1" d="M35 70.5c-.7-.2-1.4 1.9-1.5 2.3s-.9-2.5-1.6-2.2.7 4.1 1.6 4 2.3-3.8 1.5-4.1"></path><path id="Fill-215" class="cactus-cls-1" d="M35 81.1c-.7-.3-1.4 1.9-1.5 2.3s-.9-2.5-1.6-2.2.7 4 1.6 4 2.3-3.8 1.5-4.1"></path><path id="Fill-217" class="cactus-cls-1" d="M35 74c-.7-.2-1.4 1.9-1.5 2.3s-.9-2.5-1.6-2.2.7 4.1 1.6 4.1 2.3-3.9 1.5-4.2"></path><path id="Fill-219" class="cactus-cls-1" d="M35 77.5c-.7-.2-1.4 1.9-1.5 2.3s-.9-2.5-1.6-2.2.7 4.1 1.6 4.1 2.3-3.9 1.5-4.2.3.2 0 0"></path><path id="Fill-221" class="cactus-cls-1" d="M31.5 17.7c-.7-.2-1.4 1.9-1.5 2.3s-.9-2.5-1.6-2.2.7 4.1 1.6 4.1 2.3-3.9 1.5-4.2"></path><path id="Fill-223" class="cactus-cls-1" d="M31.5 14.2c-.7-.2-1.4 1.9-1.5 2.3s-.9-2.5-1.6-2.2.7 4.1 1.6 4 2.3-3.8 1.5-4.1"></path><path id="Fill-225" class="cactus-cls-1" d="M27.9 17.7c-.7-.2-1.3 1.9-1.4 2.3s-1-2.5-1.6-2.2.7 4.1 1.6 4.1 2.3-3.9 1.4-4.2"></path><path id="Fill-227" class="cactus-cls-1" d="M35 17.7c-.7-.2-1.4 1.9-1.5 2.3s-.9-2.5-1.6-2.2.7 4.1 1.6 4.1 2.3-3.9 1.5-4.2"></path><path id="Fill-229" class="cactus-cls-1" d="M35 31.8c-.7-.2-1.4 1.9-1.5 2.3s-.9-2.5-1.6-2.2.7 4.1 1.6 4 2.3-3.8 1.5-4.1"></path><path id="Fill-231" class="cactus-cls-1" d="M35 52.9c-.7-.2-1.4 1.9-1.5 2.3s-.9-2.5-1.6-2.2.7 4.1 1.6 4 2.3-3.8 1.5-4.1"></path><path id="Fill-233" class="cactus-cls-1" d="M35 59.9c-.7-.2-1.4 2-1.5 2.3s-.9-2.4-1.6-2.2.7 4.1 1.6 4.1 2.3-3.9 1.5-4.2.3.2 0 0"></path><path id="Fill-235" class="cactus-cls-1" d="M35 49.4c-.7-.3-1.4 1.9-1.5 2.3s-.9-2.5-1.6-2.2.7 4.1 1.6 4 2.3-3.8 1.5-4.1"></path><path id="Fill-237" class="cactus-cls-1" d="M35 56.4c-.7-.2-1.4 1.9-1.5 2.3s-.9-2.5-1.6-2.2.7 4.1 1.6 4.1 2.3-3.9 1.5-4.2"></path><path id="Fill-239" class="cactus-cls-1" d="M35 38.8c-.7-.2-1.4 1.9-1.5 2.3s-.9-2.5-1.6-2.2.7 4.1 1.6 4.1 2.3-3.9 1.5-4.2.3.2 0 0"></path><path id="Fill-241" class="cactus-cls-1" d="M35 45.9c-.7-.3-1.4 1.9-1.5 2.3s-.9-2.5-1.6-2.2.7 4 1.6 4 2.3-3.8 1.5-4.1"></path><path id="Fill-243" class="cactus-cls-1" d="M35 42.4c-.7-.3-1.4 1.9-1.5 2.2s-.9-2.4-1.6-2.2.7 4.1 1.6 4.1 2.3-3.8 1.5-4.1"></path><path id="Fill-245" class="cactus-cls-1" d="M35 35.3c-.7-.2-1.4 1.9-1.5 2.3s-.9-2.5-1.6-2.2.7 4.1 1.6 4.1 2.3-3.9 1.5-4.2"></path><path id="Fill-247" class="cactus-cls-1" d="M35 21.2c-.7-.2-1.4 1.9-1.5 2.3s-.9-2.4-1.6-2.2.7 4.1 1.6 4.1 2.3-3.9 1.5-4.2.3.2 0 0"></path><path id="Fill-249" class="cactus-cls-1" d="M35 24.8c-.7-.3-1.4 1.9-1.5 2.3s-.9-2.5-1.6-2.2.7 4 1.6 4 2.3-3.8 1.5-4.1"></path><path id="Fill-251" class="cactus-cls-1" d="M35 28.3c-.7-.3-1.4 1.9-1.5 2.3s-.9-2.5-1.6-2.2.7 4.1 1.6 4 2.3-3.8 1.5-4.1"></path><path id="Fill-253" class="cactus-cls-1" d="M31.5 35.3c-.7-.2-1.4 1.9-1.5 2.3s-.9-2.5-1.6-2.2.7 4.1 1.6 4.1 2.3-3.9 1.5-4.2"></path><path id="Fill-255" class="cactus-cls-1" d="M31.5 31.8c-.7-.2-1.4 1.9-1.5 2.3s-.9-2.5-1.6-2.2.7 4.1 1.6 4 2.3-3.8 1.5-4.1"></path><path id="Fill-257" class="cactus-cls-1" d="M31.5 38.8c-.7-.2-1.4 1.9-1.5 2.3s-.9-2.5-1.6-2.2.7 4.1 1.6 4.1 2.3-3.9 1.5-4.2.3.2 0 0"></path><path id="Fill-259" class="cactus-cls-1" d="M31.5 42.4c-.7-.3-1.4 1.9-1.5 2.2s-.9-2.4-1.6-2.2.7 4.1 1.6 4.1 2.3-3.8 1.5-4.1"></path><path id="Fill-261" class="cactus-cls-1" d="M31.5 21.2c-.7-.2-1.4 1.9-1.5 2.3s-.9-2.4-1.6-2.2.7 4.1 1.6 4.1 2.3-3.9 1.5-4.2.3.2 0 0"></path><path id="Fill-263" class="cactus-cls-1" d="M31.5 45.9c-.7-.3-1.4 1.9-1.5 2.3s-.9-2.5-1.6-2.2.7 4 1.6 4 2.3-3.8 1.5-4.1"></path><path id="Fill-265" class="cactus-cls-1" d="M31.5 24.8c-.7-.3-1.4 1.9-1.5 2.3s-.9-2.5-1.6-2.2.7 4 1.6 4 2.3-3.8 1.5-4.1"></path><path id="Fill-267" class="cactus-cls-1" d="M31.5 28.3c-.7-.3-1.4 1.9-1.5 2.3s-.9-2.5-1.6-2.2.7 4.1 1.6 4 2.3-3.8 1.5-4.1"></path><path id="Fill-269" class="cactus-cls-1" d="M31.5 81.1c-.7-.3-1.4 1.9-1.5 2.3s-.9-2.5-1.6-2.2.7 4 1.6 4 2.3-3.8 1.5-4.1"></path><path id="Fill-271" class="cactus-cls-1" d="M31.5 74c-.7-.2-1.4 1.9-1.5 2.3s-.9-2.5-1.6-2.2.7 4.1 1.6 4.1 2.3-3.9 1.5-4.2"></path><path id="Fill-273" class="cactus-cls-1" d="M31.5 67c-.7-.3-1.4 1.9-1.5 2.3s-.9-2.5-1.6-2.2.7 4.1 1.6 4 2.3-3.8 1.5-4.1"></path><path id="Fill-275" class="cactus-cls-1" d="M31.5 49.4c-.7-.3-1.4 1.9-1.5 2.3s-.9-2.5-1.6-2.2.7 4.1 1.6 4 2.3-3.8 1.5-4.1"></path><path id="Fill-277" class="cactus-cls-1" d="M31.5 77.5c-.7-.2-1.4 1.9-1.5 2.3s-.9-2.5-1.6-2.2.7 4.1 1.6 4.1 2.3-3.9 1.5-4.2.3.2 0 0"></path><path id="Fill-279" class="cactus-cls-1" d="M31.5 70.5c-.7-.2-1.4 1.9-1.5 2.3s-.9-2.5-1.6-2.2.7 4.1 1.6 4 2.3-3.8 1.5-4.1"></path><path id="Fill-281" class="cactus-cls-1" d="M31.5 52.9c-.7-.2-1.4 1.9-1.5 2.3s-.9-2.5-1.6-2.2.7 4.1 1.6 4 2.3-3.8 1.5-4.1"></path><path id="Fill-283" class="cactus-cls-1" d="M31.5 56.4c-.7-.2-1.4 1.9-1.5 2.3s-.9-2.5-1.6-2.2.7 4.1 1.6 4.1 2.3-3.9 1.5-4.2"></path><path id="Fill-285" class="cactus-cls-1" d="M31.5 59.9c-.7-.2-1.4 2-1.5 2.3s-.9-2.4-1.6-2.2.7 4.1 1.6 4.1 2.3-3.9 1.5-4.2.3.2 0 0"></path><path id="Fill-287" class="cactus-cls-1" d="M31.5 63.5c-.7-.3-1.4 1.9-1.5 2.3s-.9-2.5-1.6-2.2.7 4 1.6 4 2.3-3.8 1.5-4.1"></path><path id="Fill-289" class="cactus-cls-1" d="M27.9 24.8c-.7-.3-1.3 1.9-1.4 2.3s-1-2.5-1.6-2.2.7 4 1.6 4 2.3-3.8 1.4-4.1.4.1 0 0"></path><path id="Fill-291" class="cactus-cls-1" d="M27.9 28.3c-.7-.3-1.3 1.9-1.4 2.3s-1-2.5-1.6-2.2.7 4.1 1.6 4 2.3-3.8 1.4-4.1"></path><path id="Fill-293" class="cactus-cls-1" d="M27.9 38.8c-.7-.2-1.3 1.9-1.4 2.3s-1-2.5-1.6-2.2.7 4.1 1.6 4.1 2.3-3.9 1.4-4.2"></path><path id="Fill-295" class="cactus-cls-1" d="M27.9 35.3c-.7-.2-1.3 1.9-1.4 2.3s-1-2.5-1.6-2.2.7 4.1 1.6 4.1 2.3-3.9 1.4-4.2"></path><path id="Fill-297" class="cactus-cls-1" d="M27.9 42.4c-.7-.3-1.3 1.9-1.4 2.2s-1-2.4-1.6-2.2.7 4.1 1.6 4.1 2.3-3.8 1.4-4.1.4.1 0 0"></path><path id="Fill-299" class="cactus-cls-1" d="M27.9 31.8c-.7-.2-1.3 1.9-1.4 2.3s-1-2.5-1.6-2.2.7 4.1 1.6 4 2.3-3.8 1.4-4.1"></path><path id="Fill-301" class="cactus-cls-1" d="M27.9 52.9c-.7-.2-1.3 1.9-1.4 2.3s-1-2.5-1.6-2.2.7 4.1 1.6 4 2.3-3.8 1.4-4.1"></path><path id="Fill-303" class="cactus-cls-1" d="M27.9 49.4c-.7-.3-1.3 1.9-1.4 2.3s-1-2.5-1.6-2.2.7 4.1 1.6 4 2.3-3.8 1.4-4.1"></path><path id="Fill-305" class="cactus-cls-1" d="M27.9 56.4c-.7-.2-1.3 1.9-1.4 2.3s-1-2.5-1.6-2.2.7 4.1 1.6 4.1 2.3-3.9 1.4-4.2"></path><path id="Fill-307" class="cactus-cls-1" d="M27.9 59.9c-.7-.2-1.3 2-1.4 2.3s-1-2.4-1.6-2.2.7 4.1 1.6 4.1 2.3-3.9 1.4-4.2"></path><path id="Fill-309" class="cactus-cls-1" d="M27.9 45.9c-.7-.3-1.3 1.9-1.4 2.3s-1-2.5-1.6-2.2.7 4 1.6 4 2.3-3.8 1.4-4.1"></path><path id="Fill-311" class="cactus-cls-1" d="M27.9 63.5c-.7-.3-1.3 1.9-1.4 2.3s-1-2.5-1.6-2.2.7 4 1.6 4 2.3-3.8 1.4-4.1"></path><path id="Fill-313" class="cactus-cls-1" d="M13.9 31.8c-.7-.3-1.4 1.9-1.5 2.3s-.9-2.5-1.6-2.2.7 4.1 1.6 4 2.3-3.8 1.5-4.1"></path><path id="Fill-315" class="cactus-cls-1" d="M13.9 35.3c-.7-.2-1.4 1.9-1.5 2.3s-.9-2.5-1.6-2.2.7 4.1 1.6 4 2.3-3.8 1.5-4.1"></path><path id="Fill-317" class="cactus-cls-1" d="M13.9 24.7c-.7-.2-1.4 2-1.5 2.3s-.9-2.4-1.6-2.2.7 4.1 1.6 4.1 2.3-3.9 1.5-4.2.3.2 0 0"></path><path id="Fill-319" class="cactus-cls-1" d="M13.9 38.8c-.7-.2-1.4 1.9-1.5 2.3s-.9-2.5-1.6-2.2.7 4.1 1.6 4.1 2.3-3.9 1.5-4.2"></path><path id="Fill-321" class="cactus-cls-1" d="M13.9 28.3c-.7-.3-1.4 1.9-1.5 2.3s-.9-2.5-1.6-2.2.7 4 1.6 4 2.3-3.8 1.5-4.1"></path><path id="Fill-323" class="cactus-cls-1" d="M13.9 21.2c-.7-.2-1.4 1.9-1.5 2.3s-.9-2.5-1.6-2.2.7 4.1 1.6 4.1 2.3-3.9 1.5-4.2"></path><path id="Fill-325" class="cactus-cls-1" d="M13.9 14.2c-.7-.2-1.4 1.9-1.5 2.3s-.9-2.5-1.6-2.2.7 4.1 1.6 4 2.3-3.8 1.5-4.1"></path><path id="Fill-327" class="cactus-cls-1" d="M13.9 17.7c-.7-.2-1.4 1.9-1.5 2.3s-.9-2.5-1.6-2.2.7 4.1 1.6 4 2.3-3.8 1.5-4.1"></path><path id="Fill-329" class="cactus-cls-1" d="M17.4 28.3c-.7-.3-1.4 1.9-1.5 2.3s-.9-2.5-1.6-2.2.7 4 1.7 4 2.2-3.8 1.4-4.1"></path><path id="Fill-331" class="cactus-cls-1" d="M17.4 24.7c-.7-.2-1.4 2-1.5 2.3s-.9-2.4-1.6-2.2.7 4.1 1.7 4.1 2.2-3.9 1.4-4.2"></path><path id="Fill-333" class="cactus-cls-1" d="M17.4 14.2c-.7-.2-1.4 1.9-1.5 2.3s-.9-2.5-1.6-2.2.7 4.1 1.7 4 2.2-3.8 1.4-4.1"></path><path id="Fill-335" class="cactus-cls-1" d="M17.4 21.2c-.7-.2-1.4 1.9-1.5 2.3s-.9-2.5-1.6-2.2.7 4.1 1.7 4.1 2.2-3.9 1.4-4.2"></path><path id="Fill-337" class="cactus-cls-1" d="M17.4 17.7c-.7-.2-1.4 1.9-1.5 2.3s-.9-2.5-1.6-2.2.7 4.1 1.7 4 2.2-3.8 1.4-4.1"></path><path id="Fill-339" class="cactus-cls-1" d="M17.4 31.8c-.7-.3-1.4 1.9-1.5 2.3s-.9-2.5-1.6-2.2.7 4.1 1.7 4 2.2-3.8 1.4-4.1"></path><path id="Fill-341" class="cactus-cls-1" d="M17.4 42.3c-.7-.2-1.4 1.9-1.5 2.3s-.9-2.4-1.6-2.2.7 4.1 1.7 4.1 2.2-3.9 1.4-4.2.3.2 0 0"></path><path id="Fill-343" class="cactus-cls-1" d="M17.4 35.3c-.7-.2-1.4 1.9-1.5 2.3s-.9-2.5-1.6-2.2.7 4.1 1.7 4 2.2-3.8 1.4-4.1"></path><path id="Fill-345" class="cactus-cls-1" d="M17.4 38.8c-.7-.2-1.4 1.9-1.5 2.3s-.9-2.5-1.6-2.2S15 43 16 43s2.2-3.9 1.4-4.2"></path><path id="Fill-347" class="cactus-cls-1" d="M27.9 67c-.7-.3-1.3 1.9-1.4 2.3s-1-2.5-1.6-2.2.7 4.1 1.6 4 2.3-3.8 1.4-4.1"></path><path id="Fill-349" class="cactus-cls-1" d="M20.9 35.3c-.7-.2-1.3 1.9-1.5 2.3s-.9-2.5-1.6-2.2.7 4.1 1.7 4 2.3-3.8 1.4-4.1"></path><path id="Fill-351" class="cactus-cls-1" d="M20.9 38.8c-.7-.2-1.3 1.9-1.5 2.3s-.9-2.5-1.6-2.2.7 4.1 1.7 4.1 2.3-3.9 1.4-4.2"></path><path id="Fill-353" class="cactus-cls-1" d="M20.9 42.4c-.7-.3-1.4 1.9-1.5 2.2s-.9-2.4-1.6-2.2.7 4.1 1.7 4.1 2.2-3.8 1.4-4.1"></path><path id="Fill-355" class="cactus-cls-1" d="M24.4 38.8c-.7-.2-1.3 1.9-1.5 2.3s-.9-2.5-1.6-2.2S22 43 23 43s2.3-3.9 1.4-4.2.3.2 0 0"></path><path id="Fill-357" class="cactus-cls-1" d="M24.4 42.4c-.7-.3-1.3 1.9-1.5 2.2s-.9-2.4-1.6-2.2.7 4.1 1.7 4.1 2.3-3.8 1.4-4.1"></path><path id="Fill-359" class="cactus-cls-1" d="M24.4 45.9c-.7-.3-1.3 1.9-1.5 2.3s-.9-2.5-1.6-2.2.7 4 1.7 4 2.3-3.8 1.4-4.1"></path><path id="Fill-361" class="cactus-cls-1" d="M27.9 70.5c-.7-.2-1.3 1.9-1.4 2.3s-1-2.5-1.6-2.2.7 4.1 1.6 4 2.3-3.8 1.4-4.1"></path><path id="Fill-363" class="cactus-cls-1" d="M27.9 74c-.7-.2-1.3 1.9-1.4 2.3s-1-2.5-1.6-2.2.7 4.1 1.6 4.1 2.3-3.9 1.4-4.2"></path><path id="Fill-365" class="cactus-cls-1" d="M27.9 77.5c-.7-.2-1.3 1.9-1.4 2.3s-1-2.5-1.6-2.2.7 4.1 1.6 4.1 2.3-3.9 1.4-4.2"></path><path id="Fill-367" class="cactus-cls-1" d="M27.9 81.1c-.7-.3-1.3 1.9-1.4 2.3s-1-2.5-1.6-2.2.7 4 1.6 4 2.3-3.8 1.4-4.1.4.1 0 0"></path><path id="Fill-369" class="cactus-cls-1" d="M10.3 56.4c-.7-.2-1.3 1.9-1.4 2.3s-1-2.5-1.6-2.2.7 4.1 1.6 4.1 2.3-3.9 1.4-4.2"></path><path id="Fill-371" class="cactus-cls-1" d="M10.3 52.9c-.7-.2-1.3 1.9-1.4 2.3s-1-2.5-1.6-2.2.7 4.1 1.6 4 2.3-3.8 1.4-4.1"></path><path id="Fill-373" class="cactus-cls-1" d="M10.3 49.4c-.7-.3-1.3 1.9-1.4 2.3s-1-2.5-1.6-2.2.7 4.1 1.6 4 2.3-3.8 1.4-4.1"></path><path id="Fill-375" class="cactus-cls-1" d="M10.3 63.5c-.7-.3-1.3 1.9-1.4 2.3s-1-2.5-1.6-2.2.7 4 1.6 4 2.3-3.8 1.4-4.1"></path><path id="Fill-377" class="cactus-cls-1" d="M10.3 67c-.7-.3-1.3 1.9-1.4 2.3s-1-2.5-1.6-2.2.7 4.1 1.6 4 2.3-3.8 1.4-4.1"></path><path id="Fill-379" class="cactus-cls-1" d="M10.3 59.9c-.7-.2-1.3 2-1.4 2.3s-1-2.4-1.6-2.2.7 4.1 1.6 4.1 2.3-3.9 1.4-4.2"></path><path id="Fill-381" class="cactus-cls-1" d="M13.9 52.9c-.7-.2-1.4 1.9-1.5 2.3s-.9-2.5-1.6-2.2.7 4.1 1.6 4 2.3-3.8 1.5-4.1"></path><path id="Fill-383" class="cactus-cls-1" d="M13.9 49.4c-.7-.3-1.4 1.9-1.5 2.3s-.9-2.5-1.6-2.2.7 4.1 1.6 4 2.3-3.8 1.5-4.1"></path><path id="Fill-385" class="cactus-cls-1" d="M13.9 56.4c-.7-.2-1.4 1.9-1.5 2.3s-.9-2.5-1.6-2.2.7 4.1 1.6 4.1 2.3-3.9 1.5-4.2"></path><path id="Fill-387" class="cactus-cls-1" d="M13.9 67c-.7-.3-1.4 1.9-1.5 2.3s-.9-2.5-1.6-2.2.7 4.1 1.6 4 2.3-3.8 1.5-4.1"></path><path id="Fill-389" class="cactus-cls-1" d="M13.9 63.5c-.7-.3-1.4 1.9-1.5 2.3s-.9-2.5-1.6-2.2.7 4 1.6 4 2.3-3.8 1.5-4.1"></path><path id="Fill-391" class="cactus-cls-1" d="M13.9 70.5c-.7-.2-1.4 1.9-1.5 2.3s-.9-2.5-1.6-2.2.7 4.1 1.6 4 2.3-3.8 1.5-4.1"></path><path id="Fill-393" class="cactus-cls-1" d="M13.9 59.9c-.7-.2-1.4 2-1.5 2.3s-.9-2.4-1.6-2.2.7 4.1 1.6 4.1 2.3-3.9 1.5-4.2.3.2 0 0"></path><path id="Fill-395" class="cactus-cls-1" d="M17.4 70.5c-.7-.2-1.4 1.9-1.5 2.3s-.9-2.5-1.6-2.2.7 4.1 1.6 4 2.3-3.8 1.5-4.1"></path><path id="Fill-397" class="cactus-cls-1" d="M17.4 74c-.7-.2-1.4 1.9-1.5 2.3s-.9-2.5-1.6-2.2.7 4.1 1.6 4.1 2.3-3.9 1.5-4.2"></path><path id="Fill-399" class="cactus-cls-1" d="M17.4 67c-.7-.3-1.4 1.9-1.5 2.3s-.9-2.5-1.6-2.2.7 4.1 1.6 4 2.3-3.8 1.5-4.1"></path><path id="Fill-401" class="cactus-cls-1" d="M20.9 74c-.7-.2-1.4 1.9-1.5 2.3s-.9-2.5-1.6-2.2.7 4.1 1.7 4.1 2.2-3.9 1.4-4.2"></path><path id="Fill-403" class="cactus-cls-1" d="M20.9 70.5c-.7-.2-1.4 1.9-1.5 2.3s-.9-2.5-1.6-2.2.7 4.1 1.7 4 2.2-3.8 1.4-4.1"></path><path id="Fill-405" class="cactus-cls-1" d="M24.4 74c-.7-.2-1.3 1.9-1.5 2.3s-.9-2.5-1.6-2.2.7 4.1 1.7 4.1 2.3-3.9 1.4-4.2"></path><path id="Fill-407" class="cactus-cls-1" d="M24.4 70.5c-.7-.2-1.3 1.9-1.5 2.3s-.9-2.5-1.6-2.2.7 4.1 1.7 4 2.3-3.8 1.4-4.1"></path><path id="Fill-409" class="cactus-cls-4" d="M20.6 28.1c-.7-.2-1.4 1.9-1.5 2.3s-.9-2.5-1.6-2.2.7 4.1 1.6 4.1 2.3-3.9 1.5-4.2"></path><path id="Fill-411" class="cactus-cls-4" d="M20.6 24.6c-.7-.2-1.4 1.9-1.5 2.3s-.9-2.5-1.6-2.2.7 4.1 1.6 4 2.3-3.8 1.5-4.1"></path><path id="Fill-413" class="cactus-cls-4" d="M20.6 14c-.7-.2-1.4 1.9-1.5 2.3s-.9-2.5-1.6-2.2.7 4.1 1.6 4.1 2.3-3.9 1.5-4.2.3.2 0 0"></path><path id="Fill-415" class="cactus-cls-4" d="M20.6 21.1c-.7-.3-1.4 1.9-1.5 2.3s-.9-2.5-1.6-2.2.7 4.1 1.6 4 2.3-3.8 1.5-4.1"></path><path id="Fill-417" class="cactus-cls-4" d="M20.6 17.6c-.7-.3-1.4 1.9-1.5 2.3s-.9-2.5-1.6-2.2.7 4 1.6 4 2.3-3.8 1.5-4.1"></path><path id="Fill-419" class="cactus-cls-4" d="M24.2 28.1c-.7-.2-1.3 1.9-1.4 2.3s-1-2.5-1.6-2.2.7 4.1 1.6 4.1 2.3-3.9 1.4-4.2"></path><path id="Fill-421" class="cactus-cls-4" d="M24.2 24.6c-.7-.2-1.3 1.9-1.4 2.3s-1-2.5-1.6-2.2.7 4.1 1.6 4 2.3-3.8 1.4-4.1"></path><path id="Fill-423" class="cactus-cls-4" d="M24.2 14c-.7-.2-1.3 1.9-1.4 2.3s-1-2.5-1.6-2.2.7 4.1 1.6 4.1 2.3-3.9 1.4-4.2"></path><path id="Fill-425" class="cactus-cls-4" d="M27.8 14c-.7-.2-1.4 1.9-1.5 2.3s-.9-2.5-1.6-2.2.7 4.1 1.7 4.1 2.2-3.9 1.4-4.2"></path><path id="Fill-427" class="cactus-cls-4" d="M27.7 10.6c-.7-.2-1.3 1.9-1.5 2.3s-.9-2.5-1.6-2.2.7 4.1 1.7 4 2.3-3.8 1.4-4.1"></path><path id="Fill-429" class="cactus-cls-4" d="M38.6 14c-.7-.2-1.4 1.9-1.5 2.3s-.9-2.5-1.6-2.2.7 4.1 1.6 4.1 2.3-3.9 1.5-4.2.3.2 0 0"></path><path id="Fill-431" class="cactus-cls-4" d="M38.5 10.6c-.7-.2-1.4 1.9-1.5 2.3s-.9-2.5-1.6-2.2.7 4.1 1.6 4 2.3-3.8 1.5-4.1"></path><path id="Fill-433" class="cactus-cls-4" d="M31.4 7.1c-.7-.3-1.4 1.9-1.5 2.3s-.9-2.5-1.6-2.2.7 4.1 1.6 4 2.3-3.8 1.5-4.1"></path><path id="Fill-435" class="cactus-cls-4" d="M38.4 7.1c-.7-.3-1.4 1.9-1.5 2.3s-.9-2.5-1.6-2.2.7 4.1 1.6 4 2.3-3.8 1.5-4.1"></path><path id="Fill-437" class="cactus-cls-4" d="M34.7 3.5c-.7-.3-1.3 1.9-1.4 2.3s-.9-2.5-1.6-2.2.7 4.1 1.6 4 2.3-3.8 1.4-4.1"></path><path id="Fill-439" class="cactus-cls-4" d="M24.2 21.1c-.7-.3-1.3 1.9-1.4 2.3s-1-2.5-1.6-2.2.7 4.1 1.6 4 2.3-3.8 1.4-4.1"></path><path id="Fill-441" class="cactus-cls-4" d="M24.2 17.6c-.7-.3-1.3 1.9-1.4 2.3s-1-2.5-1.6-2.2.7 4 1.6 4 2.3-3.8 1.4-4.1.4.1 0 0"></path><path id="Fill-443" class="cactus-cls-4" d="M20.6 31.6c-.7-.2-1.4 1.9-1.5 2.3s-.9-2.5-1.6-2.2.7 4.1 1.6 4.1 2.3-3.9 1.5-4.2"></path><path id="Fill-445" class="cactus-cls-4" d="M6.8 28.1c-.7-.2-1.4 1.9-1.5 2.3s-.9-2.5-1.6-2.2.7 4.1 1.6 4.1 2.3-3.9 1.5-4.2"></path><path id="Fill-447" class="cactus-cls-4" d="M6.8 24.6c-.7-.2-1.4 1.9-1.5 2.3s-.9-2.5-1.6-2.2.7 4.1 1.6 4 2.3-3.8 1.5-4.1"></path><path id="Fill-449" class="cactus-cls-4" d="M6.8 14c-.7-.2-1.4 1.9-1.5 2.3s-.9-2.5-1.6-2.2.7 4.1 1.6 4.1 2.3-3.9 1.5-4.2.3.2 0 0"></path><path id="Fill-451" class="cactus-cls-4" d="M6.8 10.6c-.7-.3-1.4 1.9-1.5 2.3s-.9-2.5-1.6-2.2.7 4.1 1.6 4 2.3-3.8 1.5-4.1"></path><path id="Fill-453" class="cactus-cls-4" d="M10.5 7.2C9.8 6.9 9.1 9.1 9 9.5S8.1 7 7.4 7.3s.7 4 1.6 4 2.3-3.8 1.5-4.1"></path><path id="Fill-455" class="cactus-cls-4" d="M10.5 3.7C9.8 3.5 9.2 5.6 9.1 6s-1-2.5-1.6-2.2.7 4.1 1.6 4.1 2.3-3.9 1.4-4.2"></path><path id="Fill-457" class="cactus-cls-4" d="M17.3 3.3c-.7-.3-1.3 1.9-1.5 2.3s-.9-2.5-1.6-2.2.7 4.1 1.7 4 2.3-3.8 1.4-4.1"></path><path id="Fill-459" class="cactus-cls-4" d="M17.3 6.9c-.7-.2-1.3 1.9-1.5 2.3s-.9-2.5-1.6-2.2.7 4.1 1.7 4 2.3-3.8 1.4-4.1"></path><path id="Fill-461" class="cactus-cls-4" d="M20.6 10.5c-.7-.2-1.4 1.9-1.5 2.3s-.9-2.5-1.6-2.2.7 4.1 1.6 4 2.3-3.8 1.5-4.1"></path><path id="Fill-463" class="cactus-cls-4" d="M13.8 0c-.7-.2-1.4 1.9-1.5 2.3S11.4-.2 10.7.1s.7 4.1 1.7 4.1S14.6.3 13.8 0"></path><path id="Fill-465" class="cactus-cls-4" d="M6.8 21.1c-.7-.3-1.4 1.9-1.5 2.3s-.9-2.5-1.6-2.2.7 4.1 1.6 4 2.3-3.8 1.5-4.1"></path><path id="Fill-467" class="cactus-cls-4" d="M6.8 17.6c-.7-.3-1.4 1.9-1.5 2.3s-.9-2.5-1.6-2.2.7 4 1.6 4 2.3-3.8 1.5-4.1"></path><path id="Fill-469" class="cactus-cls-4" d="M6.8 31.6c-.7-.2-1.4 1.9-1.5 2.3s-.9-2.5-1.6-2.2.7 4.1 1.6 4.1 2.3-3.9 1.5-4.2"></path><path id="Fill-471" class="cactus-cls-4" d="M24.4 31.6c-.7-.2-1.4 1.9-1.5 2.3s-.9-2.5-1.6-2.2.7 4.1 1.7 4.1 2.2-3.9 1.4-4.2"></path><path id="Fill-473" class="cactus-cls-4" d="M24.4 35c-.7-.2-1.4 1.9-1.5 2.3s-.9-2.5-1.6-2.2.7 4.1 1.7 4.1 2.2-3.9 1.4-4.2"></path><path id="Fill-475" class="cactus-cls-4" d="M42 28.1c-.7-.2-1.4 1.9-1.5 2.3s-.9-2.5-1.6-2.2.7 4.1 1.7 4.1 2.3-3.9 1.4-4.2"></path><path id="Fill-477" class="cactus-cls-4" d="M52.6 28.1c-.7-.2-1.4 1.9-1.5 2.3s-.9-2.5-1.6-2.2.7 4.1 1.6 4.1 2.3-3.9 1.5-4.2"></path><path id="Fill-479" class="cactus-cls-4" d="M42 24.6c-.7-.2-1.4 1.9-1.5 2.3s-.9-2.5-1.6-2.2.7 4.1 1.7 4 2.3-3.8 1.4-4.1"></path><path id="Fill-481" class="cactus-cls-4" d="M42 21.1c-.7-.3-1.4 1.9-1.5 2.3s-.9-2.5-1.6-2.2.7 4.1 1.7 4 2.3-3.8 1.4-4.1"></path><path id="Fill-483" class="cactus-cls-4" d="M42 17.6c-.7-.3-1.4 1.9-1.5 2.3s-.9-2.5-1.6-2.2.7 4 1.7 4 2.3-3.8 1.4-4.1.3.1 0 0"></path><path id="Fill-485" class="cactus-cls-4" d="M45.3 17.6c-.7-.3-1.3 1.9-1.4 2.3s-.9-2.5-1.6-2.2.7 4 1.6 4 2.3-3.8 1.4-4.1.4.1 0 0"></path><path id="Fill-487" class="cactus-cls-4" d="M49.2 21c-.7-.2-1.4 1.9-1.5 2.3s-.9-2.5-1.6-2.2.7 4.1 1.6 4.1 2.3-3.9 1.5-4.2"></path><path id="Fill-489" class="cactus-cls-4" d="M49.2 24.7c-.7-.3-1.4 1.9-1.5 2.3s-.9-2.5-1.6-2.2.7 4.1 1.6 4 2.3-3.8 1.5-4.1"></path><path id="Fill-491" class="cactus-cls-4" d="M42.2 31.6c-.7-.2-1.4 1.9-1.5 2.3s-.9-2.5-1.6-2.2.7 4.1 1.6 4.1 2.3-3.9 1.5-4.2"></path><path id="Fill-493" class="cactus-cls-4" d="M42.2 35c-.7-.2-1.4 1.9-1.5 2.3s-.9-2.5-1.6-2.2.7 4.1 1.6 4.1 2.3-3.9 1.5-4.2"></path><path id="Fill-495" class="cactus-cls-4" d="M42 38.7c-.7-.2-1.4 1.9-1.5 2.3s-.9-2.5-1.6-2.2.7 4.1 1.7 4.1 2.3-3.9 1.4-4.2"></path><path id="Fill-497" class="cactus-cls-4" d="M42.2 42.2c-.7-.2-1.4 1.9-1.5 2.3s-.9-2.5-1.6-2.2.7 4.1 1.6 4.1 2.3-3.9 1.5-4.2"></path><path id="Fill-499" class="cactus-cls-4" d="M42.2 45.6c-.7-.2-1.4 1.9-1.5 2.3s-.9-2.5-1.6-2.2.7 4.1 1.6 4.1 2.3-3.9 1.5-4.2"></path><path id="Fill-501" class="cactus-cls-4" d="M56.2 31.6c-.7-.2-1.4 1.9-1.5 2.3s-.9-2.5-1.6-2.2.7 4.1 1.7 4.1 2.2-3.9 1.4-4.2"></path><path id="Fill-503" class="cactus-cls-4" d="M56.2 35c-.7-.2-1.4 1.9-1.5 2.3s-.9-2.5-1.6-2.2.7 4.1 1.7 4.1 2.2-3.9 1.4-4.2"></path><path id="Fill-505" class="cactus-cls-4" d="M56 38.7c-.7-.2-1.3 1.9-1.4 2.3s-1-2.5-1.6-2.2.7 4.1 1.6 4.1 2.3-3.9 1.4-4.2"></path><path id="Fill-507" class="cactus-cls-4" d="M56.2 42.2c-.7-.2-1.4 1.9-1.5 2.3s-.9-2.5-1.6-2.2.7 4.1 1.7 4.1 2.2-3.9 1.4-4.2"></path><path id="Fill-509" class="cactus-cls-4" d="M56.2 45.6c-.7-.2-1.4 1.9-1.5 2.3s-.9-2.5-1.6-2.2.7 4.1 1.7 4.1 2.2-3.9 1.4-4.2"></path><path id="Fill-511" class="cactus-cls-4" d="M56.2 49.1c-.7-.2-1.4 1.9-1.5 2.3s-.9-2.5-1.6-2.2.7 4.1 1.7 4.1 2.2-3.9 1.4-4.2.3.2 0 0"></path><path id="Fill-513" class="cactus-cls-4" d="M56.2 52.5c-.7-.2-1.4 1.9-1.5 2.3s-.9-2.5-1.6-2.2.7 4.1 1.7 4.1 2.2-3.9 1.4-4.2.3.2 0 0"></path><path id="Fill-515" class="cactus-cls-4" d="M52.6 56.1c-.7-.2-1.4 1.9-1.5 2.3s-.9-2.4-1.6-2.2.7 4.1 1.6 4.1 2.3-3.9 1.5-4.2.3.2 0 0"></path><path id="Fill-517" class="cactus-cls-4" d="M49.2 59.8c-.7-.2-1.4 1.9-1.5 2.3s-.9-2.5-1.6-2.2.7 4.1 1.6 4 2.3-3.8 1.5-4.1"></path><path id="Fill-519" class="cactus-cls-4" d="M45.6 59.8c-.7-.2-1.3 1.9-1.4 2.3s-1-2.5-1.6-2.2.7 4.1 1.6 4 2.3-3.8 1.4-4.1"></path><path id="Fill-521" class="cactus-cls-4" d="M42.1 63.3c-.7-.3-1.4 1.9-1.5 2.3s-.9-2.5-1.6-2.2.7 4 1.6 4 2.3-3.8 1.5-4.1"></path><path id="Fill-523" class="cactus-cls-4" d="M42.1 66.6c-.7-.2-1.4 1.9-1.5 2.3s-.9-2.5-1.6-2.2.7 4.1 1.6 4 2.3-3.8 1.5-4.1"></path><path id="Fill-525" class="cactus-cls-4" d="M42.1 70.3c-.7-.2-1.4 1.9-1.5 2.3s-.9-2.5-1.6-2.2.7 4.1 1.6 4 2.3-3.8 1.5-4.1"></path><path id="Fill-527" class="cactus-cls-4" d="M42.1 74c-.7-.3-1.4 1.9-1.5 2.2s-.9-2.4-1.6-2.2.7 4.1 1.6 4.1 2.3-3.8 1.5-4.1"></path><path id="Fill-529" class="cactus-cls-4" d="M42.1 77.7c-.7-.3-1.4 1.9-1.5 2.2s-.9-2.4-1.6-2.2.7 4.1 1.6 4.1 2.3-3.9 1.5-4.1"></path><path id="Fill-531" class="cactus-cls-4" d="M42.1 80.8c-.7-.3-1.4 1.9-1.5 2.3s-.9-2.5-1.6-2.2.7 4 1.6 4 2.3-3.8 1.5-4.1"></path><path id="Fill-533" class="cactus-cls-4" d="M42.1 84.5c-.7-.3-1.4 1.9-1.5 2.3s-.9-2.5-1.6-2.2.7 4 1.6 4 2.3-3.8 1.5-4.1"></path><path id="Fill-535" class="cactus-cls-4" d="M42.1 87.9c-.7-.3-1.4 1.9-1.5 2.2s-.9-2.4-1.6-2.2.7 4.1 1.6 4.1 2.3-3.8 1.5-4.1"></path><path id="Fill-537" class="cactus-cls-4" d="M42.1 91.5c-.7-.2-1.4 2-1.5 2.3s-.9-2.4-1.6-2.2.7 4.1 1.6 4.1 2.3-3.9 1.5-4.2.3.2 0 0"></path><path id="Fill-539" class="cactus-cls-4" d="M42.1 94.8c-.7-.2-1.4 2-1.5 2.3s-.9-2.4-1.6-2.2.7 4.1 1.6 4.1 2.3-3.9 1.5-4.2.3.2 0 0"></path><path id="Fill-541" class="cactus-cls-4" d="M42.1 98.5c-.7-.2-1.4 1.9-1.5 2.3s-.9-2.5-1.6-2.2.7 4.1 1.6 4.1 2.3-3.9 1.5-4.2.3.2 0 0"></path><path id="Fill-543" class="cactus-cls-4" d="M42.1 101.8c-.7-.2-1.4 1.9-1.5 2.3s-.9-2.5-1.6-2.2.7 4.1 1.6 4 2.3-3.8 1.5-4.1"></path><path id="Fill-545" class="cactus-cls-4" d="M24.3 77.7c-.7-.3-1.4 1.9-1.5 2.2s-.9-2.4-1.6-2.2.7 4.1 1.7 4.1 2.3-3.9 1.4-4.1.3.1 0 0"></path><path id="Fill-547" class="cactus-cls-4" d="M20.9 77.7c-.8-.3-1.4 1.9-1.5 2.2s-.9-2.4-1.6-2.2.7 4.1 1.6 4.1 2.3-3.9 1.5-4.1"></path><path id="Fill-549" class="cactus-cls-4" d="M17.3 77.7c-.7-.3-1.3 1.9-1.4 2.2s-1-2.4-1.6-2.2.7 4.1 1.6 4.1 2.3-3.9 1.4-4.1.4.1 0 0"></path><path id="Fill-551" class="cactus-cls-4" d="M13.8 74.1c-.7-.2-1.4 1.9-1.5 2.3s-.9-2.5-1.6-2.2.7 4.1 1.6 4.1 2.3-3.9 1.5-4.2"></path><path id="Fill-553" class="cactus-cls-4" d="M10.2 70.6c-.7-.3-1.3 1.9-1.4 2.2s-1-2.4-1.6-2.2.7 4.1 1.6 4.1 2.3-3.8 1.4-4.1.4.1 0 0"></path><path id="Fill-555" class="cactus-cls-4" d="M20.9 66.8c-.7-.2-1.4 1.9-1.5 2.3s-.9-2.5-1.6-2.2.7 4.1 1.7 4.1 2.2-3.9 1.4-4.2"></path><path id="Fill-557" class="cactus-cls-4" d="M24.5 66.8c-.7-.2-1.4 1.9-1.5 2.3s-.9-2.5-1.6-2.2.7 4.1 1.6 4.1 2.3-3.9 1.5-4.2"></path><g mask="url(#mask)" id="Group-561"><path id="Fill-559" class="cactus-cls-4" d="M3.3 63.6c-.7-.3-1.3 1.9-1.5 2.3S.9 63.4.2 63.7s.7 4 1.7 4 2.3-3.8 1.4-4.1"></path></g><g mask="url(#mask-2-2)" id="Group-564"><path id="Fill-562" class="cactus-cls-4" d="M3.3 59.9c-.7-.2-1.3 1.9-1.5 2.3S.9 59.7.2 60s.7 4.1 1.7 4.1 2.3-3.9 1.4-4.2.3.2 0 0"></path></g><g mask="url(#mask-3)" id="Group-567"><path id="Fill-565" class="cactus-cls-4" d="M3.3 56.5c-.7-.3-1.3 1.9-1.5 2.3S.9 56.3.2 56.6s.7 4.1 1.7 4 2.3-3.8 1.4-4.1"></path></g><g mask="url(#mask-4-2)" id="Group-570"><path id="Fill-568" class="cactus-cls-4" d="M3.3 52.8c-.7-.2-1.3 2-1.5 2.3S.9 52.7.2 52.9.9 57 1.9 57s2.3-3.9 1.4-4.2.3.2 0 0"></path></g><g mask="url(#mask-5)" id="Group-573"><path id="Fill-571" class="cactus-cls-4" d="M3.3 49.4c-.7-.3-1.3 1.9-1.5 2.3S.9 49.2.2 49.5s.7 4.1 1.7 4 2.3-3.8 1.4-4.1"></path></g><path id="Fill-574" class="cactus-cls-4" d="M17.4 63.6c-.7-.3-1.4 1.9-1.5 2.3s-.9-2.5-1.6-2.2.7 4 1.6 4 2.3-3.8 1.5-4.1"></path><path id="Fill-576" class="cactus-cls-4" d="M17.4 59.9c-.7-.2-1.4 1.9-1.5 2.3s-.9-2.5-1.6-2.2.7 4.1 1.6 4.1 2.3-3.9 1.5-4.2.3.2 0 0"></path><path id="Fill-578" class="cactus-cls-4" d="M17.4 56.5c-.7-.3-1.4 1.9-1.5 2.3s-.9-2.5-1.6-2.2.7 4.1 1.6 4 2.3-3.8 1.5-4.1"></path><path id="Fill-580" class="cactus-cls-4" d="M17.4 52.8c-.7-.2-1.4 2-1.5 2.3s-.9-2.4-1.6-2.2.7 4.1 1.6 4.1 2.3-3.9 1.5-4.2.3.2 0 0"></path><path id="Fill-582" class="cactus-cls-4" d="M17.4 49.4c-.7-.3-1.4 1.9-1.5 2.3s-.9-2.5-1.6-2.2.7 4.1 1.6 4 2.3-3.8 1.5-4.1"></path><path id="Fill-584" class="cactus-cls-4" d="M24.4 63.6c-.7-.3-1.4 1.9-1.5 2.3s-.9-2.5-1.6-2.2.7 4 1.7 4 2.3-3.8 1.4-4.1"></path><path id="Fill-586" class="cactus-cls-4" d="M24.4 59.9c-.7-.2-1.4 1.9-1.5 2.3s-.9-2.5-1.6-2.2.7 4.1 1.7 4.1 2.3-3.9 1.4-4.2.3.2 0 0"></path><path id="Fill-588" class="cactus-cls-4" d="M24.4 56.5c-.7-.3-1.4 1.9-1.5 2.3s-.9-2.5-1.6-2.2.7 4.1 1.7 4 2.3-3.8 1.4-4.1"></path><path id="Fill-590" class="cactus-cls-4" d="M24.4 52.8c-.7-.2-1.4 2-1.5 2.3s-.9-2.4-1.6-2.2S22 57 23 57s2.3-3.9 1.4-4.2.3.2 0 0"></path><path id="Fill-592" class="cactus-cls-4" d="M24.4 49.4c-.7-.3-1.4 1.9-1.5 2.3s-.9-2.5-1.6-2.2.7 4.1 1.7 4 2.3-3.8 1.4-4.1"></path><g mask="url(#mask-6-2)" id="Group-596"><path id="Fill-594" class="cactus-cls-4" d="M3.3 46.2c-.7-.3-1.3 1.9-1.5 2.3S.9 46 .2 46.3s.7 4 1.7 4 2.3-3.8 1.4-4.1.3.1 0 0"></path></g><path id="Fill-597" class="cactus-cls-4" d="M6.8 35.1c-.7-.3-1.4 1.9-1.5 2.3s-.9-2.5-1.6-2.2.7 4.1 1.6 4 2.3-3.8 1.5-4.1"></path><path id="Fill-599" class="cactus-cls-4" d="M6.8 38.9c-.7-.3-1.4 1.9-1.5 2.3s-.9-2.5-1.6-2.2.7 4 1.6 4 2.3-3.8 1.5-4.1"></path><path id="Fill-601" class="cactus-cls-4" d="M13.8 42.1c-.7-.2-1.3 1.9-1.4 2.3s-.9-2.5-1.6-2.2.7 4.1 1.6 4 2.3-3.8 1.4-4.1"></path><path id="Fill-603" class="cactus-cls-4" d="M10.4 42.1c-.7-.2-1.3 1.9-1.5 2.3s-.9-2.5-1.6-2.2.7 4.1 1.7 4 2.3-3.8 1.4-4.1"></path><path id="Fill-605" class="cactus-cls-4" d="M13.8 45.5c-.7-.2-1.3 2-1.4 2.3s-.9-2.4-1.6-2.2.7 4.1 1.6 4.1 2.3-3.9 1.4-4.2"></path><path id="Fill-607" class="cactus-cls-4" d="M21 45.9c-.7-.2-1.4 1.9-1.5 2.3s-.9-2.5-1.6-2.2.7 4.1 1.7 4 2.3-3.8 1.4-4.1"></path><path id="Fill-609" class="cactus-cls-4" d="M17.5 45.8c-.7-.3-1.4 1.9-1.5 2.3s-.9-2.5-1.6-2.2.7 4 1.6 4 2.3-3.8 1.5-4.1"></path><path id="Fill-611" class="cactus-cls-4" d="M24.3 80.8c-.7-.3-1.4 1.9-1.5 2.3s-.9-2.5-1.6-2.2.7 4 1.7 4 2.3-3.8 1.4-4.1"></path><path id="Fill-613" class="cactus-cls-4" d="M24.3 84.5c-.7-.3-1.4 1.9-1.5 2.3s-.9-2.5-1.6-2.2.7 4 1.7 4 2.3-3.8 1.4-4.1"></path><path id="Fill-615" class="cactus-cls-4" d="M24.3 87.9c-.7-.3-1.4 1.9-1.5 2.2s-.9-2.4-1.6-2.2.7 4.1 1.7 4.1 2.3-3.8 1.4-4.1.3.1 0 0"></path><path id="Fill-617" class="cactus-cls-4" d="M24.3 91.5c-.7-.2-1.4 2-1.5 2.3s-.9-2.4-1.6-2.2.7 4.1 1.7 4.1 2.3-3.9 1.4-4.2.3.2 0 0"></path><path id="Fill-619" class="cactus-cls-4" d="M24.3 94.8c-.7-.2-1.4 2-1.5 2.3s-.9-2.4-1.6-2.2.7 4.1 1.7 4.1 2.3-3.9 1.4-4.2.3.2 0 0"></path><path id="Fill-621" class="cactus-cls-4" d="M24.3 98.5c-.7-.2-1.4 1.9-1.5 2.3s-.9-2.5-1.6-2.2.7 4.1 1.7 4.1 2.3-3.9 1.4-4.2.3.2 0 0"></path><path id="Fill-623" class="cactus-cls-4" d="M24.3 101.8c-.7-.2-1.4 1.9-1.5 2.3s-.9-2.5-1.6-2.2.7 4.1 1.7 4 2.3-3.8 1.4-4.1"></path><path id="Fill-625" class="cactus-cls-4" d="M42.1 105.5c-.7-.3-1.4 1.9-1.5 2.3s-.9-2.5-1.6-2.2.7 4.1 1.6 4 2.3-3.8 1.5-4.1"></path><g mask="url(#mask-7)" id="Group-629"><path id="Fill-627" class="cactus-cls-4" d="M38.7 109.2c-.7-.3-1.3 1.9-1.4 2.3s-1-2.5-1.6-2.2.7 4.1 1.6 4 2.3-3.8 1.4-4.1"></path></g><g mask="url(#mask-8-2)" id="Group-632"><path id="Fill-630" class="cactus-cls-4" d="M35.2 109.2c-.7-.3-1.4 1.9-1.5 2.3s-.9-2.5-1.6-2.2.7 4.1 1.6 4 2.3-3.8 1.5-4.1"></path></g><g mask="url(#mask-9)" id="Group-635"><path id="Fill-633" class="cactus-cls-4" d="M31.6 109.2c-.7-.3-1.3 1.9-1.5 2.3s-.9-2.5-1.6-2.2.7 4.1 1.7 4 2.3-3.8 1.4-4.1"></path></g><g mask="url(#mask-10-2)" id="Group-638"><path id="Fill-636" class="cactus-cls-4" d="M28 109.2c-.7-.3-1.3 1.9-1.4 2.3s-.9-2.5-1.6-2.2.7 4.1 1.6 4 2.3-3.8 1.4-4.1"></path></g><path id="Fill-639" class="cactus-cls-4" d="M24.4 105.6c-.7-.3-1.4 1.9-1.5 2.3s-.9-2.5-1.6-2.2.7 4.1 1.6 4 2.3-3.8 1.5-4.1"></path></g></g></g></svg>